<svg xmlns="http://www.w3.org/2000/svg" xmlns:xlink="http://www.w3.org/1999/xlink" viewBox="0 0 168.25 195.68"><defs><style>.cls-1{fill:none;}.cls-2{fill:#4a4a49;}.cls-3{fill:#fff;}.cls-4{clip-path:url(#clip-path);}.cls-5{fill:#00afcb;}</style><clipPath id="clip-path"><circle class="cls-1" cx="84.13" cy="84.13" r="81.54"/></clipPath></defs><title>Fichier 1</title><g id="Calque_2" data-name="Calque 2"><g id="Calque_1-2" data-name="Calque 1"><path class="cls-2" d="M84.13,167A82.83,82.83,0,1,1,167,84.13,82.93,82.93,0,0,1,84.13,167Z"/><path class="cls-3" d="M84.13,2.59A81.54,81.54,0,1,1,2.59,84.13,81.54,81.54,0,0,1,84.13,2.59m0-2.59a84.13,84.13,0,1,0,84.13,84.13A84.22,84.22,0,0,0,84.13,0Z"/><g class="cls-4"><path class="cls-3" d="M147.16,13.53a5,5,0,0,0-.38-1.56l-.51.08-.74,1.86.43.07C146.62,13.77,147.15,13.65,147.16,13.53Z"/><path class="cls-3" d="M152.35,14.94l-3.09-.47,1.62,2.37C152.29,16.42,152.32,16,152.35,14.94Z"/><path class="cls-3" d="M149.25,14.45v0h0Z"/><path class="cls-3" d="M63.42,147.75a1.68,1.68,0,0,0-2.4-1l-.3.1a12.06,12.06,0,0,1-2.5.64c-.95.1-1.9.17-2.85.21l1-.2.8-.16.43-.08L57.41,146l-1.59-.24-2.92-.44a2.31,2.31,0,0,0-1.88.34,1.29,1.29,0,0,0-.33.49c-1.84-1.21-3.9-1-5.89-.81l-.89.08-.12.15-.3.38a2.4,2.4,0,0,1-.46.51,5,5,0,0,1-.67.38,2.82,2.82,0,0,0-1.17.87,22.08,22.08,0,0,0-1.3,2.59c-.18.4-.36.79-.55,1.19a1.25,1.25,0,0,0,0,1.32,1.46,1.46,0,0,0,1.3.54h.3c2.79-.25,5.62-.6,8.06-.91a1.53,1.53,0,0,0,1.12-1c.22-.81.86-.89,2.06-1l.71-.05a20.69,20.69,0,0,0,2.81-.54l1.15-.27.41-.12.26-.08a4.09,4.09,0,0,0,3.08.22,7.37,7.37,0,0,1,1.24-.18c.87,0,1.4-.22,1.65-.62a1,1,0,0,0,0-1ZM45,151.19a.83.83,0,0,1,.32-.06c.76.05,1.51.13,2.27.22A3.06,3.06,0,0,1,45,151.19Z"/><path class="cls-3" d="M79.75,144a11.63,11.63,0,0,0-4.09.28A5.49,5.49,0,0,0,74,145l-.42.24-.68-.66-.29.15-.49.26c-1.06.58-1.76.9-2.66.23-.45-.32-1.44.48-1.53.61a2.2,2.2,0,0,0-.37.83L65,146.38l1.45,2.72,1.11-.33-.9,3.1L68,150.61c1.46-1.46,3.45-1.56,5.55-1.67.73,0,1.48-.08,2.22-.18l-.44,1.06-.16.56,2,.28.16-.14c.18-.16.33-.32.46-.46a2.38,2.38,0,0,1,.3-.29c.53-.07,1.06-.09,1.62-.11.4,0,.79,0,1.18-.06,1.5-.12,1.79-.27,1.88-.63,0-.18.1-.36.15-.54a3.43,3.43,0,0,0,.06-2.64A5.06,5.06,0,0,0,79.75,144Z"/><path class="cls-3" d="M97,21.08l.46.13a3.61,3.61,0,0,1,.8.28c2.12,1.2,4.58,1.37,7.35,1.45h.18c1.17,0,2-.35,2.3-1a1.6,1.6,0,0,0-.35-1.78,4.12,4.12,0,0,0-4-1.57,4.24,4.24,0,0,1-1.3-.11,2.89,2.89,0,0,0-2.89.55.72.72,0,0,0-.26,0l-1.85.55L96.33,20,96.86,21Z"/><path class="cls-3" d="M108.26,143.4a8.66,8.66,0,0,0-2.55-.26h-.57a6.54,6.54,0,0,0-1,.09c-.23,0-.45.07-.68.08-.76,0-1.52.05-2.29.07l-.84,0c-.73-.3-.92-.29-4.36,0l-1.45.1.06,0h-.28l0,.47a2.81,2.81,0,0,1,0,.42,1.45,1.45,0,0,0,.3,1.34,3.47,3.47,0,0,0,1.53.59c.21,0,.43.09.62.15l.36.11.49-.89-.71-.83,1.1.66-.78,1,.89.55,2.12-1.32.76,1.39,3.69-1.81c0,.07,0,.15,0,.22a2.27,2.27,0,0,1,0,.4c0,.26,0,.75.44.79l.41,0a8.68,8.68,0,0,0,2.32,0c.59-.11,1.52-.79,1.55-1.44A2,2,0,0,0,108.26,143.4Z"/><path class="cls-3" d="M94.88,39.4l-.25,1.08,8.06,1.41-.83-5.45-6.78.15.14.56a2.81,2.81,0,0,1,.06.37,1.67,1.67,0,0,0,.46,1.17c.17.15.24.24.27.26a3.86,3.86,0,0,1-.88.36Z"/><path class="cls-3" d="M78.36,38.56a4.21,4.21,0,0,0-.81,2.63c0,.51.55.62,1.52.82l.48.1-.6,1,.63.13a6.32,6.32,0,0,0,1.27.13,4.23,4.23,0,0,0,2.6-.74A1.34,1.34,0,0,0,84,41.57c0-.85-.09-1.71-.16-2.54,0-.36-.06-.72-.09-1.08l0-.48-.48.05c-.21,0-.45.07-.69.12a2.86,2.86,0,0,1-1.11.1A2.47,2.47,0,0,0,78.36,38.56Z"/><path class="cls-3" d="M64.86,129.87a1.85,1.85,0,0,0-1.43-.27l.85-.48-.62-.41c-1.19-.79-2-1.05-2.71-.89a2.49,2.49,0,0,0-1.47,1.32l-.13.23.5.82-.05,0-.65-.45-.86,1-.26-.15h0l-.71-.39.41.84a4,4,0,0,0-2.32,2.49l-.14.3c-.26.55.34.95,1.16,1.49.3.2.64.42.94.66l.61.47.62-3.73q.27.41.57.8l.52.72,1.71-1a3.19,3.19,0,0,0,2.25-.29c1.07-.86,1.58-1.6,1.57-2.26A1.11,1.11,0,0,0,64.86,129.87Z"/><path class="cls-3" d="M88.47,130.85a3.83,3.83,0,0,0,.74.07,4.62,4.62,0,0,0,2-.41,2.9,2.9,0,0,0,1.1-1.18c.11-.18.23-.37.37-.55l.44-.57-.61-.13a1,1,0,0,0,.43-.38,1.3,1.3,0,0,0-.15-1.35,2,2,0,0,0-2.68-.84,9.47,9.47,0,0,1-1.71.36,2.14,2.14,0,0,0-1.91,1.55,2.15,2.15,0,0,1-.33.61l-.42.47,1.88.82C87.58,130,87.85,130.73,88.47,130.85Z"/><path class="cls-3" d="M94,145.75v-.37a1.93,1.93,0,0,0-.64-1.41,2.87,2.87,0,0,0-2.07-.66,7.1,7.1,0,0,0-2.81,1.07l-.45.25c-.45.24-.31.77-.22,1.13a2.35,2.35,0,0,1,.07.32c0,.13,0,.26,0,.4s0,.43.06.65a2.76,2.76,0,0,1,0,.28c0,.38,0,.91.49,1.14a5,5,0,0,0,1.93.56,1.41,1.41,0,0,0,.48-.08A9.06,9.06,0,0,0,93,147.86c.26-.18.52-.36.8-.54l.59-.38L93,146Z"/><path class="cls-3" d="M113.11,128.57a3.37,3.37,0,0,0,1-.13c.47-.16,1-.27,1.51-.4l.79-.19.2,0,.1-.18c1-1.83-.68-3.09-1.56-3.76l-.19-.15-4.23,1.42a1.89,1.89,0,0,0-1.32,1.06,1.4,1.4,0,0,0,.24,1.26C110.14,128.17,111.85,128.57,113.11,128.57Z"/><path class="cls-3" d="M113.46,22.81h.5l.13-.24a2.52,2.52,0,0,0-.22-2.63A4.2,4.2,0,0,0,110,18.21c-.7.07-1.66.16-2,.8a1.09,1.09,0,0,0,.1,1.09C109.13,21.88,111,22.81,113.46,22.81Z"/><path class="cls-3" d="M79.41,57.15a1.71,1.71,0,0,1-1,1.42l-1,.4.94.43.59.29a4.41,4.41,0,0,0,1.25.5h.18a2.57,2.57,0,0,0,1.26-.4.59.59,0,0,0,.26-.4c.13-1,.17-2,.22-3l.08-1.53-.59.13A2.54,2.54,0,0,0,79.41,57.15Z"/><path class="cls-3" d="M94.44,23.31a8,8,0,0,0,2.35-.54l.52-.17-.27-.48a3.13,3.13,0,0,0-5.18-1l-.39.32.36.36C92.9,22.86,93.52,23.31,94.44,23.31Z"/><path class="cls-3" d="M67.81,24.87a3.63,3.63,0,0,0,1.63-.41l.67-.33-3.68-2.72-2,1.22.28.4A3.79,3.79,0,0,0,67.81,24.87Z"/><path class="cls-3" d="M89.8,41.76a2.46,2.46,0,0,0,.62.1h.15c.57-.07,1.13-.17,1.8-.29l1.68-.3-2.57-3-.35.36-.5.5a10.37,10.37,0,0,0-.88.93,2.82,2.82,0,0,0-.4.77c0,.09-.07.19-.11.28L89,41.6l.58.11Z"/><path class="cls-3" d="M82.5,127,81,127l-.11.29-.24.63a16,16,0,0,0-.57,1.68,1.28,1.28,0,0,0,.18.9,2,2,0,0,1,.1.22l.15.45L81,131l.43-.14c.56-.17,1-.3,1.07-.72a12.59,12.59,0,0,0,.06-2c0-.23,0-.46,0-.68Z"/><path class="cls-3" d="M72.11,128.76a1.6,1.6,0,0,1,.14.87,2,2,0,0,0,1.42,2.2L74,132l.41-.74c.12-.23.23-.42.35-.6s.28-.39.43-.58l.57-.75-4.44-1.73Z"/><path class="cls-3" d="M81.21,21.7l-.59-.34a3.83,3.83,0,0,1-.33-.22,1.47,1.47,0,0,0-1.11-.43,4.09,4.09,0,0,0-1.27.61l-.42.26-.6.34,2,1.58Z"/><path class="cls-3" d="M60.06,25.68l2.33-1.23-1.78,0a4.12,4.12,0,0,1-1.48-.19,5.26,5.26,0,0,1,.73-.79l1.05-1L57,22.64l.45,3Z"/><path class="cls-3" d="M88.34,111.36a4.23,4.23,0,0,1-.32.34l-.46.42,1.22.7,2.57-.57.55-1.06-.52-.17c-.16-.05-.33-.12-.5-.19a5.48,5.48,0,0,0-.71-.26l.47-.22a1.16,1.16,0,0,0,.53-.74.87.87,0,0,0-.09-.71,2,2,0,0,0-1.34-.57c-.49-.05-1-.07-1.6-.09l-.94,0-1,0,.62.79.35.46a7.32,7.32,0,0,0,1.26,1.42.57.57,0,0,0,.31.1A5.27,5.27,0,0,0,88.34,111.36Z"/><path class="cls-3" d="M127.77,30.74c.25-.54-.14-1.11-.46-1.49l-.33-.39-2.47,2.57h1.08C126.53,31.42,127.48,31.37,127.77,30.74Z"/><path class="cls-3" d="M90.53,57l1.12-.1c1-.09,1.59-.14,1.91-.57s.18-1,0-1.74l-.2-.89Z"/><path class="cls-3" d="M152.62,157.12a2.29,2.29,0,0,1-1.42-2.7,1.81,1.81,0,0,0-.46-1.3c-1.64-1.84-3.37-3.64-5-5.47a7.84,7.84,0,0,1-1.44-1.87,8.06,8.06,0,0,1-.86-3c-.05-2.13-2-3.8-1.84-6.07s-1-4.68-1.5-7l-.31-1.34.46-.09,1.84,3.64c.07-.16.16-.25.13-.31-1.64-2.77-.36-6.08-2.78-8.77-1.36-1.51-1.77-3.48-2.71-5.21-.45-.84-.95-2.19-1.74-2.3-1.44-.2-.77-.78-1-1.25a6.86,6.86,0,0,0-1.46-1.59c-.3-.28-.8-.44-1.11-.72-1.7-1.49-3.33-3-5.05-4.5a25.86,25.86,0,0,1-2.58-1.9,12.65,12.65,0,0,0-3.29-2.59h-1.21c1.36.65,2.31,1.43,2.38,2.22a27.36,27.36,0,0,0-4.53-2.22H98.2c.1.29.21.58.33.87a4,4,0,0,0,3.95,1.86,8.48,8.48,0,0,0,5-1.81c4.45.44,5.34,1,4.77,3.69-.75-.19-1.78-.21-2-.57-.83-1.09-2.1-1.1-3.64-1,3.62.84,3.39,2.85,2.51,5l1.92.31c-1,.93-1.9,1.73-2.84,2.47-.15.12-.67,0-1.27,0,1.11,2.71,1.52,5.45,3.68,7.68.49.5,1.43,1.23,2,1.14,2.08-.33,3.3.63,4.66,1.3.73.35,1.49,1.13,1.46,1.73a13.86,13.86,0,0,1-1,3.41c.78.94,1.69,1.94,2.46,3,1.62,2.23,3.21,4.48,4.72,6.75a2.35,2.35,0,0,0,2.41,1c1.18-.07,2.36,0,3.54,0l0,.39-8,.49c-.34.63-.42,1.19-.76,1.31a4.25,4.25,0,0,1-1.85,0c-.91-.14-2-.74-2.62-.53-1.82.59-3.56.32-5.34.34-.49,0-1.29.19-1.41.43s.14.79.4,1.12a3.33,3.33,0,0,0,1,.53L112,144a3.53,3.53,0,0,1-1.1-.34c-.43-.36-.67-.85-1.08-1.23-.79-.72-1.68-.62-2.55.3a2.24,2.24,0,0,0,.71.25c1.49,0,1.9.5,1.81,1.57a4.08,4.08,0,0,0,.51,1.71l6.33.47c1.94,1.22,4.69.28,7.48-.18-.12,1.08.72,1.19,1.91,1,.72-.11,1.47-.08,2.2-.16,1.19-.13,1.8.17,1.89,1.09.16,1.63.41,3.26.64,4.89s.49,3,.65,4.46l21.58,0C153.13,157.68,152.88,157.24,152.62,157.12ZM114.18,119c-.1.05-.63-.13-.64-.24-.15-1.14-.24-2.28-.34-3.42l.61-.09c.36,1,.77,2.08,1.06,3.14C114.92,118.51,114.48,118.81,114.18,119ZM133,156.27,133,152h.42l0,4.23Z"/><path class="cls-3" d="M74.39,102.8H55.05l-2.14,1.74a34.25,34.25,0,0,0-4.49.89c-.68.23-1,1-1.53,1.56l2,.56c.09,0,.14.11.27.21a3.22,3.22,0,0,1-.81.44c-3.24.71-4.41,3.17-6.94,4.48a1.13,1.13,0,0,0-.5.89c0,.75-.41,1.07-1.47,1.28-1.93.38-3.21,2.27-2.54,3.55a8.48,8.48,0,0,1,1.53-1.85c.72-.52,1.83-.73,2.62-1.22a5.44,5.44,0,0,0,1.18-1.27l2.6-1a15.45,15.45,0,0,1,1.72,1.43c.16.17-.08.67-.34.88a1.72,1.72,0,0,1-1.16.25c-2-.52-2.65-.22-2.88,1.38l-.83-.51-.65,2.57-2.22-.53c-.08,1.39,2.61,1.79,1.18,3.44a6.43,6.43,0,0,1-1.57-.84,2.23,2.23,0,0,0-1-.6l.59,0,.37,0,.16-1-.85-.43c-.49-.25-1-.51-1.53-.74a1.63,1.63,0,0,0-1.36.07,2.33,2.33,0,0,0-.81,1.24.62.62,0,0,0,.16.51,1.61,1.61,0,0,0,1,.53h.09c.31,0,.62,0,.93,0l-.11,0c-.49.25-.59,1-.81,1.47s-.07,1-.44,1.29c-1.26.93-2.26,1.77-.41,2.81.11.06.07.24.13.35.6,1.14-.64,1.62-1.58,2.21-.6-.93-.6-.93-3.82-.17a15.06,15.06,0,0,1,.7,7.62l-2.65-.34.06-.38,1.8-.09.29-.35a4.46,4.46,0,0,0-1.6-.67c-1.06,0-2,.33-2.17,1.31a14,14,0,0,1-.58,1.79c-.27.82-.59,1.65-.77,2.48-.07.33.15.69.24,1-2.72.46-2.87.71-2.06,2.47s1.62,3.73,2.43,5.6l-.5.27c-1.06-.8-2.09-1.61-3.18-2.39a6.78,6.78,0,0,0-1.22-.53c-.27.34-.8.71-.75,1a30.92,30.92,0,0,0,.85,3.31l-2.59-1.58c-.54,2-.93,3.53-1.42,5.08-.16.5,0,3.26-.46,3.57l23,.16a2.14,2.14,0,0,0-.11-1.2,6.6,6.6,0,0,0-.71-2.13c-.12-.18-1.24-.08-1.86,0-3.25.58-6.09-.29-9-.92a3.86,3.86,0,0,1,1.17-.1c2.63,0,5.07-.15,7-2,1.35-1.26,3.34-2.15,5-3.23a5.45,5.45,0,0,0,.91-.93l-.37-.35a30.42,30.42,0,0,0-3.62,1.5c-2.65,1.52-7.64,2.09-10.13.91,1.57-.05,3.14.11,4.7,0,1.16-.07,2.94-.23,3.32-.76a12,12,0,0,1,3.34-2.65c.85-.57,2-1.17,2.26-1.89a7.52,7.52,0,0,1,4.06-4c1-.46,1.45-1.36,2.69-1.82,1-.37,1.65-1.29,2.63-2.11-2.58-.51-5.13.68-7.27-.49a27.21,27.21,0,0,1,3.44-.17c1.3,0,2.46-.12,2.54-1.35.14-2.11,2.47-3.1,4.34-4.22a23.1,23.1,0,0,1,4.18-1.39,4.12,4.12,0,0,0,.94-.63,3.27,3.27,0,0,0-1-.49c-.89-.1-1.81-.09-2.72-.12l-.12-.39,9.2-4.84-1-.86c5.84-4.54,5.84-4.54,5.48-5.13l-3.86,1.2-.38-.32A11.8,11.8,0,0,0,65,115.77c1.2-1.46,2.34-2.94,3.39-4.46.49-.71.46-1.66,1.09-2.26,1.09-1,2.43-1.93,1.12-3.13A42.62,42.62,0,0,0,74.39,102.8ZM51.84,113.22l-1.56-2.81C52.51,111.07,52.9,111.79,51.84,113.22Zm.72-3.73c-2-.39-1.45-2.45,1.41-4.53l-1,2.17.47.16a6.86,6.86,0,0,1,.83-1,8,8,0,0,1,1.17-.71c.18.35.56.72.49,1.05a5.73,5.73,0,0,1-.75,1.48C52.34,108,51.92,108.23,52.56,109.49Zm1.89,11-.18-.58c.75-.19,1.49-.39,2.25-.55a4.82,4.82,0,0,1,.29.61Zm8.27-4.86-.4.1-.86-1.25,1.92-.64Z"/><path class="cls-3" d="M87.85,68.62a16.13,16.13,0,0,0-2.07,3.25h1.43a5.43,5.43,0,0,1,2.25-2.11,12.58,12.58,0,0,1-.33,2.11H110.5c-.07-.09-.12-.19-.21-.28a1.24,1.24,0,0,1-.16-.42l.26-.16,1.32.87h.52l3-3.65a8,8,0,0,0,1.37-1.31A29.48,29.48,0,0,0,118.15,64a17,17,0,0,0,1.16-2.37c.39-1.2.62-2.43.91-3.64l.49.33c.56-.21,1.35-.31,1.63-.63.85-1,1.48-2.07,2.23-3.11.33-.46.76-.88,1.15-1.31l.47.19-.24.83.47.23c.51-.5,1.52-1.07,1.44-1.49-.21-1,.57-1.45,1.51-1.91.33-.16.79-.29.95-.52.94-1.4,1.9-2.8,2.69-4.24,1.14-2.08.9-4.41,2.54-6.41.22-.26,0-.73-.05-1.09-.14-.67-.34-1.34-.51-2a8.89,8.89,0,0,1,1.25,1.49,1.12,1.12,0,0,0,1.69.47,8,8,0,0,0,1.73-1.59,6.64,6.64,0,0,0,.72-1.06,14.7,14.7,0,0,1,1.05-1.65c.9-1.07.62-2.47,2.41-3.34,2-1,2.61-3,1.57-4.05,1.9-1.44,1.86-1.5-1.54-3.25l4.06,0a12.08,12.08,0,0,0,1.33-2,5.12,5.12,0,0,0,.42-2.34c-.07-.78-.65-1.52-.73-2.3a14.11,14.11,0,0,1,.3-2.8l-3.73-.56c0,.08-3.94-1.85-4-1.77s-2.38.88-2.22.83h0l-5.54-.83c.32.64,1.13,1.13,1.78,1.74a5.16,5.16,0,0,1-.56.22,18.65,18.65,0,0,0-4,1.39c-1.52,1-3.26.34-4.76.89-.12,0-.36-.12-.55-.18-.54-.17-1.13-.55-1.61-.48-1.93.31-3.83.76-5.73,1.16l.07.38,4.39-.34c-2.53,1.59-6,.54-8.16,2.4l.18,2.36c1.41.2,2.81.45,4.24.59.75.07,1.85-.29,2.25,0,1.55,1,3.55.64,5.29.83a24.37,24.37,0,0,0,5.17-.52l-.17.87,8.15-2.27c.31,1-.38,1.69-1.8,1.48-2.73-.4-4.32.76-5.77,2.12a1.34,1.34,0,0,0-.31,1.51c.67.86.24,1.3-.74,1.73s-2.05,1-1.35,2.09l-1.49.09.91,1.26c-2.45.08-3.85,1.11-3.85,2.89.7,0,1.41,0,2.12,0s1.37-.2,2.06-.31l.19.55c-.59.17-1.17.36-1.77.51a9.11,9.11,0,0,0-2.3.56,31.77,31.77,0,0,0-3.08,2.4l2.49.72c-1,.39-1.79.62-2.45.94s-1.24.73-1.91,1.14l.32,1.38-3.33,2.94-.56-.2,4.18-6.62-.35-.12-3.44,2.68-.41-.26a1.54,1.54,0,0,1,.22-.55c.59-.65,1.21-1.28,1.84-1.91a.58.58,0,0,1,.38-.15c1.11.33,1.1-.39,1-.71-.56-1.28.5-1.42,1.77-1.5a7.77,7.77,0,0,0,1.18-.14c1.29-.28,1.18-1,1.09-1.75-.11-.88-.94-.64-1.65-.47-1.25.29-2.47.68-3.72.93-1.58.32-3.19.55-4.79.8-1.21.19-1.83.63-1.55,1.57,0,0-.11.12-.22.23l-.51-.53-5.81-.09a25.84,25.84,0,0,0,.47,2.8.45.45,0,0,0,0,.08l-2.73-.58-.91,2.14,1.64.5,2.1-1.9a2.51,2.51,0,0,0,.86.48,8.23,8.23,0,0,0,4.67.18,1.91,1.91,0,0,1,1,.1c1,.33,1.89.71,3,1.12-.76,1.42-1,3.15-3.55,4a4,4,0,0,0-3,3.24,3.13,3.13,0,0,0,.35,1.15,9,9,0,0,0,2-.77c.43-.31.55-.85.81-1.29.17,2.54-2.53,3.77-4.33,5.42l-.5-.15.86-2c-3.18.74-5.49,2-5.27,4.83.08,1-.87,1.27-2.29.86-2-.6-2.86-.21-3.69,1.36a19.71,19.71,0,0,1-2.15,2.65c-.42.53-.78,1.09-1.17,1.63l.41.2a8.08,8.08,0,0,0-2.12,1A69.53,69.53,0,0,0,87.85,68.62Zm45.92-47.24a18.4,18.4,0,0,1-2,1.16c-.11-.59-.19-1.19-.33-1.78a14.21,14.21,0,0,1-.52-1.94c0-.26.43-.56.66-.85a8.29,8.29,0,0,1,.63.72c.41.61.81,1.22,1.19,1.84C133.55,20.82,133.9,21.29,133.77,21.38Zm-1-5.08-1.06.87-.53,0c0-.47-.17-1.22.13-1.36a2.4,2.4,0,0,1,2.93.79Zm8.54,8.51.23.43-3.94,1.15,0,.41-.48-.67ZM129.07,39c1.49-.71,2.3-2.27,3.27-3.51.17-.21-.36-.7-.39-1.18,1.61.4,2.22,1.51,3,2.49a5.43,5.43,0,0,0-4.85,2.75c1.89-.21,3,.25,3.23,1.73.3,2-1,3.45-2.74,4.84-.09.07-.58-.12-1.1-.24a16.43,16.43,0,0,0,2.08-1.23c1-.85.91-3.27-.28-3.9a3.69,3.69,0,0,0-2.23.09A9.6,9.6,0,0,0,127,42.18C127.23,40.79,127.29,39.86,129.07,39ZM118,51.09c1.7,1,1,1.93.42,2.89h-.47Zm-3.53-14.18c.61-.13,1.22-.3,1.85-.38a7,7,0,0,1,1.78,0c.15,0,.33.61.17.75C117.36,38.1,114.94,37.72,114.47,36.91Zm-.93,26.68c.13,1.64-1.87,3.89-3.69,4.58Z"/><path class="cls-3" d="M19.78,19.16c.43.2.84.42,1.26.63l-.15.35-2.05.09c-.07.09-.23.21-.22.31.24,2,.36,4,2.11,5.67a5.24,5.24,0,0,1,1.47,2.16,5.74,5.74,0,0,0,4.5,4.19,1.3,1.3,0,0,1,.87.71c.27,1.21.14,2.52,2.28,3a1.35,1.35,0,0,1,.83,1.1c0,.78.43.83,1.4.94a29.38,29.38,0,0,1,4.36,1.14l-.1.4-3.75,1.06C32.1,42,33,43,34.16,44a6,6,0,0,1,1.28,1.24c.88,1.37,1.67,2.77,2.5,4.18l1.85-.71.51.11c-1.67,1.69-.26,2.82.69,4.06.46.6.67,1.31,1.15,1.91a8.72,8.72,0,0,0,2.11,2.13,23.94,23.94,0,0,0,3.6,1.47L46,58.91c.12.31.11.65.34.82a46.48,46.48,0,0,0,5.57,3.93c1.35.73,3,1.07,2.92,2.61a.15.15,0,0,0,.06.11c1,.74,1.85,1.54,2.9,2.21a49.35,49.35,0,0,0,5.28,3.1l.37.17H78.08a16,16,0,0,1,3.2-.37c.22,0,.45-.07.68-.09a1.83,1.83,0,0,0,1.26-.53l-.34.46,1.34.53h.14L89.42,65,88,64.48l-4.67,6.21a1.69,1.69,0,0,0,.22-.95,2.46,2.46,0,0,0-1-2c-2.08-1.15-4.68-1.81-6.09-3.56-.69-.85-1.43-1.08-2-.37A7.71,7.71,0,0,0,72.28,63c-.45,0-1,.55-1.4.81-.22-1.29-1.73-.79-3-.69-3.14.24-5.57-.82-6.5-2.84a3.13,3.13,0,0,1,.67-3.71c-.05.25-.13.5-.2.75a4.14,4.14,0,0,0-.27,2c.29,1.54,1.83,1.87,3.07,2.13a6.1,6.1,0,0,1,1.6.48l.82.46-.82-5.35-3.07-.57-.66-.3a7.81,7.81,0,0,1,1.61-1,1.88,1.88,0,0,0,1.26-2.27c-.21-1.5-.62-3-.75-4.5s-.78-2.16-2.65-2.29a33.51,33.51,0,0,0-4.33.06c-1.4.09-2.79.3-4.16-.81a32.06,32.06,0,0,1,3.27-.06c1.08.1,1.52-.13,1.39-.94a5,5,0,0,1,0-.83,14.71,14.71,0,0,0,1.72,1,1.88,1.88,0,0,0,1.21.09c.24-.12.31-.59.25-.88s-.12-.74-.19-1.1l1.37,1.24.3-.43a3.88,3.88,0,0,1,.28-.33,1.62,1.62,0,0,0,.58-1.19,2,2,0,0,0-.77-1.1,4.48,4.48,0,0,1-.33-.32l-.37-.41-1.33,1.72a2.42,2.42,0,0,0-.2-.37c-.4-.58-1.59-1.45-2-1.33-1.26.4-1.75-.4-2.62-.52a7.88,7.88,0,0,1-1.82-.79l3.17-.37.45-.53a57.28,57.28,0,0,1-5.3-2.51c-1-.58-1.6-1.35-3-.79L51,32.26l-.52-.17L45.8,36.3c-.31-.29-.37-.48-.3-.51,2.16-1,2.35-2.75,3.28-4.21,1.07-1.69.81-2-1.48-2.7a4.76,4.76,0,0,1-.8-.49c3.09-.66,5.66-1.88,9.07-1.63L56.73,25l-3.08-.63a7.18,7.18,0,0,1,1.05-.67,13.71,13.71,0,0,1,1.49-.41c-2.53-2-6.23-.73-8.81-2l0-2-2.11,0a6.45,6.45,0,0,1,0-.73c.08-1,.23-2,.23-3,0-.32-.38-.63-.59-.95-.41.18-.84.34-1.23.54s-.78.48-1.16.72c.06-1.24,2.1-2,1.12-3.45L41.16,13.7c.6-1,1-1.6,1.4-2.22l-7,1.49-4.64-2.74H23.83l-8.62,2c.37.79,1.06,1.57,1,2.37C16.19,16.73,17.53,18.12,19.78,19.16Z"/><path class="cls-3" d="M71.68,93.77c0-4.56,0-9.11,0-13.67a7,7,0,0,1,.1-.84L72,77.75H63.64c-.06.22-.13.46-.21.7a34,34,0,0,1-1.68,4q-.67,1.49-1.36,3c-.68,1.45-1.37,2.91-2.09,4.43-.3-.65-.58-1.22-.85-1.81-1-2.16-2-4.33-3-6.49A18.77,18.77,0,0,1,53,77.75H44.35a15.54,15.54,0,0,1,.27,1.76c.07,1.61.1,3.22.13,4.83,0,1,0,2,0,3s0,1.93,0,2.89-.08,2,0,2.94a14.27,14.27,0,0,1-.11,1.94c0,.39-.1.77-.13,1.15a5,5,0,0,0,0,.52h4.37c0-.26,0-.5-.07-.73a16,16,0,0,1-.24-1.84c0-3.7,0-7.4,0-11.09,0-.13,0-.25,0-.42.1.08.18.11.21.17q.65,1.37,1.28,2.74l3.48,7.55a14.07,14.07,0,0,1,1.27,3.4,1.11,1.11,0,0,1,0,.21h4.5A16,16,0,0,1,59.87,95c.92-2.14,1.87-4.28,2.82-6.41.8-1.8,1.63-3.59,2.45-5.38.09-.2.21-.39.37-.68a1.83,1.83,0,0,1,.19.44c0,.31,0,.62,0,.94-.05,2.39.08,4.78-.1,7.17-.08,1,0,2,0,3a8.06,8.06,0,0,1-.17,2.25.79.79,0,0,0,0,.34H72c0-.19,0-.38,0-.58A23.71,23.71,0,0,1,71.68,93.77Z"/><path class="cls-3" d="M81.32,77.75a4.77,4.77,0,0,0-.24.53c-.16.49-.28,1-.46,1.47s-.49,1.09-.73,1.63c-1.24,2.77-2.46,5.55-3.71,8.31-.93,2.06-1.88,4.1-2.82,6.16a2.13,2.13,0,0,0-.26.88h4.18a21.68,21.68,0,0,1,1.6-4.05h9.06a36.15,36.15,0,0,1,1.59,4.05h6.94c-2.89-6.34-6-12.58-8.73-19ZM80.39,89.6l3-7a54.74,54.74,0,0,1,3.13,6.93A47.2,47.2,0,0,1,80.39,89.6Z"/><path class="cls-3" d="M103.59,88.38c.07-3.45-.24-6.91.26-10.35,0-.09-.05-.19-.08-.26l-.13,0h-6l-.63.05a1.62,1.62,0,0,0,0,.29,21.66,21.66,0,0,1,.38,3.78c0,3.49,0,7,0,10.46a18.55,18.55,0,0,1-.29,4.26.5.5,0,0,0,0,.17H104a17.7,17.7,0,0,1-.39-3.29C103.59,91.76,103.55,90.07,103.59,88.38Z"/><path class="cls-3" d="M126.84,86.24a11.87,11.87,0,0,1-3.32.32H115c-.2,0-.4,0-.59,0a30.05,30.05,0,0,1,0-4.91l.82,0h8.59a10.08,10.08,0,0,1,2.7.28,2.51,2.51,0,0,0,.58,0c0-1.31,0-2.55,0-3.79a.37.37,0,0,0-.15-.32H107.82a.49.49,0,0,0,0,.2,11.08,11.08,0,0,1,.42,3.22c0,4,0,8,0,12a14.73,14.73,0,0,1-.29,3.54h6.62a24.14,24.14,0,0,1-.32-2.88,8.37,8.37,0,0,1,.24-3.21,2.35,2.35,0,0,1,.28,0h9.61a10.48,10.48,0,0,1,1.24.12l1.49.21a28,28,0,0,0,0-4.69A.6.6,0,0,0,126.84,86.24Z"/></g><path class="cls-3" d="M1.31,195.49V178.29H3V186h9.78v-7.76h1.69v5.19q0,1.63,0,3.4t0,3.4q0,1.63,0,3t0,2.22H12.75v-7.88H3v7.88Z"/><path class="cls-3" d="M29.51,195.49q-.48-1.11-1.13-2.72T27,189.35h-6.6q-.7,1.81-1.35,3.42t-1.13,2.72H16.3l1-2.3q.6-1.43,1.3-3.14L20,186.49l1.45-3.55,1.29-3.13q.59-1.42,1-2.31.36.89,1,2.31t1.3,3.13l1.46,3.55L28.91,190l1.29,3.14q.59,1.43,1,2.3Zm-6-13.78q-.48,1.13-1.14,2.77T21,187.92h5.49l-1.37-3.45q-.65-1.64-1.13-2.77a2.43,2.43,0,0,1-.12-.33c0-.15-.09-.29-.12-.42,0,.13-.07.27-.12.42A2.43,2.43,0,0,1,23.48,181.71Z"/><path class="cls-3" d="M45,194.34a10.05,10.05,0,0,1-2,.92,9.22,9.22,0,0,1-3,.43,8.91,8.91,0,0,1-3.6-.7,8.15,8.15,0,0,1-2.72-1.89,8.55,8.55,0,0,1-1.74-2.76,9,9,0,0,1-.62-3.33,8.92,8.92,0,0,1,.7-3.54,8.79,8.79,0,0,1,8.17-5.37,10.3,10.3,0,0,1,1.31.08,8.91,8.91,0,0,1,2.37.64,4.36,4.36,0,0,1,.87.48l-.19.31-.14.25-.17.3-.24.43a5.9,5.9,0,0,0-1.79-.72,8.59,8.59,0,0,0-2-.24,7,7,0,0,0-2.84.58,7.22,7.22,0,0,0-2.3,1.58,7.57,7.57,0,0,0-1.54,2.31,7,7,0,0,0-.57,2.78,7.29,7.29,0,0,0,.51,2.69,6.81,6.81,0,0,0,1.45,2.27,7.2,7.2,0,0,0,2.24,1.57A6.9,6.9,0,0,0,40,194a8.28,8.28,0,0,0,1.35-.11,8.46,8.46,0,0,0,1.2-.29,9.21,9.21,0,0,0,1-.37,3.21,3.21,0,0,0,.66-.39Z"/><path class="cls-3" d="M57.46,195.49Q55.66,193.2,54,191t-3.47-4.47l-.87.84-.89.82q0,1.88,0,3.63t0,3.63H47V178.29h1.81v7.23a3.11,3.11,0,0,1,0,.39l0,.41a3.4,3.4,0,0,1,.23-.29,3.25,3.25,0,0,0,.23-.29Q51.1,183.93,53,182t3.78-3.74h2.12l-3.52,3.58q-1.76,1.8-3.54,3.58,2,2.58,3.88,5t3.86,5Z"/><path class="cls-5" d="M65.91,186.67l-.7-1.07q-.43-.66-.94-1.47t-1.07-1.66q-.57-.86-1.07-1.65l-.94-1.46-.7-1.07h2l.93,1.47,1.18,1.86,1.18,1.87q.57.9,1,1.48l.29.58.29-.58.92-1.48,1.16-1.87,1.16-1.86.92-1.47h2l-5.37,8.46.73,1.13,1,1.53,1.12,1.72L72,192.85l1,1.52.73,1.12h-2l-3.93-6.17q-.17-.24-.42-.69a8,8,0,0,0-.45-.71l-.16.34a1,1,0,0,1-.13.22l-4.34,7h-2l.73-1.13,1-1.54,1.12-1.74,1.11-1.74q.53-.84,1-1.54T65.91,186.67Z"/><path class="cls-3" d="M75.67,195.49V178.29H86.51v1.49H77.3v6.29h8.24v1.54H77.3v6.34h9.54v1.54Z"/><path class="cls-3" d="M89.1,195.49V178.29h1.64v15.64H99.9v1.57Z"/><path class="cls-3" d="M101.78,195.49V178.29h10.84v1.49h-9.21v6.29h8.24v1.54h-8.24v6.34H113v1.54Z"/><path class="cls-3" d="M115.22,195.49V178.29h4.17a7.3,7.3,0,0,1,2.1.3,5.24,5.24,0,0,1,1.79.93,4.64,4.64,0,0,1,1.25,1.57,5,5,0,0,1,.47,2.24,6.07,6.07,0,0,1-.65,2.75,4.35,4.35,0,0,1-2.14,2l.58,1,.79,1.31.9,1.48.9,1.47.79,1.28.58.92h-2l-.51-.79-.7-1.13-.82-1.33-.84-1.37-.78-1.28-.64-1a2.58,2.58,0,0,1-.51,0h-3.11v6.89Zm1.64-8.46h2.55a4.28,4.28,0,0,0,1.93-.39,3.52,3.52,0,0,0,1.22-1,3.46,3.46,0,0,0,.63-1.2,4.31,4.31,0,0,0,.18-1.17,3.4,3.4,0,0,0-.25-1.28,3.45,3.45,0,0,0-.73-1.12,3.55,3.55,0,0,0-1.23-.8,4.57,4.57,0,0,0-1.71-.3h-2.58Z"/><path class="cls-3" d="M140.9,195.49q-.48-1.11-1.13-2.72t-1.35-3.42h-6.6q-.7,1.81-1.35,3.42t-1.13,2.72H127.7l1-2.3q.6-1.43,1.3-3.14l1.45-3.55,1.45-3.55,1.29-3.13q.59-1.42,1-2.31.36.89,1,2.31t1.3,3.13l1.46,3.55L140.3,190l1.29,3.14q.59,1.43,1,2.3Zm-6-13.78q-.48,1.13-1.14,2.77t-1.36,3.45h5.49l-1.37-3.45q-.65-1.64-1.13-2.77a2.43,2.43,0,0,1-.12-.33c0-.15-.09-.29-.12-.42,0,.13-.07.27-.12.42A2.43,2.43,0,0,1,134.88,181.71Z"/><path class="cls-3" d="M152.24,178.29v1.57h-4.58v15.64H146V179.85h-4.53v-1.57Z"/><path class="cls-3" d="M154.49,195.49V178.29h10.84v1.49h-9.21v6.29h8.24v1.54h-8.24v6.34h9.54v1.54Z"/></g></g></svg>