<?xml version="1.0" encoding="utf-8"?>
<!-- Generator: Adobe Illustrator 26.0.3, SVG Export Plug-In . SVG Version: 6.00 Build 0)  -->
<svg version="1.1" id="Calque_1" xmlns="http://www.w3.org/2000/svg" xmlns:xlink="http://www.w3.org/1999/xlink" x="0px" y="0px"
	 viewBox="0 0 448.1 438.6" style="enable-background:new 0 0 448.1 438.6;" xml:space="preserve">
<style type="text/css">
	.st0{fill:#2E3031;}
	.st1{fill:#FFFFFF;}
</style>
<g id="Calque_1-2">
	<path class="st0" d="M20,200.3h408c11.1,0,20,9,20,20v51.4c0,11.1-9,20-20,20H20c-11.1,0-20-9-20-20v-51.4
		C0,209.2,9,200.3,20,200.3z"/>
	<path class="st0" d="M375.6,351.3c-99-28.9-204.1-28.9-303.1,0c-8.6,2.5-15.4-2.3-15.4-11v-44.5c0-8.7,6.9-18,15.4-20.5
		c99-28.9,204.1-28.9,303.1,0c8.6,2.5,15.4,11.8,15.4,20.5v44.5C391,349,384.1,353.8,375.6,351.3z"/>
	<path class="st0" d="M61.4,201.8c4.4,3.5,10.5,3.3,16,3.6s12,1.9,14.2,7.1c1.2,2.8,0.9,6,1.3,9c1.5,9.7,10.8,15.9,19.6,20.2
		c36.2,17.7,77.4,23.1,117.7,20.8s79.6-11.8,118.4-22.7c8.2-2.3,17.9-6.5,18.5-15c0.4-5-3-9.7-7.3-12.4s-9.4-3.7-14.3-4.6
		c-19.8-3.8-40.2-7.6-59.8-2.9c-22.7,5.4-42.1,21.7-65.3,24.3c-26,2.9-50.1-12-74.4-21.7c-18.3-7.3-37.6-11.8-56.9-15.4
		c-6.3-1.2-18.9-6-25.1-4.1c-4.2,1.3-6.5,5.6-5.3,9.8C59.1,199.4,60.1,200.8,61.4,201.8z"/>
	<path class="st0" d="M336.9,93.2c7,5.6,15.2,9.5,22.1,15.2s12.8,13.8,12.5,22.7c1.1-7.5-3.1-15-8.9-20s-12.8-8-19.6-11.5
		s-13.6-7.5-17.8-13.8c6.3,14.9,17.6,27.1,31.9,34.6c7.7,4,16.2,6.6,22.8,12.1c6.6,5.5,11,15.4,6.7,22.9c2.6-5.9,0.3-13.1-4-17.9
		s-10.3-7.8-16.2-10.3s-12.1-4.8-17.2-8.8c8.4,11.3,20.9,18.8,33.3,25.4c3.2,1.7,6.7,3.4,10.4,3.2s7.5-3.1,7.2-6.8
		c0.1,3.6-3.7,6.4-7.4,6.6s-7.1-1.7-10.3-3.4s-6.6-3.5-10.3-3.4c13.7,6.5,26,15.6,36.2,26.8c-10.4-12.5-24.6-21.1-40.4-24.6
		c13.7,9,26.2,19.6,37.5,31.5c-7-7.8-15.5-14.2-25-18.8c6.8,7.7,9.4,18.3,6.8,28.3c-0.4-13.4-10.7-25.9-23.7-28.7
		c8.3,8.9,14.7,19.5,18.8,31l-16.8-27.2l6.8,35.1c0.7,3.5,1.4,7.2,0.1,10.6s-5.1,6.1-8.4,4.7c7.7-4.4,10.3-14.2,5.9-21.9
		c-2.9-5.1-8.4-8.1-14.2-8c3.7,3.1,6.8,7.2,7.6,12s-0.9,10.1-5,12.7S348,205,346,200.6c1.2,4.5,7.8,5.7,11.4,2.8s4.3-8.3,3-12.7
		s-4.4-8.1-7.3-11.6c1.8,7.1,2.2,14.4,1.3,21.6c-2.6-7.8-2.7-16.2-0.4-24.1c1.7-5.6,4.5-10.7,6.3-16.2s2.6-11.8,0.1-17
		c-2.2-4.5-6.4-7.6-10.2-10.9c-15.9-13.5-26.2-32.3-35.3-51c-4.5-9.2-8.8-18.5-13.6-27.6c-2.4-4.5-4.9-9-7.7-13.3
		c-1.9-3.1-8.3-9.4-8.1-12.6c11.1,5.1,19.5,22.6,25.6,32.5C318.3,72.2,325.9,84.4,336.9,93.2z"/>
	<path class="st0" d="M118.6,83.5c-2.8,4.9-5.9,9.9-10.6,12.9c-5.5,3.5-12.3,3.6-18.7,4.9c-14.5,3.1-26.9,12.5-33.9,25.7
		c-0.1-7.9,5.6-14.9,12.5-18.7s14.9-5,22.7-6.2c-9.6,4.5-18,11.1-24.7,19.4c5.6-7.5,13.4-13.1,22.4-16c-10.2,15.9-25.8,27.5-44,32.7
		c-2.6-2.6-0.9-7.9,2.7-8.5c-3.2,0-4.9,4.4-3.2,7s5.4,3.4,8.4,2.5s5.5-3,7.9-5c-12.1,5.6-22.2,14.9-28.7,26.6
		c5.6-11.9,16-20.7,28.6-24.2l-24.7,20.6l20.9-15.8l-27.5,41.7c7.5-15,19.5-27.2,34.3-35.1c-8,15.1-16.1,30.9-16.5,48
		c-0.5-17.2,11.8-33.9,28.3-38.7c-11,7.2-19.3,17.9-23.7,30.3c-2.7,7.8-3.8,16.5-1.6,24.5s8,15.3,15.8,18
		c-8-5.3-13.1-14.2-13.6-23.8c-0.6-12.1,6.1-23.4,13.7-32.9c-9.7,13.9-11.2,31.9-3.8,47.2c-4.2-12.1-2.3-25.4,5.1-35.8
		c4.6-6.2,11.3-11.9,11.7-19.6c0.3-5.9-3.2-11.1-6-16.3s-5.1-11.5-2.3-16.7c3-5.6,10.1-6.9,16.2-8.8c11.5-3.6,21.7-10.7,29-20.3
		c3.4-4.4,17.7-27.4,10.6-31.9C123,74.4,120.9,79.7,118.6,83.5z"/>
	<path class="st0" d="M121.7,205.5c4.1,11.5,10.4,22,18.4,31.2c-9.2-7.5-14.2-19-13.5-30.9c7,15.5,18.5,28.5,33.1,37.4
		c-11.3-5.2-18.8-16.2-19.5-28.6c7.2,7.3,13.8,15.2,19.7,23.6l-2.3-11.6c6.2-0.7,12,3.4,16.3,7.9s7.9,9.9,13.2,13.2
		s13.2,3.7,17.1-1.2c-10.9,4.1-23.1-1.3-27.2-12.2c-0.5-1.4-0.9-2.9-1.1-4.4c5-0.2,9.9,1.6,13.5,5c3.5,3.5,5.1,8.9,3.5,13.6
		s-6.8,8-11.6,7c4.2,3.4,11,0.4,13.4-4.5s1.5-10.6,0.3-15.9l15,18.7c-2.7-3.5-4.3-7.7-4.5-12.1c5.2,0.1,9.6,4,10.3,9.2
		c6.6-4.2,11.7-10.4,14.7-17.7c-0.4,13-12,24.6-24.9,25c5,2.2,11,0.6,15.5-2.7s7.6-7.9,10.7-12.4l12.6-18.6
		c2.6-3.9,5.9-8.1,10.6-8.6c5.1-0.4,9.4,4.1,10.9,9c2.1,7.1-0.3,15.1-5,20.9s-11.5,9.6-18.5,12.1c15.2-1,26.6-14.1,25.6-29.3
		c-0.1-2.2-0.5-4.3-1.2-6.4c3.6,2.2,5.7,6.1,5.6,10.3l-2.9-16.4c11,8.1,24.4,12.2,38.1,11.6c-6.5,0.1-13.3-0.5-19-3.7
		s-10.2-9.3-9.8-15.8c2.5,5.7,6.8,10.3,12.2,13.4l-0.6-9c3.1,1.6,5.7,4.2,7.3,7.3c3.1-6.6,4.3-13.9,3.5-21.1
		c5.6,5.8,7,14.4,3.6,21.6c4.8-8.1,4.7-18.2-0.2-26.3c6.3,5.7,8,14.9,4.2,22.5c5.5-7,5.9-16.7,0.9-24.1c3.7-1.8,7.9-3.1,12-2.6
		s8.1,3.2,9.2,7.1s-1.7,8.9-5.8,9.1c5.7-1.7,8-10.4,3.3-14.1c-1.9-1.5-4.3-2-6.7-2.3c-8.1-1-16.4-0.4-24.3,1.7
		c-2.9,0.8-6.1,1.8-8.9,0.8c-2.7-1-4.3-3.6-6.3-5.8c-7.1-7.9-19.2-9.3-29.6-7s-19.7,7.7-29.5,11.8c-25.4,10.7-53.7,12.8-81.1,10.5
		c-6.6-0.6-13.5-1.4-19.8,0.9c-5.5,2-9.9,6-12.4,11.2c3,0.8,5.9-1.8,7.3-4.5s1.8-5.9,3.5-8.6s5.2-4.6,7.8-3"/>
	<path class="st0" d="M219.9,3.9c0,0,0.4-8.7-25.8,0c-28.2,9.4-51,24.8-71.1,64.2c-14.8,28.9-32.5,37.4-55.4,57.3
		c-20.5,17.8-32.2,56-34.5,66.7c5.3-6.8,11.6-12.7,18.6-17.6c14.5-9.8,24.5-9.9,24.5-9.9s-25.8,22.7-21.6,40.2
		c3.5,14.8,21.7,20.4,33.7,14.5c10.9-5.3,11.8-17.1,11.8-17.1s-9.2,9.5-16.8,9.5s-15.7-4.2-12.5-14.8s26-15.9,26-15.9
		s-14.1,6.9-15.2,15.9c-0.4,3,1.4,5.9,4.3,6.9c0,0-3.5-6.1,1.3-10.4c5.9-5.4,16.8-6.7,23,0.2c14,15.6,27.6,32.3,64.8,51.7
		c40.3,21-44-35.1-0.6-34.5s47.2,7.9,45,18.5s-17.4,12.7-17.8,7.4c-0.4-4.8,6.4-8.5,6.4-8.5s-12.7,1.3-12.5,10
		c0.2,6.9,7.2,10.2,19.7,9.7s23.9-8.1,26.8-12.8s3.6,7.6,0,11.2s-10.1,5.9-16.7,6.8c0,0,12.5,4.3,23.3,0
		c10.9-4.3,16.5-12.1,19.8-24.8s-1.8-33.6-11.6-50s40.9,64,41.7,35.2c0,0,1-10.7,8.8-17.2c6-5,10.3-7.9,19.1-9.8
		c11.4-2.5,20,1.7,25.9,7c4.8,4.3,1.3,10.4,1.3,10.4c2.9-0.9,4.8-3.8,4.3-6.9c-1.1-8.9-15.2-15.9-15.2-15.9s22.8,5.3,26,15.9
		s-4.7,14.8-12.5,14.8s-16.8-9.5-16.8-9.5s0.9,11.8,11.8,17.1c12,5.9,30.1,0.3,33.6-14.5c4.2-17.5-21.6-40.2-21.6-40.2
		s10,0.1,24.5,9.9c7,5,13.3,10.9,18.6,17.7c-2.2-10.6-20.6-44.1-43.4-59c-16.7-10.9-31.7-36-46.5-64.9
		c-20.1-39.4-42.9-54.8-71.1-64.2C219.4-4.8,219.9,3.9,219.9,3.9"/>
	<path class="st1" d="M314.3,103.8c0,53.2-43.1,115.6-96.4,115.6s-96.4-62.3-96.4-115.6c0-16.5,4.2-32.6,12.2-47
		c16.5-29.5,48-17.8,84.2-17.8c36.6,0,68.4-11.2,84.8,18.8C310.3,72,314.3,87.8,314.3,103.8z"/>
	<path class="st0" d="M217.9,220.2c-25.1,0-49.5-13.5-68.8-38.1c-17.8-22.7-28.4-51.9-28.4-78.2c0-16.6,4.2-32.9,12.3-47.4
		c12.9-23.1,35-21.3,60.6-19.4c7.8,0.6,15.9,1.2,24.2,1.2c8.1,0,16-0.6,23.6-1.1c26.2-1.8,48.9-3.5,61.8,20.3
		c7.7,14.2,11.7,30.1,11.7,46.3c0,26.3-10.6,55.6-28.4,78.2C267.4,206.7,243,220.2,217.9,220.2z M173.3,37.5
		c-16.6,0-29.8,3.6-38.8,19.7c-8,14.3-12.1,30.3-12.1,46.6c0,52,42.7,114.8,95.6,114.8s95.6-62.8,95.6-114.8
		c0-15.9-4-31.6-11.5-45.6c-12.4-22.9-33.6-21.4-60.3-19.5c-7.6,0.5-15.6,1.1-23.8,1.1c-8.4,0-16.5-0.6-24.3-1.2
		C186.4,38.1,179.6,37.5,173.3,37.5z"/>
	<path class="st0" d="M146.4,177l12.6-4.5l-6.3,11.2l6.4-4.5l-2.5,16.8l5.9-13.6c0,0,5.3-4,3.8,4.5c-1,5.3-2.4,10.4-4.2,15.5
		l7.7-14.9c0,0,3,9.9,1.7,14.9s1.5-9.6,8-10.6s5.7,1.3,5.7,1.3v15.2l5.1-15.2c2.3-1.5,5.2-1.5,7.5,0c3.9,2.7,6,17.6,6,17.6l2.3-7.2
		l5.1,11.4c0,0,4.2-16.8,3.8-18.9s0.6,3.5,1.2,9s5.5-9.6,7-11.3s-1.4,19.8-1.4,19.8l5.8-15.7c0,0-1.3,4.8,2.6,10.6s7.1,6.4,7.1,6.4
		s-5.6-6.6-5.6-13s4.7-8.1,4.7-8.1l9.9,10l-2.3-11.7c3.9,1.4,7,4.7,8.1,8.7c2.1,7,1.7-1.3,1.9-5c0.2-1.8,0.2-3.6,0-5.4
		c0,0-3.1-3.4,3.1,2.7s9,4,9,4s-1,0.7-4.1-3.3s0-5.8,0-5.8l6.7,5.1l-1.4-8.5l11.6-0.6l-4.5-4.8l12.1,3.1l-7.6-8.3l4.2,2.1l-0.8-5.7
		l12.2,9.9c0,0,7.8,9.6,1,14.1s-38,46-49.3,47.1s-62.1,0.8-76.8-9.1s-30.8-33.3-30.8-33.3L146.4,177z"/>
	<path class="st0" d="M192.3,86.4c0,0,6.4,1.3,7.2-2.8s-14.4-20.8-16.3-21.2s-17.5,5.9-19.2,8.2s-2.4,7.1-0.3,10.8s2.1,1,2.1,1
		s-2.1-4.8,0-8s-3.1,1.9,2.7,9.6s-8.9,10.6-8.9,10.6l-17.6,4c0,0-6.4,10.3-4,16.6s5.6-0.7,10.3,0.4s11.4,5.3,11.4,5.3l8,2.2
		c0,0-7.3,4.5-8,9.4c-0.5,2.9-0.5,5.8,0,8.7c0,0-2.3-0.3-7-0.5s-11.2-4-17.8-8.2s-16.1-15.5-16-22.8s0.6-22.1,2.8-24.2
		s20.2-33,31-35.6s29.6-1.6,32.1-0.8s5.7-2.5,11.8,2.4s18.1,27.1,14.1,32.4s0.8,10.8,0.8,10.8s-2.4,26.5-7.5,24.7s-2.9-9.5-5.6-14.3
		s-5.8-16.7-5.8-16.7L192.3,86.4z"/>
	<path class="st0" d="M152.5,140.6c3.3-0.1,5.3,0.2,8.1,4.2c2.4,3.8,5.5,7.1,9.2,9.6c5,3.7,11,8.8,22,7s15.5-3.3,21.9-4.2
		s8.9-0.4,15.7,1s11.9,4.3,22.3,4.6s22.9-13.3,25.5-18.4s12-6.5,13.9-6.5s-3.7-1.1-7.9-0.6s-8.4,5-13.7,8.8c-2.8,2-6,4.2-10.2,4
		c-4.6-0.3-9.2-1.7-13.2-4c-3-1.9-3.3-6.5-5.2-3.1s-13.9,10.1-21.2,10.7s-11.7,2-17.8-2s-10-10.8-11.3-9.9s-6.2,6.2-9.6,6.9
		s-6.6,2.2-10.4,1.3c-2.6-0.8-5-2.1-7-4c0,0-2.2-3.7-4-5S152.5,140.6,152.5,140.6z"/>
	<path class="st0" d="M193.6,112.9c1.6,1.3-10.5,6-12.2,6.4c-5.9,1.2-11.9,1.4-17.9,0.4c-1.6-0.3-11.8-5.1-11.8-5
		c-6.3,2.7,11.3,8.7,11.3,8.7c1,0.2,2.8,5,2.9,5.2c0-2.5,0.6-1.2,1.7-5.2c1.5,0,1.6,7.5,1.3,9.4c0-0.2,1.5-8.5,3.1-9.3
		c0.6,0.8,0.7,3.2,0.7,4.3c0.1,0,0.1,0.1,0.1,0.4c-0.2,0.5,1.9-4.8,1.9-4.8c2.2,0,2.8,7.2,4,9.2c0,0.2-1.7-8.3-0.8-9.3
		c1.7,0.2,1.6,2.2,2.3,4.4C180.6,125,196,114.8,193.6,112.9z"/>
	<path class="st0" d="M129.1,78.4c0,0-10.4,6.6-4.4,14.7s11,5.9,11,5.9l2.3-1.4c-2-0.2-3.9-0.6-5.8-1.2c-2.4-0.8-8.1-5.6-8-8.7
		s0.6-4.6,2.5-6.3C127.7,80.7,128.5,79.7,129.1,78.4z"/>
	<circle class="st1" cx="253.6" cy="115.3" r="3.9"/>
	<path class="st1" d="M215.4,156.8c-2.8,0-8.2-0.2-12.1-1.7s-8.4-5.5-13.2-10.3c-0.2,0.4-0.4,0.7-0.6,1.1c-0.3,0.5-3.8,5.5-14.7,6.4
		c-0.4,0-0.9,0.1-1.3,0.1c-8.2,0-15.4-7.1-16.1-15.8c-0.5-7.2,3.9-16.3,18.2-18.3c1.2-0.2,2.3-0.3,3.5-0.3
		c10.1,0,13.5,7.3,16.5,13.8c3.6,7.6,6.9,14.8,20.5,14.8s17-7.2,20.5-14.8c3-6.5,6.4-13.8,16.5-13.8c1.2,0,2.3,0.1,3.5,0.3
		c14.2,2.1,18.7,11.2,18.1,18.3c-0.6,8.7-7.9,15.8-16.1,15.8l0,0c-0.4,0-0.9,0-1.3-0.1c-10.2-0.9-13.9-5.4-14.6-6.4
		c-0.2-0.2-0.3-0.5-0.4-0.7c-0.4,0.5-0.8,0.9-1.3,1.3l-0.5,0.5c-2.5,2.3-6.6,6.1-12.6,8.1C223.9,156.4,219.6,156.9,215.4,156.8z"/>
	<path class="st0" d="M253.1,121.1c1,0,2,0.1,3,0.2c23.8,3.5,16.5,27.9,2.5,27.9c-0.3,0-0.7,0-1-0.1c-9.6-0.8-12.3-5-12.3-5
		s-1.5-1.9,1.3-4c0.7-0.6,1.7-1,2.6-1.1c0.7,0,1.3,0.2,1.8,0.7c0,0,2.9-5.1-0.7-5.1c-0.2,0-0.4,0-0.6,0c-4.4,0.6-8.4,7.4-10.8,9.6
		s-6.2,6-12,7.9c-3.8,1.1-7.7,1.6-11.6,1.5c-4.2,0-8.4-0.5-11-1.5c-5.3-2-14.1-11.7-17.2-15c-1.8-1.9-2.5-2.1-3.3-2.1h-0.8
		c-0.5,0-1-0.1-1.4-0.2c-0.2,0-0.3-0.1-0.5-0.1c-2,0-1.7,3.8-1.7,3.8s6.2,1.4,7.5,2.5s0,3,0,3s-2.7,4.2-12.3,5c-0.3,0-0.7,0.1-1,0.1
		c-14,0-21.3-24.4,2.5-27.9c1-0.2,2-0.2,3-0.2c18.1,0,8.9,28.6,37,28.6S235,121,253.1,121.1 M253.1,114.7c-12.1,0-16.3,9-19.4,15.6
		c-3.5,7.6-6.1,13-17.7,13s-14.1-5.4-17.7-13c-3.1-6.6-7.3-15.6-19.4-15.6c-1.3,0-2.6,0.1-3.9,0.3c-16.4,2.4-21.4,13.2-20.8,21.7
		c0.8,10.5,9.2,18.7,19.2,18.7c0.5,0,1,0,1.6-0.1c8.4-0.7,13-3.7,15.3-5.9c4.2,4,8.2,7.2,11.8,8.5c4.4,1.6,10.1,1.9,13.2,1.9
		c4.6,0.1,9.1-0.5,13.6-1.8c5-1.8,9.5-4.6,13.2-8.3c2.4,2.1,7,4.9,15,5.6c0.5,0,1,0.1,1.5,0.1c10,0,18.5-8.2,19.2-18.7
		c0.6-8.5-4.5-19.3-20.8-21.7C255.8,114.8,254.4,114.7,253.1,114.7L253.1,114.7z"/>
	<path class="st0" d="M262.1,131.5c-1.9-1.9-3-2.7-7.5-1.2s-8.6,4.8-16,12.4s-11.1,10.3-21.3,10.4h-2.2c-10.3,0-14-2.8-21.3-10.4
		s-11.5-11-16-12.4s-5.6-0.6-7.5,1.2c-1.6,1.8-2.2,4.3-1.9,6.6c0.3,2,3,4.5,3,4.5s2.9,2.4,5.9,2.3s4.6-1.5,6.4-3.9s-0.9-3.8,1-4.2
		s3.8,3,5.9,5.4c4,4.4,12,11.6,19.1,12c1.1,0.1,1.9,0.1,2.6,0.1h9.3h-0.1l1.2-0.1c7.1-0.4,15.1-7.5,19.1-12c2.1-2.4,4-5.8,5.9-5.4
		s-0.7,1.7,1,4.2s3.4,3.9,6.4,3.9c3,0.1,5.9-2.3,5.9-2.3s2.7-2.5,3-4.5C264.4,135.8,263.7,133.4,262.1,131.5z"/>
	<path class="st0" d="M254.2,178.8c-9.8,0-15.4-2.3-20.9-4.5c-4.4-1.8-8.5-3.4-14.4-3.7c-5.8,0.3-9.9,2-14.3,3.7
		c-5.5,2.2-11.1,4.5-20.9,4.5c-1,0-2.1,0-3.3-0.1c-6.6-0.3-10.8-3.2-14.2-5.5c-1.9-1.3-3.6-2.4-5.2-2.6h-0.4
		c-1.2,0.1-2.4,0.3-3.5,0.6c-2,0.6-4.1,0.9-6.2,1c-4.9,0-9.1-2.4-12.7-7.2c-3.5-4.6-4.8-8.9-3.8-12.8c1.4-5.7,6.8-8.4,7.1-8.5
		c1.8-0.8,3.6-1.2,5.6-1.3c3.2,0,6.4,1.6,10,5.1c1.9,1.9,3.6,3.9,5.1,6c4.7,6.2,10,13.1,22.1,15c2.5,0.4,5,0.6,7.5,0.6
		c7,0,13.9-1.6,20.2-4.6c0.7-0.3,1.3-0.6,2-0.8c1.2-0.3,2.4-0.5,3.6-0.5c0.5,0,1,0,1.4,0.1c0.5-0.1,1-0.1,1.4-0.1
		c1.2,0,2.4,0.2,3.6,0.5c0.7,0.2,1.3,0.5,2,0.8c6.4,2.9,13.3,4.5,20.3,4.5c2.5,0,5-0.2,7.5-0.6c12.1-1.9,17.5-8.9,22.1-15
		c1.5-2.1,3.2-4.1,5.1-6c3.7-3.5,6.8-5.1,10-5.1c1.9,0.1,3.7,0.5,5.5,1.2c0.3,0.1,5.8,2.9,7.1,8.5c0.9,3.9-0.3,8.3-3.8,12.8
		c-3.7,4.9-7.9,7.2-12.8,7.2c-2.1-0.1-4.2-0.4-6.2-1c-1.2-0.3-2.3-0.5-3.5-0.6h-0.4c-1.6,0.2-3.2,1.3-5.2,2.6
		c-3.4,2.3-7.5,5.1-14.2,5.5C256.3,178.8,255.2,178.8,254.2,178.8z"/>
	<path class="st0" d="M291,143.1c1.8,0.1,3.6,0.5,5.2,1.2c0,0,13.3,6.5,3,20.1c-4.2,5.5-8.4,6.9-12.1,6.9c-3.9,0-7.4-1.6-9.8-1.6
		c-0.2,0-0.4,0-0.5,0c-4.6,0.5-8.9,7.6-19.3,8.1c-1.1,0-2.2,0.1-3.2,0.1c-17.5,0-21.8-7.5-35.3-8.2c-13.4,0.7-17.8,8.2-35.3,8.2
		c-1,0-2.1,0-3.2-0.1c-10.4-0.5-14.7-7.6-19.3-8.1c-0.2,0-0.4,0-0.5,0c-2.4,0-5.9,1.6-9.8,1.6c-3.8,0-7.9-1.4-12.1-6.9
		c-10.4-13.7,3-20.1,3-20.1c1.7-0.7,3.4-1.1,5.2-1.2c2.6,0,5.5,1.1,9.5,4.9c6.8,6.5,10.9,18.7,27.7,21.3c2.5,0.4,5.1,0.6,7.7,0.6
		c12.4,0,20.3-4.8,22.5-5.4c1.1-0.3,2.2-0.5,3.4-0.5c0.5,0,1,0,1.4,0.1c0.5-0.1,1-0.1,1.4-0.1c1.1,0,2.3,0.2,3.4,0.5
		c2.2,0.6,10.1,5.4,22.5,5.4c2.6,0,5.1-0.2,7.7-0.6c16.8-2.6,20.9-14.8,27.7-21.3C285.6,144.2,288.5,143.1,291,143.1 M291.1,141.5
		c-3.4,0-6.7,1.7-10.5,5.3c-1.9,1.9-3.6,4-5.2,6.1c-4.6,6.1-9.8,12.9-21.6,14.7c-2.5,0.4-4.9,0.6-7.4,0.6c-6.9,0-13.7-1.6-19.9-4.5
		c-0.7-0.3-1.4-0.6-2.1-0.9c-1.2-0.4-2.5-0.5-3.8-0.5c-0.5,0-1,0-1.4,0.1c-0.5-0.1-1-0.1-1.4-0.1c-1.3,0-2.6,0.2-3.8,0.5
		c-0.7,0.2-1.5,0.5-2.1,0.9c-6.2,2.9-13,4.4-19.9,4.5c-2.5,0-5-0.2-7.4-0.6c-11.8-1.8-17-8.7-21.6-14.7c-1.6-2.2-3.3-4.2-5.2-6.1
		c-3.8-3.6-7.2-5.3-10.6-5.3c-2,0.1-3.9,0.5-5.8,1.3h-0.1H141c-0.2,0.1-6,3-7.5,9c-1,4.2,0.3,8.7,3.9,13.5c3.9,5.1,8.2,7.6,13.4,7.6
		c2.2-0.1,4.3-0.4,6.4-1c1.1-0.3,2.2-0.5,3.4-0.6h0.4c1.4,0.2,3,1.2,4.8,2.5c3.3,2.2,7.7,5.3,14.6,5.6c1.1,0.1,2.2,0.1,3.3,0.1
		c9.9,0,15.7-2.3,21.2-4.6c4.3-1.7,8.3-3.4,14.1-3.7c5.7,0.3,9.8,1.9,14.1,3.7c5.6,2.2,11.3,4.6,21.2,4.6c1.1,0,2.2,0,3.3-0.1
		c6.9-0.3,11.3-3.4,14.6-5.6c1.9-1.3,3.4-2.3,4.8-2.5h0.4c1.1,0.1,2.3,0.3,3.4,0.6c2.1,0.6,4.3,0.9,6.4,1c5.1,0,9.5-2.5,13.4-7.6
		c3.6-4.8,4.9-9.3,3.9-13.5c-1.4-6-7.2-8.9-7.5-9h-0.1h-0.1C295,142,293.1,141.6,291.1,141.5z"/>
	<path class="st1" d="M174.3,175.4c-0.9,0-1.8-0.2-2.7-0.5c-3-0.9-9.5-5.7-9.8-14.6c-0.1-2.9,0.9-5.8,2.9-7.9c1-1.2,2.4-1.9,3.9-2.1
		c0.8,0,1.5,0.4,1.7,1.2c0.5,1.4-0.9,2.4-1.4,2.9c-2.7,2.1-0.8,6.7-0.1,7.7c1.2,2.1,3.8,3.5,4.8,3.5h0.2c1.7-0.1,3.4,0.7,4.6,2
		c0.9,1.3,1.2,2.9,0.7,4.5c-0.4,1.2-1.3,2.3-2.4,2.9C176,175.3,175.2,175.5,174.3,175.4L174.3,175.4z"/>
	<path class="st0" d="M168.7,151.8c0.5,0,0.4,0.4-0.6,1.2c-3.6,2.8-1.4,8.4-0.5,9.8c1.4,2.3,4.4,4.3,6.1,4.3h0.2
		c1.2-0.1,2.5,0.4,3.3,1.3c0.6,0.9,0.8,2,0.5,3c-0.4,1.5-1.8,2.4-3.3,2.4c-0.8,0-1.6-0.2-2.4-0.5c-2.5-0.7-8.3-5-8.5-13.1
		C163.3,154.4,167.6,151.8,168.7,151.8 M168.7,148.6L168.7,148.6c-1.9,0.2-3.7,1.1-5,2.6c-2.3,2.4-3.5,5.7-3.4,9
		c0.3,9.9,7.4,15.1,10.8,16.1h0.1c1,0.3,2,0.5,3.1,0.5c1,0,2.1-0.2,3-0.7c1.5-0.8,2.7-2.1,3.2-3.7l0,0l0,0c0.6-2,0.3-4.2-0.9-5.9
		c-1.4-1.7-3.6-2.7-5.8-2.6h-0.2c-1.4-0.5-2.6-1.5-3.4-2.8c-0.3-0.5-2-4.3-0.2-5.7s2.5-3,1.9-4.6
		C171.4,149.5,170.1,148.6,168.7,148.6L168.7,148.6z"/>
	<path class="st1" d="M185.2,176.4c-1.4-0.1-2.7-0.5-3.8-1.3c-2.8-1.6-7.9-7.8-6-16.6c1.3-6.1,6.3-8.2,8.3-8.2
		c0.9-0.1,1.8,0.5,2.1,1.4c0.3,1.6-1.4,2.4-2,2.6c-3.1,1.4-2.3,6.3-2,7.5c0.7,2.3,2.9,4.4,3.8,4.6c1.8,0.3,3.3,1.4,4.1,3.1
		c0.6,1.5,0.5,3.2-0.4,4.5c-0.7,1.1-1.8,1.9-3.1,2.2C185.9,176.4,185.6,176.4,185.2,176.4L185.2,176.4z"/>
	<path class="st0" d="M183.8,152c0.8,0,0.8,0.4-0.6,1.1c-4.2,1.9-3.3,7.8-2.8,9.4c0.8,2.6,3.3,5.3,5,5.6c1.3,0.2,2.4,1,3,2.1
		c0.4,1,0.3,2.1-0.2,3.1c-0.6,1-1.7,1.7-2.9,1.6c-1.1-0.1-2.2-0.5-3.1-1.1c-2.3-1.3-6.8-6.9-5.1-14.8
		C178.1,153.7,182.3,152,183.8,152 M183.8,148.8c-3.2,0-8.5,3-9.9,9.5c-2.1,9.7,3.6,16.4,6.6,18.2l0.1,0.1c1.3,0.9,2.9,1.4,4.5,1.5
		c0.5,0,1-0.1,1.4-0.1c1.6-0.4,3.1-1.4,4-2.9l0,0l0,0c1.1-1.8,1.3-4,0.5-6c-1-2.1-2.9-3.6-5.2-4c-1.2-0.9-2.2-2.1-2.7-3.5
		c-0.2-0.6-0.9-4.7,1.1-5.6c3.1-1.4,3.1-3.4,2.9-4.4C186.9,149.9,185.4,148.7,183.8,148.8L183.8,148.8z"/>
	<path class="st1" d="M264.4,174.4c-0.8,0-1.6-0.2-2.4-0.5c-1.1-0.6-2-1.6-2.4-2.9c-0.5-1.5-0.2-3.2,0.7-4.5c1.1-1.3,2.8-2.1,4.5-2
		h0.2c0.9,0,3.5-1.5,4.8-3.5c0.6-1,2.5-5.6-0.1-7.7c-0.5-0.4-1.9-1.5-1.4-2.9c0.3-0.7,1-1.2,1.8-1.2c1.5,0.2,2.9,1,3.9,2.1
		c2,2.1,3.1,5,2.9,7.9c-0.2,9-6.7,13.8-9.6,14.6C266.3,174.2,265.4,174.4,264.4,174.4z"/>
	<path class="st0" d="M270,150.8c1.1,0,5.4,2.6,5.2,8.4c-0.2,8.1-6,12.4-8.5,13.1c-0.8,0.3-1.6,0.4-2.4,0.5
		c-1.5,0.1-2.9-0.9-3.3-2.4c-0.3-1-0.1-2.1,0.5-3c0.8-0.9,2-1.4,3.3-1.3h0.2c1.7,0,4.7-2,6.1-4.3c0.9-1.4,3.1-7-0.5-9.8
		C269.6,151.3,269.5,150.9,270,150.8 M270,147.7c-1.4,0-2.8,0.9-3.2,2.2c-0.6,1.6,0.1,3.2,1.9,4.6s0.1,5.2-0.2,5.7
		c-0.8,1.3-2,2.2-3.4,2.8h-0.2c-2.2-0.1-4.4,0.9-5.8,2.6c-1.3,1.7-1.6,3.9-1,5.9l0,0l0,0c0.6,1.6,1.7,2.9,3.2,3.7
		c0.9,0.4,2,0.7,3,0.7c1.1,0,2.1-0.2,3.1-0.5h0.1c3.4-1,10.5-6.1,10.8-16.1c0.2-3.3-1.1-6.6-3.4-9.1
		C273.6,148.8,271.9,147.9,270,147.7L270,147.7z"/>
	<path class="st1" d="M253.5,175.4c-0.4,0-0.8,0-1.1-0.1c-1.2-0.3-2.3-1.1-3-2.2c-0.8-1.4-1-3.1-0.4-4.6c0.8-1.6,2.4-2.7,4.1-3.1
		c0.9-0.2,3.1-2.2,3.8-4.6c0.4-1.1,1.1-6.1-2-7.5c-0.6-0.3-2.4-1.1-2-2.6c0.2-0.9,1.1-1.5,2-1.4c2.1,0,7,2.1,8.4,8.2
		c1.9,8.8-3.2,15-5.9,16.5C256.3,174.9,254.9,175.3,253.5,175.4z"/>
	<path class="st0" d="M255,151c1.5,0,5.7,1.7,6.8,7c1.7,7.9-2.9,13.5-5.1,14.8c-0.9,0.7-2,1-3.1,1.1c-0.3,0-0.6,0-0.8-0.1
		c-0.8-0.3-1.5-0.8-2-1.5c-0.5-0.9-0.6-2.1-0.2-3.1c0.6-1.1,1.7-1.9,3-2.1c1.6-0.4,4.1-3,5-5.6c0.5-1.6,1.4-7.5-2.8-9.4
		C254.3,151.5,254.3,151,255,151 M255,147.9L255,147.9c-1.7-0.1-3.2,1-3.6,2.7c-0.2,1.1-0.1,3,2.9,4.4c2,0.9,1.3,5,1.1,5.6
		c-0.5,1.4-1.4,2.7-2.7,3.5c-2.3,0.4-4.2,1.9-5.2,4c-0.8,2-0.6,4.2,0.5,6l0,0l0,0c0.9,1.4,2.4,2.4,4,2.9c0.5,0.1,1,0.1,1.4,0.1
		c1.6-0.1,3.2-0.6,4.6-1.5l0.1-0.1c3.1-1.7,8.8-8.5,6.7-18.2C263.5,150.9,258.1,147.9,255,147.9L255,147.9z"/>
	<path class="st0" d="M334.6,122.5c-1.3-10.9-4.3-21.4-7.4-31.9c-1.2-4.1-13.8-26.6-24.1-36.2l0,0c-4.6-6-10.5-11.1-17.2-14.7
		l-0.7-0.5c-9.1-6.2-19.9-9.2-30.6-11.7c-13.8-3.2-27.9-5.7-42.1-6c-17.8-0.4-35.8,2.8-51.7,10.9c-9.7,4.9-18.3,11.7-25.2,20l0,0
		c-10.6,11.1-24.1,34.1-25.3,38.3c-3.1,10.5-6.1,21-7.4,31.9c-0.8,6.5-0.8,13.3,1.1,19.6s6.1,12.1,12,14.9s13.8,1.9,18.2-2.9
		c2.4-2.6,6.4-3.3,3.8-5.8c3.7-4,7.4-2.9,12.4-1.6c-8.4-3.8,6,1.3,6,1.3c5.1,5.3-5.3-20.4-6-10.6c-11.2-5.9-20.6-12.8-24.3-24.8
		c2.6,6.8,7.4,12.4,13.6,16.1c0.1,0.2,0.3,0.5,0.4,0.7l-0.4-0.7c1.4,0.8,2.9,1.6,4.4,2.2c-2.7-1-5.9-7.9-7.2-10.3
		c-1.6-2.8-3-5.7-4.2-8.7c-2.2-9.1-2.1-18.6,0.2-27.7c0.8,6.8,2.8,13.4,5.8,19.6c-3.7-9.4-2.9-19.9,2.2-28.6
		c5.9,15.4,6.5,32.3,1.6,48.1c6.4-16.7,9.9-34.4,10.2-52.3c2.5,11.4,3.6,23.1,3.4,34.8c5.4-15.7,6.5-32.5,3.3-48.8
		c7.7,9.9,14.5,20.5,20.2,31.6c-1-9.8-3.2-19.5-6.8-28.8c15,7.6,24.7,23.3,28.1,39.7s3.5,26.1-0.4,42.4c6.6-13.6,7.9-15.9,9.4-31
		c1.9,9,2,13.4-0.9,22.1c3.9-8.2,6.4-12.8,8-21.7l-0.5,8.2c8.1-22.7,16.2-45.9,16.1-69.9c12.6,9.7,14.4,45.9,14.4,61.8
		c2.7-9.8,8.1-41.1,4.3-50.5c6.9,8.2,4.8,32,5.4,42.7c1.8-6.1,8.6-26.1,7.7-32.4c3.2,7.4,6.5,14.9,11,21.6s10.7,12.5,18.2,15.6
		c-11.6-8.3-18.7-21.5-19.2-35.8c3.3,7.6,6.6,15.3,11.8,21.7c4.6,5.7,10.9,10.3,18,11.8c-0.8,4.4,7.2-10.3,4.6-6.7
		c2.2-2-5.6,14.6-4,12.2c-1.2,3.1-2.6,6.1-4.2,8.9c-1.4,2.4-4.5,9.2-7.2,10.3c8.3-3.3,14.9-9.9,18.1-18.2
		c-3.8,12.2-12.3,22.4-23.6,28.5c7.4-0.8,14.3-4.2,19.5-9.6c-3.8,8.4-6.1,11.5-14.5,15.3c5-1.3,2.6,3,7,0.3
		c-2.5,2.5,1.1,4.5,3.5,7.1c4.5,4.8,12.3,5.7,18.2,2.9s10.1-8.6,12-14.9S335.4,129,334.6,122.5z M287.8,81.5l10.9,13.8l-3.3-18.9
		c1.2,4.2,3.3,8.1,6.3,11.4c1.5,4.7,3.1,8.9,2.9,14c0,1.2-0.1,2.3-0.3,3.5C295.2,100.5,289,91.6,287.8,81.5L287.8,81.5z"/>
	<path class="st0" d="M160.6,178c0,0,8.5,9.2,21.5,9.8s23.2-3.5,30-4.1s11.5-0.8,19,1.2s10.7,3.1,19.4,2.7s14-1.4,18.1-3.8
		s6.7-4.1,6.7-4.1c-5.8,5-12.5,8.7-19.8,11c-3.4,1-21.4,2.9-32.4,2.9s-25.9,0.5-35.3-1.1s-12.3-2.9-19.3-6.8S160.6,178,160.6,178z"
		/>
	<path class="st0" d="M217.9,189.6c0,0-11.1-1.3-11.6,3.1s-2.9,4.4,0.5,11.9s12.1,14.8,12.1,14.8l-39.8,6.3l-38.2-27.5l9.5-22.2
		l8.1-9.4l6.5,1.9c0,0-2.7,1.2-3.1,5.3s9.9,10.1,18,11.9s28.8-1.3,28.8-1.3L217.9,189.6z"/>
	<path class="st0" d="M154.5,58.9c0,0-33,15.6-31.5,31.1s5.2,37.6,16.6,38.6s21.9-4,26.1-5.8s6-4.2,11.8-3.6s14.7,4.8,19.9,1.8
		s19.4-4,14.9-26.2s-15-49.9-26-49.9S154.5,58.9,154.5,58.9z"/>
	<path class="st0" d="M155.2,146.1l4.8,10c0.3,0.5,0.6,1.1,1.2,1.1s1-0.6,1.1-1.1s0.1-1.1,0.2-1.7c0.3-1,1.3-1.6,2.2-2.2
		s1.7-1.5,1.5-2.6c-0.1-0.4-0.4-0.9-0.7-1.2l-5.8-7.7c-0.7-1.1-1.6-2.1-2.7-2.8c-0.8-0.6-1.8-0.9-2.8-0.8c-1.1,0.3-1.1,1.1-1.1,2.2
		C153.1,141.8,154.1,144.1,155.2,146.1z"/>
	<path class="st0" d="M168.5,160.6c0.6,1.9,1.9,3.5,3.6,4.5c0.5,0.4,1.2,0.6,1.8,0.4c0.9-0.4,1.4-1.4,1.2-2.3
		c-0.1-1-0.6-1.9-0.7-2.9s0.2-2.2,0-3.3c-0.2-1.4-1.1-2.6-2.5-3.1C167.8,152.6,167.6,158.1,168.5,160.6z"/>
	<path class="st1" d="M330.6,198.8c-22.1,0-38.6-10.2-44.4-17.1l-0.4-0.5c-4.2-5-8.1-9.7-8-17.7c0.1-6.1,5.6-11.6,5.8-11.9
		c3.3-2.9,7.5-4.5,11.8-4.5c1.2,0,2.4,0.1,3.6,0.4c4.3,1,10.1,4.9,13.5,13.1c2.5,6.1,15.8,14.8,27.6,16.2c1.4,0.1,2.7,0.2,4.1,0.2
		c4.8,0,28.8-0.9,33.2-18.9c1.2-5.1,2.8-7.4,5-7.4c0.8,0,2.7,0.4,3.3,3.7c1.4,6.8-2.5,28.6-26.8,38.7
		C350,196.7,340.3,198.7,330.6,198.8z"/>
	<path class="st0" d="M295.4,149.1c1.1,0,2.1,0.1,3.1,0.4c4.2,0.9,9.1,4.9,12,11.8s16.8,16,29.3,17.5c1.4,0.2,2.9,0.2,4.3,0.2
		c10.5,0,31-3.2,35.3-20.6c1-4.1,2.1-5.8,3-5.8c3.4,0,3,27-24.3,38.3c-8.7,3.7-18.1,5.6-27.5,5.6c-21.2,0-37.4-10-42.8-16.4
		c-4.2-5-8-9.3-7.9-16.8c0.1-5.3,5.2-10.4,5.2-10.4C288,150.6,291.7,149.2,295.4,149.1 M295.5,144.9L295.5,144.9
		c-4.9,0.1-9.6,1.9-13.3,5.1l0,0l0,0c-0.6,0.6-6.4,6.5-6.5,13.3c-0.1,8.8,4.2,14,8.5,19.1l0.4,0.5c6,7.2,23.2,17.9,46,17.9
		c10-0.1,19.9-2.1,29.2-6c23.7-9.8,30-31.6,28.1-41c-1-5-4.4-5.4-5.4-5.4c-4.9,0-6.4,6.3-7,9c-4,16.5-26.7,17.4-31.2,17.4
		c-1.3,0-2.6-0.1-3.8-0.2c-11.8-1.4-23.9-10-25.9-14.9c-3.1-7.5-8.9-13-15-14.3C298.2,145,296.8,144.9,295.5,144.9L295.5,144.9z"/>
	<path class="st1" d="M108.1,198.7c-9.7,0-19.3-2-28.2-5.7c-24.2-10-28-31.7-26.7-38.4c0.7-3.3,2.5-3.7,3.3-3.7c2.2,0,3.7,2.2,5,7.3
		c4.4,17.9,28.2,18.8,33,18.8c1.4,0,2.7-0.1,4.1-0.2c11.7-1.4,24.9-10,27.4-16.1c3.4-8.1,9.1-12.1,13.4-13c1.2-0.3,2.4-0.4,3.6-0.4
		c4.3,0.1,8.5,1.7,11.7,4.5c0.3,0.3,5.8,5.7,5.8,11.8c0.1,8-3.8,12.6-7.9,17.6l-0.4,0.5C146.5,188.5,130,198.7,108.1,198.7
		L108.1,198.7z"/>
	<path class="st0" d="M143,149.4c3.8,0.1,7.4,1.5,10.3,3.9c0,0,5.1,5,5.2,10.3c0.1,7.4-3.7,11.7-7.9,16.7
		c-5.4,6.4-21.4,16.3-42.5,16.3c-9.4-0.1-18.7-2-27.4-5.6c-27.1-11.2-27.6-38-24.1-38c0.9,0,2,1.7,3,5.7c4.2,17.2,24.6,20.4,35,20.4
		c1.4,0,2.9-0.1,4.3-0.2c12.4-1.5,26.2-10.5,29.1-17.4s7.8-10.8,11.9-11.8C140.9,149.5,141.9,149.4,143,149.4 M143,145.3
		c-1.3,0-2.7,0.2-4,0.4c-6.1,1.4-11.8,6.8-14.9,14.2c-2,4.9-14,13.4-25.7,14.8c-1.3,0.1-2.5,0.2-3.8,0.2c-4.5,0-27-0.8-31-17.2
		c-0.7-2.7-2.2-8.9-7-8.9l0,0c-1,0-4.4,0.4-5.4,5.4c-1.9,9.4,4.4,31,27.9,40.8c9.2,3.9,19,5.9,29,5.9c22.6,0,39.7-10.6,45.7-17.8
		l0.4-0.5c4.2-5,8.6-10.2,8.4-19c-0.1-6.8-5.8-12.6-6.4-13.2l0,0l0,0c-3.6-3.2-8.3-4.9-13.1-5L143,145.3z"/>
	<path class="st1" d="M203.6,103.8c0.4-22-1.8-43.8-4.1-65.7c4.4,17,7.1,34.3,8.1,51.8l-0.4-53.5c2.5,13,4.1,26.1,4.6,39.3
		c2.9-12.5,2.9-25.5,2.9-38.4c1.5,8.3,2.1,16.7,1.9,25.1l0.4-29c0-1.2,0.9-2.8,1.8-2.1l1.8,15.8c-0.7-5.9-0.3-11.9,1.2-17.7
		c1.9,3.1,2.8,6.7,2.4,10.3c0.1-10.6-2-21.1-6.2-30.8c1,4.2,1.3,8.5,1,12.7l-6.4-16.2l-0.1,17.1C210,17.1,208.9,11,209.6,5
		c-2.1,6.5-2.9,13.4-2.4,20.2c-0.7-6.4-0.7-12.9,0-19.4c-3.5,5-5.2,11.1-4.7,17.1c-2.3-5.3-1.7-11.5,1.8-16.1
		c-3.6,3.7-6,8.5-6.9,13.6c-1.2-5.4,1.4-10.8,3.9-15.6c-8.4,4.1-16.5,8.7-24.5,13.7c-12.3,7.7-24.5,17-30.6,30.3
		C157.7,35.8,172,25.7,188,19.2c-12.1,6.4-22.9,14.9-32.1,25c10.5-4.5,20.4-10.1,29.7-16.8L175,43.8c1-1.5,4.7-3,6.2-4.4
		c4-3.8,6.7-8.7,7.9-14.1c0.5-2.5,0-5.6,0.8-7.9c3.1,4.1,4.6,10.7,6,15.5c1.6,5.5,2.9,11,3.9,16.6c1.9,11.5,3,23.1,3.4,34.7
		C203.4,90.7,203.5,97.3,203.6,103.8z"/>
	<path class="st0" d="M233.1,47.4c6.7,10.6,8.8,23.5,5.8,35.8l1-31.7c3.1,11.3,5.2,22.7,6.4,34.3l3.8-38.5
		c0.4,22,9.6,42.9,25.5,58.1c-7.6-4.4-13.2-11.5-15.7-19.9c-1-3.8-1.6-7.8-1.8-11.7l-1.4-15.9c5.2,0,9.9,3.7,12.5,8.2
		s3.4,9.8,3.8,15s0.5,10.4,1.7,15.5l-3.5-36c2.1,8.2,7,16.5,15,19.1c7.2,2.5,12.5,8.7,13.8,16.2c-0.5-9.7-3.1-19.1-7.7-27.7
		c8.3,4.7,15.1,11.6,19.9,19.9c1.7,3,3.1,6.3,3.1,9.8c-0.1,5.2-3.5,9.8-6.7,13.9c-2,2.7-4.3,5.2-6.9,7.4c-2.6,2.2-6,3.3-9.4,3.1
		c7-1.3,14.6-3.1,18.9-8.9c4-5.5,3.6-13.1,2-19.8c-4-16-13.8-29.9-27.5-39c-5.2-3.3-10.7-6.2-16.4-8.6c-8.7-3.9-18.5-7.6-27.6-4.6
		c-4.2,1.4-8.4,5.1-8,9.5c0.9,11.2,0.4,22.4-1.4,33.5c2.2-5.1,2.4-10.8,1.4-16.3s-2.9-10.7-4.9-15.8c6.6,12.2-2.6,28.7,4.2,40.8
		c-5.2-13.8-7.6-28.6-6.9-43.3c0.1-2.2,0.4-4.6,2-6.1c1.4-1,3-1.7,4.7-1.8c8.9-1.6,17.8-3.1,26.8-2.7c3.2,0.2,6.6,0.6,9.2,2.5
		s4.4,5.3,3.3,8.3"/>
	<path class="st0" d="M271.9,212.8c-0.1-2.6,0.9-5.1,2.9-6.8c2-1.6,4.2-3,6.5-3.9l11.1-5.1c3.2-1.5,6.5-3,10-3.2
		c4-0.2,7.9,1.2,11.8,2.3c15.2,4.3,31.5,3.7,46.3-1.7c4.7-1.7,10-4,14.5-1.6c4.3,2.2,5.7,8.1,3.9,12.6s-6.2,7.5-10.9,8.8
		s-9.5,1.3-14.4,1.3l-38.3-0.4c-10.3-0.1-21.4-1.8-31.1,2C279.8,218.7,272.7,219.4,271.9,212.8z"/>
	<path class="st0" d="M360,164.6c0.5,2.2,1.8,4,3.7,5.1c0.4,0.2,0.8,0.4,1.3,0.6c1.7,0.5,3.5,0.4,5-0.4
		C380.3,164.3,358.4,157.5,360,164.6z"/>
	<path class="st0" d="M264,219.5c-1.3,6.2-0.1,12.7,3.3,18.1c0.2,0.4,0.6,0.7,1,0.9c0.9,0.1,1.3-1.1,1.5-1.9
		c1.5-6,9.1-8.6,11.1-14.4c0.9-2.8,0.4-5.9-1.5-8.3C273.5,206.6,265.5,212.3,264,219.5z"/>
	<path class="st0" d="M206.8,197.5c-0.9,2.1-0.3,4.6,0.3,6.8l2.3,9c-4.7-1-8.7-4.2-10.8-8.6c-2-4.5-1.1-9.7,2.1-13.3
		c2.4-2.2,5.4-3.6,8.7-3.9c2.9-0.4,8.6-0.8,11.1,1C217.8,193.2,209.1,191.6,206.8,197.5z"/>
	<path class="st0" d="M228.9,386.4c-32-7.2-59.2-32.5-68.8-63.9l27.4,35c-4.7-9.4-7.4-19.6-8-30.1c0.5,18,9.2,35.1,21.1,48.8
		s26.8,24.2,41.8,34.2c-27.4-10.1-46.1-39.8-43.3-68.9c5.8,15.9,15.2,30.3,27.6,41.8l-4.4-25.3c24.7,36.5,59.9,64.6,101,80.6
		c-31.7-17.2-56-45.4-68.2-79.4c2.4,27.4,31.5,49.2,58.5,43.9c-11.8-0.5-23.8-2.7-34-8.8s-18.3-16.3-19.4-28.1
		c8.1,8.4,17.8,15.1,28.4,19.9c-22.8-12.8-36.9-39.7-34.5-65.8c2.1,14.9,7.7,29,16.2,41.4l-6.3-39.7c-6.1,17.9,0.4,39.4,15.4,50.9
		l-2.6-46.4c2.6,12,8.5,23.1,17.1,31.9l8.5-33c2.7,15,1.9,30.4-2.2,45c6.9-13.8,9.9-29.2,8.7-44.6c2.2,19.9-3.6,39.9-16.2,55.5
		c8.3-12.1,15.7-24.9,21.9-38.1c2.7-5.7,5.1-12.6,2-18c-2.4-4.2-7.4-6.1-12-7.6c-27.9-9.5-56.3-19.1-85.7-21
		c-16.4-1-90.9,5.1-77.2,35.1c6.1,13.3,27.5,25.2,39.4,32.5C195.9,373.7,212,381.1,228.9,386.4z"/>
	<path class="st1" d="M9,256.8c0,0-2.8,3.4-0.7,8.7c1.6,4,16.1,5.5,21.9,7.5c5,1.7,9.2,5.4,10,6.7s3.2,4.9,3.2,4.9
		s-2.4-9.3-6.5-15.4s-6.2-9-10.1-12.4s-6.7-4.7-7.9-5c-1.4-0.5-3-0.4-4.3,0.4C12.3,253.1,10.4,254.7,9,256.8z"/>
	<path class="st0" d="M43.4,286.8c-0.8,0-1.6-0.4-2-1.1c0,0-2.2-3.5-3.1-4.8c-2.5-2.6-5.5-4.6-8.9-5.8c-2.3-0.7-4.7-1.3-7.1-1.7
		c-8.9-1.9-14.8-3.4-16.3-7.1c-1.6-3.5-1.3-7.6,0.9-10.9c1.6-2.3,3.8-4.2,6.4-5.4c1.7-1,3.8-1.2,5.7-0.6l0.3,0.1
		c2.2,0.5,5.4,2.5,8.9,5.6c4.2,3.6,6.4,6.7,10.5,12.8c4.3,6.4,6.8,15.7,6.9,16.1c0.3,1.3-0.4,2.5-1.7,2.9
		C43.8,286.9,43.6,286.9,43.4,286.8L43.4,286.8z M10.8,258.2c-0.1,0.1-1.9,2.5-0.3,6.3c0.8,1.6,9,3.4,12.9,4.2
		c2.6,0.5,5.1,1.1,7.6,1.9c2,0.7,4,1.7,5.8,2.9c-0.5-1.1-1.2-2.1-1.8-3.1c-4.3-6.3-6.1-8.8-9.7-11.9s-6.1-4.3-6.9-4.5l-0.3-0.1
		c-0.8-0.3-1.7-0.2-2.4,0.2c-1.8,0.9-3.4,2.2-4.6,3.9L10.8,258.2L10.8,258.2z M9,256.8L9,256.8z"/>
	<path class="st1" d="M19.5,242c0,0-2.4,4.3,1.1,9.6c2.6,4,18.7,2.6,25.4,3.6c5.8,0.9,9.1,3.2,10.3,4.5c1.8,2.3,3.5,4.7,5,7.2
		c0,0-3.1-11.4-8.8-17.2s-8.6-8.5-13.6-11.4s-8.2-3.8-9.7-3.9c-1.7-0.3-3.4,0.2-4.7,1.3C22.3,237.3,20.6,239.5,19.5,242z"/>
	<path class="st0" d="M61.3,269.3c-0.8,0-1.6-0.4-2-1.1c-1.4-2.4-3-4.6-4.7-6.8c-0.5-0.5-3.2-2.9-9-3.8c-2.7-0.3-5.4-0.4-8.1-0.5
		c-10-0.2-16.7-0.7-19-4.2c-2.4-3.4-2.9-7.9-1.3-11.8c1.3-2.9,3.2-5.3,5.7-7.2c1.7-1.4,3.8-2.1,6-1.8h0.3c2.4,0.1,6.4,1.6,10.8,4.2
		c5.3,3.1,8.3,6,14.1,11.8c6.1,6.2,9.3,17.7,9.4,18.2c0.3,1.1-0.3,2.3-1.3,2.8C62,269.2,61.6,269.3,61.3,269.3z M21.6,243.1
		c-0.1,0.1-1.6,3.3,1,7.2c1.1,1.7,10.6,2,15.1,2.1c2.9,0,5.8,0.2,8.7,0.5c2.5,0.3,5,1.1,7.3,2.2c-0.8-1.3-1.8-2.6-2.9-3.7
		c-6-6-8.5-8.4-13.1-11s-7.6-3.5-8.6-3.6h-0.4c-1-0.2-2,0.1-2.7,0.8c-1.8,1.4-3.3,3.2-4.3,5.2C21.7,242.9,21.6,243,21.6,243.1z
		 M19.5,242L19.5,242z"/>
	<path class="st1" d="M28,226.4c0,0-0.3,5.4,5.5,9c4.5,2.8,13.3-4.1,20.5-6.3c6.1-1.9,10.9-1.2,14.7,1.4c1.6,1.1,9.8,9.4,9.8,9.4
		s-3.2-14.7-13.2-21.5c-7.4-5-13.5-4.2-19.8-4.8s-9.9,0.1-11.4,0.7c-1.8,0.5-3.2,1.8-4,3.5C28.6,220.4,27.9,223.4,28,226.4z"/>
	<path class="st0" d="M78.4,242.3c-0.6,0-1.2-0.3-1.7-0.7c-4-4-8.6-8.5-9.4-9.1c-3.4-2.4-7.5-2.7-12.7-1.1c-2.5,0.9-5,1.9-7.3,3.1
		c-5.7,2.8-11,5.4-15.1,2.9c-6.3-3.9-6.6-9.7-6.6-10.9c-0.1-3.4,0.7-6.7,2.3-9.7c1-2.1,2.7-3.7,4.9-4.5l0.3-0.1
		c1.2-0.5,4.7-1.5,12.5-0.9c1.1,0.1,2.3,0.1,3.4,0.2c5.1,0.2,10.9,0.5,17.5,5c10.7,7.3,14.1,22.4,14.2,23c0.2,1-0.3,2-1.2,2.5
		C79.2,242.2,78.8,242.3,78.4,242.3z M30.3,226.5c0,0.2-0.1,4.1,4.4,6.9c1.8,1.1,6.7-1.2,10.5-3.1c2.6-1.3,5.3-2.5,8-3.4
		c6.6-2,12-1.4,16.7,1.8c0.9,0.7,1.7,1.4,2.5,2.2c-2-4.1-4.9-7.7-8.6-10.4c-5.5-3.7-10.1-3.9-15-4.1c-1.2-0.1-2.4-0.1-3.6-0.2
		c-5.9-0.5-9.3,0.1-10.3,0.5l-0.4,0.1c-1.1,0.3-2,1.1-2.5,2.2c-1.2,2.2-1.8,4.7-1.8,7.3C30.3,226.2,30.3,226.4,30.3,226.5z"/>
	<path class="st1" d="M436.9,254.9c0,0,3.1,3.2,1.3,8.6c-1.3,4.1-15.6,6.7-21.3,9.1c-4.8,2.1-8.7,6.1-9.5,7.5s-2.8,5.1-2.8,5.1
		s1.7-9.4,5.3-15.9s5.5-9.4,9.1-13.1s6.3-5.2,7.5-5.6c1.4-0.6,3-0.6,4.4,0C433.4,251.5,435.4,253,436.9,254.9z"/>
	<path class="st0" d="M404.7,287.6c-0.3,0-0.5,0-0.8-0.1c-1.1-0.4-1.8-1.5-1.5-2.6c0.1-0.4,1.8-9.9,5.6-16.6
		c3.6-6.4,5.6-9.7,9.5-13.6c3.2-3.3,6.3-5.5,8.5-6.2l0.3-0.1c1.9-0.7,3.9-0.7,5.8,0.2c2.7,1,5,2.8,6.8,5c2.4,3,3.1,7.1,1.7,10.8
		c-1.2,3.7-7,5.7-15.7,8.3c-2.3,0.6-4.6,1.4-6.9,2.3c-3.3,1.5-6.1,3.7-8.4,6.5c-0.8,1.3-2.7,5-2.7,5
		C406.4,287.1,405.6,287.6,404.7,287.6z M428.9,252.5c-0.4,0-0.8,0.1-1.2,0.3l-0.3,0.1c-0.8,0.3-3.2,1.6-6.6,5.1s-5,6-8.8,12.6
		c-0.6,1.1-1.1,2.1-1.6,3.2c1.7-1.3,3.5-2.4,5.5-3.3c2.4-1,4.9-1.8,7.4-2.5c3.8-1.1,11.8-3.5,12.5-5.2c1.3-3.9-0.8-6.2-0.8-6.2
		c-0.1-0.1-0.2-0.2-0.2-0.3c-1.3-1.5-3-2.7-4.8-3.4C429.7,252.6,429.3,252.5,428.9,252.5L428.9,252.5z"/>
	<path class="st1" d="M425.3,241c0,0,2.7,4.1-0.3,9.6c-2.3,4.2-18.4,4.1-25.1,5.6c-5.7,1.3-8.8,3.9-9.9,5.2c-1.6,2.5-3.1,5-4.5,7.6
		c0,0,2.2-11.6,7.5-17.8s7.9-9.2,12.7-12.4s7.9-4.4,9.4-4.6c1.6-0.4,3.4-0.1,4.8,0.9C422.1,236.6,424,238.6,425.3,241z"/>
	<path class="st0" d="M385.6,271.5c-1.3,0-2.4-1-2.4-2.3c0-0.2,0-0.3,0-0.5c0.1-0.5,2.4-12.3,8-18.9c5.3-6.2,8-9.4,13.1-12.9
		c4.2-2.9,8-4.7,10.4-5h0.3c2.1-0.4,4.3,0.1,6,1.4c2.6,1.7,4.8,4,6.3,6.8c2,3.7,1.8,8.2-0.3,11.9c-2,3.7-8.7,4.7-18.6,5.7
		c-3.1,0.3-6.1,0.6-8,1.1c-5.7,1.3-8.2,4-8.6,4.5c-1.5,2.3-2.9,4.7-4.2,7.2C387.2,271,386.4,271.5,385.6,271.5z M416.6,236.5
		c-0.3,0-0.6,0-0.9,0.1l-0.4,0.1c-1,0.1-3.9,1.1-8.3,4.2s-6.7,5.6-12.2,12c-1,1.2-1.9,2.5-2.6,3.9c2.2-1.3,4.6-2.2,7.1-2.8
		c2.8-0.5,5.7-0.9,8.6-1.2c4.5-0.5,14-1.4,14.9-3.2c2.2-4.1,0.5-7.1,0.4-7.2s-0.1-0.2-0.2-0.3l0,0c-1.1-2-2.7-3.7-4.6-4.9
		C418,236.7,417.3,236.5,416.6,236.5L416.6,236.5z"/>
	<path class="st1" d="M415.6,226.1c0,0,0.7,5.3-4.8,9.4c-4.2,3.1-13.6-3.1-20.9-4.7c-6.3-1.4-10.9-0.3-14.5,2.6
		c-1.5,1.2-9,10.1-9,10.1s2-14.9,11.5-22.5c7-5.6,13.1-5.2,19.3-6.3s9.9-0.7,11.4-0.2c1.8,0.4,3.4,1.5,4.3,3.1
		C414.5,220.2,415.5,223.1,415.6,226.1z"/>
	<path class="st0" d="M366.4,245.9c-1.3,0-2.4-1.1-2.4-2.4c0-0.1,0-0.2,0-0.3c0.1-0.6,2.2-15.9,12.4-24c6.2-5,12-5.7,17-6.3
		c1.1-0.1,2.3-0.3,3.4-0.5c7.8-1.3,11.4-0.5,12.5-0.1l0.3,0.1c2.2,0.6,4.1,2,5.2,4.1c1.8,2.8,2.8,6.1,3,9.5c0.1,1.2,0.2,7-5.8,11.4
		c-3.9,2.8-9.4,0.6-15.3-1.7c-2.4-1-5-1.9-7.5-2.6c-5.3-1.2-9.3-0.5-12.5,2.1c-0.8,0.6-5,5.5-8.7,9.8
		C367.6,245.5,367,245.8,366.4,245.9z M384.8,227.9c1.9,0,3.8,0.2,5.6,0.7c2.8,0.7,5.6,1.6,8.3,2.8c4,1.6,9,3.6,10.8,2.3
		c4.3-3.1,3.9-7,3.9-7.2s0-0.2,0-0.3l0,0c-0.2-2.5-1-5-2.4-7.1c-0.5-1-1.5-1.8-2.6-2l-0.4-0.1c-1-0.3-4.4-0.7-10.3,0.3
		c-1.2,0.2-2.4,0.3-3.6,0.5c-4.9,0.6-9.5,1.2-14.7,5.3c-3.5,3-6.2,6.8-7.8,11.1c0.7-0.8,1.5-1.6,2.4-2.4
		C377,229.1,380.8,227.8,384.8,227.9L384.8,227.9z"/>
	<path class="st1" d="M187.5,285.8c-0.1,0-0.2-0.1-0.4-0.1c-0.3,0-0.6,0.2-0.8,0.4l-1.1,1.9c-0.1,0.2-0.2,0.5-0.1,0.7
		c0.1,0.2,0.3,0.4,0.5,0.5c2.6,1.1,4.9,2.6,7,4.4c0.2,0.2,0.4,0.3,0.6,0.3h0.1c0.3,0,0.5-0.1,0.6-0.4l1.4-1.9
		c0.3-0.4,0.2-0.9-0.1-1.2C193,288.6,190.4,287,187.5,285.8z"/>
	<path class="st1" d="M184.6,294.3c-2.1,0.1-4.3,0.4-6.3,1.1c0-0.5,0-1.1,0-1.7c0-0.8,0-1.6,0-2.4c1.9-0.2,3.8-0.6,5.6-1.2
		c0.4-0.1,0.7-0.6,0.6-1l-0.4-2.2c0-0.3-0.2-0.5-0.4-0.6c-0.2-0.1-0.5-0.1-0.8-0.1c-1.5,0.5-3,0.9-4.5,1.1c0-1.2,0.1-2.3,0.1-3.2
		c0.5-0.2,0.9-0.7,0.9-1.3c0-0.2-0.1-0.5-0.2-0.7c-0.2-0.2-0.4-0.3-0.6-0.3l-3.2-0.2l0,0c-0.2,0-0.4,0.1-0.6,0.2
		c-0.2,0.2-0.3,0.4-0.3,0.6v5.1c-1.4,0.1-3.1,0.1-5,0.1h-1.8c-0.2,0-0.5,0.1-0.6,0.3c-0.2,0.2-0.3,0.4-0.3,0.6v2.2
		c0,0.5,0.4,0.9,0.9,0.9h1.6c1.9,0,3.6,0,5.2-0.2v5.2c-1.3,0.6-2.6,1.3-3.8,2.2c-2.7,1.9-4.4,4.5-4.4,6.8c0,3.3,2.6,5.8,6.2,5.8
		c3.1,0.1,5.7-2.3,5.9-5.4c0-0.2,0-0.4,0-0.5c0-0.3,0-1.1,0-2c0-1.3,0-3,0-4.4c2-0.7,4.1-1.2,6.3-1.3h0.1c3.4,0,5.6,1.8,5.6,4.6
		c0,2.2-1.1,4.5-4.3,4.5c-1.8,0-3.4-0.8-4.4-2.3c-0.2-0.2-0.4-0.3-0.7-0.3h-0.1c-0.3,0-0.6,0.2-0.7,0.4c-0.3,0.5-0.7,1.1-1.1,1.5
		c-0.3,0.3-0.3,0.8,0,1.1c1.6,2.2,4.2,3.5,6.9,3.4c5.1,0,8.4-3.3,8.4-8.4S190.5,294.3,184.6,294.3z M174.5,305.5
		c0,1.5-0.8,2.3-2,2.3c-1.1,0.2-2.2-0.6-2.3-1.8c0-0.1,0-0.3,0-0.4c0-1.1,1.1-2.6,2.5-3.6c0.6-0.4,1.2-0.8,1.9-1.2
		c0,1.2,0,2.2,0,3.1C174.5,304.7,174.5,305.2,174.5,305.5L174.5,305.5z"/>
	<path class="st1" d="M220.9,306.9c-0.2-0.1-0.4-0.2-0.6-0.2h-0.1c-3.7,0.5-7.4,0.8-11.1,0.7c-7.6,0-7.6-2.4-7.6-3.2
		c0-3.2,6.6-7.2,17-10.2c0.2,0.1,0.5,0.1,0.8,0.1c0.2,0,0.4,0,0.6-0.1c0.4-0.2,0.6-0.6,0.4-1l-0.8-2.6c-0.1-0.2-0.2-0.4-0.4-0.5
		c-0.1-0.1-0.3-0.1-0.4-0.1c-0.1,0-0.2,0-0.3,0c-3.1,1-6.2,2.1-9.2,3.5c-0.5-1.8-0.7-4.9-0.6-8.9c0.6-0.2,1-0.8,1-1.4
		c0.1-0.5-0.3-0.9-0.8-1c0,0,0,0,0,0l-3.5-0.3h-0.1c-0.5,0-0.9,0.4-0.9,0.9c0,0,0,0,0,0c0,6.7,0.3,10.2,1.2,12.4
		c-5.5,3-8.1,6-8.1,9.4c0,4.6,4,7,11.8,7c3.8,0,7.7-0.2,11.5-0.6c0.5-0.1,0.8-0.5,0.8-0.9l-0.2-2.3
		C221.2,307.3,221.1,307.1,220.9,306.9z"/>
	<path class="st1" d="M239,293.2c-1.6,0-3.2,0.3-4.7,0.7c2.5-2.5,5.7-5.6,7.6-7.3c0.4,0,0.8-0.2,1.1-0.5c0.2-0.2,0.3-0.4,0.3-0.6
		c0-0.2-0.1-0.5-0.2-0.6l-1.9-2.1c-0.2-0.2-0.4-0.3-0.6-0.3c-0.1,0-0.3,0-0.4,0.1l-0.4,0.2c-1,0.2-9.8,0.8-13.9,0.8
		c-0.3,0-0.5,0.1-0.7,0.3c-0.2,0.2-0.2,0.4-0.2,0.7l0.3,2.7c0,0.3,0.2,0.5,0.4,0.6c0.1,0.1,0.3,0.2,0.5,0.2c0.1,0,0.1,0,0.2,0
		c0.3-0.1,0.6-0.2,0.9-0.5c1.9-0.1,5.9-0.4,8.6-0.5c-4.7,4.7-11.3,11.4-13.7,14.2c-0.3,0.3-0.3,0.9,0,1.2l1.6,1.6
		c0.2,0.2,0.4,0.2,0.6,0.2l0,0c0.2,0,0.5-0.1,0.6-0.3c0.8-0.9,1.6-1.8,2.5-2.7c3.1-2.5,6.9-4,10.9-4.2c2.6,0,5.7,0.8,5.7,4.5
		s-4.1,5.4-13.6,5.8c-0.3,0-0.6,0.2-0.7,0.5c-0.1,0.3-0.1,0.6,0,0.9c0.3,0.6,0.5,1.2,0.7,1.9c0.1,0.4,0.5,0.7,0.9,0.7l0,0
		c7.2-0.4,16.9-1.8,16.9-9.8C248.2,296.4,244.7,293.2,239,293.2z"/>
	<path class="st1" d="M276.3,303c-0.5-0.5-0.9-1.1-1.3-1.7c-0.1-0.2-0.4-0.4-0.7-0.4h-0.1c-0.3,0-0.5,0.1-0.7,0.3
		c-3.3,3.8-7,5.7-10.8,5.7s-5.5-2.1-5.5-6.1c0-4.3,0.3-12.2,0.5-16.1c0.5-0.2,0.9-0.7,1-1.2c0.1-0.5-0.3-0.9-0.7-1c0,0,0,0-0.1,0
		l-3.5-0.3h-0.1c-0.2,0-0.4,0.1-0.6,0.2c-0.2,0.2-0.3,0.4-0.3,0.6c-0.2,4-0.5,13.9-0.5,17.8c0,6.6,3.4,10.2,9.6,10.2
		c5,0,9.7-2.3,13.6-6.8C276.7,303.9,276.7,303.4,276.3,303C276.3,303.1,276.3,303.1,276.3,303z"/>
	<path class="st1" d="M111.8,228.6c2.7,0,5.4,0.4,7.9,1.4c2.3,0.9,4.3,2.2,6,4c1.7,1.8,3,3.9,3.9,6.3c1.8,5.4,1.8,11.2,0,16.5
		c-0.8,2.3-2.1,4.5-3.8,6.3c-1.7,1.8-3.7,3.1-6,4c-5.1,1.9-10.7,1.9-15.8,0c-2.3-0.9-4.3-2.2-6-4c-1.7-1.8-3-4-3.9-6.3
		c-1.8-5.4-1.8-11.2,0-16.6c0.8-2.3,2.1-4.5,3.8-6.3c1.7-1.7,3.7-3.1,6-4C106.5,229,109.1,228.6,111.8,228.6z M111.8,261.3
		c3.2,0,5.6-1.1,7.2-3.2s2.3-5.3,2.3-9.5s-0.8-7.4-2.3-9.5s-3.9-3.3-7.2-3.3s-5.7,1.1-7.2,3.3s-2.3,5.4-2.3,9.5s0.8,7.3,2.3,9.5
		S108.6,261.3,111.8,261.3z"/>
	<path class="st1" d="M148.9,268.5c-3.3,0-5.9-0.9-7.7-2.8s-2.7-4.5-2.7-7.9v-21.6h-3.9c-0.5,0-0.9-0.2-1.3-0.5
		c-0.4-0.4-0.6-0.9-0.6-1.5v-3.7l6.2-1l2-10.6c0.1-0.5,0.3-0.9,0.7-1.2c0.4-0.3,0.9-0.4,1.4-0.4h4.8v12.2h10.2v6.6h-10.2v21
		c-0.1,1,0.3,2,0.9,2.8c0.6,0.7,1.5,1.1,2.4,1c0.5,0,1-0.1,1.4-0.2c0.3-0.1,0.7-0.3,1-0.4c0.3-0.2,0.6-0.3,0.8-0.4
		c0.2-0.1,0.4-0.2,0.7-0.2c0.2,0,0.5,0.1,0.7,0.2c0.2,0.2,0.4,0.4,0.6,0.6l2.8,4.5c-1.4,1.1-3,2-4.7,2.6
		C152.5,268.2,150.7,268.5,148.9,268.5z"/>
	<path class="st1" d="M179.5,228.6c2.7,0,5.4,0.4,7.9,1.4c2.3,0.9,4.3,2.3,6,4c1.7,1.8,3,3.9,3.8,6.3c1.8,5.4,1.8,11.2,0,16.5
		c-0.8,2.3-2.1,4.5-3.8,6.3c-1.7,1.8-3.7,3.1-6,4c-5.1,1.9-10.7,1.9-15.7,0c-2.3-0.9-4.4-2.2-6.1-4c-1.7-1.8-3-4-3.9-6.3
		c-1.8-5.4-1.8-11.2,0-16.6c0.8-2.3,2.2-4.5,3.9-6.3c1.7-1.8,3.8-3.1,6.1-4C174.1,229.1,176.8,228.6,179.5,228.6z M179.5,261.3
		c3.2,0,5.6-1.1,7.1-3.2c1.5-2.2,2.3-5.3,2.3-9.5c0-4.2-0.8-7.3-2.3-9.5c-1.5-2.2-3.9-3.3-7.1-3.3c-3.3,0-5.7,1.1-7.2,3.3
		s-2.3,5.4-2.3,9.5s0.8,7.3,2.3,9.5S176.2,261.3,179.5,261.3z"/>
	<path class="st1" d="M204.8,267.9v-38.2h3.9c0.5-0.1,1.1,0.1,1.5,0.4c0.3,0.4,0.5,0.9,0.6,1.4l0.4,6c1.1-2.4,2.8-4.6,4.9-6.2
		c2.8-2.1,6.3-2.7,9.6-1.9c0.8,0.2,1.6,0.6,2.4,1l-0.9,5c-0.1,0.6-0.6,1-1.2,0.9c-0.6,0-1.1-0.2-1.6-0.4c-1-0.3-2-0.4-3-0.4
		c-2.1-0.1-4.2,0.6-5.9,2c-1.8,1.6-3.1,3.7-3.9,5.9v24.3L204.8,267.9z"/>
	<path class="st1" d="M246.4,229.1c2.6,0,5.2,0.4,7.6,1.4c2.2,0.9,4.1,2.3,5.7,4c1.6,1.8,2.9,3.9,3.6,6.2c1.7,5.3,1.7,11,0,16.3
		c-0.8,2.3-2,4.4-3.6,6.2c-1.6,1.7-3.6,3.1-5.7,3.9c-4.9,1.8-10.2,1.8-15.1,0c-2.2-0.9-4.1-2.2-5.8-3.9c-1.6-1.8-2.9-3.9-3.7-6.2
		c-1.7-5.3-1.7-11,0-16.3c0.8-2.3,2-4.4,3.7-6.2c1.6-1.7,3.6-3.1,5.8-4C241.3,229.5,243.8,229.1,246.4,229.1z M246.4,263.2
		c3.8,0,6.6-1.3,8.4-3.8c1.9-2.5,2.8-6.1,2.8-10.6c0-4.6-0.9-8.1-2.8-10.6c-1.9-2.5-4.7-3.8-8.4-3.8c-1.7,0-3.4,0.3-5,1
		c-1.4,0.6-2.6,1.6-3.5,2.8c-1,1.4-1.7,2.9-2.1,4.5c-0.5,2-0.7,4-0.7,6.1c0,2,0.2,4.1,0.7,6.1c0.4,1.6,1.1,3.2,2.1,4.5
		c0.9,1.2,2.1,2.2,3.5,2.8C243,262.9,244.7,263.3,246.4,263.2z"/>
	<path class="st1" d="M291.5,236c-0.3,0.5-0.8,0.9-1.4,0.8c-0.5,0-0.9-0.2-1.3-0.4c-0.5-0.3-1.1-0.6-1.8-0.9
		c-0.8-0.4-1.6-0.7-2.5-0.9c-1.1-0.3-2.3-0.5-3.4-0.4c-1,0-2,0.1-3,0.4c-0.8,0.3-1.6,0.7-2.3,1.2c-0.6,0.5-1.1,1.1-1.5,1.8
		c-0.3,0.7-0.5,1.4-0.5,2.2c0,0.9,0.3,1.8,0.9,2.4c0.6,0.7,1.4,1.3,2.2,1.7c1,0.5,2.1,0.9,3.2,1.3c1.2,0.4,2.4,0.8,3.6,1.2
		s2.5,0.9,3.6,1.4c1.1,0.5,2.2,1.1,3.2,1.9c0.9,0.8,1.7,1.7,2.2,2.8c0.6,1.2,0.9,2.6,0.9,3.9c0,1.7-0.3,3.3-0.9,4.9
		c-0.6,1.5-1.6,2.8-2.8,3.9c-1.3,1.1-2.9,2-4.5,2.6c-2,0.7-4.1,1-6.2,0.9c-2.5,0-4.9-0.4-7.2-1.3c-2-0.8-3.9-1.9-5.5-3.3l1.6-2.6
		c0.2-0.3,0.4-0.6,0.7-0.8c0.3-0.2,0.7-0.3,1.1-0.3c0.5,0,1,0.2,1.4,0.5c0.5,0.4,1.1,0.7,1.8,1.2c0.8,0.5,1.7,0.9,2.6,1.2
		c1.2,0.4,2.5,0.6,3.8,0.5c1.2,0,2.3-0.1,3.4-0.5c0.9-0.3,1.7-0.8,2.5-1.4c0.6-0.5,1.1-1.2,1.5-2c0.3-0.8,0.5-1.6,0.5-2.4
		c0-0.9-0.3-1.9-0.9-2.6c-0.6-0.7-1.4-1.3-2.2-1.8c-1-0.5-2.1-1-3.2-1.3c-1.2-0.4-2.4-0.8-3.7-1.1s-2.5-0.9-3.7-1.4
		c-1.1-0.5-2.2-1.1-3.2-1.9c-0.9-0.8-1.7-1.8-2.2-2.9c-0.6-1.3-0.9-2.7-0.9-4.2c0-3,1.3-5.8,3.5-7.8c1.3-1.1,2.7-1.9,4.3-2.4
		c1.9-0.6,3.8-0.9,5.8-0.9c2.3,0,4.6,0.4,6.8,1.2c1.9,0.7,3.7,1.9,5.2,3.3L291.5,236z"/>
	<path class="st1" d="M298.5,267.9v-55.6h6.7v22.5c1.6-1.7,3.4-3.1,5.4-4.2c2.1-1.1,4.5-1.6,6.9-1.6c1.9,0,3.8,0.3,5.5,1
		c1.5,0.7,2.9,1.7,4,2.9c1.1,1.4,1.9,2.9,2.4,4.6c0.6,1.9,0.9,3.9,0.8,5.9v24.3h-6.7v-24.3c0.1-2.4-0.6-4.8-2-6.7
		c-1.3-1.6-3.3-2.4-6-2.4c-1.9,0-3.9,0.5-5.6,1.4c-1.8,1-3.4,2.3-4.8,3.9v28.1L298.5,267.9z"/>
	<path class="st1" d="M345.6,217.7c0,0.6-0.1,1.3-0.4,1.8c-0.3,0.6-0.6,1.1-1.1,1.5c-0.4,0.4-1,0.8-1.5,1c-0.6,0.3-1.2,0.4-1.9,0.4
		c-0.6,0-1.3-0.1-1.8-0.4c-0.6-0.2-1.1-0.6-1.5-1c-0.4-0.4-0.8-0.9-1-1.5c-0.2-0.6-0.4-1.2-0.4-1.8c0-0.6,0.1-1.3,0.4-1.9
		c0.2-0.6,0.6-1.1,1-1.5c0.4-0.4,0.9-0.8,1.5-1c0.6-0.3,1.2-0.4,1.8-0.4c0.6,0,1.3,0.1,1.9,0.4c0.6,0.2,1.1,0.6,1.5,1
		c0.4,0.4,0.8,1,1.1,1.5C345.5,216.4,345.6,217.1,345.6,217.7z M344.1,229.7v38.2h-6.7v-38.2L344.1,229.7z"/>
</g>
</svg>
