<svg xmlns="http://www.w3.org/2000/svg" width="774.04004" height="475.1369" viewBox="0 0 774.04004 475.1369" xmlns:xlink="http://www.w3.org/1999/xlink"><path d="M647.79187,389.5H126.24841c-11.15381,0-20.22852-9.07422-20.22852-20.22852v-62.77148H668.02038v62.77148c0,11.1543-9.07422,20.22852-20.22852,20.22852Z" fill="#e6e6e6"/><rect x="321.52002" y="378.99998" width="133" height="95" fill="#e6e6e6"/><rect x="313.52002" y="461.99998" width="149" height="12" fill="#e6e6e6"/><path d="M667.52038,333H106.01989V13.88184c0-7.6543,6.22754-13.88184,13.88184-13.88184H653.63855c7.6543,0,13.88184,6.22754,13.88184,13.88184V333Z" fill="#3f3d56"/><circle cx="388.02002" cy="7.49998" r="4" fill="#fff"/><rect x="119.02002" y="14.49998" width="535" height="301" fill="#fff"/><circle cx="591.40585" cy="196.29643" r="45.61417" fill="#f9b000"/><path d="M774.04004,474.29687h0c0,.46393-.3761,.84003-.84003,.84003H0v-1.68005H773.20001c.46393,0,.84003,.3761,.84003,.84003Z" fill="#e6e6e6"/><g><polygon points="130.9527 189.66266 125.18911 209.83523 148.24347 211.27612 146.80257 187.50131 130.9527 189.66266" fill="#ffb6b6"/><g><g><path id="uuid-a6c07e27-609a-42c1-9803-308006772003-1334" d="M226.72978,272.01051c5.47087,1.86773,10.86916,.55886,12.05723-2.92303s-2.28378-7.8175-7.75685-9.68517c-2.17603-.77604-4.50627-1.01969-6.79576-.71053l-23.28024-7.62093-3.34342,11.00096,23.30516,6.34493c1.62315,1.64505,3.61673,2.87736,5.81388,3.59376Z" fill="#ffb6b6"/><path d="M149.47886,205.36146s-14.43112,17.36131-6.08248,24.54447c8.34864,7.18316,45.63135,33.77469,45.63135,33.77469l14.53455,2.26328,3.71748-14.04969-32.81979-24.31925-24.98112-22.21349Z" fill="#f9b000"/></g><polygon points="187.71593 390.18033 195.73597 419.90167 208.47369 417.54283 205.64309 386.87796 187.71593 390.18033" fill="#ffb6b6"/><path d="M197.62304,418.0146l-4.71767,.94353-3.77414,12.73772s6.13297,2.35884,6.13297,7.07651,2.35884,8.02004,11.79418,7.54828,10.37888,0,10.37888-3.77414-7.07651-23.58836-7.07651-23.58836c0,0,.47177-8.02004-5.18944-7.54828s-7.54828,6.60474-7.54828,6.60474Z" fill="#2f2e41"/><polygon points="144.58889 389.71795 145.13615 420.49748 158.065 421.30886 162.7808 390.87683 144.58889 389.71795" fill="#ffb6b6"/><path d="M147.42567,419.12628l-4.80547-.23272-6.76003,11.43658s5.37471,3.78021,4.22681,8.3561,.33652,8.35296,9.60309,10.19117c9.26657,1.83821,10.06696,2.52537,10.98528-1.13534,.91832-3.66071-1.12435-24.60129-1.12435-24.60129,0,0,2.40901-7.66422-3.19684-8.58411-5.60586-.91989-8.92848,4.56961-8.92848,4.56961Z" fill="#2f2e41"/><path d="M149.97455,205.71933l-25.47543-1.88707-5.66121,7.07651s-2.8306,47.64849-.94353,52.36617,.47177,31.60841,.47177,31.60841l64.22164-4.48179-14.21431-34.20313,.47177-19.81422-12.73772-24.06013-6.13297-6.60474Z" fill="#f9b000"/><path d="M121.19675,284.97623s-10.37888,15.09655-6.60474,23.1166,29.37448,54.58715,29.37448,54.58715l-3.30237,43.40259,22.64483-1.88707,3.77414-46.70496-15.69323-38.0753,2.8306-4.24591,23.58836,28.7778,8.49181,50.00733,22.64483-2.8306-12.26595-73.12392-14.33513-28.18407-61.14764-4.83964Z" fill="#2f2e41"/><circle cx="118.97934" cy="168.08201" r="8.74638" fill="#2f2e41"/><circle cx="139.17799" cy="181.45947" r="19.04754" fill="#ffb6b6"/><path d="M133.13867,202.34164c-2.02444,1.07241-7.72084-2.86479-9.759-8.14048-1.31119-3.39395-4.49899-2.82931-6.53319-7.06192-1.18528-2.46628,2.35419-4.87891,1.7704-7.0113-1.05778-3.86367,.26837-7.32044,.43733-7.74392,1.45852-3.65559,3.60846-3.57055,5.34214-7.82548,1.04377-2.56168,.37417-2.86171,1.25152-4.17219,2.53206-3.78211,9.87878-3.926,15.06037-2.13741,1.79305,.61892,6.11212-2.69757,9.61815-.29498,4.13073,2.83069,6.87881,10.99015,6.24656,12.48531-.38412,.90838-2.52276-.01707-6.97052,.682-4.11789,.64722,1.31702,3.72384-3.31722,4.77263-5.48,1.24019-7.13084,.10843-8.64952,1.84211-1.60538,1.83266-1.9022,5.54206-.43733,7.74392,.72692,1.09266,1.66425,1.47823,1.54682,2.23867-.21438,1.38829-1.44751,.63363-1.85196,2.10648-.47043,1.71313,3.43297,3.95924,3.09363,4.47733-.06837,.1044-.36069,.21744-4.17219-1.25152-1.52192-.58655-2.10873-1.09297-2.27944-.90559-.27636,.30334-1.64483,3.34503-.08993,4.63887,2.41974,2.01346,.74264,2.81305,1.84572,4.38963,1.13801,1.62649-.86577,.48629-2.15234,1.16783Z" fill="#2f2e41"/><g><path id="uuid-cdcc4a7b-c7e9-4136-bdd1-e7c84b73eb6c-1335" d="M137.59858,312.39553c3.03983,4.91715,8.04097,7.33443,11.16996,5.39935,3.12899-1.93508,3.20059-7.489,.15903-12.40749-1.18803-1.9814-2.83329-3.64948-4.79815-4.86467l-13.14297-20.67149-9.56906,6.37438,13.97257,19.70167c.20907,2.30154,.96641,4.51952,2.20863,6.46826Z" fill="#ffb6b6"/><path d="M120.25321,211.85231s-22.17306,4.24591-20.28599,15.09655,13.79849,55.06861,13.79849,55.06861l9.78987,10.9788,11.79418-8.49181-9.90711-39.62845-5.18944-33.02371Z" fill="#f9b000"/></g></g></g><g><path d="M643.97525,220.91364c-.87195-1.47027-4.6441,.10397-5.3376-1.23036-.69104-1.32952,2.81372-3.35528,4.81606-7.98296,.36112-.83454,2.63659-6.09357,.95207-7.71632-3.19299-3.07591-17.80424,9.61759-22.91751,5.46367-1.1222-.9116-1.90615-2.73146-5.30243-5.68615-1.35114-1.17543-2.16812-1.70614-2.95882-1.50869-1.12194,.28016-1.21082,1.78172-2.41389,4.73412-1.80423,4.42771-2.87133,4.16035-3.92255,7.69294-.78036,2.62241-.6021,4.14705-1.52038,4.44406-1.29945,.42034-2.49552-2.3612-4.14235-2.11215-1.68049,.25419-2.69647,3.49282-3.01738,5.91764-.60223,4.55037,1.06887,7.553,1.99509,10.71029,1.00653,3.43117,1.6039,8.64923-.72054,16.03614l-23.0068,64.82181c5.0792-13.30124,19.78588-49.76349,25.96562-63.31312,1.78399-3.91149,3.75375-7.87895,7.79827-9.44478,3.89393-1.50759,9.24175-.60749,16.05958-2.24997,.79625-.19178,3.00585-.75398,3.28395-2.05362,.22995-1.07445-1.06975-1.67419-.87006-2.68049,.26783-1.34981,2.82368-1.36639,5.96448-2.92368,2.2147-1.09815,3.59446-2.40409,4.78095-3.52717,.35772-.33859,5.67509-5.43398,4.51432-7.39119h-.00006Z" fill="#e6e6e6"/><path d="M553.45965,255.03855c-.97322,.00372-1.28892,2.30935-2.14392,2.26472-.85194-.04444-.83495-2.34909-2.52849-4.66711-.3054-.41801-2.23002-3.05227-3.51255-2.69367-2.43094,.67963-.41672,11.5134-3.93084,12.82451-.77119,.28775-1.89061,.14744-4.32071,.96184-.96675,.324-1.46296,.57185-1.5942,1.0169-.1862,.63148,.52511,1.10839,1.62704,2.55068,1.65257,2.16305,1.21344,2.60968,2.64394,4.14487,1.06194,1.13966,1.86168,1.49208,1.74248,2.02847-.16862,.75906-1.87892,.54354-2.23185,1.42366-.36011,.89814,.93628,2.33122,2.0338,3.18836,2.05961,1.6085,4.01546,1.65468,5.83233,2.11108,1.97445,.49598,4.70789,1.70838,7.66274,4.98061l25.17678,29.99504c-5.06284-6.33074-18.7154-24.06939-23.58258-31.01197-1.40506-2.00417-2.78397-4.11569-2.3855-6.55259,.38359-2.34616,2.36838-4.71117,3.52941-8.53132,.13562-.44616,.49721-1.69284-.06039-2.20434-.461-.42286-1.13036,.04201-1.56665-.34637-.58521-.52095,.1441-1.78015,.28595-3.77099,.10004-1.40383-.14284-2.45783-.3517-3.36423-.06297-.27325-1.0296-4.35323-2.32511-4.34825v.00009Z" fill="#e6e6e6"/><path d="M572.87499,259.39686l-.58634-5.23417,.2679-.3968c1.23966-1.83486,1.87151-3.62676,1.87908-5.32768,.00126-.27042-.01138-.54086-.02402-.81632-.05055-1.09181-.11371-2.449,.59394-4.03113,.3968-.88204,1.51137-2.92415,3.18701-2.67142,.45114,.06319,.79234,.27042,1.05138,.51303,.03792-.06064,.07709-.12131,.11879-.18702,.52189-.79612,.93511-1.13729,1.33317-1.46586,.30581-.25274,.62174-.51303,1.11709-1.12973,.21734-.27042,.38668-.50799,.52949-.70765,.43345-.60402,.99956-1.32435,1.99787-1.31171,1.06654,.05055,1.62508,.93259,1.99535,1.51641,.66091,1.04126,.96039,1.7919,1.15879,2.28978,.07205,.18198,.15418,.38668,.19588,.44987,.34373,.50547,3.13774,.03284,4.19035-.13902,2.36435-.39428,4.41025-.73545,5.25314,.75568,.60406,1.06654,.15544,2.4768-1.37364,4.3041-.47641,.56866-.98314,1.00082-1.43302,1.33951,.37278,.22242,.70636,.56359,.84163,1.09941h0c.31845,1.26872-.77211,2.53999-3.24008,3.78347-.61288,.31085-1.43806,.72537-2.59433,.92503-.54465,.09351-1.03496,.11627-1.45448,.1289-.00886,.24262-.06571,.50547-.21356,.77589-.43345,.79612-1.33569,1.17521-2.69543,1.08422-1.49621-.07835-2.72827-.36393-3.81505-.61414-.94901-.21734-1.76663-.40184-2.40857-.35888-1.19037,.09603-2.10783,1.04886-3.18445,2.28474l-2.68784,3.1415h-.00003Z" fill="#e6e6e6"/><path d="M575.59494,228.23263l-4.91427,1.89481-.45177-.1585c-2.0893-.73372-3.98284-.89039-5.63005-.46626-.26191,.06738-.52028,.14819-.78355,.2303-1.04328,.32582-2.34008,.7312-4.04994,.44798-.95386-.16008-3.21187-.72023-3.39243-2.40516-.0533-.4524,.06061-.83501,.2296-1.14713-.0683-.02127-.13691-.04378-.21104-.06745-.90246-.30291-1.3373-.61606-1.7561-.91778-.32204-.23171-.65398-.47127-1.37613-.79401-.31671-.14164-.58946-.24517-.81881-.33266-.69423-.26604-1.53457-.63097-1.77555-1.59984-.22163-1.04448,.4899-1.80848,.9607-2.31474,.83958-.90341,1.48969-1.3835,1.92097-1.7017,.15774-.11583,.33493-.24722,.38549-.30357,.40175-.46068-.7641-3.04345-1.19733-4.01805-.98109-2.187-1.83007-4.07944-.60147-5.27299,.87844-.85481,2.35637-.7786,4.51176,.23698,.6709,.31659,1.21747,.69713,1.65918,1.0464,.12058-.417,.36598-.82625,.84998-1.09295h0c1.14646-.62984,2.65276,.10259,4.48157,2.17443,.45615,.51398,1.06641,1.20704,1.55281,2.27484,.22859,.50311,.37496,.97161,.49362,1.37424,.23695-.05298,.5056-.06464,.80469,.00977,.88002,.21734,1.4756,.99392,1.73246,2.33226,.30373,1.46715,.34001,2.73136,.37363,3.84606,.03048,.97312,.05938,1.81078,.2638,2.42083,.39485,1.12708,1.54919,1.77283,3.01776,2.50078l3.72053,1.80309-.00013,.00003Z" fill="#e6e6e6"/><path d="M572.87499,212.81262l-.58634-5.23417,.2679-.3968c1.23966-1.83486,1.87151-3.62676,1.87908-5.32768,.00126-.27042-.01138-.54086-.02402-.81632-.05055-1.09181-.11371-2.449,.59394-4.03113,.3968-.88204,1.51137-2.92415,3.18701-2.67142,.45114,.06319,.79234,.27042,1.05138,.51303,.03792-.06064,.07709-.12131,.11879-.18702,.52189-.79612,.93511-1.13729,1.33317-1.46586,.30581-.25274,.62174-.51303,1.11709-1.12973,.21734-.27042,.38668-.50799,.52949-.70765,.43345-.60402,.99956-1.32435,1.99787-1.31171,1.06654,.05055,1.62508,.93259,1.99535,1.51641,.66091,1.04126,.96039,1.7919,1.15879,2.28978,.07205,.18198,.15418,.38668,.19588,.44987,.34373,.50547,3.13774,.03284,4.19035-.13902,2.36435-.39428,4.41025-.73545,5.25314,.75568,.60406,1.06654,.15544,2.4768-1.37364,4.3041-.47641,.56866-.98314,1.00082-1.43302,1.33951,.37278,.22242,.70636,.56359,.84163,1.09941h0c.31845,1.26872-.77211,2.53999-3.24008,3.78347-.61288,.31085-1.43806,.72537-2.59433,.92503-.54465,.09351-1.03496,.11627-1.45448,.1289-.00886,.24262-.06571,.50547-.21356,.77589-.43345,.79612-1.33569,1.17521-2.69543,1.08422-1.49621-.07835-2.72827-.36393-3.81505-.61414-.94901-.21734-1.76663-.40184-2.40857-.35888-1.19037,.09603-2.10783,1.04886-3.18445,2.28474l-2.68784,3.1415h-.00003Z" fill="#e6e6e6"/><path d="M578.23046,314.41236l-1.09689-.68745-.26537-1.2662,.26537,1.2662-1.27884,.14659c-.02023-.11879-.08973-.39176-.19459-.81888-.57244-2.34033-2.31758-9.46243-3.77335-20.67882-1.01602-7.82975-1.59098-15.87937-1.70977-23.92902-.11879-8.06225,.26285-14.16585,.56866-19.07142,.23124-3.70004,.51181-7.22318,.78726-10.65535,.73293-9.16926,1.42416-17.8305,.90983-27.41928-.11371-2.14067-.35258-6.5964-2.95573-11.33773-1.51011-2.74977-3.59011-5.19118-6.18318-7.2535l1.61244-2.02693c2.86222,2.27966,5.16338,4.98395,6.84031,8.03701,2.88624,5.25689,3.14657,10.11197,3.27166,12.4447,.52315,9.75812-.17564,18.50279-.91617,27.76048-.27297,3.41951-.5535,6.92748-.78348,10.61236-.30329,4.86012-.68112,10.91058-.56359,18.86924,.11627,7.95358,.6849,15.90465,1.68701,23.63585,1.43806,11.07488,3.15795,18.09083,3.7228,20.39577,.30077,1.23084,.36393,1.48861,.0556,1.9764v-.00003Z" fill="#e6e6e6"/><path d="M558.55751,196.81953c-.10615,0-.21356-.00252-.32223-.01012-2.20386-.11879-4.24469-1.43806-6.06691-3.91994-.85424-1.16764-1.29147-2.49956-2.16343-5.15581-.13521-.40944-.79234-2.48692-1.19166-5.34536-.26159-1.86773-.22872-2.64866,.14154-3.33863,.4107-.76832,1.07539-1.30411,1.82348-1.66552-.03284-.24769-.00633-.50295,.10111-.76328,.44102-1.07918,1.61371-.93763,2.24808-.8694,.32097,.04044,.72155,.09351,1.15375,.07076,.67985-.03284,1.04507-.23505,1.59855-.53834,.52949-.29065,1.18785-.65206,2.16469-.85172,1.92585-.40184,3.53956,.14406,4.07156,.32349,2.79903,.93259,4.17897,3.10865,5.77626,5.62841,.31845,.50547,1.41152,2.34537,2.13308,4.86768,.52063,1.8197,.44735,2.62846,.29065,3.22996-.31845,1.23588-1.07032,1.94353-2.97975,3.50545-1.99408,1.6352-2.99491,2.45408-3.85422,2.95195-2.00039,1.15501-3.2565,1.88034-4.92454,1.88034v.00006Z" fill="#e6e6e6"/></g><g><path d="M444.38396,268.70265H241.31757c-8.1748,0-14.82526-6.65106-14.82526-14.82526V100.32524c0-8.1742,6.65045-14.82526,14.82526-14.82526h203.06638c8.1748,0,14.82526,6.65106,14.82526,14.82526V253.87739c0,8.1742-6.65045,14.82526-14.82526,14.82526Z" fill="#fff"/><path d="M444.38396,268.70265H241.31757c-8.1748,0-14.82526-6.65106-14.82526-14.82526V100.32524c0-8.1742,6.65045-14.82526,14.82526-14.82526h203.06638c8.1748,0,14.82526,6.65106,14.82526,14.82526V253.87739c0,8.1742-6.65045,14.82526-14.82526,14.82526ZM241.31757,87.97569c-6.80942,0-12.34955,5.54013-12.34955,12.34955V253.87739c0,6.80942,5.54013,12.34955,12.34955,12.34955h203.06638c6.80942,0,12.34955-5.54013,12.34955-12.34955V100.32524c0-6.80942-5.54013-12.34955-12.34955-12.34955H241.31757Z" fill="#3f3d56"/><circle cx="422.07354" cy="100.35425" r="3.71357" fill="#3f3d56"/><circle cx="431.97638" cy="100.35425" r="3.71357" fill="#3f3d56"/><circle cx="441.87923" cy="100.35425" r="3.71357" fill="#3f3d56"/><path d="M247.53587,160.39026c-1.02389,0-1.85678,.83289-1.85678,1.85678,0,.49925,.19281,.96103,.54277,1.30192,.35298,.36144,.81537,.55486,1.31401,.55486h191.86765c1.02389,0,1.85678-.83289,1.85678-1.85678,0-.49925-.19281-.96103-.54277-1.30192-.35298-.36144-.81537-.55486-1.31401-.55486H247.53587Z" fill="#e6e6e6"/><path d="M404.74356,159.77133v4.95142H247.53587c-.68081,0-1.29973-.27237-1.74534-.73037-.45808-.44561-.73037-1.06454-.73037-1.74534,0-1.36169,1.1141-2.47571,2.47571-2.47571h157.20769Z" fill="#f9b000"/><path d="M436.30888,150.48741h-24.75712c-2.73017,0-4.95142-2.22065-4.95142-4.95142s2.22125-4.95142,4.95142-4.95142h24.75712c2.73017,0,4.95142,2.22065,4.95142,4.95142s-2.22125,4.95142-4.95142,4.95142Z" fill="#e6e6e6"/><path d="M274.14977,124.49244h-24.75712c-2.73017,0-4.95142-2.22065-4.95142-4.95142s2.22125-4.95142,4.95142-4.95142h24.75712c2.73017,0,4.95142,2.22065,4.95142,4.95142s-2.22125,4.95142-4.95142,4.95142Z" fill="#e6e6e6"/><path d="M247.53587,216.09377c-1.02389,0-1.85678,.83289-1.85678,1.85678,0,.49925,.19281,.96103,.54277,1.30192,.35298,.36144,.81537,.55486,1.31401,.55486h191.86765c1.02389,0,1.85678-.83289,1.85678-1.85678,0-.49925-.19281-.96103-.54277-1.30192-.35298-.36144-.81537-.55486-1.31401-.55486H247.53587Z" fill="#e6e6e6"/><path d="M309.42866,215.47485v4.95142h-61.89279c-.68081,0-1.29973-.27237-1.74534-.73037-.45808-.44561-.73037-1.06454-.73037-1.74534,0-1.36169,1.1141-2.47571,2.47571-2.47571h61.89279Z" fill="#f9b000"/><path d="M436.30888,206.19093h-24.75712c-2.73017,0-4.95142-2.22065-4.95142-4.95142s2.22125-4.95142,4.95142-4.95142h24.75712c2.73017,0,4.95142,2.22065,4.95142,4.95142s-2.22125,4.95142-4.95142,4.95142Z" fill="#e6e6e6"/></g></svg>