<svg xmlns="http://www.w3.org/2000/svg" viewBox="0 0 315.01 317.01"><defs><style>.cls-1{fill:#fff;}.cls-2{fill:none;stroke:#000;stroke-miterlimit:10;}</style></defs><g id="Calque_2" data-name="Calque 2"><g id="Calque_1-2" data-name="Calque 1"><rect class="cls-1" x="0.5" y="0.5" width="96" height="96" rx="12"/><rect class="cls-2" x="0.5" y="0.5" width="96" height="96" rx="12"/><rect class="cls-1" x="109.5" y="0.5" width="96" height="96" rx="12"/><rect class="cls-2" x="109.5" y="0.5" width="96" height="96" rx="12"/><rect class="cls-1" x="218.5" y="0.5" width="96" height="96" rx="12"/><rect class="cls-2" x="218.5" y="0.5" width="96" height="96" rx="12"/><rect class="cls-1" x="0.5" y="110.5" width="96" height="96" rx="12"/><rect class="cls-2" x="0.5" y="110.5" width="96" height="96" rx="12"/><rect class="cls-1" x="109.5" y="110.5" width="96" height="96" rx="12"/><rect class="cls-2" x="109.5" y="110.5" width="96" height="96" rx="12"/><rect class="cls-1" x="218.51" y="110.51" width="96" height="96" rx="12"/><rect class="cls-2" x="218.51" y="110.51" width="96" height="96" rx="12"/><rect class="cls-1" x="0.5" y="220.51" width="96" height="96" rx="12"/><rect class="cls-2" x="0.5" y="220.51" width="96" height="96" rx="12"/><rect class="cls-1" x="109.5" y="220.51" width="96" height="96" rx="12"/><rect class="cls-2" x="109.5" y="220.51" width="96" height="96" rx="12"/><rect class="cls-1" x="218.5" y="220.5" width="96" height="96" rx="12"/><rect class="cls-2" x="218.5" y="220.5" width="96" height="96" rx="12"/></g></g></svg>