<svg id="Calque_1" data-name="Calque 1" xmlns="http://www.w3.org/2000/svg" xmlns:xlink="http://www.w3.org/1999/xlink" viewBox="0 0 250 250"><defs><style>.cls-1{fill:none;}.cls-2{fill:#2e3031;}.cls-3{fill:#cfcdcc;}.cls-4{clip-path:url(#clip-path);}.cls-5,.cls-6{fill:#fff;}.cls-5{stroke:#fff;stroke-linecap:round;stroke-linejoin:round;stroke-width:2.48px;}</style><clipPath id="clip-path"><rect class="cls-1" width="250" height="250"/></clipPath></defs><title>Plan de travail 1</title><rect class="cls-2" x="-0.22" width="250.22" height="250"/><rect class="cls-3" width="250" height="250"/><g class="cls-4"><path class="cls-5" d="M265.86,215.78c-7.86-3-12.34-8.49-7.05-9.19s.44-5.11-4-3.79a6.5,6.5,0,0,0-3,1.94,13.53,13.53,0,0,0-9.75-4.17H218.43a7.28,7.28,0,0,0-.1-1.14s14.61-7.51,18.19-20.74a32.59,32.59,0,0,0-11.3-33.89,56.41,56.41,0,0,0-6.53-4.3h0A41.92,41.92,0,0,0,207.59,136s2.75-6.86,1.1-21.2a34.92,34.92,0,0,0-12.13-22.31,5.88,5.88,0,0,1,1.93-3.35A19.24,19.24,0,0,1,205.43,86c10.43-2.23,23.93,6.44,23.93,6.44s0-5-5.52-9.83c-4.68-4.1-8-9-21.49-5.92-10.2,2.29-13.5,7.72-13.5,7.72l-9.65-8.16s.55-8.37-1.65-13.89a21.27,21.27,0,0,0-6.34-8.54s-.27-3.3,4.13-9,11,3.19,11,3.19V44.89s-5.24-6.73-13-5.91-10.75,8.82-10.75,8.82-8.82-.83-13.78,1.38S137.32,58.55,140.35,66s10.19,6.06,13.5,4.23a4.27,4.27,0,0,0,2.21-5.06s-3,2.48-7.72.55-1.75-7.84,1.38-9.09c6.89-2.76,11.3.82,11.3.82a20.24,20.24,0,0,0,.14,8c.94,4.34,6.47,10.8,6.47,10.8a2.77,2.77,0,0,1-.4.67A51.3,51.3,0,0,1,161,81.24a37.56,37.56,0,0,1-4.59,2.33c-8.08,2.64-23.37,4-27.45,4.38L128,88c-9-10.88-12.45-15.68-16.34-33.56a71.43,71.43,0,0,1-.47-9.58C111.41,32.07,120,26,125.47,23.27s12.67-2.75,15.43,4.14-5,9.37-9.09,7.44-.83-9.1-3.86-4.69S130.7,42,138.42,42.29s12.68-9.92,10.47-18.19S135.66,10.32,126,12.25s-17.91,9.1-22.32,16.26-7.44,20.67-3.86,38.3c0,0,0,11,11.55,26.24l-.18.1a36.16,36.16,0,0,0-3.56,2.18h0l-.19.14c-.13.08-.25.17-.37.26l-.11.07a42.46,42.46,0,0,0-6.9,6.15l0,0,0,0a36.75,36.75,0,0,0-4.34,5.9c-4.34,7.36-4,12.91-3.4,15.68-1.77.08-3.45.21-5.08.38l0-.34a2.49,2.49,0,0,0-2.84-2.07l-.88.14a19.23,19.23,0,0,0-3.24-2.07l-.08-.48A2.48,2.48,0,0,0,77.31,117l-1.77.28a2.38,2.38,0,0,0-.88.32,29.25,29.25,0,0,0-4-.55,2.48,2.48,0,0,0-2.73-1.69l-1.77.28a2.47,2.47,0,0,0-1.93,1.59l-1,.13a22.38,22.38,0,0,0-2.5.47l-.8.2c-7.71,2.2-9.92,5.5-9.92,5.5L46,118.69a43.32,43.32,0,0,1,3.66-3.38A90,90,0,0,0,64.8,98a31.79,31.79,0,0,0,2.73-5.48h0s.41-.45,1.19-3.5a40.84,40.84,0,0,0,1.36-6.33,46.61,46.61,0,0,0,14.6-12.43c6.89-8.72,8.55-19.94,5.24-26.83-2.63-5.47-8.54-10.19-17.64-7.71-5,1.37-11.57,7.16-7.48,13s10.52.55,10.52.55a12,12,0,0,1-5-1.1c-1.92-1.11-1.1-6.62,4.14-6.89,1.94-.11,3.7,1.24,5,3.33l.58,1.23c-.19-.43-.36-.8-.51-1.1A13.81,13.81,0,0,1,81,48c-.27-.79-.61-1.58-.91-2.26a31.43,31.43,0,0,1,1.13,3.11,17.06,17.06,0,0,1,.4,2.7,18.78,18.78,0,0,1-.5,4.28,2.48,2.48,0,0,0-2.32,1.22l-.89,1.55a2.49,2.49,0,0,0,.48,3.07,26.69,26.69,0,0,1-2.08,2.81,2.51,2.51,0,0,0-2.75.32L72.16,66a2.47,2.47,0,0,0-.78,2.5l-.56.35a51.33,51.33,0,0,0-1.64-8.48c-1.85-6.77-4.89-11.3-9.43-14.19-3.56-2.27-8.46-4-16-1.46l-.63.2-.56.22-.17.06-.11,0-.22.09c-10.31,4.16-9.13,13-9.13,13a8.69,8.69,0,0,1,1.45-3.43l.09-.12c.09-.13.2-.26.31-.39a1.83,1.83,0,0,0,.13-.16,14.61,14.61,0,0,1,4-2.61c5.23-1.87,10.3-.44,15.23,5.58S57.54,74,57.54,74l-.3.13a2.48,2.48,0,0,0-3.44-.23l-1.37,1.17a2.44,2.44,0,0,0-.85,1.88c-1.17.63-2.46,1.35-3.81,2.14a2.47,2.47,0,0,0-3.11-.52l-1.55.89a2.48,2.48,0,0,0-1,3.25c-.92.64-1.83,1.32-2.73,2a2.49,2.49,0,0,0-3.26.09L34.84,86a2.5,2.5,0,0,0-.43,3.1,31.37,31.37,0,0,0-2.61,3l-.57-.23A2.49,2.49,0,0,0,28,93.24l-.67,1.67a2.47,2.47,0,0,0,1.25,3.15,24,24,0,0,0-.77,2.65,2.47,2.47,0,0,0-2,2.43v1.79a2.5,2.5,0,0,0,1.42,2.24,32.37,32.37,0,0,0,.22,3.25,2.48,2.48,0,0,0-1.64,2.32v1.79A2.49,2.49,0,0,0,28.24,117h.23c-1.62,1.92-9.85,12.76-9.51,33.7a2.46,2.46,0,0,0-1.42,2.23v1.79a2.46,2.46,0,0,0,1.77,2.36c.16,1.64.35,3.33.62,5.07,0,.21.07.41.1.62a2.47,2.47,0,0,0-1,2.59l.39,1.75a2.48,2.48,0,0,0,2,1.9c.36,1.4.76,2.77,1.2,4.09l-.11,0a2.49,2.49,0,0,0-1.64,3.1l.53,1.71a2.48,2.48,0,0,0,3.1,1.64l.62-.19a58.17,58.17,0,0,0,2.83,5.4l-1.21.7a2.49,2.49,0,0,0-.91,3.39l.9,1.55a2.49,2.49,0,0,0,3.39.91l1.55-.9h0c.65.87,1.31,1.72,2,2.52L32.52,194a2.5,2.5,0,0,0,0,3.51l1.27,1.27a2.5,2.5,0,0,0,3.51,0l.89-.9c1,1,2,1.87,2.92,2.66l6.41,28.15c-2.54,0-51.95-27-53.49-25.21a6.19,6.19,0,0,0-1.55-.71c-4.4-1.32-9.25,3.08-4,3.79s.81,6.23-7,9.19c-14.41,5.42-22,25.78-17.68,34.7,6.1,12.54,20.61,19,44.11,19a120.78,120.78,0,0,0,23.41-2.15c.23,9.68,4.37,19,9.78,22,12.18,6.79,27.75,3.76,47-9.69,3.82-2.66,7.22-5.31,10.25-7.9,6.39.39,13,.59,19.74.59,10.08,0,19.82-.45,29-1.3a128.94,128.94,0,0,0,11,8.61c19.27,13.45,34.85,16.48,47,9.69,5.45-3,9.61-12.49,9.78-22.24a119.41,119.41,0,0,0,24.45,2.36c23.5,0,38-6.43,44.11-19C287.88,241.56,280.27,221.2,265.86,215.78Zm-49.21-38-.06-.2.31-.18Zm-26.07-5.26h0l-.08-.16a21.58,21.58,0,0,0-1.78-3.15h.09a15.45,15.45,0,0,1,9.56,6.37l.23.34c.09.16.19.31.29.47s.07.13.11.2a20.94,20.94,0,0,1,2.52,7.8l-2.85.63c-3.31.74-8.35,0-8.35,0s1-1.47,1.55-6.06A12.57,12.57,0,0,0,190.58,172.55ZM179,199.73c8.39.48,15,.73,18.53.84h-39a5.11,5.11,0,0,1,3.2-2.31C166.53,197,166.3,199,179,199.73Zm-37.18-59.94v-.23a5.49,5.49,0,0,1,1.69.1ZM37.56,158.3c-1.75-4.79-1.79-11.1-1.49-15.7a2.49,2.49,0,0,0,2.64.11l1-.61a10.85,10.85,0,0,0,1.73,1.79l.42.35-.9,1.19a2.48,2.48,0,0,0,.48,3.47L42.91,150a2.5,2.5,0,0,0,3.48-.48l1-1.38c.83.51,1.3.76,1.3.76s-.06.37-1,4-1.83,6-1.09,12.81c.4,3.75,2.89,8.33,5.05,11.7-.18.53-.37,1.05-.54,1.6a18.88,18.88,0,0,1-1.48-1.67C47.3,174.31,40.69,166.84,37.56,158.3Zm181,15.87a2.48,2.48,0,0,0-.2-.44l-.89-1.56a2.48,2.48,0,0,0-3.39-.9l-.16.09a25.45,25.45,0,0,0-2.22-3.15,2.48,2.48,0,0,0-.06-2.35l-.89-1.56a2.48,2.48,0,0,0-3.39-.9l-.37.21c-.72-.58-1.48-1.15-2.3-1.73l-.42-.28A2.45,2.45,0,0,0,204,160l-.89-1.55a2.5,2.5,0,0,0-3.39-.91l-1.55.89-.25.18-1.06-.26c.53-.43,1.2-1,1.84-1.43C200,156,204,149,204,149a10.51,10.51,0,0,0,3.77,2.39c2.66,1.1,8.36,4,11.11,12.59A15,15,0,0,1,218.56,174.17Zm-21.72-60.23a20.13,20.13,0,0,1-1,14.63,27,27,0,0,1-2.22-2.93c-.66-1.08-1.39-2.37-2.09-3.75-3.13-7-2.56-14.86-1.15-20.08C190.41,101.81,194.27,105.3,196.84,113.94ZM182,91.61s-4.23,9.65-4.59,19.57,3.85,21.13,7.53,25.35,5.51,5,5.51,5-5.14,5.7-6.61,7.17a13,13,0,0,1-3.68,2.38s4.41-2.2,2-4-4.77,2.39-5.14,3.13-2.21,4.22-2.21,4.22-9.37,5.15-13.77,5.7l-4.41.55s9.92-5,7.9-24.07-14.83-28.84-20-32.33c-1.24-.84-2.31-1.58-3.24-2.24s-2.14-1.86-3.65-3.33c3.19-.27,17.1-1.56,23.58-4,7.35-2.75,14.88-10.1,14.88-10.1ZM64.38,127a22,22,0,0,1,6.23.59,47.8,47.8,0,0,0-11.69,6.08L57,132.37S59.24,127.16,64.38,127ZM-8.4,218.38-8,218v24.26c-4.71-.63-9-2-11.42-4.12C-26.46,232.07-19.41,228.27-8.4,218.38Zm56.2,51.21c-4.13-.42-5.69-2.08-5.87-5,1.45-.48,2.82-1,4.08-1.47,4.1,1.27,8.55,2.44,13.3,3.48C55.16,268.66,51,269.92,47.8,269.59Zm150.69,0c-4,.41-9.47-1.64-14.54-4.74,4.53-1.19,8.72-2.5,12.51-3.91a70.63,70.63,0,0,0,7.91,3.25C204.29,267.39,202.77,269.15,198.49,269.59Zm68.25-31.45c-2.41,2.07-6.52,3.43-11.09,4.08V218.3a.6.6,0,0,0,.08.08C266.74,228.27,273.78,232.07,266.74,238.14Z"/><rect class="cls-3" x="197.07" y="157.53" width="6.75" height="6.75" rx="2.33" ry="2.33" transform="translate(-53.6 121.78) rotate(-30)"/><rect class="cls-3" x="204.73" y="163.39" width="6.75" height="6.75" rx="2.33" ry="2.33" transform="translate(-55.5 126.4) rotate(-30)"/><rect class="cls-3" x="211.45" y="171.26" width="6.75" height="6.75" rx="2.33" ry="2.33" transform="translate(-58.54 130.81) rotate(-30)"/><rect class="cls-3" x="34.26" y="135.96" width="6.75" height="6.75" rx="2.33" ry="2.33" transform="translate(-64.63 37.48) rotate(-30)"/><rect class="cls-3" x="40.7" y="143.38" width="6.75" height="6.75" rx="2.33" ry="2.33" transform="matrix(0.6, -0.8, 0.8, 0.6, -99.47, 93.13)"/><rect class="cls-3" x="64" y="115.5" width="6.75" height="6.75" rx="2.33" ry="2.33" transform="translate(-17.53 11.82) rotate(-8.88)"/><rect class="cls-3" x="73.4" y="117.14" width="6.75" height="6.75" rx="2.33" ry="2.33" transform="translate(-17.67 13.29) rotate(-8.88)"/><rect class="cls-3" x="80.44" y="121.62" width="6.75" height="6.75" rx="2.33" ry="2.33" transform="translate(-18.28 14.43) rotate(-8.88)"/><rect class="cls-3" x="25.6" y="110.26" width="6.75" height="6.75" rx="2.33" ry="2.33"/><rect class="cls-3" x="25.6" y="100.66" width="6.75" height="6.75" rx="2.33" ry="2.33"/><rect class="cls-3" x="27.26" y="91.96" width="6.75" height="6.75" rx="2.33" ry="2.33" transform="translate(-69.24 88.16) rotate(-68.07)"/><rect class="cls-3" x="34.26" y="84.5" width="6.75" height="6.75" rx="2.33" ry="2.33" transform="translate(-49.76 49.15) rotate(-42.92)"/><rect class="cls-3" x="42.03" y="78.54" width="6.75" height="6.75" rx="2.33" ry="2.33" transform="matrix(0.87, -0.5, 0.5, 0.87, -34.87, 33.68)"/><rect class="cls-3" x="63.38" y="230.11" width="6.75" height="6.75" rx="2.33" ry="2.33" transform="matrix(0.28, -0.96, 0.96, 0.28, -176.09, 232.64)"/><rect class="cls-3" x="55.48" y="226.09" width="6.75" height="6.75" rx="2.33" ry="2.33" transform="translate(-158.07 134.27) rotate(-51.92)"/><rect class="cls-3" x="48.95" y="217.3" width="6.75" height="6.75" rx="2.33" ry="2.33" transform="translate(-93.76 47.21) rotate(-26.76)"/><rect class="cls-3" x="46.71" y="208.17" width="6.75" height="6.75" rx="2.33" ry="2.33" transform="translate(-49.17 18.13) rotate(-13.84)"/><rect class="cls-3" x="51.77" y="73.66" width="6.75" height="6.75" rx="2.33" ry="2.33" transform="translate(-36.81 54.22) rotate(-40.47)"/><rect class="cls-3" x="71.49" y="64.58" width="6.75" height="6.75" rx="2.33" ry="2.33" transform="translate(-26.19 64.86) rotate(-40.47)"/><rect class="cls-3" x="77.7" y="56.15" width="6.75" height="6.75" rx="2.33" ry="2.33" transform="translate(-11.01 99.98) rotate(-60)"/><path class="cls-6" d="M104.22,133.91S75.29,146.66,72.67,159.4,69.09,191.23,84,192.06s45.33-16.4,53.87-21.5,19.84-21.08,17.23-22.73-5.61-7.72-8.82-8.13-7,.83-9-.28-9.17-4.68-9.17-4.68Z"/><path class="cls-3" d="M118.6,147.65s6.8-1.93,7.53-1.93,2.85,1.19,2.57,1.93-1.47,1.83-4.59,2.66-5.51,1.74-5.51,1.74Z"/><path class="cls-3" d="M225.06,144.8c-9.37-7.17-17.64-8.81-17.64-8.81s2.76-6.86,1.11-21.2A35,35,0,0,0,196.4,92.48a5.88,5.88,0,0,1,1.93-3.35A21.33,21.33,0,0,1,215.41,86a40.66,40.66,0,0,1,13.78,6.46s0-5-5.51-9.83c-4.68-4.1-8-9-21.49-5.92C192,79,188.68,84.45,188.68,84.45L179,76.29s.55-8.37-1.65-13.89a21.27,21.27,0,0,0-6.34-8.54s-.28-3.3,4.13-9,11,3.19,11,3.19V44.89S181,38.16,173.25,39s-10.74,8.82-10.74,8.82-8.82-.83-13.78,1.38S137.15,58.55,140.18,66s10.2,6.06,13.51,4.23a4.27,4.27,0,0,0,2.2-5.06s-3,2.48-7.71.55-1.75-7.84,1.37-9.09c6.89-2.76,11.3.82,11.3.82a20.37,20.37,0,0,0,.15,8c.94,4.34,6.47,10.8,6.47,10.8s-.83,2.65-8.82,6.36S127.78,88,127.78,88s-2.75-3.3-8-8.54S110.7,57.72,111,44.89,119.79,26,125.3,23.27s12.68-2.75,15.44,4.14-5,9.37-9.1,7.44-.82-9.1-3.86-4.69S130.54,42,138.26,42.29s12.67-9.92,10.47-18.19S135.5,10.32,125.86,12.25s-17.92,9.1-22.33,16.26-7.44,20.67-3.85,38.3,12.67,25.67,12.67,25.67a41.16,41.16,0,0,0-16.81,15.39c-4.34,7.36-4,12.91-3.4,15.68-2.21.1-4.31.27-6.32.5a16.6,16.6,0,0,0-4.88-3.23c-6.06-2.48-13.5-5-21.22-2.75s-9.92,5.5-9.92,5.5l-3.93-4.88a43.89,43.89,0,0,1,3.65-3.38A89.66,89.66,0,0,0,64.64,98a40.76,40.76,0,0,0,5.28-15.3,46.73,46.73,0,0,0,14.6-12.43c6.89-8.72,8.54-19.94,5.24-26.83-2.63-5.47-8.55-10.19-17.64-7.71-5.05,1.37-11.57,7.16-7.48,13s10.51.55,10.51.55a12,12,0,0,1-5-1.1c-1.93-1.11-1.1-6.62,4.14-6.89s9.09,9.92,6.06,17.11a23.18,23.18,0,0,1-9.92,10.64s.27-6.54-5.83-16.18S50.35,42.29,42.91,44.89C32.44,48.56,32.71,58.3,32.71,58.3a8.59,8.59,0,0,1,5.79-6.64c5.3-2,10.44-.59,15.43,5.51S57.37,74,57.37,74s-18.32,8-26,18.5-2.76,24.21-2.76,24.21S15.08,131,19.76,162.16s28.66,43.73,28.66,43.73,1.38,25.16,22,31.77,36.1-5.23,42.16-10.47,8.27-14.88,8.27-14.88.82,5,8.42,3.86,8.38-2.76,8.38-2.76,16.81,19.84,33.9,21,28.66,0,38.58-13.51c9.57-13,8-21.42,8-21.42s14.6-7.51,18.19-20.74A32.59,32.59,0,0,0,225.06,144.8Zm-34.81-43s3.85,3.49,6.43,12.13a19.87,19.87,0,0,1-1.11,14.88s-5.88-8.09-6.79-14.33S190.25,101.81,190.25,101.81Zm-145-6.06c3.26-5.14,9.6-9.2,9.6-9.2s.37,3.5-3.06,8.09a38.25,38.25,0,0,1-9.06,8.09S42,100.89,45.25,95.75Zm46,120c-3.31,1.47-9.74,2.94-14.33,1.84S69,212,69,212s12.31,1.83,18.92,0,7.16-3.91,7.16-3.91a1.86,1.86,0,0,0,1.76,2.36C99.13,210.75,94.53,214.24,91.23,215.71Zm4.86-32.61a19.89,19.89,0,0,1-13.77,2.48s6.06-3.3,6.57-5.51-7.4-1.93-9.6-4.68,0-7.17,0-5a5.09,5.09,0,0,0,3.58,5H94.52s5.71-3.59,4.88-9.1-4.88-5.78-4.88-5.78l-13,4.4.83-.72c1.39-1,2.73-2,3.94-3.08,2.64-1.88,5.86-3.78,8.26-3.91,4.85-.27,9.29,2.2,10.67,8.82S103,179,96.09,183.1ZM80.57,169.65c0-2.36,1.54-4.28,3.45-4.28s3.44,1.92,3.44,4.28-1.59,4.77-3.49,4.77S80.57,172,80.57,169.65Zm50.8-8.87a12.93,12.93,0,0,1-18.88-1.51c-4.41-5.52-4.13-13.35.69-19.14s13.64.4,13.64.4-7.3-2.07-10.88,3.17-2.62,13.84,7.57,14.63,10.2-10.78,10.2-10.78S137.57,155.41,131.37,160.78ZM131,148.33a5.92,5.92,0,1,1-5.92-5.92A5.93,5.93,0,0,1,131,148.33Zm-18.84-23.71c-.86-2.61-2.7-9.21-.52-12.63,2.75-4.33,10.47-7.79,10.47-7.79a56,56,0,0,0,8.08,10.29c5.51,5.69,8.09,7.9,10.47,11.25s5.52,15.75,2.39,13.55a8.23,8.23,0,0,0-4.17-1.57C134.88,133.26,127.57,127.15,112.14,124.62Zm33.53,18.54c-.41-.72-2.52-.18-3.69.19a30.66,30.66,0,0,1-.33-3.79,5.3,5.3,0,0,1,4.41,1.66c1.75,2,2.76,3.67,2.21,6.43a7.89,7.89,0,0,1-2.85,4.4,28.68,28.68,0,0,1-2.61-5.12,15.41,15.41,0,0,0,2.86-1.57A1.84,1.84,0,0,0,145.67,143.16Zm.3,14.13c-2.75,0-2.94-1.65-4.77-4s-2.58-6.61-2.58-6.61a16.65,16.65,0,0,1,2.39,3.67c.92,2,4.23,4.41,5.7,4.41s2.57-4.23,2.57-4.23S148.73,157.29,146,157.29Zm18.37-20.76c-2-19.1-14.82-28.84-20-32.33s-7.56-5.51-7.56-5.51,16.9-1.3,24.25-4,14.88-10.1,14.88-10.1l5.87,7.07s-4.22,9.65-4.59,19.57,3.86,21.13,7.53,25.35,5.52,5,5.52,5-5.15,5.7-6.62,7.17A13,13,0,0,1,180,151s4.41-2.2,2-4-4.78,2.39-5.15,3.13-2.2,4.22-2.2,4.22-9.37,5.15-13.78,5.7l-4.41.55S166.36,155.64,164.34,136.53ZM198.51,185c-3.3.74-8.34,0-8.34,0s1-1.47,1.55-6.06-3.15-9.74-3.15-9.74,2.59-.55,7.19,3.49,6.06,11.58,6.06,11.58ZM215.6,179A25.77,25.77,0,0,0,209,166.11a24,24,0,0,0-13.22-7s1.47-1.29,2.75-2.21,5.33-7.9,5.33-7.9a10.39,10.39,0,0,0,3.77,2.39c2.66,1.1,8.35,4,11.11,12.59S215.6,179,215.6,179Z"/><path class="cls-6" d="M65.51,119.45s12,1.65,15.43,12.92c2.21,7.32-1,13.3-9,19.68s-6.78,5.43-6.78,5.43a44.49,44.49,0,0,0-11.78,15.43c-4.43,9.67-7.44,23.79-3.86,40.6s14.88,21.67,20.95,24.15a25,25,0,0,0,11,2s-9.8-1.29-17.33-19.68c-4.44-10.84-4.52-23.78.94-38.45s16.78-19.32,21.75-29.07c5.14-10.1,6.56-19.8-1-28.37-9.47-10.76-26.1-6-26.1-6Z"/><path class="cls-6" d="M70.47,68.94l-.1,1.34s6.32-3.72,8.55-8.61c2.29-5.05,3.42-8,2.41-11.75a27.55,27.55,0,0,0-2.41-6.16s2.39,4.5,2.48,6.8a17.07,17.07,0,0,1-2,9.18A23.23,23.23,0,0,1,74,66.58C72.5,67.68,70.47,68.94,70.47,68.94Z"/><path class="cls-6" d="M56.45,74.73A61.57,61.57,0,0,0,40,85.08c-7.84,7-9.95,12.88-10.42,17.1a34.46,34.46,0,0,0-.31,8.58,34.82,34.82,0,0,0,.9,5.78s2.18-3.24,4.33-5.82l2.15-2.59S34.39,97.78,39.2,91.38a60.33,60.33,0,0,1,17-14.84Z"/><path class="cls-6" d="M42.32,122.38a40.62,40.62,0,0,0-3.27,6.17,19.45,19.45,0,0,0-1.42,6.76,15.65,15.65,0,0,0,4.47,6.85,24.89,24.89,0,0,0,6.84,4.6A28.24,28.24,0,0,1,52,141a21.55,21.55,0,0,1,3.19-4.22s-5.63-4-8.36-7.59A52.92,52.92,0,0,1,42.32,122.38Z"/><path class="cls-6" d="M32.71,58.3s-1.21-9,9.47-13.13c8.38-3.23,13.64-1.42,17.4,1C64.13,49,67.17,53.57,69,60.34a46,46,0,0,1,.9,22.31c-1.66,8.87-2.55,9.83-2.55,9.83S70.89,76.71,69,69C66.47,59,61.2,50.15,53.66,48.9c-7.13-1.17-17.43,2.83-19.46,5.91A8.94,8.94,0,0,0,32.71,58.3Z"/><path class="cls-6" d="M99.86,102a63.35,63.35,0,0,1,7.61-6.66,34.48,34.48,0,0,1,4.88-2.85l2.57,2.85a26.47,26.47,0,0,0-9.18,2.81A28.72,28.72,0,0,0,99.86,102Z"/><path class="cls-6" d="M127.78,88s9.74-.73,15.62-1.65,10.4-.92,17.45-5.14c5.8-3.47,9.19-6.43,10.47-9.37s-1.65-10.29-1.65-10.29,5.14,7.71,3.12,12.4-6.32,10.75-16.16,14.42-24.8,4.08-24.8,4.08Z"/><path class="cls-3" d="M99.68,66.81s0,13.82,16.35,32.06c12.44,13.88,16.3,17.82,16.3,17.82L143,103.46S137.34,99.61,127.78,88,114.92,71.77,110.7,50.92C105,22.53,99.68,66.81,99.68,66.81Z"/><path class="cls-3" d="M175,158.76s-1.47,5,4.41,11.39,2.38,9.55,2.38,9.55l8.64-7.16s-1.1-2.39-5.14-6.43-7.35-5.51-7.35-9.55-1.47-2.39-1.47-2.39Z"/><path class="cls-6" d="M229.19,92.48s-13.78-8.86-24.25-6.38S191.81,96,190.25,101.81s-2.12,14.88,2.29,22.32,8.82,9.39,14.88,11.86,11.11,4.51,11.11,4.51a38.59,38.59,0,0,1-18-4.8c-8.54-5-13.22-9.36-15.7-24s6.65-22.66,12.67-26.06c8-4.53,12.13-4,18.74-2S229.19,92.48,229.19,92.48Z"/><rect class="cls-3" x="17.38" y="150.46" width="6.75" height="6.75" rx="2.33" ry="2.33"/><rect class="cls-3" x="18.94" y="162.14" width="6.75" height="6.75" rx="2.33" ry="2.33" transform="translate(-35.44 8.8) rotate(-12.55)"/><rect class="cls-3" x="20.75" y="172.73" width="6.75" height="6.75" rx="2.33" ry="2.33" transform="translate(-50.69 14.87) rotate(-17.09)"/><rect class="cls-3" x="25.6" y="184.6" width="6.75" height="6.75" rx="2.33" ry="2.33" transform="translate(-90.11 39.67) rotate(-30)"/><rect class="cls-3" x="32" y="192.41" width="6.75" height="6.75" rx="2.33" ry="2.33" transform="translate(-128.08 82.36) rotate(-45)"/><rect class="cls-3" x="40.7" y="199.18" width="6.75" height="6.75" rx="2.33" ry="2.33" transform="matrix(0.5, -0.87, 0.87, 0.5, -153.38, 139.45)"/><path class="cls-3" d="M219.64,240.9c0,17.36-45.53,31.43-101.7,31.43S16.23,258.26,16.23,240.9s42.14-34.52,98.31-34.52S219.64,223.54,219.64,240.9Z"/><path class="cls-3" d="M187.29,255.22s14.82,14.23,52,14.23c23.51,0,38-6.43,44.11-19,4.35-8.92-3.27-29.28-17.68-34.7-7.85-3-12.33-8.49-7-9.19s.44-5.11-4-3.79-7.91,7.68.88,15.58c11,9.89,18.06,13.69,11,19.76s-28.66,6-33.93-.12S187.29,255.22,187.29,255.22Z"/><path class="cls-3" d="M59.71,255.22s-14.82,14.23-52,14.23c-23.5,0-38-6.43-44.1-19-4.35-8.92,3.27-29.28,17.68-34.7,7.85-3,12.33-8.49,7-9.19s-.44-5.11,4-3.79,7.91,7.68-.88,15.58c-11,9.89-18.06,13.69-11,19.76s28.66,6,33.93-.12S59.71,255.22,59.71,255.22Z"/><path class="cls-3" d="M122.43,238.22s-4,20.16-34.48,41.42c-19.27,13.45-34.85,16.48-47,9.69-8.67-4.83-14.08-25.88-5.37-38.58,4.75-6.92,5.26-14,.52-11.57s-3.28-3.93,1.08-5.37,10.89,1.77,8.2,13.28c-3.37,14.41-8.06,12.74,1.2,13.68s28-2.64,28.83-10.69S122.43,238.22,122.43,238.22Z"/><path class="cls-3" d="M123.53,238.22s4,20.16,34.48,41.42c19.27,13.45,34.85,16.48,47,9.69,8.67-4.83,14.08-25.88,5.37-38.58-4.75-6.92-5.26-14-.52-11.57s3.28-3.93-1.09-5.37-10.88,1.77-8.19,13.28c3.37,14.41,4,9.92-5.3,10.86s-23.94.18-24.74-7.87S123.53,238.22,123.53,238.22Z"/><polygon class="cls-3" points="-5.67 197.87 -5.67 287.23 249.65 292.55 269.86 215.96 264.54 195.75 242.2 192.55 223.31 200.64 219.64 198.59 214.82 213.34 198.58 223.4 175.18 224.47 157.09 214.89 120.92 204.25 76.78 212.76 66.67 232.98 69.86 244.68 47.52 220.21 43.26 211.7 44.08 208.68 -5.67 197.87"/><path class="cls-6" d="M90.1,199.79H73v2.61H88.53a13.3,13.3,0,0,1-3.87,4.49l-.7.5.76.42a9.38,9.38,0,0,1,1.25.84l.36.31.36-.3A19.83,19.83,0,0,0,92,201.57a.87.87,0,0,0,.35-.36l.24-.48-2.11-1.11Z"/><path class="cls-6" d="M80.55,204.69c-.62,6.13-2.64,9.94-6.37,12l-.86.47.85.49a10.3,10.3,0,0,1,1.12.88l.39.33.34-.19c4-2.32,6.37-6.53,7.21-12.88a1,1,0,0,0,.56-.72l.07-.56-3.26-.37Z"/><path class="cls-6" d="M106,204.39c-1.55,6.31-4.41,9.87-9.59,11.91l-.86.34.71.59a6.47,6.47,0,0,1,.76.9l.25.38.41-.17c5.4-2.19,8.76-6.19,10.55-12.58a.84.84,0,0,0,.57-.61l.11-.5-2.77-.82Z"/><path class="cls-6" d="M97.28,209.52a23.89,23.89,0,0,0-1.7-4.89l-.21-.42-2.25.71.27.57A24.45,24.45,0,0,1,95,210.07l.11.57,2.31-.61Z"/><path class="cls-6" d="M99.64,209.13l.06.6,2.4-.45-.06-.51a30.37,30.37,0,0,0-1.06-5.12l-.15-.48-2.39.52.19.58A26.47,26.47,0,0,1,99.64,209.13Z"/><polygon class="cls-6" points="110.58 204.08 124.28 204.08 124.28 213.76 110.36 213.76 110.36 216.35 124.28 216.35 124.28 217.56 127 217.56 127 201.5 110.58 201.5 110.58 204.08"/><path class="cls-6" d="M130.49,217.16h2.65v-1.43h11.08v1.39h2.69V201.43H130.49ZM144.22,204v9.13H133.14V204Z"/><path class="cls-6" d="M165.29,203.35h-6.41c.16-1.07.26-2.07.36-3.25a.94.94,0,0,0,.58-.79l.05-.55-3.3-.27,0,.56c-.09,1.51-.2,2.84-.42,4.3h-6.49v2.59h6c-1.13,4.84-3.17,8.16-6.54,10.7l-.64.48.68.42a6.69,6.69,0,0,1,1.14.88l.34.37.4-.3c3.73-2.8,6.15-6.91,7.41-12.55h6c-.27,5.31-.87,8.25-1.34,9.21a1.13,1.13,0,0,1-1.22.76,22.66,22.66,0,0,1-3.75-.54l-.78-.18.11.79a7,7,0,0,1,.07,1.44l0,.5.49.1a24.17,24.17,0,0,0,4.06.51,3.59,3.59,0,0,0,3.38-1.87c.92-1.68,1.54-5.71,1.83-12a2,2,0,0,0,.13-.23l-.47-.28.49.25.28-.56-1.91-.68Z"/><path class="cls-6" d="M182.5,207.4l-.29-.33-2.31,1.31.46.51a36.29,36.29,0,0,1,3.4,4.56c-2.82.24-6.93.52-10.09.67,1.34-3.85,3-9.1,4.28-13.23a1.07,1.07,0,0,0,.72-.58l.26-.6-3.3-.88-.14.53c-1.21,4.39-3.22,10.72-4.65,14.88l-1.61.06-1,0,.95,3.16.5-.11a1,1,0,0,0,.65-.44c3.39-.18,10.34-.61,14.88-1.08.36.68.69,1.34,1,2l.23.51,2.56-1.17-.23-.5A45,45,0,0,0,182.5,207.4Z"/><path class="cls-6" d="M204.57,198.39l-.33.37c-3.6,4-10.19,8.6-16,11.3l-.72.33.56.56a7.65,7.65,0,0,1,.85,1.12l.26.42.45-.22a66.46,66.46,0,0,0,7.62-4.38v10.87H200v-12a.93.93,0,0,0,.46-.52l.14-.45-.12-.07a53.17,53.17,0,0,0,5.43-4.6h0a1,1,0,0,0,.85-.39l.36-.44Z"/></g></svg>