<svg xmlns="http://www.w3.org/2000/svg" viewBox="0 0 1114.87 328.8"><defs><style>.cls-1{fill:#cfcdcc;}</style></defs><title>Fichier 1</title><g id="Calque_2" data-name="Calque 2"><g id="Calque_1-2" data-name="Calque 1"><polygon class="cls-1" points="0.75 324.89 0 324.23 331.86 184.32 460.34 304.81 540.49 206.74 541.26 207.38 460.4 306.31 460.01 305.9 331.89 185.79 0.75 324.89"/><polygon class="cls-1" points="255.61 306 255.14 305.12 438 206.19 540.69 0.31 541.16 0.65 543.34 86.92 966.18 3.06 849.87 4.06 733.87 4.06 925.87 86.32 925.87 159.34 1010.71 235.19 1010.04 235.93 924.87 159.78 924.87 86.8 733.87 4.06 966.57 4.06 543.41 88.2 543.08 87.97 541.06 1.81 438.75 206.92 438.61 207 255.61 306"/><polygon class="cls-1" points="459.89 305.67 437.71 205.86 438.5 206.07 614.5 253.07 614.25 254.04 439.04 207.25 460.86 305.45 459.89 305.67"/><polygon class="cls-1" points="254.38 306.1 330.88 185.59 331.87 185.52 255.37 306.02 254.38 306.1"/><polygon class="cls-1" points="540.23 87.04 396.23 4.04 396.52 3.08 540.52 86.08 540.23 87.04"/><polygon class="cls-1" points="593.86 328.69 592.89 328.42 613.93 253.3 660.37 206.85 729.73 276.2 729.02 276.91 660.37 208.27 614.82 253.82 593.86 328.69"/><rect class="cls-1" x="557.72" y="267.56" width="138.31" height="1" transform="translate(88.75 686.68) rotate(-61.03)"/><polygon class="cls-1" points="1090.29 188.05 923.98 159.83 925.11 159.13 1111.11 44.13 1111.64 44.98 926.76 159.29 1090.46 187.06 1090.29 188.05"/><path class="cls-1" d="M924.12,87.92,968.85,0,1015,104.73ZM968.9,2.12,926.63,85.2l87.07,19.19Z"/><path class="cls-1" d="M439.82,208.11,331.21,186.05,6.31,62.41,187.07.46,331.53,184.91l65-182Zm-107.46-22.5L436.92,205,396.18,4.23ZM11.44,61.71,330.38,185,186.68,1.65Z"/><circle class="cls-1" cx="1009.87" cy="234.06" r="4"/><circle class="cls-1" cx="1090.87" cy="187.06" r="4"/><circle class="cls-1" cx="1110.87" cy="44.06" r="4"/><circle class="cls-1" cx="729.87" cy="277.06" r="4"/><circle class="cls-1" cx="437.87" cy="207.06" r="4"/></g></g></svg>