<svg id="Calque_1" data-name="Calque 1" xmlns="http://www.w3.org/2000/svg" viewBox="0 0 665.06 287.12"><defs><style>.cls-1{fill-opacity:0;}.cls-2{fill:#fff;}.cls-3{opacity:0.5;}.cls-4{fill:none;stroke:#fff;stroke-miterlimit:10;}</style></defs><title>Plan de travail 1</title><g id="Calque_2" data-name="Calque 2"><g id="Calque_1-2" data-name="Calque 1-2"><rect class="cls-1" x="-373.48" y="-0.45" width="1278.48" height="287.92"/><path class="cls-2" d="M185.47,118.16l39.79,72.69H145.75l39.76-72.68m0-2.35L143.81,192h83.32L185.47,115.8Z"/><path class="cls-2" d="M237.59,106.82V211H133.37V106.82H237.59m.88-.88h-106v106h106Z"/><path class="cls-2" d="M169.89,173.66V158.53a7.37,7.37,0,0,1,.11-.93l.21-1.67H161c-.07.24-.14.52-.22.78a39.67,39.67,0,0,1-1.85,4.4c-.5,1.1-1,2.2-1.51,3.28l-2.32,4.9c-.33-.71-.64-1.35-.93-2-1.1-2.4-2.18-4.79-3.29-7.18a20.62,20.62,0,0,1-1.64-4.22h-9.57a18,18,0,0,1,.31,1.95c.08,1.76.1,3.52.14,5.34v6.48c0,1.07-.09,2.17,0,3.26a15.28,15.28,0,0,1-.13,2.14,12.85,12.85,0,0,1-.14,1.28,5.42,5.42,0,0,0,0,.57h4.84a6.73,6.73,0,0,0-.08-.81,17.33,17.33,0,0,1-.26-2V161.8a1.61,1.61,0,0,1,0-.46c.1.09.19.13.23.2.47,1,.95,2,1.41,3q1.93,4.17,3.85,8.35a15.79,15.79,0,0,1,1.41,3.76,1,1,0,0,1,0,.24h5a15.53,15.53,0,0,1,.6-1.9q1.53-3.56,3.12-7.09c.88-2,1.76-4,2.7-5.94.11-.23.24-.44.42-.76a2,2,0,0,1,.2.48,9,9,0,0,1,0,1c-.06,2.64.09,5.28-.12,7.93-.08,1.11,0,2.25,0,3.37a8.6,8.6,0,0,1-.18,2.48.81.81,0,0,0,0,.38h7.23l0-.64A25.72,25.72,0,0,1,169.89,173.66Z"/><path class="cls-2" d="M180.55,155.93a6.28,6.28,0,0,0-.27.59c-.17.54-.3,1.1-.51,1.63s-.53,1.2-.81,1.81c-1.36,3.06-2.72,6.16-4.09,9.19-1,2.28-2.09,4.55-3.13,6.82a2.53,2.53,0,0,0-.29,1h4.63a24.76,24.76,0,0,1,1.76-4.49h10a40.24,40.24,0,0,1,1.77,4.49h7.67c-3.18-7-6.58-13.93-9.68-21Zm-1,13.11c1.11-2.6,2.18-5.13,3.27-7.71a60.61,60.61,0,0,1,3.46,7.67A52.12,52.12,0,0,1,179.52,169Z"/><path class="cls-2" d="M205.18,167.69c.08-3.81-.27-7.64.29-11.44a1.32,1.32,0,0,0-.08-.3h-6.73l-.7.06v.31a24.48,24.48,0,0,1,.42,4.18v11.58a20.59,20.59,0,0,1-.33,4.7.54.54,0,0,0,0,.18h7.55a19.26,19.26,0,0,1-.44-3.63C205.18,171.48,205.14,169.57,205.18,167.69Z"/><path class="cls-2" d="M230.91,165.31a13.34,13.34,0,0,1-3.67.36H217.17a34.07,34.07,0,0,1,.05-5.44H227.6a11.56,11.56,0,0,1,3,.31,3.42,3.42,0,0,0,.64,0v-4.2a.48.48,0,0,0-.16-.35H209.86a.45.45,0,0,0,0,.23,12.27,12.27,0,0,1,.47,3.56v13.31A16.15,16.15,0,0,1,210,177h7.34a24.37,24.37,0,0,1-.36-3.18,9.08,9.08,0,0,1,.27-3.52c.14,0,.23-.05.31-.05h10.62a12.46,12.46,0,0,1,1.37.13l1.65.23a30.9,30.9,0,0,0,0-5.18A.7.7,0,0,0,230.91,165.31Z"/><path class="cls-2" d="M299.22,106.39h6.16a8.42,8.42,0,0,1,2.18.29,8.62,8.62,0,0,1,1.93.88,8.11,8.11,0,0,1,1.62,1.3,7.8,7.8,0,0,1,1.23,1.68,8.35,8.35,0,0,1,.79,2,8.62,8.62,0,0,1,.28,2.2,8.93,8.93,0,0,1-.28,2.24,8.42,8.42,0,0,1-.79,2,7.57,7.57,0,0,1-7,4.08h-6.16v-1.89h1.59V108.29h-1.59Zm3.74,1.9v12.89h2.64a4.72,4.72,0,0,0,2.18-.51,5.47,5.47,0,0,0,1.76-1.38,6.74,6.74,0,0,0,1.13-2.05,7.64,7.64,0,0,0,.44-2.55,7.37,7.37,0,0,0-.44-2.51,6.6,6.6,0,0,0-1.2-2,5.55,5.55,0,0,0-1.76-1.36,5,5,0,0,0-2.18-.5Z"/><path class="cls-2" d="M317,117.64a3.74,3.74,0,0,0,.07.88,4.05,4.05,0,0,0,.2.76,3.15,3.15,0,0,0,1.3,1.66,3.84,3.84,0,0,0,2,.55,6.23,6.23,0,0,0,1.76-.24,9.53,9.53,0,0,0,1.76-.78l.82,1.4a9.37,9.37,0,0,1-2.25,1.15,7.86,7.86,0,0,1-2.36.37,5.8,5.8,0,0,1-2.14-.39,4.5,4.5,0,0,1-1.7-1.15,5.55,5.55,0,0,1-1.11-1.89,7.86,7.86,0,0,1-.39-2.64,7.55,7.55,0,0,1,.33-2.31,5.68,5.68,0,0,1,1-1.89,5,5,0,0,1,1.68-1.28,5.39,5.39,0,0,1,2.34-.47,5.31,5.31,0,0,1,2.15.38,3.89,3.89,0,0,1,1.4,1,4.57,4.57,0,0,1,.83,1.47,8.19,8.19,0,0,1,.39,1.68c0,.29.06.57.07.89s0,.56,0,.83Zm3.19-4.55a3.8,3.8,0,0,0-1.25.2,2.78,2.78,0,0,0-.88.59,2.86,2.86,0,0,0-.6.93,5.33,5.33,0,0,0-.33,1.23H323a5.3,5.3,0,0,0-.2-1.18,2.5,2.5,0,0,0-.48-.93,2.18,2.18,0,0,0-.88-.62A3.34,3.34,0,0,0,320.14,113.09Z"/><path class="cls-2" d="M333.69,114a1.64,1.64,0,0,0-.55-.53,2.16,2.16,0,0,0-.76-.3,3.74,3.74,0,0,0-.81-.1,2.78,2.78,0,0,0-.81.11,1.79,1.79,0,0,0-.63.28,1.33,1.33,0,0,0-.42.46,1.28,1.28,0,0,0,.2,1.48,3.33,3.33,0,0,0,1.16.62l2.19.78a4.13,4.13,0,0,1,2.06,1.28,3,3,0,0,1,.65,2,3.07,3.07,0,0,1-.31,1.39,3,3,0,0,1-.88,1.08,4.24,4.24,0,0,1-1.33.7,5.91,5.91,0,0,1-1.77.24,4.75,4.75,0,0,1-2.16-.43,3.35,3.35,0,0,1-1.29-1.13h-1.14v-1.9h2.27a1.43,1.43,0,0,0,.21.81,1.58,1.58,0,0,0,.54.55,2.53,2.53,0,0,0,.76.31,4.24,4.24,0,0,0,.88.09,2.84,2.84,0,0,0,.82-.1,2,2,0,0,0,.7-.31,1.57,1.57,0,0,0,.48-.48,1.28,1.28,0,0,0,.18-.66,1.3,1.3,0,0,0-.36-.93,3,3,0,0,0-1.22-.69l-2.17-.82a4.72,4.72,0,0,1-2-1.21,2.62,2.62,0,0,1-.64-1.83,3.09,3.09,0,0,1,.27-1.34,2.9,2.9,0,0,1,.77-1.06,3.59,3.59,0,0,1,1.25-.7,5.14,5.14,0,0,1,1.69-.26,5.3,5.3,0,0,1,2,.35,3.59,3.59,0,0,1,1.48,1.16h1.13v1.89h-2.29A1.25,1.25,0,0,0,333.69,114Z"/><path class="cls-2" d="M337.91,111.67h3.72v9.51h1.77v1.87H338v-1.89h1.63v-7.62h-1.65Zm1.27-4a1.24,1.24,0,0,1,.11-.54,1.39,1.39,0,0,1,.31-.45,1.21,1.21,0,0,1,.46-.31,1.43,1.43,0,0,1,1.11,0,1.39,1.39,0,0,1,.45.31,1.37,1.37,0,0,1,.3.45,1.25,1.25,0,0,1,.12.54,1.39,1.39,0,0,1-.12.57,1.74,1.74,0,0,1-.3.46,1.76,1.76,0,0,1-.45.32,1.43,1.43,0,0,1-1.11,0,1.32,1.32,0,0,1-.46-.32,1.62,1.62,0,0,1-.31-.46A1.38,1.38,0,0,1,339.18,107.63Z"/><path class="cls-2" d="M353,122.07a3.88,3.88,0,0,1-1.3.93,4.11,4.11,0,0,1-1.69.33,5.62,5.62,0,0,1-2.15-.4,4.79,4.79,0,0,1-1.76-1.18,5.53,5.53,0,0,1-1.15-1.9,7.34,7.34,0,0,1-.41-2.58,6.82,6.82,0,0,1,.4-2.41,5.47,5.47,0,0,1,1.11-1.85,5.07,5.07,0,0,1,1.77-1.19,6.2,6.2,0,0,1,3.83-.23,4.17,4.17,0,0,1,1.33.67v-.59h2v11a5.87,5.87,0,0,1-1.29,4.09,5.14,5.14,0,0,1-4,1.38,8.61,8.61,0,0,1-1.24-.08,6.8,6.8,0,0,1-1.28-.29,6.91,6.91,0,0,1-1.24-.48,5.75,5.75,0,0,1-1.11-.73l1.1-1.66a4.87,4.87,0,0,0,.76.52,5.06,5.06,0,0,0,.88.42,5.78,5.78,0,0,0,1,.27,5,5,0,0,0,1,.1,5.24,5.24,0,0,0,1.47-.18,2.22,2.22,0,0,0,1-.61,2.91,2.91,0,0,0,.59-1.21,7.81,7.81,0,0,0,.2-1.93Zm-2.73-.53a4.31,4.31,0,0,0,.88-.09,3.3,3.3,0,0,0,1.37-.63,3.66,3.66,0,0,0,.44-.44v-6.24a3.36,3.36,0,0,0-1.29-.72,5.09,5.09,0,0,0-1.5-.22,3.56,3.56,0,0,0-1.37.27,3.48,3.48,0,0,0-1.12.78,4.1,4.1,0,0,0-.75,1.27,5,5,0,0,0-.28,1.76,5.88,5.88,0,0,0,.27,1.87,3.8,3.8,0,0,0,.74,1.35,3.16,3.16,0,0,0,1.12.82,3.7,3.7,0,0,0,1.51.22Z"/><path class="cls-2" d="M365,121.18h1.61V116a2.72,2.72,0,0,0-.67-2,2.55,2.55,0,0,0-1.91-.68,3.28,3.28,0,0,0-1.44.34,7.68,7.68,0,0,0-1.38.88v6.69h1.61v1.8h-5.33v-1.89h1.62v-7.62h-1.58v-1.89h3.63V113h0a7.64,7.64,0,0,1,.77-.61,6.34,6.34,0,0,1,.88-.49,5.24,5.24,0,0,1,.94-.33,3.63,3.63,0,0,1,1-.12,4.86,4.86,0,0,1,1.65.25,3.28,3.28,0,0,1,1.26.77,3.49,3.49,0,0,1,.8,1.33,5.63,5.63,0,0,1,.27,1.91v5.46h1.59v1.89H365Z"/><path class="cls-2" d="M372.1,111.67h3.72v9.51h1.76v1.87h-5.45v-1.89h1.62v-7.62H372.1Zm1.27-4a1.24,1.24,0,0,1,.11-.54,1.57,1.57,0,0,1,.31-.45,1.45,1.45,0,0,1,1-.42,1.15,1.15,0,0,1,.55.11,1.39,1.39,0,0,1,.45.31,1.37,1.37,0,0,1,.3.45,1.25,1.25,0,0,1,.12.54,1.39,1.39,0,0,1-.12.57,1.74,1.74,0,0,1-.3.46,1.76,1.76,0,0,1-.45.32,1.15,1.15,0,0,1-.55.11,1.22,1.22,0,0,1-.56-.11,1.47,1.47,0,0,1-.46-.32,1.77,1.77,0,0,1-.31-.46A1.38,1.38,0,0,1,373.37,107.63Z"/><path class="cls-2" d="M386.73,121.18h1.61V116a2.67,2.67,0,0,0-.66-2,2.56,2.56,0,0,0-1.92-.68,3.27,3.27,0,0,0-1.43.34,7.34,7.34,0,0,0-1.38.88v6.69h1.61v1.8h-5.28v-1.89h1.58v-7.62h-1.58v-1.89h3.59V113h0a7.64,7.64,0,0,1,.77-.61,6.34,6.34,0,0,1,.88-.49,4.89,4.89,0,0,1,1-.29,4.46,4.46,0,0,1,1-.12,4.87,4.87,0,0,1,1.65.26,3.1,3.1,0,0,1,1.25.76,3.51,3.51,0,0,1,.81,1.33,5.9,5.9,0,0,1,.28,1.91v5.46h1.58v1.85h-5.33Z"/><path class="cls-2" d="M401.88,122.07a3.92,3.92,0,0,1-1.31.93,4.08,4.08,0,0,1-1.69.33,5.61,5.61,0,0,1-2.14-.4,4.91,4.91,0,0,1-1.77-1.18,5.67,5.67,0,0,1-1.14-1.9,7.34,7.34,0,0,1-.41-2.58,7,7,0,0,1,.39-2.41,5.33,5.33,0,0,1,1.13-1.85,4.94,4.94,0,0,1,1.76-1.19,5.92,5.92,0,0,1,2.28-.43,5.71,5.71,0,0,1,1.54.2,4.22,4.22,0,0,1,1.34.67v-.59h2.05v11a5.82,5.82,0,0,1-1.28,4.09,5.17,5.17,0,0,1-4,1.38,8.52,8.52,0,0,1-1.24-.08,7.08,7.08,0,0,1-1.29-.29,6.82,6.82,0,0,1-1.23-.48,5.46,5.46,0,0,1-1.11-.73l1.1-1.66a4.44,4.44,0,0,0,.76.52,4.74,4.74,0,0,0,.88.42,5.68,5.68,0,0,0,1,.27,5.07,5.07,0,0,0,1,.1A5.2,5.2,0,0,0,400,126a2.14,2.14,0,0,0,1-.61,2.83,2.83,0,0,0,.61-1.21,7.81,7.81,0,0,0,.19-1.93Zm-2.73-.53a4.38,4.38,0,0,0,.88-.09,4.26,4.26,0,0,0,.76-.26,2.78,2.78,0,0,0,.59-.37,2.68,2.68,0,0,0,.45-.44v-6.24a3.36,3.36,0,0,0-1.29-.72,5.09,5.09,0,0,0-1.5-.22,3.51,3.51,0,0,0-1.36.27,3.28,3.28,0,0,0-1.12.78,3.91,3.91,0,0,0-.76,1.27,5,5,0,0,0-.27,1.76,6.17,6.17,0,0,0,.26,1.87,4.14,4.14,0,0,0,.74,1.35,3,3,0,0,0,1.13.82,3.78,3.78,0,0,0,1.49.22Z"/><path class="cls-2" d="M311.11,153.58l-2.48-2.35a6.83,6.83,0,0,1-.95,1,6.06,6.06,0,0,1-2.32,1.3,5.86,5.86,0,0,1-1.38.17,4.92,4.92,0,0,1-3.45-1.33,4.67,4.67,0,0,1-1-1.45,4.51,4.51,0,0,1-.37-1.81,4,4,0,0,1,.2-1.25,4.75,4.75,0,0,1,.52-1.12,5.59,5.59,0,0,1,.8-.95,7.09,7.09,0,0,1,1.41-.88l-.68-.66a4.86,4.86,0,0,1-.53-.58,4.64,4.64,0,0,1-.45-.7,4.21,4.21,0,0,1-.32-.79,3.09,3.09,0,0,1-.11-.8,3.87,3.87,0,0,1,1.2-2.81,4.18,4.18,0,0,1,2.92-1.16,4.31,4.31,0,0,1,3,1.21,4,4,0,0,1,.88,1.27,3.53,3.53,0,0,1,.33,1.5,4.53,4.53,0,0,1-.13,1.1,3.08,3.08,0,0,1-.36.88,3,3,0,0,1-.55.68,5.18,5.18,0,0,1-.67.57,6.66,6.66,0,0,1-.74.48c-.25.14-.51.28-.78.41l3.21,3a11.38,11.38,0,0,0,.53-1.52c.14-.5.24-.95.32-1.35h2a14.6,14.6,0,0,1-.54,2,12.88,12.88,0,0,1-.94,2.07l2.89,2.64Zm-8.53-7.05a2.59,2.59,0,0,0-.65.4,3.49,3.49,0,0,0-.49.59,2.74,2.74,0,0,0-.2,2.61,2.65,2.65,0,0,0,.65.88,3.19,3.19,0,0,0,1,.59,3.48,3.48,0,0,0,1.19.22,4,4,0,0,0,1-.14,4.26,4.26,0,0,0,.88-.38,4.83,4.83,0,0,0,.76-.59,5.57,5.57,0,0,0,.65-.73l-4-3.84Zm3.25-3.77a2.76,2.76,0,0,0,.46-.67,1.71,1.71,0,0,0,.19-.8,1.94,1.94,0,0,0-.19-.88,2.81,2.81,0,0,0-.52-.72,2.75,2.75,0,0,0-.76-.49,2.35,2.35,0,0,0-.88-.19,2.62,2.62,0,0,0-.95.18,2.16,2.16,0,0,0-.72.48,2.19,2.19,0,0,0-.64,1.58,2,2,0,0,0,.22.88,3.09,3.09,0,0,0,.77,1l.94.88a11.51,11.51,0,0,0,1.16-.59,4.56,4.56,0,0,0,.92-.66Z"/><path class="cls-2" d="M318.59,137.24h3.52v6.33a6.7,6.7,0,0,1,1.51-.88,4.86,4.86,0,0,1,3.64.09,4.49,4.49,0,0,1,1.54,1.12,5.29,5.29,0,0,1,1,1.76,7.27,7.27,0,0,1,0,4.61,5.48,5.48,0,0,1-1.1,1.82,4.83,4.83,0,0,1-1.68,1.18,5.39,5.39,0,0,1-2.13.41,4.58,4.58,0,0,1-1.51-.23,4.33,4.33,0,0,1-1.21-.62v.69h-2V139h-1.62Zm6.17,6.89a3.54,3.54,0,0,0-1.47.32,3.88,3.88,0,0,0-1.21.88v5.83a2.91,2.91,0,0,0,1,.6,4.57,4.57,0,0,0,1.63.27,3.37,3.37,0,0,0,1.29-.25,3.07,3.07,0,0,0,1.09-.76,3.74,3.74,0,0,0,.75-1.26,5.46,5.46,0,0,0,0-3.39,3.62,3.62,0,0,0-.73-1.2,3,3,0,0,0-1.05-.75A3.46,3.46,0,0,0,324.76,144.13Z"/><path class="cls-2" d="M338.53,142.68h3.53v9h1.19v1.76h-3.17v-1a6,6,0,0,1-1.59.88,5.54,5.54,0,0,1-1.85.32,4.68,4.68,0,0,1-1.48-.24,2.73,2.73,0,0,1-1.12-.73,3.39,3.39,0,0,1-.72-1.26,5.93,5.93,0,0,1-.25-1.82v-5.18h-1.46v-1.76h3.52v6.79a2.67,2.67,0,0,0,.57,1.88,2.1,2.1,0,0,0,1.66.63,4,4,0,0,0,1.33-.23,5.31,5.31,0,0,0,1.34-.63v-6.6h-1.45Z"/><path class="cls-2" d="M345.69,142.68h3.53v9h1.63v1.76h-5.14v-1.76h1.55v-7.24h-1.57Zm1.21-3.84a1.31,1.31,0,0,1,.11-.52,1.22,1.22,0,0,1,.29-.42,1.09,1.09,0,0,1,.44-.29,1.19,1.19,0,0,1,1,0,1.25,1.25,0,0,1,.44.29,1.84,1.84,0,0,1,.29.42,1.3,1.3,0,0,1,.1.52,1.39,1.39,0,0,1-.1.53,2.31,2.31,0,0,1-.29.45,1.63,1.63,0,0,1-.44.3,1.28,1.28,0,0,1-1,0,1.37,1.37,0,0,1-.44-.3A1.41,1.41,0,0,1,346.9,138.84Z"/><path class="cls-2" d="M352.8,137.24h3.52v14.47H358v1.76h-5.14v-1.76h1.56V139h-1.56Z"/><path class="cls-2" d="M366,137.24h3.41v14.47H371v1.76h-3.53v-.88a3.49,3.49,0,0,1-1.21.83,3.85,3.85,0,0,1-1.57.3,5.28,5.28,0,0,1-2-.38,4.61,4.61,0,0,1-1.64-1.12,5.31,5.31,0,0,1-1.09-1.81,7.31,7.31,0,0,1-.39-2.45,6.87,6.87,0,0,1,.37-2.29,5.3,5.3,0,0,1,1.07-1.76,5,5,0,0,1,1.66-1.13,5.76,5.76,0,0,1,2.17-.4,5.33,5.33,0,0,1,1.43.17,4,4,0,0,1,1.24.6V139H366ZM365,152.11a3.59,3.59,0,0,0,1.45-.27,3.41,3.41,0,0,0,1.08-.76V145a3.22,3.22,0,0,0-1.2-.63,4.68,4.68,0,0,0-1.39-.21,3.48,3.48,0,0,0-1.31.26,3.11,3.11,0,0,0-1.05.75,3.43,3.43,0,0,0-.72,1.2,4.8,4.8,0,0,0-.26,1.63,5.51,5.51,0,0,0,.25,1.76,3.48,3.48,0,0,0,.7,1.28,2.81,2.81,0,0,0,1.08.78A3.39,3.39,0,0,0,365,152.11Z"/><path class="cls-2" d="M373,142.68h3.52v9h1.63v1.76H373v-1.76h1.55v-7.24H373Zm1.2-3.84a1.31,1.31,0,0,1,.11-.52,1.37,1.37,0,0,1,.29-.42,1.21,1.21,0,0,1,.43-.29,1.29,1.29,0,0,1,.54-.12,1.17,1.17,0,0,1,.52.12,1.1,1.1,0,0,1,.42.29,1.4,1.4,0,0,1,.3.42,1.31,1.31,0,0,1,.11.52,1.4,1.4,0,0,1-.11.53,1.37,1.37,0,0,1-.3.45,1.4,1.4,0,0,1-.42.3,1.31,1.31,0,0,1-.52.11,1.45,1.45,0,0,1-.54-.11,1.46,1.46,0,0,1-.72-.75A1.08,1.08,0,0,1,374.18,138.84Z"/><path class="cls-2" d="M387.27,151.71h1.53v-4.94a2.6,2.6,0,0,0-.63-1.89,2.4,2.4,0,0,0-1.82-.64,3.13,3.13,0,0,0-1.37.32,7.21,7.21,0,0,0-1.3.8v6.35h1.52v1.76h-5.06v-1.76h1.5v-7.24h-1.5v-1.76h3.45V144h0a6.53,6.53,0,0,1,.73-.57,5.1,5.1,0,0,1,1.71-.79,4,4,0,0,1,1-.11,4.59,4.59,0,0,1,1.56.24,2.93,2.93,0,0,1,1.2.73,3.18,3.18,0,0,1,.76,1.26,5.51,5.51,0,0,1,.26,1.81v5.19h1.51v1.76h-5Z"/><path class="cls-2" d="M402,152.56a3.77,3.77,0,0,1-1.24.89,4,4,0,0,1-1.6.31,5.33,5.33,0,0,1-2.05-.38,4.72,4.72,0,0,1-1.64-1.11,5.45,5.45,0,0,1-1.09-1.82A7,7,0,0,1,394,148a6.63,6.63,0,0,1,.38-2.29,5.12,5.12,0,0,1,1.06-1.76,4.86,4.86,0,0,1,1.67-1.12,5.53,5.53,0,0,1,2.16-.41,5.59,5.59,0,0,1,1.47.19,4,4,0,0,1,1.27.63v-.55H404v10.4a5.52,5.52,0,0,1-1.22,3.89,4.92,4.92,0,0,1-3.79,1.32,9.23,9.23,0,0,1-1.18-.08,6.33,6.33,0,0,1-1.22-.27,8.35,8.35,0,0,1-1.17-.46,5.72,5.72,0,0,1-1.06-.7l1.05-1.58a4.07,4.07,0,0,0,.72.51,6.35,6.35,0,0,0,.88.39,6.05,6.05,0,0,0,1,.26,5.33,5.33,0,0,0,1,.09,5.07,5.07,0,0,0,1.4-.17,2,2,0,0,0,1-.59,2.6,2.6,0,0,0,.57-1.15,7.49,7.49,0,0,0,.19-1.83Zm-2.59-.5a3.68,3.68,0,0,0,1.6-.34,3.36,3.36,0,0,0,.57-.35A2.38,2.38,0,0,0,402,151v-5.89a3.33,3.33,0,0,0-1.22-.68,5,5,0,0,0-1.44-.21,3.38,3.38,0,0,0-1.29.26,3.15,3.15,0,0,0-1.06.75,3.59,3.59,0,0,0-.72,1.2A4.8,4.8,0,0,0,396,148a5.81,5.81,0,0,0,.25,1.76,3.8,3.8,0,0,0,.7,1.28,2.81,2.81,0,0,0,1.08.78,3.39,3.39,0,0,0,1.37.28Z"/><path class="cls-2" d="M306.58,173.48a3,3,0,0,0-1-.88,2.48,2.48,0,0,0-1.31-.25,2.32,2.32,0,0,0-1.1.17,2.48,2.48,0,0,0-.88.59,2.52,2.52,0,0,0-.55.88,3.1,3.1,0,0,0-.2,1.17,2.67,2.67,0,0,0,.21,1.08,2.57,2.57,0,0,0,.57.88,2.59,2.59,0,0,0,.88.58,3.69,3.69,0,0,0,1.08.25,3.22,3.22,0,0,0,.88-.2,2.92,2.92,0,0,0,.72-.43,2.62,2.62,0,0,0,.53-.57,3.67,3.67,0,0,0,.36-.6l2.88.8a5.42,5.42,0,0,1-.62,1.31,5.29,5.29,0,0,1-1.13,1.23,5.83,5.83,0,0,1-1.65.88,6,6,0,0,1-2.19.37,5.68,5.68,0,0,1-2.29-.46,5.54,5.54,0,0,1-1.76-1.23,5.84,5.84,0,0,1-1.6-4.11,5.92,5.92,0,0,1,.44-2.24,5.45,5.45,0,0,1,1.2-1.76,5.26,5.26,0,0,1,1.81-1.2,5.4,5.4,0,0,1,2.28-.38,4.93,4.93,0,0,1,1.71.2,6,6,0,0,1,1.57.71h2.08v3.15Z"/><path class="cls-2" d="M310.48,175.11a6,6,0,0,1,.42-2.22,5.79,5.79,0,0,1,1.2-1.76,5.48,5.48,0,0,1,1.82-1.23,6.23,6.23,0,0,1,4.65,0,5.62,5.62,0,0,1,1.83,1.23,5.72,5.72,0,0,1,1.61,4,6.09,6.09,0,0,1-.42,2.23,5.44,5.44,0,0,1-3,3,6.44,6.44,0,0,1-4.73,0,5.36,5.36,0,0,1-3-3A6,6,0,0,1,310.48,175.11Zm3.13,0a2.93,2.93,0,0,0,.2,1.13,3,3,0,0,0,.57.88,2.69,2.69,0,0,0,.84.58,2.39,2.39,0,0,0,1,.21,2.46,2.46,0,0,0,1-.2,2.65,2.65,0,0,0,.83-.58,2.86,2.86,0,0,0,.54-.88,3.2,3.2,0,0,0,.21-1.14,3.41,3.41,0,0,0-.21-1.18,2.86,2.86,0,0,0-.54-.88,2.41,2.41,0,0,0-.83-.55,2.9,2.9,0,0,0-2,0,2.6,2.6,0,0,0-.84.55,3,3,0,0,0-.57.88,3.19,3.19,0,0,0-.2,1.18Z"/><path class="cls-2" d="M323.1,169.72h4.95v.94a5.53,5.53,0,0,1,1.5-.88,5.06,5.06,0,0,1,1.76-.31,4.82,4.82,0,0,1,2.12.43,3.2,3.2,0,0,1,1.38,1.32,5.74,5.74,0,0,1,.78-.7,6.75,6.75,0,0,1,.93-.56,6,6,0,0,1,1-.36,4.53,4.53,0,0,1,1.1-.13,4,4,0,0,1,3.05,1.1,4.38,4.38,0,0,1,1.07,3.21v3.88h1.54v2.86h-4.95v-6.16a2.11,2.11,0,0,0-.47-1.45,1.73,1.73,0,0,0-1.32-.53,2.27,2.27,0,0,0-1.11.29,3.26,3.26,0,0,0-1,1v4.07H337v2.86h-4.94v-6.23a2.35,2.35,0,0,0-.14-.79,1.82,1.82,0,0,0-.37-.61,1.74,1.74,0,0,0-.58-.39,2,2,0,0,0-.72-.16,2.88,2.88,0,0,0-1.08.24,2.81,2.81,0,0,0-1.08.88v4.19h1.76v2.87h-6.73v-2.87h1.61v-5.1h-1.58Z"/><path class="cls-2" d="M345.41,169.72h5v.94a5.53,5.53,0,0,1,1.5-.88,5.08,5.08,0,0,1,1.77-.31,4.85,4.85,0,0,1,2.12.43,3.25,3.25,0,0,1,1.38,1.32,5.12,5.12,0,0,1,.77-.7,6,6,0,0,1,.94-.56,5.87,5.87,0,0,1,1-.36,4.56,4.56,0,0,1,1.11-.13,4,4,0,0,1,3,1.1,4.42,4.42,0,0,1,1.07,3.21v3.88h1.53v2.86h-4.94v-6.16a2,2,0,0,0-.48-1.45,1.73,1.73,0,0,0-1.32-.53,2.2,2.2,0,0,0-1.1.29,3.26,3.26,0,0,0-1,1v4.07h1.56v2.86h-4.94v-6.23a2.12,2.12,0,0,0-.14-.79,1.61,1.61,0,0,0-.38-.61,1.57,1.57,0,0,0-.56-.39,2,2,0,0,0-.73-.16,2.88,2.88,0,0,0-1.08.24,2.81,2.81,0,0,0-1.08.88v4.19h1.76v2.87h-6.73v-2.87h1.61v-5.1h-1.59Z"/><path class="cls-2" d="M367.36,175.11a6,6,0,0,1,.42-2.22,5.79,5.79,0,0,1,1.2-1.76,5.48,5.48,0,0,1,1.82-1.23,6.23,6.23,0,0,1,4.65,0,5.57,5.57,0,0,1,3.44,5.25,6.09,6.09,0,0,1-.42,2.23,5.44,5.44,0,0,1-3,3,6.44,6.44,0,0,1-4.73,0,5.36,5.36,0,0,1-3-3A6,6,0,0,1,367.36,175.11Zm3.13,0a2.94,2.94,0,0,0,.21,1.13,2.61,2.61,0,0,0,1.4,1.48,2.55,2.55,0,0,0,1,.21,2.82,2.82,0,0,0,1-.2,2.65,2.65,0,0,0,.83-.58,2.68,2.68,0,0,0,.54-.88,3.25,3.25,0,0,0,.21-1.15,3.36,3.36,0,0,0-.21-1.17,2.68,2.68,0,0,0-.54-.88,2.32,2.32,0,0,0-.83-.55,2.9,2.9,0,0,0-2,0,2.45,2.45,0,0,0-.84.55,2.7,2.7,0,0,0-.56.88A3.06,3.06,0,0,0,370.49,175.11Z"/><path class="cls-2" d="M388.92,174.33a2,2,0,0,0-.48-1.43,1.74,1.74,0,0,0-1.28-.52,2.66,2.66,0,0,0-2.17,1.15v4.17h1.76v2.86H380V177.7h1.6v-5.1H380v-2.88H385v.95a5.69,5.69,0,0,1,1.53-.88,5,5,0,0,1,1.76-.31,4,4,0,0,1,3,1.09,4.38,4.38,0,0,1,1.05,3.2v3.88h1.54v2.86h-4.95Z"/><path class="cls-2" d="M401.9,172.57a1.33,1.33,0,0,0-.47-.41,3.37,3.37,0,0,0-.77-.28,5.06,5.06,0,0,0-1-.09,1.85,1.85,0,0,0-.47,0,1.43,1.43,0,0,0-.46.13.84.84,0,0,0-.36.25.6.6,0,0,0-.14.42.45.45,0,0,0,0,.23.46.46,0,0,0,.14.22,1,1,0,0,0,.29.2,1.59,1.59,0,0,0,.47.14l2,.39a8.46,8.46,0,0,1,1.76.52A3.92,3.92,0,0,1,404,175a2.56,2.56,0,0,1,.63.93,3,3,0,0,1,.2,1.11,3.11,3.11,0,0,1-.43,1.63,3.89,3.89,0,0,1-1.15,1.17,5.33,5.33,0,0,1-1.58.7,7,7,0,0,1-1.76.23,7.45,7.45,0,0,1-1.06-.07,5.34,5.34,0,0,1-.88-.2,3.43,3.43,0,0,1-.68-.3,4,4,0,0,1-.54-.38h-1.9v-2.9h3V177a.85.85,0,0,0,.18.53,1.74,1.74,0,0,0,.47.38,2.78,2.78,0,0,0,.65.23,3.3,3.3,0,0,0,.77.08,2.94,2.94,0,0,0,1.38-.24.76.76,0,0,0,.43-.64.73.73,0,0,0-.21-.52,1.54,1.54,0,0,0-.75-.33l-2-.43a6,6,0,0,1-2.85-1.22,3,3,0,0,1-.59-3.62,3.36,3.36,0,0,1,1-1.1,4.63,4.63,0,0,1,1.47-.7,6.15,6.15,0,0,1,1.76-.26,9.2,9.2,0,0,1,1.17.08,8.63,8.63,0,0,1,.88.2,4.87,4.87,0,0,1,.71.3,6.49,6.49,0,0,1,.55.36h1.82V173H402A.84.84,0,0,0,401.9,172.57Z"/><path class="cls-2" d="M304.73,201.2a1.59,1.59,0,0,0-.53-.5,2.25,2.25,0,0,0-.72-.28,3.31,3.31,0,0,0-.77-.09,3.46,3.46,0,0,0-.78.09,2.3,2.3,0,0,0-.6.27,1.21,1.21,0,0,0-.38.43,1.29,1.29,0,0,0,.18,1.44,3.09,3.09,0,0,0,1.1.59l2.09.73a4.21,4.21,0,0,1,1.95,1.22,2.92,2.92,0,0,1,.62,1.86,3.14,3.14,0,0,1-.29,1.32,2.89,2.89,0,0,1-.81,1,3.9,3.9,0,0,1-1.28.66,5.09,5.09,0,0,1-1.64.24,4.42,4.42,0,0,1-2.06-.41,2.93,2.93,0,0,1-1.23-1.08h-1.09V207h2.17a1.38,1.38,0,0,0,.19.77,1.58,1.58,0,0,0,.51.52,2.65,2.65,0,0,0,.72.29,4.59,4.59,0,0,0,.82.1,3.33,3.33,0,0,0,.78-.1,2,2,0,0,0,.67-.3,1.38,1.38,0,0,0,.46-.47,1.19,1.19,0,0,0,.17-.61,1.27,1.27,0,0,0-.34-.88,3.12,3.12,0,0,0-1.16-.66l-2.07-.77a4.42,4.42,0,0,1-1.88-1.15,2.56,2.56,0,0,1-.61-1.76,3.28,3.28,0,0,1,.26-1.27,2.76,2.76,0,0,1,.74-1,3.75,3.75,0,0,1,1.19-.66,5,5,0,0,1,1.6-.23,5.33,5.33,0,0,1,1.94.31,3.65,3.65,0,0,1,1.41,1.11h1V202h-2.13A1.35,1.35,0,0,0,304.73,201.2Z"/><path class="cls-2" d="M308.41,199h3.53v9h1.62v1.76h-5.14v-1.76H310v-7.24H308.4Zm1.21-3.83a1.36,1.36,0,0,1,.84-1.24,1.21,1.21,0,0,1,.53-.12,1.13,1.13,0,0,1,.51.12,1.36,1.36,0,0,1,.84,1.24,1.4,1.4,0,0,1-.11.53,1.6,1.6,0,0,1-.29.44,1.32,1.32,0,0,1-.44.3,1.13,1.13,0,0,1-.51.12,1.35,1.35,0,0,1-1-.42,1.6,1.6,0,0,1-.29-.44,1.21,1.21,0,0,1-.11-.49Z"/><path class="cls-2" d="M322,208.08h1.52v-4.9a2.6,2.6,0,0,0-.63-1.89,2.44,2.44,0,0,0-1.82-.65,3.21,3.21,0,0,0-1.36.33,6.09,6.09,0,0,0-1.31.81v6.34h1.53v1.76h-5.06v-1.76h1.5v-7.23h-1.5v-1.76h3.45v1.27h0a8.52,8.52,0,0,1,.74-.57,4.72,4.72,0,0,1,.82-.47,4.37,4.37,0,0,1,.88-.31,4,4,0,0,1,1-.12,4.6,4.6,0,0,1,1.57.24,3,3,0,0,1,1.19.73,3.42,3.42,0,0,1,.76,1.27,5.56,5.56,0,0,1,.27,1.81v5.19H327v1.76H322Z"/><path class="cls-2" d="M335.94,201.93a2.8,2.8,0,0,0-1.11-1.15,3.27,3.27,0,0,0-1.57-.37,3.14,3.14,0,0,0-1.28.28,3.29,3.29,0,0,0-1,.81,3.93,3.93,0,0,0-.69,1.27,5,5,0,0,0-.26,1.66,4.87,4.87,0,0,0,.26,1.65,3.76,3.76,0,0,0,.7,1.25,3.09,3.09,0,0,0,2.31,1.08,3.13,3.13,0,0,0,1.76-.5,3.33,3.33,0,0,0,1.18-1.42l1.61.79a5.22,5.22,0,0,1-.77,1.2,4.93,4.93,0,0,1-2.32,1.47,5.12,5.12,0,0,1-5.21-1.4,5.75,5.75,0,0,1-1.08-1.83,6.49,6.49,0,0,1-.39-2.31,6.29,6.29,0,0,1,.41-2.31,5.39,5.39,0,0,1,1.12-1.81,5.06,5.06,0,0,1,1.67-1.19,4.9,4.9,0,0,1,2-.43,5.43,5.43,0,0,1,2,.36,4.42,4.42,0,0,1,1.6,1.07h1.1v1.76Z"/><path class="cls-2" d="M341,204.71a5.22,5.22,0,0,0,.07.88,3.64,3.64,0,0,0,.19.72,3,3,0,0,0,1.24,1.58,3.55,3.55,0,0,0,1.93.52,5.44,5.44,0,0,0,1.65-.23,8.06,8.06,0,0,0,1.68-.73l.78,1.33a8.85,8.85,0,0,1-2.15,1.08,7,7,0,0,1-2.23.35,5.45,5.45,0,0,1-2-.36,4.42,4.42,0,0,1-1.61-1.09,5.12,5.12,0,0,1-1.06-1.76,7.64,7.64,0,0,1-.37-2.51,7.1,7.1,0,0,1,.32-2.2,5.21,5.21,0,0,1,1-1.76,4.91,4.91,0,0,1,1.6-1.22,5.25,5.25,0,0,1,2.2-.54,4.93,4.93,0,0,1,2,.38,3.81,3.81,0,0,1,1.34,1,4.38,4.38,0,0,1,.78,1.4,8.07,8.07,0,0,1,.37,1.6c0,.27,0,.53.07.8s0,.54,0,.8Zm3-4.32a3.24,3.24,0,0,0-1.19.2,2.26,2.26,0,0,0-.88.55,2.54,2.54,0,0,0-.56.88,4.86,4.86,0,0,0-.33,1.17h5.62a5.36,5.36,0,0,0-.19-1.12,2.35,2.35,0,0,0-.47-.88,2,2,0,0,0-.8-.59,3.48,3.48,0,0,0-1.2-.21Z"/><path class="cls-2" d="M355.57,206.7h1.83v-9.13l-2.69,1.6v-4l4.83-2.84h1.68V206.7h1.85v3.17h-7.5Z"/><path class="cls-2" d="M366.52,209.9l3.52-6.24a3,3,0,0,1-.6,0,4.85,4.85,0,0,1-.55-.09,5.75,5.75,0,0,1-1.84-.68,5.46,5.46,0,0,1-1.49-1.21,5.55,5.55,0,0,1-1-1.64,5.34,5.34,0,0,1-.36-1.94,5.69,5.69,0,0,1,.48-2.33,6,6,0,0,1,1.3-1.87,5.91,5.91,0,0,1,1.93-1.22,6.35,6.35,0,0,1,2.36-.45,6.11,6.11,0,0,1,2.32.45,5.76,5.76,0,0,1,1.92,1.22,5.54,5.54,0,0,1,1.31,1.83,5.34,5.34,0,0,1,.48,2.26,5.78,5.78,0,0,1-.11,1.1,7.1,7.1,0,0,1-.32,1,9.82,9.82,0,0,1-.46,1c-.17.32-.34.65-.53,1l-4.34,7.84Zm3.84-9.52a3,3,0,0,0,1.22-.23,2.38,2.38,0,0,0,.92-.71,4.84,4.84,0,0,0,.28-.66,2.48,2.48,0,0,0,.1-.76,2.48,2.48,0,0,0-.62-1.61,2.49,2.49,0,0,0-.81-.59,2.92,2.92,0,0,0-1.16-.22,3.12,3.12,0,0,0-1,.16,2.77,2.77,0,0,0-.88.47,2.14,2.14,0,0,0-.6.76,2,2,0,0,0-.23,1,2.2,2.2,0,0,0,.79,1.76,2.55,2.55,0,0,0,.88.49A3,3,0,0,0,370.36,200.38Z"/><path class="cls-2" d="M385.3,197.36a1.84,1.84,0,0,0-.16-.7,2.1,2.1,0,0,0-.45-.62,2.61,2.61,0,0,0-.7-.45,2.22,2.22,0,0,0-.88-.17,2.08,2.08,0,0,0-.82.14,2.19,2.19,0,0,0-.68.39,1.86,1.86,0,0,0-.48.56,2.47,2.47,0,0,0-.16,1.08h-3.6a5.69,5.69,0,0,1,3.35-5.16,6.07,6.07,0,0,1,2.35-.45,6.2,6.2,0,0,1,4.14,1.56,5.25,5.25,0,0,1,1.22,1.66,4.6,4.6,0,0,1,0,4,3.87,3.87,0,0,1-1.26,1.49,3.1,3.1,0,0,1,.78.61,4.55,4.55,0,0,1,.63.88,4.68,4.68,0,0,1,.58,2.32,5.09,5.09,0,0,1-.45,2.15,5.73,5.73,0,0,1-1.28,1.76,6.35,6.35,0,0,1-4.32,1.68,6.67,6.67,0,0,1-2.26-.39,5.69,5.69,0,0,1-1.83-1.06,5.16,5.16,0,0,1-1.27-1.59,5.23,5.23,0,0,1-.57-1.53,10.86,10.86,0,0,1-.1-1.27h3.64a2.45,2.45,0,0,0,3.36,2.18,2.25,2.25,0,0,0,.76-.45,2,2,0,0,0,.52-.66,1.76,1.76,0,0,0,.18-.82,2.22,2.22,0,0,0-.16-.88,1.91,1.91,0,0,0-.48-.68,2.08,2.08,0,0,0-.76-.44,2.72,2.72,0,0,0-1-.17h-1.62v-3.15h1.64A2.89,2.89,0,0,0,384,199a1.94,1.94,0,0,0,.67-.38,1.6,1.6,0,0,0,.42-.58A1.82,1.82,0,0,0,385.3,197.36Z"/><path class="cls-2" d="M390.19,202.13l6.24-9.78h3.85l-6.16,9.8h3.72v-3.38l3.61,0v3.43h2.44v2.93h-2.44v1.61h2.23v3.17h-7.51V206.7h1.67v-1.62h-7.66Z"/><g class="cls-3"><polyline class="cls-4" points="132.81 106.09 61.93 19.36 -133.1 222.32 -319.32 12.32"/><polyline class="cls-4" points="-118.57 19.36 42.56 106.53 132.81 287.47 238.03 212.19 298.78 266.78 403.56 266.78 471.36 212.19 471.36 147.92 546.2 81"/><polyline class="cls-4" points="197.52 65.15 42.56 106.53 61.93 19.36"/><line class="cls-4" x1="132.37" y1="212.19" x2="-48.13" y2="266.78"/><polyline class="cls-4" points="298.78 44.9 238.03 105.65 197.52 65.15 179.03 -0.89"/><line class="cls-4" x1="238.03" y1="105.65" x2="179.03" y2="-0.89"/><polyline class="cls-4" points="616.64 123.26 471.36 147.92 635.13 249.17"/><polygon class="cls-4" points="471.36 212.19 531.23 249.17 509.66 287.47 471.36 212.19"/><polygon class="cls-4" points="-48.13 266.78 42.56 106.53 -133.54 221.88 -178.89 287.47 -335.62 233.76 -133.54 221.88 -48.13 266.78"/><circle class="cls-2" cx="545.76" cy="82.32" r="3.52"/><circle class="cls-2" cx="617.08" cy="123.7" r="3.52"/><circle class="cls-2" cx="634.69" cy="249.61" r="3.52"/><circle class="cls-2" cx="299.22" cy="44.46" r="3.52"/><circle class="cls-2" cx="42.12" cy="106.09" r="3.52"/></g></g></g></svg>