<svg xmlns="http://www.w3.org/2000/svg" viewBox="0 0 1452 328.8" style="min-height:150px"><defs><style>.cls-1{opacity:0;}.cls-2{fill:#fff;}.cls-3{opacity:0.5;}.cls-4{fill:none;stroke:#fff;stroke-miterlimit:10;}</style></defs><title>Fichier 2</title><g id="Calque_2" data-name="Calque 2"><g id="Calque_1-2" data-name="Calque 1"><rect class="cls-1" y="0.74" width="1452" height="327"/><path class="cls-2" d="M634.81,135.44,680,218h-90.3l45.15-82.54m0-2.67L587.5,219.26h94.62l-47.31-86.49Z"/><path class="cls-2" d="M694,122.57V240.91H575.64V122.57H694m1-1H574.64V241.91H695V121.57Z"/><path class="cls-2" d="M617.12,198.48c0-5.73,0-11.45,0-17.18a7.64,7.64,0,0,1,.12-1.06l.24-1.9H607c-.08.28-.16.59-.25.89a44.2,44.2,0,0,1-2.11,5c-.56,1.24-1.13,2.49-1.71,3.72l-2.63,5.57c-.38-.81-.73-1.54-1.06-2.27-1.25-2.72-2.48-5.44-3.74-8.15a23.68,23.68,0,0,1-1.86-4.79H582.77a21.56,21.56,0,0,1,.35,2.21c.09,2,.12,4,.16,6.07,0,1.24,0,2.49,0,3.73s0,2.42,0,3.63-.1,2.46,0,3.7a18.1,18.1,0,0,1-.14,2.43c0,.49-.12,1-.16,1.45a4.7,4.7,0,0,0,0,.65h5.49c0-.32-.05-.63-.09-.92a20.25,20.25,0,0,1-.29-2.31c0-4.65,0-9.29,0-13.94,0-.16,0-.31.05-.52.12.1.22.14.26.22.54,1.14,1.08,2.29,1.61,3.44q2.19,4.74,4.37,9.49a17.75,17.75,0,0,1,1.6,4.27,1.32,1.32,0,0,1,0,.27h5.66a18.23,18.23,0,0,1,.68-2.16c1.15-2.69,2.34-5.37,3.54-8.05,1-2.26,2-4.5,3.07-6.75.12-.26.27-.5.47-.86a2.22,2.22,0,0,1,.23.55,11.62,11.62,0,0,1,0,1.18c-.07,3,.1,6-.13,9-.1,1.27,0,2.56,0,3.83a10.27,10.27,0,0,1-.21,2.82,1,1,0,0,0,0,.43h8.21l-.06-.73A27.73,27.73,0,0,1,617.12,198.48Z"/><path class="cls-2" d="M629.22,178.34a6.34,6.34,0,0,0-.3.67c-.2.62-.34,1.25-.58,1.85s-.61,1.37-.92,2.06c-1.55,3.48-3.09,7-4.65,10.44-1.17,2.59-2.37,5.16-3.55,7.74a2.68,2.68,0,0,0-.33,1.11h5.26a26.84,26.84,0,0,1,2-5.09h11.38a45.48,45.48,0,0,1,2,5.09h8.72c-3.62-8-7.48-15.81-11-23.87Zm-1.17,14.89c1.26-2.95,2.48-5.83,3.72-8.75a69.81,69.81,0,0,1,3.93,8.71A59.6,59.6,0,0,1,628.05,193.23Z"/><path class="cls-2" d="M657.2,191.7c.09-4.33-.31-8.68.32-13,0-.11-.06-.24-.09-.34l-.16,0h-7.48l-.79.07a2.16,2.16,0,0,0,0,.36,27,27,0,0,1,.47,4.74c0,4.38,0,8.76,0,13.15a23.31,23.31,0,0,1-.37,5.34.74.74,0,0,0,0,.21h8.57a22.61,22.61,0,0,1-.5-4.13C657.2,196,657.15,193.83,657.2,191.7Z"/><path class="cls-2" d="M686.42,189a15,15,0,0,1-4.17.4H671.56c-.26,0-.51,0-.75,0a38,38,0,0,1,.06-6.17c.32,0,.68,0,1,0h10.79a12.9,12.9,0,0,1,3.39.35,3.43,3.43,0,0,0,.73,0v-4.77a.51.51,0,0,0-.18-.4H662.51a.62.62,0,0,0,0,.26,13.87,13.87,0,0,1,.53,4.05c0,5,0,10.07,0,15.11a18.08,18.08,0,0,1-.37,4.45H671a29.31,29.31,0,0,1-.4-3.61,10.53,10.53,0,0,1,.3-4c.16,0,.26-.05.35-.05q6,0,12.07,0a11.46,11.46,0,0,1,1.55.15c.61.07,1.21.17,1.88.26a36,36,0,0,0-.06-5.89A.7.7,0,0,0,686.42,189Z"/><path class="cls-2" d="M764,122.08h7a9.09,9.09,0,0,1,2.47.33,9.55,9.55,0,0,1,2.19,1,9,9,0,0,1,1.84,1.47,8.78,8.78,0,0,1,1.4,1.91,9.52,9.52,0,0,1,.9,2.26,9.84,9.84,0,0,1,.31,2.5,10,10,0,0,1-.31,2.54,9.85,9.85,0,0,1-.9,2.28,9.08,9.08,0,0,1-3.24,3.42A9,9,0,0,1,771,141h-7v-2.15h1.8V124.24H764Zm4.25,2.16v14.64h3a5.44,5.44,0,0,0,2.47-.58,6.38,6.38,0,0,0,2-1.57A7.56,7.56,0,0,0,777,134.4a8.33,8.33,0,0,0,.5-2.9,8.13,8.13,0,0,0-.5-2.85,7.41,7.41,0,0,0-1.36-2.3,6.46,6.46,0,0,0-2-1.55,5.69,5.69,0,0,0-2.47-.56Z"/><path class="cls-2" d="M784.13,134.85a5.24,5.24,0,0,0,.08,1,5.06,5.06,0,0,0,.23.87,3.6,3.6,0,0,0,1.48,1.88,4.31,4.31,0,0,0,2.31.63,6.9,6.9,0,0,0,2-.28,9.71,9.71,0,0,0,2-.88l.94,1.59a10.48,10.48,0,0,1-2.56,1.3,8.59,8.59,0,0,1-2.68.42,6.44,6.44,0,0,1-2.43-.44,5.11,5.11,0,0,1-1.93-1.3,6.21,6.21,0,0,1-1.26-2.15,9,9,0,0,1-.45-3,8.65,8.65,0,0,1,.38-2.62,6.37,6.37,0,0,1,1.16-2.15,5.54,5.54,0,0,1,1.91-1.45,6.09,6.09,0,0,1,2.65-.54,6,6,0,0,1,2.44.44,4.42,4.42,0,0,1,1.6,1.18,5.08,5.08,0,0,1,.94,1.67,9.62,9.62,0,0,1,.44,1.91c0,.32.07.64.08,1s0,.64,0,.95Zm3.63-5.16a4.1,4.1,0,0,0-1.42.23,3.14,3.14,0,0,0-1,.66,3.28,3.28,0,0,0-.68,1.06,6.22,6.22,0,0,0-.38,1.4H791a6.14,6.14,0,0,0-.23-1.34,2.89,2.89,0,0,0-.55-1.06,2.5,2.5,0,0,0-1-.7A3.63,3.63,0,0,0,787.76,129.69Z"/><path class="cls-2" d="M803.15,130.66a1.81,1.81,0,0,0-.63-.6,2.62,2.62,0,0,0-.86-.34,4.27,4.27,0,0,0-.92-.11,3.31,3.31,0,0,0-.92.12,2.16,2.16,0,0,0-.72.32,1.55,1.55,0,0,0-.47.52,1.43,1.43,0,0,0-.17.68,1.36,1.36,0,0,0,.39,1,3.78,3.78,0,0,0,1.32.71l2.49.88a4.79,4.79,0,0,1,2.34,1.46,3.45,3.45,0,0,1,.74,2.21,3.59,3.59,0,0,1-.35,1.58,3.51,3.51,0,0,1-1,1.23,4.66,4.66,0,0,1-1.52.79,6.76,6.76,0,0,1-2,.28,5.46,5.46,0,0,1-2.46-.49,3.76,3.76,0,0,1-1.46-1.29h-1.3v-2.15h2.58a1.68,1.68,0,0,0,.24.92,1.81,1.81,0,0,0,.61.62,2.88,2.88,0,0,0,.86.35,4.6,4.6,0,0,0,1,.11,3.61,3.61,0,0,0,.94-.12,2.37,2.37,0,0,0,.79-.35,1.8,1.8,0,0,0,.55-.55,1.44,1.44,0,0,0,.2-.74,1.5,1.5,0,0,0-.41-1.06,3.36,3.36,0,0,0-1.38-.79l-2.47-.93a5.28,5.28,0,0,1-2.25-1.37,3,3,0,0,1-.73-2.08,3.63,3.63,0,0,1,.31-1.52,3.4,3.4,0,0,1,.88-1.21,4.15,4.15,0,0,1,1.42-.79,5.7,5.7,0,0,1,1.92-.29,6,6,0,0,1,2.32.39,4.19,4.19,0,0,1,1.69,1.32H806v2.15H803.4A1.51,1.51,0,0,0,803.15,130.66Z"/><path class="cls-2" d="M807.94,128.08h4.23v10.8h2V141H808v-2.15h1.85v-8.65h-1.87Zm1.44-4.59a1.47,1.47,0,0,1,.13-.62,1.54,1.54,0,0,1,.35-.51,1.45,1.45,0,0,1,.52-.35,1.59,1.59,0,0,1,1.26,0,1.6,1.6,0,0,1,.51.35,1.71,1.71,0,0,1,.35.51,1.47,1.47,0,0,1,.13.62,1.56,1.56,0,0,1-.13.64,2.12,2.12,0,0,1-.35.53,1.82,1.82,0,0,1-.51.36,1.59,1.59,0,0,1-1.26,0,1.61,1.61,0,0,1-.52-.36,1.88,1.88,0,0,1-.35-.53A1.56,1.56,0,0,1,809.38,123.49Z"/><path class="cls-2" d="M825.08,139.89a4.44,4.44,0,0,1-1.48,1.05,4.67,4.67,0,0,1-1.92.38,6.35,6.35,0,0,1-2.44-.46,5.32,5.32,0,0,1-2-1.34,6.06,6.06,0,0,1-1.3-2.16,8.3,8.3,0,0,1-.47-2.93,7.9,7.9,0,0,1,.45-2.73,6,6,0,0,1,1.27-2.1,5.66,5.66,0,0,1,2-1.35,6.53,6.53,0,0,1,2.59-.49,6.83,6.83,0,0,1,1.76.22,4.77,4.77,0,0,1,1.51.76v-.66h2.33v12.44a6.63,6.63,0,0,1-1.46,4.65,5.89,5.89,0,0,1-4.53,1.57,10,10,0,0,1-1.41-.1,8.29,8.29,0,0,1-1.46-.32,9.24,9.24,0,0,1-1.4-.55,6.53,6.53,0,0,1-1.26-.83l1.25-1.89a5,5,0,0,0,.86.6,6,6,0,0,0,1,.47,7.38,7.38,0,0,0,1.14.31,5.79,5.79,0,0,0,1.17.11,5.88,5.88,0,0,0,1.67-.2,2.44,2.44,0,0,0,1.17-.7,3.32,3.32,0,0,0,.68-1.37,9,9,0,0,0,.22-2.19Zm-3.1-.6a4.77,4.77,0,0,0,1-.11,3.71,3.71,0,0,0,1.55-.71,3.93,3.93,0,0,0,.5-.5v-7.09a3.83,3.83,0,0,0-1.46-.82,6.21,6.21,0,0,0-1.71-.25,4,4,0,0,0-1.55.31,3.65,3.65,0,0,0-1.27.89,4.48,4.48,0,0,0-.86,1.44,5.62,5.62,0,0,0-.31,2,6.82,6.82,0,0,0,.3,2.12,4.51,4.51,0,0,0,.84,1.53,3.46,3.46,0,0,0,1.28.93A4.2,4.2,0,0,0,822,139.29Z"/><path class="cls-2" d="M838.68,138.88h1.83V133a3.06,3.06,0,0,0-.76-2.26,2.9,2.9,0,0,0-2.17-.77,3.78,3.78,0,0,0-1.63.39,8.15,8.15,0,0,0-1.57,1v7.59h1.83V141h-6.05v-2.15H832v-8.65h-1.8v-2.15h4.12v1.52h0a10.32,10.32,0,0,1,.88-.69,7.3,7.3,0,0,1,1-.56,5.64,5.64,0,0,1,1.07-.37,4.47,4.47,0,0,1,1.17-.14,5.48,5.48,0,0,1,1.87.29,3.65,3.65,0,0,1,1.43.87,4,4,0,0,1,.91,1.51,6.68,6.68,0,0,1,.31,2.17v6.2h1.8V141h-6.05Z"/><path class="cls-2" d="M846.77,128.08H851v10.8h2V141H846.8v-2.15h1.85v-8.65h-1.88Zm1.44-4.59a1.47,1.47,0,0,1,.13-.62,1.71,1.71,0,0,1,.35-.51,1.64,1.64,0,0,1,1.16-.48,1.5,1.5,0,0,1,.62.13,1.6,1.6,0,0,1,.51.35,1.71,1.71,0,0,1,.35.51,1.47,1.47,0,0,1,.13.62,1.56,1.56,0,0,1-.13.64,2.12,2.12,0,0,1-.35.53,1.82,1.82,0,0,1-.51.36,1.5,1.5,0,0,1-.62.13,1.53,1.53,0,0,1-.64-.13,1.73,1.73,0,0,1-.52-.36,2.12,2.12,0,0,1-.35-.53A1.56,1.56,0,0,1,848.21,123.49Z"/><path class="cls-2" d="M863.39,138.88h1.83V133a3.06,3.06,0,0,0-.76-2.26,2.9,2.9,0,0,0-2.17-.77,3.78,3.78,0,0,0-1.63.39,8.47,8.47,0,0,0-1.57,1v7.59h1.83V141h-6v-2.15h1.8v-8.65h-1.8v-2.15H859v1.52h0a10.32,10.32,0,0,1,.88-.69,7.3,7.3,0,0,1,1-.56A5.64,5.64,0,0,1,862,128a4.47,4.47,0,0,1,1.17-.14,5.48,5.48,0,0,1,1.87.29,3.65,3.65,0,0,1,1.43.87,4,4,0,0,1,.91,1.51,6.66,6.66,0,0,1,.32,2.17v6.2h1.8V141h-6.06Z"/><path class="cls-2" d="M880.59,139.89a4.54,4.54,0,0,1-1.48,1.05,4.67,4.67,0,0,1-1.92.38,6.35,6.35,0,0,1-2.44-.46,5.44,5.44,0,0,1-2-1.34,6.2,6.2,0,0,1-1.3-2.16,8.54,8.54,0,0,1-.47-2.93,7.9,7.9,0,0,1,.45-2.73,6,6,0,0,1,1.28-2.1,5.66,5.66,0,0,1,2-1.35,6.53,6.53,0,0,1,2.59-.49,6.7,6.7,0,0,1,1.75.22,4.82,4.82,0,0,1,1.52.76v-.66h2.33v12.44a6.63,6.63,0,0,1-1.46,4.65,5.89,5.89,0,0,1-4.53,1.57,10,10,0,0,1-1.41-.1,8.09,8.09,0,0,1-1.46-.32,8.84,8.84,0,0,1-1.4-.55,6,6,0,0,1-1.26-.83l1.25-1.89a5,5,0,0,0,.86.6,5.68,5.68,0,0,0,1,.47,7.38,7.38,0,0,0,1.14.31,5.79,5.79,0,0,0,1.17.11,5.93,5.93,0,0,0,1.67-.2,2.41,2.41,0,0,0,1.16-.7,3.22,3.22,0,0,0,.69-1.37,9,9,0,0,0,.22-2.19Zm-3.1-.6a4.9,4.9,0,0,0,1-.11,4.56,4.56,0,0,0,.86-.29,4,4,0,0,0,.68-.42,3.46,3.46,0,0,0,.51-.5v-7.09a3.8,3.8,0,0,0-1.47-.82,6.08,6.08,0,0,0-1.7-.25,4,4,0,0,0-1.55.31,3.65,3.65,0,0,0-1.27.89,4.31,4.31,0,0,0-.86,1.44,5.62,5.62,0,0,0-.31,2,6.82,6.82,0,0,0,.3,2.12,4.51,4.51,0,0,0,.84,1.53,3.38,3.38,0,0,0,1.28.93A4.2,4.2,0,0,0,877.49,139.29Z"/><path class="cls-2" d="M777.5,175.67,774.69,173a8.89,8.89,0,0,1-1.08,1.13,7.55,7.55,0,0,1-1.24.88,6.39,6.39,0,0,1-1.4.59,6.2,6.2,0,0,1-1.57.2,5.72,5.72,0,0,1-2.16-.4,5.55,5.55,0,0,1-1.75-1.11,5.26,5.26,0,0,1-1.17-1.65,5.09,5.09,0,0,1-.42-2.06,4.43,4.43,0,0,1,.22-1.41,5,5,0,0,1,.6-1.28,6.15,6.15,0,0,1,.9-1.07,7.77,7.77,0,0,1,1.61-1l-.78-.76a5.37,5.37,0,0,1-.6-.65,5.44,5.44,0,0,1-.51-.8,4.61,4.61,0,0,1-.36-.89,3.23,3.23,0,0,1-.13-.91,4.31,4.31,0,0,1,.36-1.77,4.42,4.42,0,0,1,1-1.43,4.77,4.77,0,0,1,3.32-1.31,5.05,5.05,0,0,1,1.92.37,5,5,0,0,1,1.52,1,4.41,4.41,0,0,1,1,1.44,4,4,0,0,1,.37,1.71,5.19,5.19,0,0,1-.14,1.25,3.68,3.68,0,0,1-.41,1,3.81,3.81,0,0,1-.62.77,6.79,6.79,0,0,1-.77.65,8.52,8.52,0,0,1-.84.54c-.28.16-.58.32-.88.47l3.64,3.39a13.64,13.64,0,0,0,.61-1.72c.15-.57.27-1.08.36-1.54h2.23a15.65,15.65,0,0,1-.61,2.32,14.89,14.89,0,0,1-1.06,2.35l3.28,3Zm-9.68-8a2.67,2.67,0,0,0-.74.45,3.62,3.62,0,0,0-.56.67,3.17,3.17,0,0,0-.5,1.68,3.06,3.06,0,0,0,.27,1.28,3,3,0,0,0,.74,1,3.32,3.32,0,0,0,1.1.67,3.82,3.82,0,0,0,1.36.25,4.33,4.33,0,0,0,1.16-.16,4.48,4.48,0,0,0,1-.43,5,5,0,0,0,.87-.67,7.41,7.41,0,0,0,.74-.83l-4.51-4.36Zm3.69-4.28a3.25,3.25,0,0,0,.52-.77,2,2,0,0,0,.22-.9,2.33,2.33,0,0,0-.22-1,3,3,0,0,0-.59-.82,3,3,0,0,0-.86-.56,2.65,2.65,0,0,0-1-.21,2.85,2.85,0,0,0-1.08.2,2.44,2.44,0,0,0-.82.54,2.57,2.57,0,0,0-.54.8,2.68,2.68,0,0,0-.19,1,2.48,2.48,0,0,0,.25,1,3.59,3.59,0,0,0,.88,1.16l1.06,1a14.8,14.8,0,0,0,1.32-.67A5.32,5.32,0,0,0,771.51,163.41Z"/><path class="cls-2" d="M786,157.12h4v7.19a7.21,7.21,0,0,1,1.71-1,5.27,5.27,0,0,1,1.92-.36,5.44,5.44,0,0,1,2.22.46,5.08,5.08,0,0,1,1.74,1.27,5.9,5.9,0,0,1,1.13,2,8.26,8.26,0,0,1,0,5.23,6.33,6.33,0,0,1-1.25,2.07,5.5,5.5,0,0,1-1.91,1.34,6.14,6.14,0,0,1-2.42.47,5.28,5.28,0,0,1-1.71-.27,4.7,4.7,0,0,1-1.38-.7v.78h-2.21V159.16H786Zm7,7.82a4,4,0,0,0-1.66.36,4.5,4.5,0,0,0-1.38,1v6.62a3.36,3.36,0,0,0,1.12.69,4.94,4.94,0,0,0,1.85.3,3.79,3.79,0,0,0,1.46-.28,3.51,3.51,0,0,0,1.24-.86,4.38,4.38,0,0,0,.85-1.43,5.56,5.56,0,0,0,.32-2,5.32,5.32,0,0,0-.3-1.85,4.07,4.07,0,0,0-.82-1.37,3.5,3.5,0,0,0-1.2-.85A3.83,3.83,0,0,0,793,164.94Z"/><path class="cls-2" d="M808.65,163.29h4v10.26H814v2h-3.59v-1.14a6.65,6.65,0,0,1-1.81,1,6,6,0,0,1-2.1.36,5,5,0,0,1-1.68-.27,3.06,3.06,0,0,1-1.28-.83,3.75,3.75,0,0,1-.81-1.43,6.67,6.67,0,0,1-.29-2.07v-5.88h-1.66v-2h4V171a3.06,3.06,0,0,0,.65,2.14,2.4,2.4,0,0,0,1.88.72,4.72,4.72,0,0,0,1.52-.26,6.22,6.22,0,0,0,1.52-.72v-7.5h-1.65Z"/><path class="cls-2" d="M816.78,163.29h4v10.26h1.86v2H816.8v-2h1.76v-8.22h-1.78Zm1.37-4.36a1.52,1.52,0,0,1,.12-.59,1.58,1.58,0,0,1,.33-.48,1.56,1.56,0,0,1,.5-.33,1.38,1.38,0,0,1,.6-.13,1.34,1.34,0,0,1,.59.13,1.63,1.63,0,0,1,.49.33,2,2,0,0,1,.33.48,1.52,1.52,0,0,1,.12.59,1.54,1.54,0,0,1-.12.61,2,2,0,0,1-.33.5,1.69,1.69,0,0,1-.49.35,1.48,1.48,0,0,1-.59.12,1.53,1.53,0,0,1-.6-.12,1.61,1.61,0,0,1-.5-.35,1.58,1.58,0,0,1-.45-1.11Z"/><path class="cls-2" d="M824.85,157.12h4v16.43h1.85v2h-5.84v-2h1.78V159.16h-1.78Z"/><path class="cls-2" d="M839.85,157.12h3.88v16.43h1.81v2h-4v-1a4.13,4.13,0,0,1-1.38.94,4.35,4.35,0,0,1-1.78.34,6.14,6.14,0,0,1-2.32-.43,5.22,5.22,0,0,1-1.86-1.27,6,6,0,0,1-1.24-2.06,8,8,0,0,1-.44-2.78,7.67,7.67,0,0,1,.42-2.6,5.92,5.92,0,0,1,1.21-2,5.64,5.64,0,0,1,1.89-1.28,6.49,6.49,0,0,1,2.46-.46,6.33,6.33,0,0,1,1.63.2,4.37,4.37,0,0,1,1.41.68v-4.71h-1.67ZM838.65,174a4,4,0,0,0,1.65-.3,3.71,3.71,0,0,0,1.22-.87v-6.89a3.71,3.71,0,0,0-1.36-.72,5.64,5.64,0,0,0-1.58-.23,3.83,3.83,0,0,0-1.48.29,3.6,3.6,0,0,0-1.2.85,4.07,4.07,0,0,0-.82,1.37,5.57,5.57,0,0,0-.29,1.85,6.46,6.46,0,0,0,.28,2,4.13,4.13,0,0,0,.8,1.45,3.24,3.24,0,0,0,1.22.89A4,4,0,0,0,838.65,174Z"/><path class="cls-2" d="M847.77,163.29h4v10.26h1.85v2h-5.84v-2h1.76v-8.22h-1.78Zm1.36-4.36a1.37,1.37,0,0,1,.13-.59,1.58,1.58,0,0,1,.33-.48,1.51,1.51,0,0,1,.49-.33,1.39,1.39,0,0,1,.61-.13,1.37,1.37,0,0,1,.59.13,1.58,1.58,0,0,1,.48.33,1.82,1.82,0,0,1,.34.48,1.52,1.52,0,0,1,.12.59,1.54,1.54,0,0,1-.12.61,1.77,1.77,0,0,1-.34.5,1.65,1.65,0,0,1-.48.35,1.52,1.52,0,0,1-.59.12,1.54,1.54,0,0,1-.61-.12,1.65,1.65,0,0,1-.82-.85A1.39,1.39,0,0,1,849.13,158.93Z"/><path class="cls-2" d="M864,173.55h1.74v-5.61a2.94,2.94,0,0,0-.72-2.15,2.76,2.76,0,0,0-2.06-.73,3.6,3.6,0,0,0-1.56.37,8.41,8.41,0,0,0-1.48.91v7.21h1.73v2h-5.75v-2h1.71v-8.22h-1.71v-2h3.92v1.45h0a8.8,8.8,0,0,1,.83-.65,5.86,5.86,0,0,1,.94-.54,5,5,0,0,1,1-.35,4.44,4.44,0,0,1,1.11-.13,5.5,5.5,0,0,1,1.78.27,3.49,3.49,0,0,1,1.36.83,3.7,3.7,0,0,1,.86,1.43,6.35,6.35,0,0,1,.3,2.06v5.89h1.71v2H864Z"/><path class="cls-2" d="M880.73,174.52a4.24,4.24,0,0,1-1.41,1,4.38,4.38,0,0,1-1.82.36,6.14,6.14,0,0,1-2.32-.43,5.35,5.35,0,0,1-1.87-1.27,6.11,6.11,0,0,1-1.23-2.06,8,8,0,0,1-.45-2.78,7.43,7.43,0,0,1,.43-2.6,5.92,5.92,0,0,1,1.21-2,5.55,5.55,0,0,1,1.89-1.28,6.49,6.49,0,0,1,2.46-.46,6.15,6.15,0,0,1,1.67.21,4.63,4.63,0,0,1,1.44.72v-.63h2.21v11.82a6.31,6.31,0,0,1-1.38,4.42,5.61,5.61,0,0,1-4.31,1.49,10.52,10.52,0,0,1-1.34-.09,8.08,8.08,0,0,1-1.38-.3,9,9,0,0,1-1.33-.53,6.07,6.07,0,0,1-1.2-.79l1.19-1.79a4.87,4.87,0,0,0,.81.57,7.32,7.32,0,0,0,1,.45,7.8,7.8,0,0,0,1.08.29,6.14,6.14,0,0,0,1.12.1,5.77,5.77,0,0,0,1.59-.19,2.27,2.27,0,0,0,1.1-.67,3.11,3.11,0,0,0,.65-1.3,8.54,8.54,0,0,0,.21-2.08Zm-2.94-.57a4.27,4.27,0,0,0,1.81-.39,3.41,3.41,0,0,0,.65-.4,3.07,3.07,0,0,0,.48-.47V166a3.79,3.79,0,0,0-1.39-.77,5.59,5.59,0,0,0-1.63-.24,3.82,3.82,0,0,0-1.47.29,3.5,3.5,0,0,0-1.2.85,4.07,4.07,0,0,0-.82,1.37,5.32,5.32,0,0,0-.29,1.85,6.46,6.46,0,0,0,.28,2,4.13,4.13,0,0,0,.8,1.45,3.16,3.16,0,0,0,1.22.89A3.94,3.94,0,0,0,877.79,174Z"/><path class="cls-2" d="M772.36,198.27a3.56,3.56,0,0,0-1.14-1,2.81,2.81,0,0,0-1.48-.28,2.68,2.68,0,0,0-1.25.19,2.9,2.9,0,0,0-1,.67,3,3,0,0,0-.63,1,3.75,3.75,0,0,0-.23,1.33,3.17,3.17,0,0,0,.24,1.23,3,3,0,0,0,.65,1,2.88,2.88,0,0,0,1,.66,4.09,4.09,0,0,0,1.23.28,3.62,3.62,0,0,0,1-.23,3,3,0,0,0,.81-.48,3.12,3.12,0,0,0,.61-.65,4.59,4.59,0,0,0,.4-.68l3.27.9a5.84,5.84,0,0,1-.7,1.49,6,6,0,0,1-1.28,1.4,6.69,6.69,0,0,1-1.88,1,6.82,6.82,0,0,1-2.48.42,6.36,6.36,0,0,1-2.6-.52,6.23,6.23,0,0,1-2-1.4,6.51,6.51,0,0,1-1.34-2.09,6.88,6.88,0,0,1-.48-2.58,6.47,6.47,0,0,1,.5-2.54,6.18,6.18,0,0,1,1.36-2,6,6,0,0,1,2.06-1.36,6.15,6.15,0,0,1,2.59-.44,5.74,5.74,0,0,1,1.94.23,6.79,6.79,0,0,1,1.78.81h2.36v3.58Z"/><path class="cls-2" d="M776.79,200.12a6.65,6.65,0,0,1,.48-2.52,6.5,6.5,0,0,1,1.36-2,6.19,6.19,0,0,1,2.06-1.39,7.09,7.09,0,0,1,5.28,0,6.28,6.28,0,0,1,2.08,1.39,6.52,6.52,0,0,1,1.83,4.57,6.85,6.85,0,0,1-.47,2.53,6.46,6.46,0,0,1-1.33,2.06,6.36,6.36,0,0,1-2.07,1.4,7.32,7.32,0,0,1-5.37,0,6.1,6.1,0,0,1-3.38-3.45A6.67,6.67,0,0,1,776.79,200.12Zm3.55,0a3.57,3.57,0,0,0,.23,1.29,3.36,3.36,0,0,0,.65,1,3.12,3.12,0,0,0,.95.66,2.83,2.83,0,0,0,1.16.24,3,3,0,0,0,1.17-.23,3,3,0,0,0,.94-.66,3.17,3.17,0,0,0,.62-1,3.58,3.58,0,0,0,.23-1.3,3.75,3.75,0,0,0-.23-1.33,3.12,3.12,0,0,0-.62-1,2.73,2.73,0,0,0-.94-.63,3.34,3.34,0,0,0-2.33,0,2.87,2.87,0,0,0-.95.63,3.19,3.19,0,0,0-.65,1A3.75,3.75,0,0,0,780.34,200.12Z"/><path class="cls-2" d="M791.12,194h5.62v1.07a6.26,6.26,0,0,1,1.71-1,5.76,5.76,0,0,1,2-.35,5.38,5.38,0,0,1,2.4.49,3.61,3.61,0,0,1,1.57,1.5,6.19,6.19,0,0,1,.89-.8,7,7,0,0,1,1.05-.63,5.79,5.79,0,0,1,1.17-.41,5.28,5.28,0,0,1,1.25-.15,4.58,4.58,0,0,1,3.47,1.25,5,5,0,0,1,1.21,3.64v4.41h1.75v3.25h-5.62v-7a2.33,2.33,0,0,0-.54-1.64,1.91,1.91,0,0,0-1.5-.6,2.65,2.65,0,0,0-1.26.32,3.76,3.76,0,0,0-1.17,1.09,2.11,2.11,0,0,1,0,.26v4.37h1.78v3.25h-5.62v-7.08a2.57,2.57,0,0,0-.15-.9,2.18,2.18,0,0,0-.43-.69,1.83,1.83,0,0,0-.65-.44,2.19,2.19,0,0,0-.82-.18,3,3,0,0,0-1.23.27,3.11,3.11,0,0,0-1.22,1v4.76h2v3.25h-7.65v-3.25h1.83v-5.8h-1.8Z"/><path class="cls-2" d="M816.46,194h5.63v1.07a6.26,6.26,0,0,1,1.71-1,5.7,5.7,0,0,1,2-.35,5.43,5.43,0,0,1,2.41.49,3.66,3.66,0,0,1,1.57,1.5,6.11,6.11,0,0,1,.88-.8,6.59,6.59,0,0,1,1.06-.63,5.92,5.92,0,0,1,1.16-.41,5.3,5.3,0,0,1,1.26-.15,4.6,4.6,0,0,1,3.47,1.25,5,5,0,0,1,1.21,3.64v4.41h1.74v3.25h-5.61v-7a2.29,2.29,0,0,0-.55-1.64,1.91,1.91,0,0,0-1.5-.6,2.61,2.61,0,0,0-1.25.32,3.76,3.76,0,0,0-1.17,1.09,2.17,2.17,0,0,1,0,.26v4.37h1.78v3.25h-5.61v-7.08a2.57,2.57,0,0,0-.16-.9,1.88,1.88,0,0,0-.43-.69,1.79,1.79,0,0,0-.64-.44,2.24,2.24,0,0,0-.83-.18,3,3,0,0,0-1.23.27,3.18,3.18,0,0,0-1.22,1v4.76h2v3.25h-7.65v-3.25h1.83v-5.8h-1.81Z"/><path class="cls-2" d="M841.39,200.12a6.65,6.65,0,0,1,.48-2.52,6.5,6.5,0,0,1,1.36-2,6.29,6.29,0,0,1,2.06-1.39,7.09,7.09,0,0,1,5.28,0,6.28,6.28,0,0,1,2.08,1.39,6.41,6.41,0,0,1,1.83,4.57,6.85,6.85,0,0,1-.47,2.53,6.46,6.46,0,0,1-1.33,2.06,6.36,6.36,0,0,1-2.07,1.4,7.32,7.32,0,0,1-5.37,0,6.1,6.1,0,0,1-3.38-3.45A6.67,6.67,0,0,1,841.39,200.12Zm3.55,0a3.37,3.37,0,0,0,.24,1.29,2.95,2.95,0,0,0,1.59,1.68,2.83,2.83,0,0,0,1.16.24,3,3,0,0,0,1.17-.23,2.85,2.85,0,0,0,.94-.66,3,3,0,0,0,.62-1,3.58,3.58,0,0,0,.23-1.3,3.75,3.75,0,0,0-.23-1.33,3,3,0,0,0-.62-1,2.64,2.64,0,0,0-.94-.63,3.34,3.34,0,0,0-2.33,0,2.87,2.87,0,0,0-.95.63,3,3,0,0,0-.64,1A3.54,3.54,0,0,0,844.94,200.12Z"/><path class="cls-2" d="M865.87,199.24a2.31,2.31,0,0,0-.54-1.62,1.91,1.91,0,0,0-1.45-.59,3,3,0,0,0-2.47,1.3v4.74h2v3.25h-7.65v-3.25h1.81v-5.8h-1.78V194h5.6v1.08a6.5,6.5,0,0,1,1.73-1,5.92,5.92,0,0,1,2-.35,4.57,4.57,0,0,1,3.42,1.24,5,5,0,0,1,1.2,3.63v4.41h1.74v3.25h-5.62Z"/><path class="cls-2" d="M880.62,197.24a1.46,1.46,0,0,0-.54-.46,3.52,3.52,0,0,0-.87-.32,6,6,0,0,0-1.17-.11,3.44,3.44,0,0,0-.54,0,1.74,1.74,0,0,0-.52.15,1,1,0,0,0-.41.29.67.67,0,0,0-.16.47.84.84,0,0,0,0,.27.63.63,0,0,0,.16.25,1.26,1.26,0,0,0,.33.22,2,2,0,0,0,.54.16l2.23.44a9.75,9.75,0,0,1,2,.59,4.61,4.61,0,0,1,1.32.83,2.94,2.94,0,0,1,.72,1.06,3.48,3.48,0,0,1,.22,1.26,3.43,3.43,0,0,1-.49,1.85,4.34,4.34,0,0,1-1.3,1.33,6.11,6.11,0,0,1-1.8.79,7.81,7.81,0,0,1-2,.27,8.72,8.72,0,0,1-1.2-.08,6.15,6.15,0,0,1-1-.23,3.89,3.89,0,0,1-.77-.34,4.55,4.55,0,0,1-.62-.43h-2.15v-3.3H876v.07a1,1,0,0,0,.21.6,1.75,1.75,0,0,0,.53.43,2.83,2.83,0,0,0,.74.27,4.17,4.17,0,0,0,.88.09,3.36,3.36,0,0,0,1.56-.28.84.84,0,0,0,.49-.72.81.81,0,0,0-.24-.59,1.73,1.73,0,0,0-.85-.38l-2.28-.49a6.87,6.87,0,0,1-3.24-1.38,3.37,3.37,0,0,1-.67-4.11,3.82,3.82,0,0,1,1.12-1.25,5.39,5.39,0,0,1,1.67-.8,7.15,7.15,0,0,1,2-.29,8.78,8.78,0,0,1,1.33.09,8.28,8.28,0,0,1,1,.23,4.7,4.7,0,0,1,.81.34,5.13,5.13,0,0,1,.62.41h2.07v3.3h-3.06A.93.93,0,0,0,880.62,197.24Z"/><path class="cls-2" d="M770.26,229.76a1.81,1.81,0,0,0-.6-.57,2.55,2.55,0,0,0-.82-.32,3.9,3.9,0,0,0-.88-.1,3.49,3.49,0,0,0-.88.1,2.24,2.24,0,0,0-.68.31,1.46,1.46,0,0,0-.44.49,1.45,1.45,0,0,0,.21,1.63,3.47,3.47,0,0,0,1.25.67l2.37.83a4.72,4.72,0,0,1,2.22,1.39,3.33,3.33,0,0,1,.7,2.11,3.43,3.43,0,0,1-.33,1.5,3.34,3.34,0,0,1-.92,1.16,4.52,4.52,0,0,1-1.45.75,6.12,6.12,0,0,1-1.87.27,5.09,5.09,0,0,1-2.34-.47,3.33,3.33,0,0,1-1.39-1.22h-1.24v-2h2.46a1.61,1.61,0,0,0,.22.87,1.82,1.82,0,0,0,.58.59,2.71,2.71,0,0,0,.82.33,4.22,4.22,0,0,0,.93.11,3.68,3.68,0,0,0,.89-.11,2.51,2.51,0,0,0,.76-.34,1.64,1.64,0,0,0,.52-.53,1.33,1.33,0,0,0,.19-.7,1.44,1.44,0,0,0-.39-1,3.47,3.47,0,0,0-1.31-.74l-2.35-.88a5.15,5.15,0,0,1-2.14-1.3,2.91,2.91,0,0,1-.69-2,3.64,3.64,0,0,1,.29-1.45,3.17,3.17,0,0,1,.84-1.15,4,4,0,0,1,1.35-.75,5.66,5.66,0,0,1,1.82-.27,5.94,5.94,0,0,1,2.21.36,4.11,4.11,0,0,1,1.6,1.26h1.15v2.05h-2.43A1.52,1.52,0,0,0,770.26,229.76Z"/><path class="cls-2" d="M774.44,227.3h4v10.27h1.85v2h-5.84v-2h1.76v-8.22h-1.79Zm1.37-4.35a1.31,1.31,0,0,1,.13-.59,1.54,1.54,0,0,1,.82-.82,1.39,1.39,0,0,1,.61-.13,1.29,1.29,0,0,1,.58.13,1.54,1.54,0,0,1,.82.82,1.31,1.31,0,0,1,.13.59,1.38,1.38,0,0,1-.13.6,1.72,1.72,0,0,1-.33.51,1.54,1.54,0,0,1-.49.34,1.44,1.44,0,0,1-.58.13,1.55,1.55,0,0,1-1.1-.47,1.72,1.72,0,0,1-.33-.51A1.38,1.38,0,0,1,775.81,223Z"/><path class="cls-2" d="M789.88,237.57h1.73V232a2.91,2.91,0,0,0-.72-2.14,2.75,2.75,0,0,0-2.06-.74,3.7,3.7,0,0,0-1.55.37,7.67,7.67,0,0,0-1.49.92v7.21h1.74v2h-5.75v-2h1.71v-8.22h-1.71v-2h3.92v1.45h0a9.34,9.34,0,0,1,.84-.65,5.71,5.71,0,0,1,.93-.53,5.59,5.59,0,0,1,1-.36,4.44,4.44,0,0,1,1.11-.13,5.54,5.54,0,0,1,1.78.27,3.45,3.45,0,0,1,1.35.83,3.74,3.74,0,0,1,.86,1.44,6.29,6.29,0,0,1,.31,2.06v5.89h1.71v2h-5.75Z"/><path class="cls-2" d="M805.7,230.58a3.16,3.16,0,0,0-1.26-1.3,3.63,3.63,0,0,0-1.78-.42,3.45,3.45,0,0,0-1.45.32,3.6,3.6,0,0,0-1.18.92,4.33,4.33,0,0,0-.79,1.44,5.68,5.68,0,0,0-.3,1.89,5.52,5.52,0,0,0,.3,1.87,4.27,4.27,0,0,0,.8,1.42,3.54,3.54,0,0,0,1.18.9,3.37,3.37,0,0,0,1.44.32,3.57,3.57,0,0,0,2-.56,3.81,3.81,0,0,0,1.34-1.62l1.83.9a5.84,5.84,0,0,1-.88,1.37,5.49,5.49,0,0,1-1.18,1,5.3,5.3,0,0,1-1.45.66,5.79,5.79,0,0,1-5.92-1.59,6.46,6.46,0,0,1-1.23-2.07,7.68,7.68,0,0,1-.44-2.63,7.18,7.18,0,0,1,.47-2.62,6.22,6.22,0,0,1,1.27-2.06,5.75,5.75,0,0,1,1.89-1.35,5.63,5.63,0,0,1,2.31-.49,6.07,6.07,0,0,1,2.21.41,5,5,0,0,1,1.82,1.22h1.25v2Z"/><path class="cls-2" d="M811.42,233.74a5.69,5.69,0,0,0,.07,1,5.18,5.18,0,0,0,.22.82,3.36,3.36,0,0,0,1.41,1.79,4,4,0,0,0,2.19.6,6.51,6.51,0,0,0,1.87-.27,8.58,8.58,0,0,0,1.91-.83l.89,1.51a9.82,9.82,0,0,1-2.44,1.23,8,8,0,0,1-2.54.4,6.24,6.24,0,0,1-2.31-.41,4.91,4.91,0,0,1-1.83-1.24,5.68,5.68,0,0,1-1.2-2,8.5,8.5,0,0,1-.43-2.85,8.11,8.11,0,0,1,.37-2.49,5.88,5.88,0,0,1,1.09-2,5.48,5.48,0,0,1,1.82-1.39A5.84,5.84,0,0,1,815,227a5.49,5.49,0,0,1,2.32.43,4.25,4.25,0,0,1,1.52,1.11,4.87,4.87,0,0,1,.89,1.59,9.43,9.43,0,0,1,.42,1.82c0,.3.06.6.08.91s0,.61,0,.9Zm3.45-4.9a3.75,3.75,0,0,0-1.35.22,2.59,2.59,0,0,0-1,.63,2.92,2.92,0,0,0-.64,1,5.75,5.75,0,0,0-.37,1.33h6.38a5.52,5.52,0,0,0-.22-1.27,2.64,2.64,0,0,0-.53-1,2.3,2.3,0,0,0-.91-.67A3.68,3.68,0,0,0,814.87,228.84Z"/><path class="cls-2" d="M828,236h2.08V225.63l-3.06,1.82v-4.56l5.49-3.23,1.9,0V236h2.11v3.6H828Z"/><path class="cls-2" d="M840.43,239.64l4-7.09a3.81,3.81,0,0,1-.68,0,5.93,5.93,0,0,1-.63-.1,6.65,6.65,0,0,1-2.09-.77,6.47,6.47,0,0,1-1.69-1.38,6.29,6.29,0,0,1-1.14-1.86,6,6,0,0,1-.41-2.2,6.47,6.47,0,0,1,.54-2.65,6.79,6.79,0,0,1,1.48-2.12,6.71,6.71,0,0,1,2.19-1.39,7.06,7.06,0,0,1,2.68-.51,6.9,6.9,0,0,1,2.64.51,6.74,6.74,0,0,1,2.18,1.38,6.6,6.6,0,0,1,1.49,2.08,6.13,6.13,0,0,1,.54,2.57,5.64,5.64,0,0,1-.13,1.25,7.44,7.44,0,0,1-.36,1.16c-.15.38-.33.75-.52,1.12s-.39.74-.6,1.12l-4.93,8.9Zm4.36-10.81a3.48,3.48,0,0,0,1.39-.27,2.68,2.68,0,0,0,1.05-.8,5.11,5.11,0,0,0,.31-.75,3,3,0,0,0,.12-.87,2.86,2.86,0,0,0-.17-.93,2.73,2.73,0,0,0-.54-.89,2.64,2.64,0,0,0-.92-.67,3.14,3.14,0,0,0-1.32-.25,3.31,3.31,0,0,0-1.08.18,3,3,0,0,0-1,.53,2.53,2.53,0,0,0-.69.86,2.37,2.37,0,0,0-.26,1.14,2.49,2.49,0,0,0,.9,2,3.09,3.09,0,0,0,1,.56A3.68,3.68,0,0,0,844.79,228.83Z"/><path class="cls-2" d="M861.76,225.39a1.93,1.93,0,0,0-.18-.79,2.29,2.29,0,0,0-.51-.7,2.83,2.83,0,0,0-.8-.52,2.66,2.66,0,0,0-1-.19,2.6,2.6,0,0,0-.93.16,2.76,2.76,0,0,0-.77.44,2.19,2.19,0,0,0-.54.64,2.79,2.79,0,0,0-.19,1.23l-4.08,0a6.46,6.46,0,0,1,1.8-4.46,6.39,6.39,0,0,1,2-1.4,6.76,6.76,0,0,1,2.67-.51,7,7,0,0,1,4.7,1.77,6,6,0,0,1,1.39,1.88,5.24,5.24,0,0,1,0,4.55,4.45,4.45,0,0,1-1.43,1.69,3.35,3.35,0,0,1,.88.69,5,5,0,0,1,.72,1,6.07,6.07,0,0,1,.49,1.23,5.92,5.92,0,0,1,.17,1.41,5.81,5.81,0,0,1-.52,2.44,6.5,6.5,0,0,1-1.45,2,7.22,7.22,0,0,1-4.91,1.9,7.36,7.36,0,0,1-2.56-.44,6.56,6.56,0,0,1-2.08-1.2,5.88,5.88,0,0,1-1.44-1.81,5.77,5.77,0,0,1-.65-1.74,13.15,13.15,0,0,1-.11-1.44h4.13a2.81,2.81,0,0,0,3.82,2.48,2.55,2.55,0,0,0,.86-.51,2.39,2.39,0,0,0,.59-.75,2.11,2.11,0,0,0,.21-.93,2.45,2.45,0,0,0-.19-1,2.23,2.23,0,0,0-.54-.78,2.65,2.65,0,0,0-.87-.5,3.17,3.17,0,0,0-1.14-.19h-1.84v-3.58h1.86a3.07,3.07,0,0,0,1-.16,2.25,2.25,0,0,0,.76-.43,1.76,1.76,0,0,0,.48-.66A2.07,2.07,0,0,0,861.76,225.39Z"/><path class="cls-2" d="M867.32,230.81l7.08-11.1h4.38l-7,11.13H876V227l4.11-.05v3.9h2.77v3.33h-2.77V236h2.53v3.6h-8.53V236H876v-1.84h-8.69Z"/><g class="cls-3"><polyline class="cls-4" points="575 121.74 494.5 23.24 273 253.74 61.5 15.24"/><polyline class="cls-4" points="289.5 23.24 472.5 122.24 575 327.74 694.5 242.24 763.5 304.24 882.5 304.24 959.5 242.24 959.5 169.24 1044.5 93.24"/><polyline class="cls-4" points="648.5 75.24 472.5 122.24 494.5 23.24"/><line class="cls-4" x1="272.5" y1="253.24" x2="289" y2="22.74"/><line class="cls-4" x1="574.5" y1="242.24" x2="369.5" y2="304.24"/><polyline class="cls-4" points="763.5 52.24 694.5 121.24 648.5 75.24 627.5 0.24"/><line class="cls-4" x1="694.5" y1="121.24" x2="627.5" y2="0.24"/><polyline class="cls-4" points="1124.5 141.24 959.5 169.24 1145.5 284.24"/><polygon class="cls-4" points="959.5 242.24 1027.5 284.24 1003 327.74 959.5 242.24"/><polygon class="cls-4" points="369.5 304.24 472.5 122.24 272.5 253.24 221 327.74 43 266.74 272.5 253.24 369.5 304.24"/><circle class="cls-2" cx="1044" cy="94.74" r="4"/><circle class="cls-2" cx="1125" cy="141.74" r="4"/><circle class="cls-2" cx="1145" cy="284.74" r="4"/><circle class="cls-2" cx="764" cy="51.74" r="4"/><circle class="cls-2" cx="472" cy="121.74" r="4"/><circle class="cls-2" cx="369" cy="303.74" r="4"/></g></g></g></svg>
