<svg id="Calque_1" data-name="Calque 1" xmlns="http://www.w3.org/2000/svg" xmlns:xlink="http://www.w3.org/1999/xlink" viewBox="0 0 250 250"><defs><style>.cls-1{fill:none;}.cls-2{fill:#2e3031;}.cls-3{clip-path:url(#clip-path);}.cls-4,.cls-5{fill:#fff;}.cls-5{stroke:#fff;stroke-miterlimit:10;stroke-width:1.36px;}</style><clipPath id="clip-path"><rect class="cls-1" x="-0.22" width="250.22" height="250"/></clipPath></defs><title>Plan de travail 1</title><rect class="cls-2" x="-0.22" width="250.22" height="250"/><g class="cls-3"><path class="cls-4" d="M60.21,237.38c-19,0-30.12-3.38-34.09-10.33-2.71-4.76-1.83-11,2.62-18.54a1.45,1.45,0,0,1,1.26-.72c21.48,0,26.09-10.87,26.28-11.34a1.27,1.27,0,0,1,.12-.23,11.5,11.5,0,0,0,1.12-2.41c0-3-.23-6.1-.44-8.86L57,183.17a8.24,8.24,0,0,0-.38-2c-.07-.2-.17-.45-.26-.7-1.92-4.64-7.87-6.84-11.07-8-4.09-1.51-8.49-2.53-11-2.53a6.56,6.56,0,0,0-1,.07,7,7,0,0,1-1.12.14,1.53,1.53,0,0,1-1.52-1c-.37-1.09.36-1.65,1.7-2.67a120.92,120.92,0,0,0,9.5-8.06,113.77,113.77,0,0,1,20.24-14.51.25.25,0,0,1,0-.07l-.24,0-.61-.12c-1.49-.37-2.21-2-1.78-4a2.38,2.38,0,0,1,.76-1.28,10.43,10.43,0,0,1-1.17-.17,2.69,2.69,0,0,1-1.74-1.25,4,4,0,0,1-.38-2.95,2.89,2.89,0,0,1,1-1.49,1.83,1.83,0,0,0,.54-.7l.3-.64-.12,0c-.67-.17-1.59-.41-2.73-.76a11.39,11.39,0,0,1-4.53-2.14,2.76,2.76,0,0,1-.64-.85c-.63,1.58-.57,2.56.43,3.32s1.8,1.35,1.43,2.46a1.51,1.51,0,0,1-1.42,1c-1.2,0-3.23-2.06-4-3.16a7,7,0,0,1-1.4-6.31c.55-1.81,1.31-3.69,2-5.52.37-.91.74-1.83,1.09-2.75l0,0a26.84,26.84,0,0,1-3.24,1.24c-1.67.55-2.61.89-3.19,1.67a6.87,6.87,0,0,0,2.36,1.08,1.46,1.46,0,0,1,1.1,1.27,1.48,1.48,0,0,1-.81,1.47,5.81,5.81,0,0,1-2.33.52c-1.19,0-4-.49-4.59-5-.62-5,4.53-6.88,7.94-8.14l.11,0h0c-.42-1.1,1-9,4-13.83H49.8c-1.18,0-3.22,4.44-4.19,9.13a1.48,1.48,0,0,1-1.44,1.17H44a1.46,1.46,0,0,1-1.33-1.42,23.3,23.3,0,0,1,1.17-7.83c.11-.29.23-.58.36-.86a12.8,12.8,0,0,1,6.81-6.31,21.55,21.55,0,0,0,3.7-2.41c.08-.25.17-.5.26-.74a21.53,21.53,0,0,0-4.24,2.13c-4.5,2.93-8.17,4.35-11.2,4.35a9,9,0,0,1-4.31-1.08c-2.91-1.55-4.15-3.51-4.15-6.53s3.43-3.89,4.17-3.89a1.49,1.49,0,0,1,1.47,1.28c0,.47,0,1.3-1.29,1.68a1.49,1.49,0,0,0-.05,1.17c.36,1,1.64,1.76,3.61,2a2.19,2.19,0,0,0,.36,0c2,0,4.29-2.29,6.3-4.31.54-.55,1.07-1.08,1.6-1.58l.33-.29a6.06,6.06,0,0,1-4.21-2c-2.13-2.48,1.19-6,1.88-6.72a1.46,1.46,0,0,1,2.26,1.84A3.61,3.61,0,0,0,47,76.89a2.14,2.14,0,0,0,.61.07,9.16,9.16,0,0,0,2.19-.34c6.84-1.7,14.68-7.08,18.89-11.51S87.65,48.9,104,48.9c14.6,0,20.65,3.92,21.72,4.71a67.38,67.38,0,0,1,7.94,4.77,24.06,24.06,0,0,1,4.31,4,49.84,49.84,0,0,1,16.35,18.28,21,21,0,0,1,1.5,4,22.3,22.3,0,0,1,4.6,9.21c.35,1.51.65,3.09.93,4.79l.63.32c4.76,2.37,11.15,5.55,11.76,11.11,6.76.46,10.9,2,12.32,4.65a4.13,4.13,0,0,1-.17,4.22c-1.76,3-8.33,10.25-15.74,14.08a60.92,60.92,0,0,0-3.26,7.1c.5.35,1,.67,1.48,1a16.08,16.08,0,0,1,2.78,2.07,4.4,4.4,0,0,0,2.76-2.74,2.71,2.71,0,0,0-.28-2.72c-.83-.88-1.43-1.51-1-2.46a1.48,1.48,0,0,1,1.36-.89c1,0,2.51,1.8,3.56,3.31,1.8,2.61,2.4,4.95,1.72,6.77a6.79,6.79,0,0,1-3.08,3.33c.91,1.61,1,3.71.4,6.55-.51,2.31-1.1,4.34-1.61,6.12a24.19,24.19,0,0,0-1.2,5.44c.41,0,.77,0,1.12.07,3,.33,4.83,1.53,5.74,3.87a16.62,16.62,0,0,1,2.76,3.77,2.3,2.3,0,0,1,1.26-1.21c-2-2.17-2.12-3.29-1.93-4.1a2.17,2.17,0,0,1,1.63-1.59,8.25,8.25,0,0,1,2.12-.38,4,4,0,0,1,1.19.18,2.19,2.19,0,0,1,1.47-1.2,2.9,2.9,0,0,1,.54-2l.45-.7c.7-1.12,1.55-2.48,3-2.84a3.36,3.36,0,0,1-.12-2.32,2.19,2.19,0,0,1,.42-.71,3.38,3.38,0,0,1,.49-.94c.16-.21.32-.44.48-.67.88-1.28,1.89-2.74,3.63-2.74a3.41,3.41,0,0,1,2,.75,3.77,3.77,0,0,1,2.17-1.42l-6.9-17a1.47,1.47,0,0,1,1.16-2,6.9,6.9,0,0,0,6.34-5.86c3.19-14.11-16.08-49.25-54.69-74.4C113,29.62,61.8,26.21,34.42,26.21c-9.62,0-15.68.44-15.74.45h-.11a1.47,1.47,0,0,1-.69-2.76c.73-.39,18.4-9.68,50.48-13.3h.17a1.46,1.46,0,0,1,1.41,1.08,1.48,1.48,0,0,1-.82,1.73A23.26,23.26,0,0,0,65,15.58a16.59,16.59,0,0,0,2.68.17,93.31,93.31,0,0,0,11.18-1l7.74-5.23a1.53,1.53,0,0,1,.78-.25c2.07,0,4.18-.08,6.27-.08A254,254,0,0,1,123.43,11a1.46,1.46,0,0,1,.16,2.88c-10.94,2.54-15.2,4.61-16.19,5.56.83.48,4.19,1.7,16.65,1.7,2.36,0,4.24-.05,5-.07l13.21-6.84a1.41,1.41,0,0,1,.67-.16l.28,0a217.6,217.6,0,0,1,40,11.74,1.47,1.47,0,0,1-.47,2.83c-14.57.85-19.77,2.61-20.63,3.53,1.17,1.76,12.43,4.64,25,6.32l13.09-4.21a1.76,1.76,0,0,1,.45-.07,1.46,1.46,0,0,1,.7.18A165.19,165.19,0,0,1,239.5,62.88a1.47,1.47,0,0,1-1,2.5,1.59,1.59,0,0,1-.43-.06c-3.83-1.18-16.8-5-23.14-5a4.85,4.85,0,0,0-2.36.36c.17,2.27,11.23,9.86,24.42,16.72l15.19.55a1.44,1.44,0,0,1,1.1.56,195.43,195.43,0,0,1,11.92,17.17c8,13,13.75,33.15,17,60a347.29,347.29,0,0,1,2.43,36.49,1.48,1.48,0,0,1-1.2,1.44l-.27,0a1.47,1.47,0,0,1-1.37-.94L264.84,149l-44.79,41.63a1.48,1.48,0,0,1-1,.39,1.1,1.1,0,0,1-.31,0,1.45,1.45,0,0,1-1-.88l-6-14.67-.19,0a3,3,0,0,1-.73,2l-.5.64a2.77,2.77,0,0,1,.11,1.78,2.14,2.14,0,0,1-.32.64,3.19,3.19,0,0,1-.39,1c-.14.23-.28.47-.41.71-.78,1.4-1.76,3.14-3.76,3.14a3.88,3.88,0,0,1-1.79-.48,4.05,4.05,0,0,1-2.14,1.77l-.38.67c-.81,1.43-1.82,3.21-3.72,3.21a4.43,4.43,0,0,1-3.09-1.63l-.88-.94-1,1.44c1.23,2.15,2.5,4.51,3.78,7l5.7,11.59a1.52,1.52,0,0,1,.63,1.2c0,1.28,0,1.75-15.93,6.2-6.29,1.76-19.4,5.28-36.58,9.17C124.06,230.37,87.32,237.38,60.21,237.38Zm111.08-83.62c-.55,1.41-1.1,2.69-1.6,3.86l-.53,1.25.14,0A30.3,30.3,0,0,0,171.29,153.76ZM167,150.23c.09-.24.17-.47.24-.7h-.12Zm-8.37-38.95.75-.19a4.18,4.18,0,0,0-.85-2.38h0Zm4.74-1.47a4.87,4.87,0,0,1,.12.52l.93-.11C164.1,110.08,163.75,109.94,163.38,109.81ZM50.64,106a12.1,12.1,0,0,0-1.26,2.94,10.68,10.68,0,0,0,1.29-1.6S50.65,106.28,50.64,106Z"/><path class="cls-4" d="M93.67,10.68a250.31,250.31,0,0,1,29.59,1.78C117.5,13.79,105,17,105.79,19.79c.73,2.43,11.52,2.82,18.26,2.82,3.1,0,5.34-.08,5.34-.08l13.51-7a214.53,214.53,0,0,1,39.74,11.66c-6.63.39-22.48,1.67-22.06,5.08.53,4.3,26.63,7.74,26.63,7.74l13.41-4.31a162.55,162.55,0,0,1,37.84,28.22c-4.11-1.27-17.05-5.09-23.57-5.09-2.12,0-3.56.41-3.79,1.43-1.11,4.81,25.47,18.57,25.47,18.57l15.52.56a196.25,196.25,0,0,1,11.83,17c19.12,30.81,19.16,95.74,19.16,95.74l-17.65-45.76-46.38,43.1-7.27-17.92c-.29-.3-.62-.65-1-1.06,1,1.68,1.72,3.29.49,3.45a10.49,10.49,0,0,1-1.23.11,2.42,2.42,0,0,1-.39,0,1.94,1.94,0,0,1,0,2.39c-.37.45-.72.93-1.08,1.37.51.9.66,1.64.09,1.92a1.49,1.49,0,0,1-.24.9c-.86,1.44-1.53,3.14-2.91,3.14a3.72,3.72,0,0,1-2.26-1.1c-.71,1.27-1.36,2.52-2.55,2.52h-.11a2.18,2.18,0,0,1-.23.53c-.89,1.49-1.62,3.23-2.88,3.23a3.09,3.09,0,0,1-2-1.18c-.62-.65-1.33-1.43-2-2.25l-2.66,3.67c1.55,2.67,3,5.38,4.21,7.79l5.94,12.07c5.48,0-88.28,26.86-140.71,26.86-26.13,0-42-6.67-30.21-26.66,22.9,0,27.64-12.27,27.64-12.27A13,13,0,0,0,59,194c0-3.76-.35-7.75-.57-11a10,10,0,0,0-.45-2.32c-.1-.27-.2-.53-.29-.79-2.1-5.06-8.09-7.45-11.93-8.87s-8.59-2.62-11.46-2.62a7.28,7.28,0,0,0-1.21.09,7.3,7.3,0,0,1-.88.12c-.88,0,2.38-1.52,10.68-9.24A112.25,112.25,0,0,1,63.26,144.9a1.44,1.44,0,0,1,.34-.6c1.57-1.8-1.06-1.88-1.93-2.09s-.87-1.52-.7-2.32,1.39-.94,1.39-.94h0c.5-.35,1.24-.51,1.46-1.35a.42.42,0,0,0-.22-.55h0a41.28,41.28,0,0,1-4.17-.34c-1-.22-1.23-1.59-1-2.39s.87-.72,1.45-1.95c.34-.71.7-1.55,1-2.14a42.29,42.29,0,0,0-4.4-1.32h0a10.15,10.15,0,0,1-4-1.82c-1.06-1,.29-2.53,1.3-3.49a11.41,11.41,0,0,0,1.64-2.78c.05-.15.1-.3.14-.45a11.78,11.78,0,0,0,.37-3.35c-2.26,2.31-3.9,4.26-4.16,5.13-.68,2.25-5,7-1.35,9.67.76.58,1,.84.88.84-.39,0-5.28-3.52-4-7.59,1.18-3.87,3.37-8.12,4.4-12.09a21,21,0,0,1-3.33,2.09c-3.16,1.5-5.74,1.51-7.09,3.53s3.29,3.21,3.29,3.21a4.27,4.27,0,0,1-1.68.37c-1.23,0-2.75-.66-3.13-3.74C39,113,47.61,112.19,50,110.33a11.31,11.31,0,0,0,2.18-2.6c-.08-3.87-.35-5.36,2.49-9.21.55-.74.73-1.06.65-1.06-.37,0-6.66,7.32-7.4,11.41a4,4,0,0,1-.25,1c-.2,0,1.37-10.87,5.65-14.76a4.16,4.16,0,0,0,.68-.86,15.25,15.25,0,0,1-4.17.86c-3.49,0-5.63,10.29-5.63,10.29a22.34,22.34,0,0,1,1.07-7.26c.1-.26.21-.52.33-.76a11.36,11.36,0,0,1,6.09-5.6A24.18,24.18,0,0,0,56,89,31.86,31.86,0,0,1,57.58,85,23.57,23.57,0,0,0,50,88.23c-4.78,3.11-8,4.12-10.4,4.12A7.47,7.47,0,0,1,36,91.43c-2.72-1.45-3.38-3-3.38-5.23,0-1.75,2.49-2.43,2.71-2.43,0,0,0,0-.34.12-1.52.39-2.37,5.18,3.88,6a5.25,5.25,0,0,0,.56,0c3.23,0,6.19-3.72,8.9-6.28a28.9,28.9,0,0,1,5-3.15,27.16,27.16,0,0,1-4.22.4c-2.37,0-3.74-.54-4.58-1.52-1.35-1.58,1.8-4.73,1.8-4.73s-2.45,3.76,1.28,3.76a11.19,11.19,0,0,0,2.55-.38c7.21-1.8,15.31-7.43,19.59-11.93S88.43,50.37,104,50.37s21,4.5,21,4.5a61.29,61.29,0,0,1,7.88,4.73A22.85,22.85,0,0,1,137,63.52a48.2,48.2,0,0,1,16,17.83,21.22,21.22,0,0,1,1.47,4,21.11,21.11,0,0,1,4.5,8.85c.42,1.84.76,3.67,1,5.43,5.16,2.63,12.73,5.84,12.29,11.85,11.46.5,14,4,12.32,6.73A45.55,45.55,0,0,1,169.05,132a62,62,0,0,0-4,8.72c2.18,1.72,4.34,2.61,5.49,4.16,4.4-.63,6.23-5.81,4.07-8.09-.58-.61-.78-.88-.72-.88.22,0,5.09,4.94,3.9,8.11-.52,1.4-2.05,2.58-4,3.33,1.45,1.2,2.13,3,1.3,6.74-1.51,6.81-3.71,11.3-2.49,13.37.29,0,.57,0,.84,0a9.75,9.75,0,0,1,1.23.06c2.69.29,4,1.25,4.64,3.22a17.92,17.92,0,0,1,4.63,8.6c.18.2.36.42.54.64.62-.73,1.27-1.5,2-2.31-1.34-1.49-2.61-3.33-1.25-3.84a5.13,5.13,0,0,1,1.7-.45,2.23,2.23,0,0,1,1,.24c-1.92-1.7-5.15-4.87-3.2-5.4a7,7,0,0,1,1.74-.33c1,0,1.91.5,4,2.13-1.3-1.43-2.19-2.87-.94-3.2a7.48,7.48,0,0,1,1.67-.34c-.67-.84-.82-1.52-.32-2.26.91-1.36,1.65-3,2.93-3a3.24,3.24,0,0,1,2.09,1.15c-1.17-2-2.24-4.35-1.19-4.73a1.62,1.62,0,0,1,.34-.89c.94-1.28,1.74-2.82,2.93-2.82.61,0,1.33.42,2.23,1.5.77-1.12,1.5-2.22,2.51-2.22a1.29,1.29,0,0,1,.33,0,2.15,2.15,0,0,1,.28-.51c.18-.25.35-.5.53-.74l-7.21-17.77c20.43-2.73.34-51.61-47.75-82.94-35.79-23.32-88.37-26.5-114.43-26.5-9.8,0-15.85.45-15.85.45s17.78-9.51,50-13.15c-3.18,1.41-6,3-5.55,4.12.33.79,2.27,1,4.71,1a96.15,96.15,0,0,0,11.72-1l8-5.41c2-.06,4.12-.08,6.24-.08m66.27,88.95a14.16,14.16,0,0,0-3.85-4.55c.08.76.15,1.54.22,2.33a9.16,9.16,0,0,0,1.11.83c.71.45,1.57.91,2.52,1.39m.72,5.44c-.07-.7-.15-1.45-.25-2.23-.69-.18-1.36-.34-2-.46a5.58,5.58,0,0,1-1.8-.88l.09,1.41c.48.4.94.82,1.38,1.25.81.3,1.68.6,2.57.91m9.85,5.77a4,4,0,0,0-1.12-3.22,18.22,18.22,0,0,0-8.17-4.56,17.25,17.25,0,0,1,.38,2.36c3.45,1.27,7,2.86,8.91,5.42m-13.23,2.37a33.5,33.5,0,0,1,3.51-.93,5.82,5.82,0,0,0-1.16-4.55c-.11-.14-.23-.26-.34-.4-.82-.11-1.61-.2-2.33-.26.11,2,.21,4.1.32,6.14m5-1.2a41.49,41.49,0,0,1,6.59-.57H169a4.29,4.29,0,0,0-.53-.51,16.72,16.72,0,0,0-6.78-3.14c0,.44,0,.86-.08,1.25a9,9,0,0,1,.65,3m-.19,42.25a23.32,23.32,0,0,0,2-6.79,22.24,22.24,0,0,1-1.44,2.54c-.24,1.41-.44,2.82-.6,4.25m1.86,4.31c.1-.17.2-.33.32-.5,2.56-3.71,4.64-7.37,4.75-9.9a12.7,12.7,0,0,1-3.12-.39,13.16,13.16,0,0,1-.17,1.43c-.66,4.14-1.59,7.16-1.78,9.36m3,2c1.59-.1,2.73-.25,3.35-.34,2.67-5.38,4.16-10.28,1.07-11.54a13.82,13.82,0,0,1-.68,2.58c-1.39,3.92-2.92,7-3.74,9.3m1.47,4a13.28,13.28,0,0,1,1.16-2.86l.6-1.18c-.73.37-2,1-3.67,1.63a6.1,6.1,0,0,0-.12.81,6,6,0,0,1,2,1.6m-3.61,4.12,1.17-.24a13.3,13.3,0,0,1-1.06-1.08c-1-1.18-2.3-2.2-2.56-3.85l-.89.23c0,.43,0,.85,0,1.28h0a9.38,9.38,0,0,1,3.35,3.66M93.67,7.74h0c-2.11,0-4.23,0-6.32.09a2.89,2.89,0,0,0-1.56.5l-7.46,5c-1.36.19-4.64.63-7.79.83a2.93,2.93,0,0,0-2-5.07l-.33,0c-32.36,3.65-50.27,13.07-51,13.47a2.93,2.93,0,0,0,1.39,5.52h.21c.06,0,6.08-.44,15.64-.44,63.41,0,97.91,16.31,112.83,26,37.52,24.44,57.08,59.47,54.06,72.85a5.51,5.51,0,0,1-5.1,4.73,2.93,2.93,0,0,0-2.33,4L200.24,151a6,6,0,0,0-.5.38,4.41,4.41,0,0,0-1.81-.39c-2.51,0-3.91,2-4.84,3.36l-.45.64a4.72,4.72,0,0,0-.61,1.09,3.9,3.9,0,0,0-.5.92,4.09,4.09,0,0,0-.19,2,8.9,8.9,0,0,0-2.52,2.9c-.13.22-.28.45-.42.66a4.72,4.72,0,0,0-.75,1.86,3.59,3.59,0,0,0-.68.54,5,5,0,0,0-.55,0,9,9,0,0,0-2.5.43,3.63,3.63,0,0,0-2.67,2.61,7.68,7.68,0,0,0-5.9-3.36c.23-1.06.63-2.46,1-3.68.52-1.81,1.11-3.85,1.63-6.22a12.08,12.08,0,0,0,0-6.32,7.59,7.59,0,0,0,2.62-3.36c.87-2.32.24-5.05-1.89-8.11-2.73-3.95-4.1-3.95-4.76-3.95h0a2.76,2.76,0,0,0-.86.13c6.76-4.16,12.34-10.49,14-13.34a5.63,5.63,0,0,0,.2-5.66c-1.58-2.93-5.73-4.72-12.35-5.33-1.34-5.54-7.57-8.67-12.33-11-.25-1.45-.52-2.81-.82-4.13a23.72,23.72,0,0,0-4.7-9.58,22,22,0,0,0-1.52-4A51.33,51.33,0,0,0,138.9,61.3a24.4,24.4,0,0,0-4.46-4.13,68.64,68.64,0,0,0-8-4.81c-1.56-1.13-7.91-4.92-22.49-4.92-16.82,0-31.95,12-36.35,16.66-4,4.17-11.69,9.48-18.18,11.1l-.25.06a3,3,0,0,0-2.88-3.52,2.9,2.9,0,0,0-2.06.86c-2.46,2.45-4.26,6-2,8.71a6.54,6.54,0,0,0,2.43,1.76l-.07.07C42.92,84.87,40.78,87,39.38,87h-.16A4.12,4.12,0,0,1,37,86.18a2.9,2.9,0,0,0,1.25-2.77,3,3,0,0,0-2.92-2.57c-1.56,0-5.64,1.65-5.64,5.36s1.52,6,4.93,7.82a10.37,10.37,0,0,0,5,1.26,14.26,14.26,0,0,0,4.23-.7,12.21,12.21,0,0,0-.88,1.59c-.15.3-.28.62-.41,1a24.67,24.67,0,0,0-1.27,8.4,2.93,2.93,0,0,0,2.67,2.84h.27a2.9,2.9,0,0,0,.66-.07c-.05.4-.09.78-.1,1.14-3.63,1.38-8.69,3.73-8,9.36.73,5.86,4.81,6.31,6,6.31a6.8,6.8,0,0,0,1.42-.15A8.54,8.54,0,0,0,46,131.83s2.81,3.76,5.22,3.76a3,3,0,0,0,2.81-2,2.78,2.78,0,0,0-.24-2.4,17.47,17.47,0,0,0,1.77.56l.81.24a4.23,4.23,0,0,0-.82,1.58,5.41,5.41,0,0,0,.55,4.1,4.14,4.14,0,0,0,2,1.7,5.23,5.23,0,0,0,1,4.59A111.68,111.68,0,0,0,40.88,157.3a118.87,118.87,0,0,1-9.39,8c-1.37,1-2.91,2.22-2.2,4.31a3,3,0,0,0,2.91,2,7.9,7.9,0,0,0,1.37-.16,4.46,4.46,0,0,1,.72,0,36.08,36.08,0,0,1,10.44,2.44c2.77,1,8.52,3.15,10.22,7.22q.12.3.24.63a6.87,6.87,0,0,1,.3,1.58c0,.57.08,1.17.13,1.78.2,2.66.42,5.66.43,8.52a9.48,9.48,0,0,1-.9,1.87,3.17,3.17,0,0,0-.24.49c-.17.39-4.58,10.39-24.91,10.39a3,3,0,0,0-2.53,1.44c-4.73,8-5.62,14.77-2.62,20,4.25,7.46,15.82,11.08,35.36,11.08,27.24,0,64.1-7,90.22-12.93,17.22-3.89,30.35-7.42,36.65-9.18,4.47-1.25,8.27-2.38,11-3.27,4-1.29,6-1.94,6-4.35a3,3,0,0,0-.91-2.13l-5.56-11.29q-1.16-2.28-2.29-4.37a4.64,4.64,0,0,0,2.2.56c2.75,0,4.1-2.37,5-3.94l.12-.22a5.19,5.19,0,0,0,1.6-1.19,5,5,0,0,0,1.32.18c2.86,0,4.22-2.43,5-3.88.13-.23.25-.45.39-.68a4.6,4.6,0,0,0,.49-1.12,3.79,3.79,0,0,0,.47-1.26l4.4,10.84a2.94,2.94,0,0,0,2.08,1.76,3.38,3.38,0,0,0,.63.07,2.93,2.93,0,0,0,2-.79l43.2-40.15,16.09,41.71a3,3,0,0,0,2.74,1.88,2.47,2.47,0,0,0,.54,0,2.93,2.93,0,0,0,2.39-2.88c0-2.69-.26-66.12-19.6-97.28a198.4,198.4,0,0,0-12-17.3,3,3,0,0,0-2.21-1.13l-14.85-.54c-1.61-.85-6.34-3.38-11.18-6.33-6.47-3.93-9.53-6.41-11-7.82,5,.1,14.78,2.6,22.4,4.95a2.8,2.8,0,0,0,.86.13,2.93,2.93,0,0,0,2.08-5A166.36,166.36,0,0,0,202,33.12a3,3,0,0,0-1.4-.35,2.77,2.77,0,0,0-.9.14L187,37c-8.17-1.11-17.34-3-21.57-4.66,2.76-.77,8.15-1.69,17.43-2.23a2.93,2.93,0,0,0,.93-5.64,218,218,0,0,0-40.28-11.82,2.6,2.6,0,0,0-.56-.06,2.9,2.9,0,0,0-1.35.33l-12.91,6.69c-.87,0-2.55.06-4.59.06A88.34,88.34,0,0,1,111.36,19a89.12,89.12,0,0,1,12.56-3.68,2.93,2.93,0,0,0-.32-5.77,256.89,256.89,0,0,0-29.93-1.8ZM45.74,119.16l.39-.13.22-.07-.18.45a3.7,3.7,0,0,0-.43-.25Zm125.45,15,.68-.37a2.8,2.8,0,0,0-.64.94c-.8,1.84.41,3.12,1.3,4.05a1.6,1.6,0,0,1,0,1.23,3.08,3.08,0,0,1-1.13,1.48,25.68,25.68,0,0,0-2.23-1.57l-.48-.31q1.17-2.86,2.54-5.45Z"/><path class="cls-4" d="M60.15,135.94c2.09,1,5.38.12,3.91,2.92s1,3.12,1.56,4.68S59.57,151.2,61,153.88s6.77,21,6.77,21l-5,21.49-2.61,8.32,41.38,2.95,17-53.72-2.26-51L105.6,91.39,82.53,90,69.78,93l-11,13.26s-.55,9.06-1.54,11.51-3.28,5.88-3.52,7.12-2.05,2.59,2.67,4.07,5.34.79,4.38,3.3S60.15,135.94,60.15,135.94Z"/><path class="cls-2" d="M46.29,74.67s-3.38,5.18,3.83,3.38,15.31-7.43,19.59-11.93S88.4,50.37,103.94,50.37s21,4.5,21,4.5a61.29,61.29,0,0,1,7.88,4.73c4.95,3.37,12.61,14.62,14,22.5s4.28,37.35,0,41.17S122,157,122,157s-2.93-3.6-5.63-12.6,2.25-21.6,2.25-21.6-5.85,13.73-6.53,18.45.45-9.22,1.58-15.3-4.06,1.35-4.28,7.2-1.8-7.42-2.25-11,1.62-9,1.62-9-.67,6.3-4.5,7.2-5.13-.45-5.13-.45,5.35,0,6.48-3.15.05-15.3-.4-16-4.5-1.57-5.41,1.13-4.15,9.9-6.63,16.87-4.8,17.73-10.67,17.73c-5.56,0,1.52.55,3.92-4,3.13-6,5.18-19.8,5.18-19.8l-7.44,14.62L88.4,114.5s-4.28,6.3-7,7.65a76.19,76.19,0,0,1-8.78,3.15s9.46-3.6,12.61-9.68,5.41-13.72,6.53-17.1S97.24,86.6,97.24,86.6,86.6,90,84.58,90.65,74,101.9,68.13,106.17s-15.76,13.73-16.44,16-4.95,7-1.35,9.67-4.73-1.57-3.15-6.75,5-11,5-16-.67-6.3,2.48-10.58-5.85,5.4-6.75,10.35.39-9.17,5.4-13.72c2.77-2.52,2-11,10.14-17.33s-2.71,1.35-8.79,2.48-8.78.67-10.13-.9S46.29,74.67,46.29,74.67Z"/><path class="cls-2" d="M60.42,111.44s-1.35,7.93-3.55,10.13-2.19,4.22.85,5.23a16.82,16.82,0,0,0,4.73,1s2.21-.07,0,4.05c-.74,1.37-2,2.7.45,3.55s2.25,2.53,1.58,3.71.5,2.53,2,3.21.85,6.91,0,8.1.38,2.66,3.77,2.6c3.55-.06,6.87.1,11.6-3.45s17.4-9.05,20.61-17.68a117.59,117.59,0,0,0,4.62-15.49s5.34,2.09.11,14.54c-2.34,5.55-8.45,11.71-11.82,14.58s-9.63,7.43-16.56,8.95-13.17,2-14.86,0,1.52-6.25,1.52-8.78-3-3.21-3.55-5.23,1.46-1.39,1.86-2.87-4,.17-3.72-2.36,1.36-4.9,1-5.74-3.38-1.18-5.07-2-3.11-1-.71-5.4a47.07,47.07,0,0,0,3.75-10.63Z"/><path class="cls-2" d="M64.92,144a114.16,114.16,0,0,0-22.07,15.46c-9.79,9.12-12.56,9.58-9.79,9.12,2.62-.45,8.11.84,12.67,2.53s12.16,4.72,12.66,12,1.69,18.39-2.19,22.11-4.39,7.42-10.3,7.25-15.21-3.2-15.38,1.52-1.68,21.6-1.68,21.6,4.58,4.51,3.91,19.36,5.4-4.21,5.4-4.21.82-4.35,5-14.81,11.66-21.09,14.19-24.64S81,176.52,81,176.52s2.1-1.89-.22-9.31S77.14,159.67,76,157s-5.91-2.47-7.77-3.15-5.23-1.16-2.53-5.73S64.92,144,64.92,144Z"/><path class="cls-2" d="M148.51,118.23s5.88-6.69,20.29-6.79,17.57,3.77,15.77,6.79-10.59,12.93-19.82,15.4-20.94,7.64-27,13.49-19.36,28.13-20.26,32,0,5.85,0,5.85-8.56-3.83-13.74,2.92-9,17.78-9,17.78,4.05.67,15.31,0,19.15-2.1,19.6.3-9.91,24.67-14,38.85-9.6-7.9-10.27,4.93,6.53,23.85-2,22.28-22.29-14-22.52-32.86,5.1-21.13,8.25-31.25a208,208,0,0,1,15.09-35.56c7-13,20.72-30.81,28-38.69A208.52,208.52,0,0,1,148.51,118.23Z"/><path class="cls-2" d="M89.9,157.84a2.28,2.28,0,1,1-2.28,2.27,2.28,2.28,0,0,1,2.28-2.27m0-2a4.31,4.31,0,1,0,4.3,4.3,4.31,4.31,0,0,0-4.3-4.3Z"/><path class="cls-2" d="M92.25,169.48A2.28,2.28,0,1,1,90,171.76a2.28,2.28,0,0,1,2.28-2.28m0-2a4.3,4.3,0,1,0,4.31,4.3,4.3,4.3,0,0,0-4.31-4.3Z"/><rect class="cls-2" x="74.09" y="155.39" width="13.88" height="1.35" transform="translate(-89.88 114.67) rotate(-48.94)"/><rect class="cls-2" x="76.22" y="162.24" width="10.96" height="1.35" transform="translate(-44.46 31.39) rotate(-17.17)"/><rect class="cls-2" x="82.97" y="164.52" width="1.35" height="10.77" transform="translate(-97.26 225.91) rotate(-80.99)"/><polygon class="cls-2" points="80.81 175.14 94.2 195.28 91.67 203.71 81.03 180.54 80.81 175.14"/><path class="cls-2" d="M83.07,173.4a38.19,38.19,0,0,0-23.43,28.73c-.37,2-5.36,11.85-9.58,14.89s-24,6.22-24,6.22l4,14.69S55,253.87,61.71,248s24.34-25.28,24.34-25.28l1.09-12.61L73.43,224.25,59.58,247s14.35-19.41,17.73-22.95S88,214,88,214a5.27,5.27,0,0,0,2.71-5.23C90.12,205.18,83.07,173.4,83.07,173.4Z"/><path class="cls-2" d="M56.1,213.06l1,11.15L53,233l3.36,17.55S50.46,237.41,50,233s-1.69-11.31-1.69-11.31Z"/><polygon class="cls-2" points="62.28 201.97 67.35 213.06 64.81 199.44 62.28 201.97"/><polygon class="cls-2" points="63.73 241.45 57.12 252.26 60.42 263.74 70.05 256.82 63.73 241.45"/><polygon class="cls-2" points="58.58 248.94 82.89 247.03 89.07 214.63 69.22 222.34 58.58 248.94"/><polygon class="cls-2" points="37.28 244.16 51.64 265.42 41.5 235.55 37.28 244.16"/><polygon class="cls-2" points="54.05 265.42 82.14 250.49 83.65 243.05 54.05 265.42"/><path class="cls-2" d="M67.35,73.71S51.13,81,48.26,83.67s-6,6.71-9.46,6.25c-6.25-.85-5.4-5.64-3.88-6s-2.37.12-2.37,2.31.66,3.78,3.38,5.23c2.53,1.35,6.25,1.86,14-3.2,3.8-2.48,8.11-3.5,9.63-3.44s-4.73,5.55-7.94,7a11.32,11.32,0,0,0-6.09,5.6c-.12.24-.23.5-.33.76a22.34,22.34,0,0,0-1.07,7.26s2.14-10.29,5.63-10.29S60.59,91.6,60.59,91.6Z"/><path class="cls-2" d="M76,97s11.7-7.63,14.76-5.4a8.23,8.23,0,0,1,1.53,12.15c-3.88,4.83.41,1.87-3,5.56,0,0-8.19,9.51-.14,2.18s7-14.94,9.69-19.22,5.63-8.1,2-9-11-3.6-16.21,0S76,97,76,97Z"/><path class="cls-2" d="M94.2,145.77s6.82-2.47,9.74,0,7.66,10.13,1.8,11.25-9.35-2.47-9.18-4.5-2.5,9.11,4.81,7.59.77,3.76-1.48,5.06S95.27,173,94.2,181.55s1.86-8.23,5-11.65,6.28-1,3.26,1.52,10.78-3,10.78-3L123.47,144l-4.89-21.15-6.53-7.75s-4.28,8-7,13.83S95.16,144,95.16,144Z"/><path class="cls-2" d="M55.35,101.9s-3,6.58-5.4,8.43-11,2.7-10.3,8.11,4.81,3.37,4.81,3.37-4.65-1.18-3.29-3.21,3.93-2,7.09-3.53a35.42,35.42,0,0,0,7.09-5.24Z"/><path class="cls-2" d="M156.53,131s-8.41.4-12.31,11.32-8.72,29.15-5.3,31.18,28.42-2.36,28.42,5.4-4.73,21.39-12.16,27.4-19.26,9.29-19.93,20.14-3-15.48-3-15.48l-2.59-5-46,2.32,52.42-69.39Z"/><path class="cls-2" d="M138.92,135.65S126.8,177.06,132.21,180,170,185.6,170,185.6l.74-16.6s-21,5.45-24.72,2.42-1.07-14.82,2.36-17.55,7.1-14.84,10.47-20.24,5.07-8.44,0-8.78S138.92,135.65,138.92,135.65Z"/><path class="cls-2" d="M213,157.78s-29.62,43-38.16,51.83-18.56,26.79-24.11,33.59-16.34,14.59-21.7,21.3S108.42,283,108.42,283L103,276.23s5.62-15.78,10.55-21.22,29.57-29.09,35.42-34.77,27-30.05,34.5-39.06S208.27,153,208.27,153Z"/><path class="cls-2" d="M213.79,160.8s4.78,6,2.41,6.59-2.37.55-7-5.35-7.47-7.33-6-9.34,2.72-4.63,4.92-1.36S213.79,160.8,213.79,160.8Z"/><path class="cls-2" d="M212.57,165.88s6.08,7.05,3.43,7.39-2.64.34-8.5-6.54S198.22,158,199.71,156s2.62-4.7,5.47-.93S212.57,165.88,212.57,165.88Z"/><path class="cls-2" d="M207.84,166.6s6.07,7,3.43,7.38-2.65.34-8.5-6.54-9.29-8.72-7.79-10.73,2.62-4.71,5.47-.93S207.84,166.6,207.84,166.6Z"/><path class="cls-2" d="M197.76,165.34s-5.47-7.68-2.87-7.81,2.61-.13,7.87,7.35,8.49,9.64,6.91,11.58-2.87,4.58-5.41.5S197.76,165.34,197.76,165.34Z"/><path class="cls-2" d="M188.49,179.66s-5.68-5-3.3-5.89,2.37-.89,7.86,4,8.62,5.81,7.33,7.95-2.24,4.82-4.92,2.05S188.49,179.66,188.49,179.66Z"/><path class="cls-2" d="M189.12,174.64s-7.15-5.75-4.46-6.48,2.69-.73,9.6,4.9,10.67,6.85,9.38,9-2.13,4.87-5.54,1.72S189.12,174.64,189.12,174.64Z"/><path class="cls-2" d="M193.93,173.24s-7.16-5.76-4.47-6.48,2.69-.73,9.6,4.9,10.67,6.85,9.38,9-2.12,4.87-5.54,1.73S193.93,173.24,193.93,173.24Z"/><path class="cls-2" d="M204.49,172.89s6.6,6.44,3.93,7-2.67.52-9-5.77-10-7.85-8.57-9.93,2.39-4.8,5.52-1.31S204.49,172.89,204.49,172.89Z"/><path class="cls-2" d="M150.48,95a8.57,8.57,0,0,0,4.91,8.12c5.37,2.53,17.84,4.49,16.26,13.15s-12.39,18.77-7,25,12.43,3.52,10.39,12.76-5.37,14.22.3,14.65,10.53,11.49,8.43,16.51a57.93,57.93,0,0,0-3.09,10.32L173,191.72s7.65-4.51,6.08-11-5.72-8.14-7.77-10-4.91-3.12-1.8-9.07,5.18-11.66,1.74-13-9.34-3.25-9.82-6.66-1.68-6.85,2.83-14.76,7.72-13.41,4.15-16.29-8.17-3.59-11.53-3.86-10.8-7.84-10.8-7.84Z"/><path class="cls-2" d="M153.52,89.58a8.57,8.57,0,0,0,3.87,8.66c5,3.18,17.15,6.65,14.51,15.05s-14.6,17.1-10,24,11.91,5,8.74,14-7.09,13.44-1.51,14.57,9,12.7,6.33,17.42a58.42,58.42,0,0,0-4.34,9.86L164,188.37s8.15-3.54,7.39-10.19-4.67-8.78-6.48-10.89-4.48-3.69-.67-9.22,6.58-10.93,3.34-12.67-8.87-4.38-8.93-7.82-.82-7,4.63-14.3,9.31-12.36,6.12-15.66-7.66-4.56-11-5.24-9.75-9.11-9.75-9.11Z"/><path class="cls-2" d="M145.8,88.78a11.9,11.9,0,0,0,3.88,8.66c4.07,3.6,13.43,8.31,12.47,16s-8.77,14.49-4.56,21.57,9.37,6.16,8.08,14.23-3.65,11.92.59,13.63,8.16,13.1,6.72,17.26a51.41,51.41,0,0,0-2,8.83l-5.83-5.31a7.72,7.72,0,0,0,4.26-8.79c-1.34-6.38-4.48-8.86-6.06-11.08s-3.75-4-1.58-8.81,3.58-9.59,1-11.62-7.06-5.19-7.51-8.46-1.43-6.73,1.74-13,5.42-10.62,2.68-14.13a20.53,20.53,0,0,0-8.7-6.25c-2.52-1-8.27-9.77-8.27-9.77Z"/><polygon class="cls-2" points="186.3 192.26 186.44 199.74 182.82 196.04 186.3 192.26"/><polygon class="cls-2" points="172.6 200.52 162.52 198.2 168.94 204.94 172.6 200.52"/><polygon class="cls-2" points="173.96 170.49 177.06 174.19 172.76 172.37 173.96 170.49"/><polygon class="cls-2" points="180.23 176.15 173.45 175.56 180.23 180.45 180.23 176.15"/><polygon class="cls-2" points="184.13 201.89 190.04 204.29 182.89 204.29 184.13 201.89"/><path class="cls-2" d="M55.35,175.14s8.31,13.61,1.77,22.61-16.57,11.4-27.19,11.7a45.6,45.6,0,0,1-19.31-4s-5.54,7.72,1.44,37.58,25.22,16.8,25.22,16.8-2.93-17.55,0-24.3S42.52,221.38,50,216.31s17.06-15,17.4-24.41,1.59-18.36-3.77-22S55.35,175.14,55.35,175.14Z"/><path class="cls-2" d="M157.32,241.45c10.36-2.75,23.36-4.77,31.92-4.65s17.17,4.65,17.17,4.65l9,18.4s-22.92,8.44-36.23,5.57-24.12-4.22-24.12-4.22,10.71-5.64,15.71-9.8S157.32,241.45,157.32,241.45Z"/><polygon class="cls-2" points="78.26 182.8 88 247.24 78.22 262.69 179.16 257.63 202.83 259.99 210.09 227.91 198.97 205.17 192.16 192.52 78.26 182.8"/><path class="cls-2" d="M141.38,70.78l-5.9-8.14A47.34,47.34,0,0,1,153,81.35c6.54,12.79,1.52,54.46,10.61,61.17s14.15-2.52,11.06-5.77,4.64,3.33,3.18,7.23-10.68,6.16-15.88,1.9-15.45-18.46-16.33-26.06-1-29.67-2.56-35.21S141.38,70.78,141.38,70.78Z"/><path class="cls-2" d="M156.53,131s10.3,7.26,8.44,14.15-10.81,13.58-9.9,17.81,9.45,9.64,9.45,9.64-4.28.59-6.64-.79-7.85-9.08-4.62-14.09,12.76-8.1,8.11-14.77a33,33,0,0,0-10.57-9.74Z"/><path class="cls-2" d="M146.18,138.86s.43,20.07,9.39,21.25a52.51,52.51,0,0,0,15.21,0s-13,7.12-20,2.8-9-13.4-9-13.4Z"/><path class="cls-2" d="M76,98.24s3.74-1.21,6.18,3.25,10.09,9.44,3.45,10.55-7.37-2.78-7.37-2.78a5.92,5.92,0,0,0,5.43,4.83,13.3,13.3,0,0,0,8.6-2.73l6.51-19.14L94.2,84.8,81.7,87.72Z"/><path class="cls-2" d="M81.5,127.32s3.33,3.32,6.45,1.08c4.66-3.36,6.25-6.22,6.25-6.22l4.89-2.28s3.66,1.63,10.42-3.2S113.14,129,112.57,131s-30.43,19.44-30.43,19.44,12-11.62,11.84-15.88-.64-6.13-4.91-4.74S81.5,127.32,81.5,127.32Z"/><path class="cls-2" d="M55.49,114.12a13.63,13.63,0,0,1,0,6.25c-.84,3-3.08,5.34-.76,6.43s.05-1.23.05-1.23a6.3,6.3,0,0,1,2.16-5.09c2.42-1.85,2.9-11.22,2.9-11.22Z"/><path class="cls-2" d="M61.1,129.5s-.68,1.64-1.26,2.87-1.23,1.16-1.45,1.95,0,2.17,1,2.39a41.12,41.12,0,0,0,4.17.34A12.34,12.34,0,0,1,61,135.63c-.17-.37-1.06-2.72,0-3s1.93-2.92,1.5-3.16a16.21,16.21,0,0,1-1.5-1.11Z"/><path class="cls-2" d="M62.34,139s-1.23.15-1.39.94-.18,2.1.69,2.32,3.51.29,1.94,2.09S66.06,146,66.06,146l.44-2.53-2.92-3Z"/><path class="cls-2" d="M56.27,118.68s-1.55,3.95-2.56,4.92-2.36,2.54-1.3,3.49a11.38,11.38,0,0,0,5.4,2.1,43.1,43.1,0,0,0,4.64.31A7.22,7.22,0,0,0,59,127.65c-2.6-.77-4.51-1.18-4.7-2.16s2.19-3.51,2.67-5S56.27,118.68,56.27,118.68Z"/><path class="cls-2" d="M149.35,80.78s7.58,4.62,9.58,13.44a96.48,96.48,0,0,1,2.14,17.61s3.42-11.4-6.21-17.61-5.51-14.9-5.51-14.9Z"/><path class="cls-2" d="M153.74,98.24s5.71,33.32,3.91,47.8-2.88,46.22-2.88,46.22-5-75.73-5.22-78.14S153.74,98.24,153.74,98.24Z"/><path class="cls-2" d="M154.72,145.93a247.32,247.32,0,0,0,12.62,32.75L144,177.2l-8.71-34,13.52-14.1Z"/><path class="cls-2" d="M76.27,172.68s5.38-18.45,16-26.64-7.84,6.24-16,7.84-5.09,6.77-5.09,6.77Z"/><path class="cls-2" d="M180.23,118.68s-9.28,5.58-15.36,22.51-2.35,42.61-2.35,42.61A54.79,54.79,0,0,1,149,164.3c-4.63-11.83-9.5-35.2,1-40.21S180.23,118.68,180.23,118.68Z"/><polygon class="cls-2" points="100.57 135.16 75.96 157.02 73.93 170.49 89.07 191.79 92.25 199.44 112.54 183.81 113.78 152.97 112.06 138.86 100.57 135.16"/><path class="cls-2" d="M140.33,204.29l58.45.65s-12.41-27.75-19.88-31.54-20.71,3.7-23.65,7S140.33,204.29,140.33,204.29Z"/><path class="cls-5" d="M71.27,201.25a10.26,10.26,0,0,1,1.22,1.6,83.77,83.77,0,0,0,11.1-6.49v15h2.13V195.69a.74.74,0,0,0,.64-.38c-.12-.06-.47-.23-.7-.32a70.29,70.29,0,0,0,8.3-7,1.06,1.06,0,0,0,.29,0,.67.67,0,0,0,.56-.24l-2.19-1.63C87.93,191.36,79.22,197.58,71.27,201.25Z"/><path class="cls-5" d="M115.46,186.79a.73.73,0,0,0,.7-.56l-2.76-.17v6.72h-9.27v-5.59a.75.75,0,0,0,.73-.61l-2.79-.17v6.37H96.36v2h5.71V202h2.06v-7.19h9.27v2c0,4.77-1.37,9.95-8.77,13.15a10.77,10.77,0,0,1,1.48,1.46c7.64-3.44,9.35-9.08,9.35-14.64v-2h6.24v-2h-6.24Z"/><path class="cls-5" d="M120.1,184.66l-1,.82a23,23,0,0,1,3.46,4.13l1-.79A19.44,19.44,0,0,0,120.1,184.66Z"/><path class="cls-5" d="M119.63,192l1.05-.79a20.8,20.8,0,0,0-3.47-4.13l-1,.81A21.92,21.92,0,0,1,119.63,192Z"/><path class="cls-5" d="M139,186.61c.4-.06.67-.23.7-.52l-2.86-.18c0,2.94,0,5.56-.12,7.83H125v2h11.68c-.56,6.9-2.33,10.88-8.36,14.23A12.35,12.35,0,0,1,130,211.4c6.35-3.63,8.24-8.17,8.79-15.65h10.55v-2H138.86C139,191.62,139,189.26,139,186.61Z"/><path class="cls-5" d="M170.74,189.84a76.16,76.16,0,0,0-15.32-3.11l-.67,2a70.63,70.63,0,0,1,15.15,3.2Z"/><path class="cls-5" d="M169.37,198.4a83.29,83.29,0,0,0-14.06-2.68l-.61,2a72.23,72.23,0,0,1,14,2.73Z"/><path class="cls-5" d="M153,204.62l-.7,1.92c6.41.76,14.15,2.59,18.29,4.31l.87-2A82.42,82.42,0,0,0,153,204.62Z"/><path class="cls-2" d="M255.44,147.78l-29.21,20.43-1.95-10.7s20.45-22.37-5.84-62.25-70.09-59.33-91.5-65.17S52,21.34,44.19,18.42a5.57,5.57,0,0,1-2.41-1.48C26.65,20.87,18.55,25.2,18.55,25.2s81-6,130.28,26.05c48.09,31.33,68.18,80.21,47.74,82.94L219,189.51l21.15-19.65Z"/></g></svg>