<svg id="Calque_1" data-name="Calque 1" xmlns="http://www.w3.org/2000/svg" xmlns:xlink="http://www.w3.org/1999/xlink" viewBox="0 0 250 250"><defs><style>.cls-1{fill:none;}.cls-2{fill:#2e3031;}.cls-3{fill:#cfcdcc;}.cls-4{clip-path:url(#clip-path);}.cls-5{fill:#fff;}</style><clipPath id="clip-path"><rect class="cls-1" width="250" height="250"/></clipPath></defs><title>Plan de travail 1</title><rect class="cls-2" x="-0.22" width="250.22" height="250"/><rect class="cls-3" width="250" height="250"/><g class="cls-4"><path class="cls-5" d="M127.7,299.49C98,299.49,70,290.7,52.56,276c-6.92,1.5-19.56,3.82-31.47,3.82-7.72,0-14-1-18.64-2.95-13-5.47-22.41-14.33-25.15-23.7-2.06-7-.62-14.21,4.28-21.35a59.6,59.6,0,0,1,6.55-8V201.69A10.94,10.94,0,0,1-.94,190.77H12.84c-8.94-15-14.63-26.52-17.38-35.12-5.95-18.57-.55-49.46,11.56-66.1,11.79-16.21,40.34-27.64,55.62-28.7,1.19-.08,2.45-.12,3.76-.12,13.06,0,27.65,4.06,30.1,4.78,1.62-1.72,3.33-3.39,5.11-5l.38-.34C98.58,55.65,93.91,48.33,94.52,43c.9-7.83,8.61-19.58,12.45-23,2.35-2.08,3.61-4.39,3.3-5.23-.11-.31-.79-.69-2.36-.74-5-.17-15.15-3.49-20.31-9.08a10.42,10.42,0,0,1-3.15-7.59c.11-2.22.16-4.33.21-6.38.17-6.41.28-11,1.83-13.43a4.88,4.88,0,0,0,.24-3.08c-.14-1.3-.29-2.64.59-3.63a2.87,2.87,0,0,1,2.27-.9c2.39,0,10,1.83,11,4.65a2.29,2.29,0,0,1-.77,2.61c-1.6,1.36-3.53,9.88-3.78,14.24-.17,3,4.08,9.15,10.11,9.53,7.24.45,16.08,5,16.08,9.67a12,12,0,0,1-.73,3.4c3.28-2.24,11.38-7.37,16.65-7.37l.57,0c5.75.41,17.06,4.45,18.49,7.86,1,2.34,7.39,17,7.46,17.1l.05.14,3.55,10.86c2.28-5.74.31-12.44-1.75-19.46-.33-1.12-.66-2.24-1-3.36-2.82-10,2.92-11.8,7.52-13.21.59-.17,1.18-.35,1.77-.55,4.7-1.58,12.14-10.91,14.48-18.14a1.5,1.5,0,0,1,1.42-1l.33,0,9.16,2a1.51,1.51,0,0,1,1.16,1.21c.15.89,1.39,8.79-2.37,12.16a211.78,211.78,0,0,1-20.57,15.21c-2.89,1.82-2.42,3.26-.51,7.55a30.63,30.63,0,0,1,2.94,9.53c1.08,10-4.16,22.21-9.64,27.75a19.47,19.47,0,0,1-4.75,3.43,37.78,37.78,0,0,1,2.35,3.66c4.86-4.46,13.52-11.23,24.57-14.9a60.43,60.43,0,0,1,19.2-3.39c10.71,0,21.17,3.32,33.94,10.77,17.74,10.35,27.23,27,29.84,52.48,1.89,18.39-1.79,56.52-11.86,74.42-1,1.78-2.08,3.67-3.22,5.61a16.74,16.74,0,0,1,6.3,13.07v14.54a57.08,57.08,0,0,1,8.28,9.72c4.9,7.14,6.35,14.32,4.29,21.35-2.75,9.37-12.15,18.23-25.16,23.7-4.64,2-10.92,2.95-18.64,2.95h0c-13,0-27-2.8-33.1-4.18C185.86,290.57,157.68,299.49,127.7,299.49ZM16.93,256.82a13.72,13.72,0,0,0,11.25,8c.72.07,1.46.11,2.2.11a28.24,28.24,0,0,0,10.52-2.23,43.83,43.83,0,0,1-3.07-5.92Zm198,5.19a28.87,28.87,0,0,0,12.17,3c.74,0,1.48,0,2.2-.11a13.76,13.76,0,0,0,11.26-8h-23A41.56,41.56,0,0,1,214.93,262Zm26.86-71.24a42.11,42.11,0,0,0,3.91-8.28c5.78-17.68,7.11-58.3.65-71.35C239.61,97.52,228.4,90,214.79,90a42.13,42.13,0,0,0-9.53,1.14c-17.59,4.11-27.85,13.63-29.63,15.39-.19,1-.41,1.91-.66,2.82-1.32,4.88-1.26,10.16-1,16a2,2,0,0,1,.31.12c4.84,2.08,4,9.44,2.35,13.58-.54,1.37-1.44,3.16-2.38,5.05-1.23,2.45-3.26,6.52-3.26,7.62.88,2.37,3.27,9-.67,11.62a4.89,4.89,0,0,1-2.73.82,6.81,6.81,0,0,1-.78-.05c-.06.51-.14,1.06-.24,1.64l0,.19a48.13,48.13,0,0,1,16.23,5.72c5.47,3.21,10.63,9.61,15.34,19.06ZM81,95.32c-2,.23-4.12.53-6.3.92l-2.81.48C59,98.89,50.56,100.32,35,121c-8.06,10.71-10.11,27-5.94,47.19a71.21,71.21,0,0,0,4.47,12.54,49.54,49.54,0,0,1,10.21-3.42c1.25-2.41,6-9.75,19.73-16a42.35,42.35,0,0,1,13.87-4,16.27,16.27,0,0,1-2-3.61c-1.9-4.94.64-12.77,1.53-14.55a1.14,1.14,0,0,0,.1-.44v-.09l-.41-2-.13-.49a69.15,69.15,0,0,1-2-9.78c-.19-1.43-.32-2.74-.42-4,0-.16,0-.26,0-.36a32.07,32.07,0,0,1,1-10.9c.2-.86.41-1.77.62-2.8.89-4.47,3.19-6.25,4.67-6.94A43.58,43.58,0,0,1,81,95.32Z"/><path class="cls-5" d="M89.59-28.56c3.07,0,11.52,2.73,9.29,4.62s-4.09,11.31-4.32,15.3S99.37,2.05,106.07,2.47s14.68,4.61,14.68,8.17c0,1.86-1.8,6.34-4.08,11l4.3-5.33s11-8.09,17.2-8.09l.46,0c6.07.43,16.22,4.55,17.22,6.94s7.46,17.13,7.46,17.13l4.63,14.14a.39.39,0,0,1,.08-.1c5.48-7.81,1.71-17.15-1-26.88s2.93-10.12,8.32-11.93,13-11.66,15.42-19.1l9.17,2S201.28-1.7,198,1.21a212.24,212.24,0,0,1-20.37,15.06c-6.66,4.2.71,8.93,1.74,18.52s-4,21.24-9.21,26.52a19.32,19.32,0,0,1-6,3.94,36.75,36.75,0,0,1,4.28,6.65C172.76,67.72,181.89,60,193.9,56a58.75,58.75,0,0,1,18.72-3.31c10.41,0,20.79,3.34,33.18,10.56,16.48,9.62,26.44,25.39,29.11,51.35,1.91,18.62-2,56.38-11.67,73.52-1.19,2.11-2.5,4.38-3.9,6.76a15.26,15.26,0,0,1,6.78,12.66v15.2a54.65,54.65,0,0,1,8.54,9.91C288,252,272,268.06,254.45,275.45c-4.95,2.08-11.37,2.83-18.06,2.83-13.49,0-28-3-33.52-4.32-16.5,14.52-44,24-75.17,24-30.89,0-58.19-9.35-74.74-23.65-6.38,1.41-19.56,3.94-31.87,3.94-6.68,0-13.11-.75-18.06-2.83-17.55-7.39-33.51-23.46-20.21-42.82a57.68,57.68,0,0,1,6.81-8.27V201.69a9.45,9.45,0,0,1,9.43-9.42H15.49c-7.11-11.8-15.06-26-18.6-37.08C-9,136.9-3.48,106.53,8.23,90.43S48.11,63.36,62.74,62.35c1.2-.09,2.42-.12,3.66-.12,13.95,0,30,4.81,30,4.81v.78a82.33,82.33,0,0,1,6.21-6.17c.47-.43,1-.83,1.46-1.22-3-3.84-8.68-11.88-8.06-17.3.84-7.34,8.39-18.86,11.95-22s6.5-8.38,0-8.59S85.53,6.24,86-2.56s0-16.35,1.8-19.08-1.23-6.92,1.84-6.92m78,191.27a5.24,5.24,0,0,1-2.12-.51,26.36,26.36,0,0,1-.38,3.35c-.09.55-.2,1.12-.33,1.68A47.92,47.92,0,0,1,182,173c6.44,3.77,11.58,11.88,15.17,19.26h45.43a44.84,44.84,0,0,0,4.5-9.32c5.71-17.49,7.49-58.49.57-72.48-6.5-13.13-17.85-22-32.91-22a43.58,43.58,0,0,0-9.87,1.18c-20,4.67-30.66,16.11-30.66,16.11h0c-.21,1.09-.45,2.14-.73,3.16-1.49,5.5-1.28,11.57-1,17.57a4.82,4.82,0,0,1,1.16.35c3.62,1.55,3.1,7.76,1.55,11.65s-6.33,11.93-5.69,13.65,3,7.9-.06,9.94a3.34,3.34,0,0,1-1.9.57m-134.87,20a46.85,46.85,0,0,1,12-4.1s3.35-8.7,19.32-15.95c7.45-3.38,12.58-3.92,15.09-3.92a13.68,13.68,0,0,1,1.54.08,14.65,14.65,0,0,1-4-5.65c-1.62-4.23.49-11.38,1.47-13.34a2.45,2.45,0,0,0,.26-1.07v-.17s0-.11,0-.16-.2-.95-.42-2.08a69.05,69.05,0,0,1-2.11-10.18c-.19-1.47-.33-2.75-.41-3.91,0,0,0-.09,0-.12s0-.2,0-.3c-.42-6.23.63-8.51,1.58-13.24,1.14-5.69,4.72-6.18,4.72-6.18s-.25-2.37,1-8.84c-2.42.21-5.2.57-8.39,1.13C60,97.3,50.85,97.43,33.77,120.12c-11.67,15.51-8.4,37.79-6.21,48.4.76,3.66,2.81,8.92,5.18,14.24M227.1,266.47a23.41,23.41,0,0,0,2.35-.12,15.12,15.12,0,0,0,13.2-11H216.56a41.32,41.32,0,0,1-3.76,7.29,31.15,31.15,0,0,0,14.3,3.86m-196.72,0a30.25,30.25,0,0,0,12.73-3.07,42.43,42.43,0,0,1-4.28-8.08h-24a15.12,15.12,0,0,0,13.2,11,23.41,23.41,0,0,0,2.35.12m59.21-298a4.35,4.35,0,0,0-3.39,1.4c-1.33,1.49-1.11,3.4-1,4.79a5,5,0,0,1,0,2.1c-1.78,2.74-1.9,7.56-2.07,14.22,0,2-.1,4.14-.2,6.34A11.78,11.78,0,0,0,86.5,6c5.43,5.88,16.08,9.39,21.36,9.56a6.71,6.71,0,0,1,.77.06A11.05,11.05,0,0,1,106,18.87c-4,3.52-12,15.75-13,23.92C92.43,48.06,96.14,54.7,100,60,98.62,61.22,97.3,62.5,96,63.82,92,62.68,78.54,59.23,66.4,59.23c-1.34,0-2.64,0-3.86.12C47.3,60.41,18.32,71.45,5.8,88.67-6.54,105.64-12,137.15-6,156.11c2.64,8.26,8,19.14,16.18,33.16H-.94a12.43,12.43,0,0,0-12.43,12.42v21.44a61.06,61.06,0,0,0-6.28,7.8c-5.18,7.53-6.69,15.14-4.49,22.62,2.91,9.94,12.39,18.93,26,24.66,4.83,2,11.3,3.07,19.22,3.07,11.65,0,24-2.19,31.07-3.7C69.9,292.26,98,301,127.7,301c30,0,58.25-8.86,76-23.77,6.49,1.45,20,4.06,32.71,4.06,7.92,0,14.39-1,19.22-3.07,13.62-5.73,23.1-14.72,26-24.66,2.2-7.48.69-15.09-4.49-22.62a58.56,58.56,0,0,0-8-9.53V207.52a18.23,18.23,0,0,0-5.88-13.39c.91-1.57,1.79-3.09,2.61-4.56,10.21-18.15,13.95-56.72,12-75.3-2.67-26-12.38-43-30.58-53.63-12.82-7.48-23.85-11-34.69-11A61.85,61.85,0,0,0,193,53.13a71,71,0,0,0-23.74,14q-.27-.43-.54-.84a19.88,19.88,0,0,0,3.65-2.87c5.85-5.91,11.21-18.36,10.06-29a31.81,31.81,0,0,0-3.06-10c-2-4.46-1.77-4.6-.06-5.67A218,218,0,0,0,200,3.45c4.26-3.84,3.11-11.95,2.83-13.54a3,3,0,0,0-2.3-2.42l-9.17-2a2.81,2.81,0,0,0-.65-.07,3,3,0,0,0-2.85,2.08c-2.36,7.29-9.62,15.86-13.53,17.17-.57.2-1.16.38-1.73.55-4.67,1.43-11.74,3.58-8.52,15,.32,1.13.65,2.26,1,3.38,1.36,4.63,2.61,8.9,2.72,12.77l-1.66-5.06c0-.09-.06-.18-.1-.27S159.59,16.3,158.61,14c-1.83-4.39-14.09-8.37-19.77-8.78l-.67,0c-4.41,0-10.35,3.12-14.43,5.63a.86.86,0,0,0,0-.16c0-6.15-10.36-10.72-17.49-11.17-5.17-.32-8.82-5.8-8.7-7.94.25-4.44,2.12-11.94,3.28-13.21A3.79,3.79,0,0,0,102-25.92c-1.5-4.1-10.67-5.64-12.43-5.64ZM177,107.31A63.6,63.6,0,0,1,205.6,92.62a40.84,40.84,0,0,1,9.19-1.1h0c13,0,23.75,7.2,30.22,20.28,6.33,12.79,5,52.78-.73,70.22a39.35,39.35,0,0,1-3.35,7.25H199.06c-4.74-9.26-9.95-15.6-15.52-18.85a47.68,47.68,0,0,0-13.39-5.23,6.06,6.06,0,0,0,1-.56c4.73-3.16,2.41-10.19,1.37-13a54,54,0,0,1,3.06-6.81c1-1.92,1.87-3.74,2.44-5.16,2.26-5.64,2-12.75-2.6-15.25-.24-5.37-.23-10.22,1-14.65.21-.79.41-1.61.59-2.45ZM34.28,178.78a63.11,63.11,0,0,1-3.78-10.87c-4.08-19.73-2.12-35.63,5.67-46C51.4,101.7,59.63,100.31,72.1,98.2l2.82-.49c1.45-.25,2.87-.47,4.25-.66-.2,1.45-.31,2.58-.36,3.45-1.87,1.17-3.87,3.48-4.68,7.57-.2,1-.41,1.89-.61,2.75a33.11,33.11,0,0,0-1,11.27c0,.17,0,.3,0,.42v.08c.1,1.28.24,2.6.43,4a70.69,70.69,0,0,0,2,10l.13.49c.15.72.26,1.28.33,1.63-1.14,2.44-3.51,10.35-1.5,15.59a17.29,17.29,0,0,0,.86,1.86,47.62,47.62,0,0,0-12,3.82C51,165.33,45,172,42.69,176a53.37,53.37,0,0,0-8.41,2.77Zm184.27,79.54H238a12.31,12.31,0,0,1-8.83,5.05c-.67.06-1.36.1-2.05.1a26.48,26.48,0,0,1-10-2.15c.54-1,1-2,1.49-3Zm-199,0H36.85c.55,1.23,1.17,2.45,1.85,3.65a25.7,25.7,0,0,1-8.32,1.5c-.69,0-1.38,0-2.05-.1a12.31,12.31,0,0,1-8.83-5.05Z"/><ellipse class="cls-3" cx="127.39" cy="242.27" rx="91.41" ry="55.71"/><path class="cls-3" d="M165.42,74.73S176.64,61.61,193.59,56c17.68-5.88,32.27-4.2,51.9,7.25,16.48,9.62,26.44,25.39,29.11,51.35,1.91,18.62-2,56.38-11.68,73.52S235.68,233,226.39,239.93s-11.78-2.24-11.78-2.24l1.78-16.62S241.1,200.45,246.82,183s7.48-58.49.57-72.48C239.54,94.61,224.61,85,204.61,89.7S174,105.81,174,105.81l-21.57,21.44V89.7Z"/><path class="cls-5" d="M167.83,81.64s20.73-11.94,35.95-15.15c17.27-3.64,30.47,1.23,42.37,12.18s15.71,19.92,16.6,35.71c.78,14,.29,24.66-.65,29.39a116.3,116.3,0,0,1-8.33,26.42l.24-15.12s5-13.71,5.67-35.61c.61-20.08-5.79-31.49-9.83-35.85s-19.41-17.92-39.17-13.88-42.85,17.38-42.85,17.38Z"/><path class="cls-5" d="M169,92.31s19.87-13.16,35.29-14.42c17.18-1.4,29.89,3.7,38.59,12.24,11.18,11,12.12,25,12.59,29.36s-.47,23.56-.47,23.56.71-22.28-3.1-30.42-6-15.11-17.17-24.2c-9.91-8.06-26.63-8.42-37.37-6.59C187,83.61,169.76,94.49,169.76,94.49Z"/><path class="cls-3" d="M96.09,67s-19-5.71-33.66-4.69-42.8,12-54.51,28.08S-9.28,136.9-3.42,155.19s23.78,45.23,30,55.55,16-7.54,16-7.54-13.1-24.07-15.3-34.68-5.46-32.89,6.21-48.4C50.54,97.43,59.69,97.3,74.09,94.76c16.1-2.83,22-.52,22-.52Z"/><path class="cls-3" d="M80.62,158.91s-5.93-1.16-16.87,3.8c-16,7.25-19.33,15.95-19.33,15.95S32,180.53,19.67,191.11-2.51,221.54-4.4,226.74s-1.39,26.74-1.39,26.74h0l249.12,1.69s3.69-8.91-.68-18-13.81-22.12-25.2-26-14.63-3.91-14.63-3.91-7.76-26.41-21.1-34.21-29.14-6.29-29.14-6.29Z"/><path class="cls-3" d="M147.84,56.12c-19.36-3.58-34.65-4.23-45.54,5.53s-17.25,20.28-19.2,29-1.62,11.81-1.62,11.81-3.58.49-4.72,6.18-2.44,7.81-1.14,17.57,3.25,11.71,2.28,13.66-3.09,9.11-1.47,13.34,5.37,7.48,7.49,7.32,8.94,14.31,19.19,22.61,14,9.76,23.42,9.76,13.5,2,18.38.65,16.43-12.69,18.54-21.8.49-8.78,3.09-15.61,6.18-13.83,6-22.12-1.46-17.24.65-25a47.5,47.5,0,0,0-1.46-28.63c-3.91-10.73-7.65-15.94-12.85-19.84A23.81,23.81,0,0,0,147.84,56.12Z"/><path class="cls-5" d="M127.59,131c-1.5-.61,1.18-.45-1.5-.61s-12.49-.81-14.69-3.49-9.19-2.17-10.41-6.08,0-10,4-10.37,9.88.66,7.93-.83-8.89-5.55-9.5-9,4-9.6,2.3-7.77-12.56,14-13,15.73-4.52,5.46-3.55,7.42-1.49,4.29-2.71,7.83,3.16,19,8.21,16.59c2.83-1.33-7-7.19-6-10.85s2.93-8.79,1.83-8.06-4.63.38-5.12,3.42a9.81,9.81,0,0,0,.85,6.1c.61,1.59.86,8.05,2.32,11s2,2.68,3.66,3.41,5.25,3.05,4,6.47-6.1,5.73-6.47,7.44.23,7.77,3.9,13.71,7.88,9,11.27,11.54,4.35-.61,2.76-3.9-3.78-21-5-25.74-1.22-12.44-1.58-13.42,1.22,2.93,3.9,4a14.13,14.13,0,0,0,9.76.12c3.17-1.22,9.09-4.52,10.52-5s-2.35,4-5.89,5.73-8.87,11.35-10.29,14.52-.68,15.25.78,18.91,3.17,5,6.95,7.56,9-.17,14.27.07,8.11,1.06,8.84,2.36,3.12,1.84,5.68,1.11,12.59-8.81,13.78-10.7,2-3.26,2-3.26a65.49,65.49,0,0,0,3.4-11.45c1.62-9.62-2.16-7.29-3.83-8.87s-4.71-5.74-5.32-4.88,1,8.85.85,13.27-.24,9.91-1.71,12.22-.85,5-3,3.91-4.27-8.42-6.83-9.88,3.3.51-5.29-.36c-6.52-.66-13,0-14.7,1.58s-4.9,4.14-6.85,4.75a5.3,5.3,0,0,1-3.53-.12,5.92,5.92,0,0,0,4.63-1.34,9.79,9.79,0,0,0,2.68-2.93,8.47,8.47,0,0,1-5.12,1.59c-2.68-.25-4.15-2.32-4.15-3.42s.25.49,2,1.1a7.25,7.25,0,0,0,6.83-1.46c2.44-2,5.87-4.5,8.07-4.5s-1.61-.85-1.85-1.83-1.91-1-3.5-2.21-8-1-8-1-2-3.29.49-4.51,5.61-4.39,8.23-7.32a43.23,43.23,0,0,0,4.7-6.59s-3.66-4.64-1.95-7.2-1.83.53,0,0S127.59,131,127.59,131Z"/><path class="cls-5" d="M144.84,169.37h0c1.59,1.1,1.17.85,2.63,3.29s2.56,5.85,3.66,6.46,3.05-.73,3.66,0,1.3-6.48,1.39-7.42-3.6-5-3.6-5-3.52.68-4.43.81c-2.43.37,1.34.59,0,0S144.84,169.37,144.84,169.37Z"/><path class="cls-5" d="M116,159.12s-.49-1.83,2.44-2.69,5.73-.48,9.15-1.83,4.76-2.68,8.29-2.92,3.91,1.7,6,2.07,2.07-1.22,4.88-.61,4.88,2.68,6.34,5.37,1.59,5.61,2.2,5.61,1.22,1.95,0,1.95-3.09-3.54-5-5.61-6-3.17-7.06-2.93a12.31,12.31,0,0,1-5.46-1c-1.12-.61-5.27-.74-8.57.12s-11,2.92-11,2.92.06.79-1.21.74-1.59-1.48-1.59-1.48Z"/><path class="cls-5" d="M127.59,158.86s6.43-.84,8.1-.84,3.73,1.22,5.93,1.46,3.29,0,5,1,3.86,2.32,3.64,2.68.51,1.83-3.89,1-6.41-1.34-8.63-1.71-4.3.14-6.86-1.21A10.27,10.27,0,0,1,127.59,158.86Z"/><path class="cls-5" d="M132.83,144.48s-3.9-2.56-2.19-5.61,3.87-3.3,5.05-3.3,3.24,1.71,3.85,2.56,2.69,2.69,2.32,1.9-1-2,0-3.24a16.82,16.82,0,0,1,3.38-3.17c.48-.12,3.29.12,4,2.07s1.1,3.91,0,5.49-2.56,3.3-2.56,3.3,3.86-1.31,4.23-2.65a14.59,14.59,0,0,0,.29-3.49,4,4,0,0,0,1.34,2.23c1.09.86,2.44.49,2.07,2.2s0,3.66-2.57,4.39-4-.61-6.34,0-5.12.73-6.83-.73a5.44,5.44,0,0,0-3.24-1.71A17.45,17.45,0,0,0,132.83,144.48Z"/><path class="cls-5" d="M88.19,146.75c0-.85-3.57-3-4.43-3.28s-2.16-2.29-2.77-.82-3.78,7.44-3.78,7.44,4.28,5.14,5.13,3.43.36-2,2.07-1.87,2.51-2.24,3.78-4.9c3.07-6.44-7.2-4.1-10.13-22.28-.65-4-2.07-9.83-1.46-8.39S79.4,123,79.4,123a54.33,54.33,0,0,1-.36-6.93c0-4.42-.37-6.61,1.22-7.83s4.43-2.2,5-.37,2.11,7.69,1.26,10-1.42,1.83-1.26-1.09.53-6.47-1.18-6.1-3.42,1.22-3.42,3.41-.24,10.14.12,10.86.38,11.23,1.6,13.54,2.88-8,2.88-8l-3.74-7.59a4.2,4.2,0,0,0,5.2,0c2.73-2.08,4.56-4.76,4.31-7.81s-3.61-11.1-5.77-11.35-5.82,1.83-6.79,4-3.67,10.39-3.24,14.43,3,16.33,3,16.33a47.34,47.34,0,0,1-.76,8.26c-.82,4.51.39,9,5.68,7.95,5.1-1,5.16-7.14,5.16-7.14"/><path class="cls-3" d="M105.55,62.62S94.86,50.47,95.7,43.13s8.39-18.86,12-22,6.5-8.38,0-8.59-22.43-6.29-22-15.09,0-16.35,1.8-19.08-1.23-6.92,1.84-6.92,11.52,2.73,9.29,4.62-4.09,11.31-4.32,15.3S99.06,2.05,105.76,2.47s14.68,4.61,14.68,8.17-6.58,16.77-10.63,22-8,8-2.16,14.67S115,58.85,115,58.85Z"/><path class="cls-3" d="M190.44-11.61C188-4.17,180.41,5.68,175,7.49S164,9.69,166.7,19.42s6.48,19.07,1,26.88-15.32,14.16-15.32,14.16l2.69,7.28s9.58-1.14,14.81-6.43,10.25-16.94,9.21-26.52-8.4-14.32-1.74-18.52A212.24,212.24,0,0,0,197.72,1.21C201-1.7,199.61-9.58,199.61-9.58Z"/><path class="cls-3" d="M111.06,60.09S120,49,128.5,43.1s18-9.32,20.76-9.32,5.68,5.42,7.89,11.7,3.34,12.07,3.1,17.14a58.82,58.82,0,0,0,0,7.53A77.27,77.27,0,0,0,147.64,65c-5.56-1.49-23.42-5-25.59-4.77S111.06,60.09,111.06,60.09Z"/><path class="cls-3" d="M120.66,16.26s11.59-8.51,17.66-8.07,16.22,4.55,17.21,6.94S163,32.26,163,32.26l5,15.39-2.95,11.71L163,65l-5.85-1.3L151,53.51,128.5,52l-19.67,7a62.35,62.35,0,0,1-4.78-11.28c-1.73-5.85-.43-10.24,4.78-16.72S120.66,16.26,120.66,16.26Z"/><path class="cls-5" d="M113.09,36.59s6.8,13.09,9.69,12.36,4.33-7.22,4.33-7.22l-3.75-7.95Z"/><path class="cls-5" d="M120.1,27s3.42,4.34,5,6.8,2,8.55,3.89,7.6,8.39-6.84,8.39-7.15-2.07-5.51-2.07-5.51L123.5,26.26A4.18,4.18,0,0,0,120.1,27Z"/><path class="cls-5" d="M133.19,20.19,139.4,34.5s5.78-.58,7.23-2.17,2.75-1.88,4.19-.72,3.76,3.76,4.05,2.89-3.9-9.4-3.9-9.4a29.1,29.1,0,0,1-8.53-1.59c-4.63-1.59-5.73-1.73-7.13-3.32a45.21,45.21,0,0,0-3.57-3.47Z"/><path class="cls-5" d="M156.46,32.47a36.08,36.08,0,0,0,1.16,9c1.15,3.57,1,9.27,1.88,7.5s.75-11.3.75-11.3Z"/><path class="cls-5" d="M82.88,73.29S77.4,69.17,57.79,72c-17.58,2.56-27.68,9.63-36.21,19.39A99.79,99.79,0,0,0,8.16,111.29s13.42-21.44,26.6-27.54,20.48-7,31.94-7.22S83,78.39,83,78.39Z"/><path class="cls-5" d="M84.06,85.85s-23.47,0-40.31,6.34c-15,5.68-25.34,20.2-28.76,30.2s-3.22,16.24-.29,24,4.9,11.8,4.9,11.8S9.87,140,16.94,127.05s14.51-28,32.23-32.29a166.35,166.35,0,0,1,36-4.13Z"/><path class="cls-3" d="M169.26,129s.52-3.62,4.14-2.07,3.1,7.76,1.55,11.65-6.33,11.93-5.69,13.65,3,7.9-.06,9.94-7-2-7-2Z"/><path class="cls-3" d="M256.94,255.32H-1.82a8.89,8.89,0,0,1-8.86-8.87V201.13a8.88,8.88,0,0,1,8.86-8.86H251.47a14.38,14.38,0,0,1,14.34,14.33v39.85A8.89,8.89,0,0,1,256.94,255.32Z"/><path class="cls-3" d="M32.89,211.56c-22.19,0-37.08,1.71-50.38,21.07s2.66,35.43,20.21,42.82,53.87-2,53.87-2L47.4,260.78s-9,6.64-19.68,5.57S12.24,254.42,15,250.07c2.13-3.42,5-8.72,17.93-9.78S32.89,211.56,32.89,211.56Z"/><path class="cls-3" d="M224,211.56c22.19,0,37.08,1.71,50.38,21.07s-2.66,35.43-20.21,42.82-53.87-2-53.87-2l9.19-12.63s9,6.64,19.68,5.57,15.48-11.93,12.76-16.28c-2.13-3.42-5-8.72-17.93-9.78S224,211.56,224,211.56Z"/><path class="cls-5" d="M108.68,207.33a1.21,1.21,0,0,0,.78-.59l.42-.74L106,204.72l-.23.66c-1.72,5.16-4.59,10.22-7.49,13.21l-.41.42.35.48a17.24,17.24,0,0,1,1,1.76l.45.9.69-.74a30.36,30.36,0,0,0,2.6-3.2v15.34h3.38v-19.5a1,1,0,0,0,.55-.79l.09-.6-.59-.17C107.23,210.81,108,209.08,108.68,207.33Z"/><rect class="cls-5" x="108.98" y="209.57" width="17.3" height="3.38"/><rect class="cls-5" x="107.5" y="227.89" width="20.02" height="3.38"/><polygon class="cls-5" points="144.15 228.93 144.15 220.84 154.02 220.84 154.02 217.49 144.15 217.49 144.15 210.2 155.02 210.2 155.02 206.85 129.98 206.85 129.98 210.2 140.65 210.2 140.65 217.49 131.25 217.49 131.25 220.84 140.65 220.84 140.65 228.93 128.42 228.93 128.42 232.31 156.62 232.31 156.62 228.93 144.15 228.93"/><path class="cls-5" d="M92.7,108.61l13.52-5.87s15.32,6.4,18.08,7.86,16.18,5.52,17.22,7.85,7.49,3.59,10.58,1l5.13-4.36s-14.92-2.65-13.09-6.69c3.78-8.34,1.45-28.71-6.76-39.76-6.59-8.87,29,3.49,22.82-6-4.55-6.95-26.29-9.85-36.91-7.78C117,56.06,89.15,62.62,89.15,95,89.15,100.93,92.7,108.61,92.7,108.61Z"/><path class="cls-3" d="M139,152.23s1.58,1.44,1.58,2.74S139,158,139,158s3.14,1.44,2.35,3.18-3.68,3.18-3.68,3.18-1.43,5.19-.81,8.63,2.36,8.47-.16,11S120,190,120,190s20.75,5.34,24.92,3.54,17.57-7.82,18-20.07a85.36,85.36,0,0,1,3.45-21.84l-6.27-13.22s0,12-6.78,12.22a77,77,0,0,1-13.58-1Z"/><path class="cls-3" d="M86.23,131.06s4.08,7.37,6.47-4.07c.7-3.4,7,12.52,8.42,14.56s3.45,14.29,3.45,14.29,1.94,17.57,3.64,20.79,4.89,8.12,13.28,10.1,12.17,2.06,12.17,2.06-6.16,2.75-12.17,2.5-23.32-2.07-27-5.82S87,170.09,87.12,165.14s-3.2-6.54,0-8.58S86.23,131.06,86.23,131.06Z"/></g><circle class="cls-3" cx="199.47" cy="25" r="2.66"/></svg>