<svg id="Calque_1" data-name="Calque 1" xmlns="http://www.w3.org/2000/svg" xmlns:xlink="http://www.w3.org/1999/xlink" viewBox="0 0 250 250"><defs><style>.cls-1{fill:none;}.cls-2{fill:#2e3031;}.cls-3{fill:#cfcdcc;}.cls-4{clip-path:url(#clip-path);}.cls-5{fill:#fff;}</style><clipPath id="clip-path"><rect class="cls-1" x="-0.22" width="250.22" height="250"/></clipPath></defs><title>Plan de travail 1</title><rect class="cls-2" x="-0.22" width="250.22" height="250"/><rect class="cls-3" width="250" height="250"/><g class="cls-4"><path class="cls-5" d="M247.89,217.1c-1.34-17.85-3.24-14-7.25-19.49-3.88-5.36-35.2-18.28-37.21-19.28,0,0,.21-7.69.18-7.7h0c-4.1-2-11.6,2.22-15.63.17a25.84,25.84,0,0,1-12.06-13.93c-1-3.13-3.13-6.86-1.5-9.41,1.53.29,12.42,2,14.36.58,3.19-2.34-.06-6.3-.85-12.29s2.33-4.61,7.63-18.88-3-21.81-5.42-24.39c-1.74-1.87-5.43-1.36-7,2.3a74.53,74.53,0,0,1-2.33-21.53c.32-16.4-1-34.26-12-47.92-7.39-9.17-24.86-20.61-39.26-19.51-13.71-.56-29,3.53-38.63,9.49-19.55,12.14-19.57,37-18.75,57.12,0,.12,0,.25,0,.38v.24h0c.28,5.14,1.88,9.9.92,16.56a25.29,25.29,0,0,1-.88,4c-1.32-1.08-4-4.45-5.41-3-2.43,2.54-13.29,11.35-8.19,25.71s7.89,13.9,7,19.87S64.8,146.6,68,149c1,.72,2.73-.6,3.74-.46.06.39.12.79.16,1.19.45,4.46,3.53,1,1.07,5.86-1.63,3.23-14.15,3.35-17.4,4-2.33.44-9,1.2-15.25,2.41-.85,0-2.67.27-6.47,1.49a32.59,32.59,0,0,0-3.43,1.16C18.23,168.92,9.57,178.9,3,184.35c-8.87,7.34-7.12-7.44-4.1,30.09,1.05,13.07,19.53,12.49,20.34,19,0,5.45,22.3,4.93,24.42,9.49.76,1.93,12.49,7.93,13.56,9.49l17.63,25.74c1.17,1.87,16,15.46,17.64,17.62,1.78,2.41-38.37-14.24-44.76-10.84,11.07,6.23,7.63,11,20.34,12.2,18.8,1.82,36.81-5.89,55.61-4.07,37.61,3.65,5.81-9.1,43.41-5.42,0,0,27.13,1.45,27.12,1.36.9-2.93,8-6,14.92-19C216.25,256.62,249.23,235,247.89,217.1Z"/><ellipse class="cls-3" cx="126.85" cy="211.79" rx="142.31" ry="67.61"/><path class="cls-3" d="M-11,260.46a14.12,14.12,0,0,0,.56,8.25,5.17,5.17,0,0,1,3-1.19c-.28,7.25,4.21,14.8,8.55,21.09,3.26,4.73,8.09,9,12,13.2,4.33,4.66,5.39,8.59,8.7,13.18,6.4-6.12-1.67-33.27-11.73-30.17a9.87,9.87,0,0,1,1.33,2.11C1.72,285.9-8.61,265.77-6,258c2-5.87,9-8.1,10.07-15.19.4-2.54-.94-6-.95-8.31,0-3.34.69-5,1-8.78,4.92,2.82.53,7.07,6.06,11.08-8.71-1.81,1.59,27.86,3.09,31.7,2.32,6,6.9,24.15,12.66,26.92,7.51,3.62,6.36-11.23,4.82-16.9C27.83,267.82,16.43,260.1,15,248.92c3.14,2,7.54,9.29,12,8.58,4-.63-.14-1.06,1.12-6.18,1.68-6.84-7-19.3-1.05-24.29,2.91,8.54,2,24.51,7.22,31.62,5.22-8.35.28-18.46-1.42-26.1-.79-3.56-.33-25.43-7.86-24.73a20.32,20.32,0,0,1-1.45,4c-1.81-2.55-5-25.95-7-25.77s-6.17,2.86-8.22,4.07c-.51-2.66,9.77-12.37,12.33-11.47,2.92,1,4.55,21,5.69,23.87,2.19,5.38,6.59,10,9.77,14.54,2.8,4,5,10.07,8.63,13.6,2.53-11.49-4.49-26.95-6.43-38.36-.75-4.43-.33-11.38-2.69-15.48-1.68-2.91-9.68-5.53-9.36-9.2.41-4.79,23.83-7.12,28.68-8,3.25-.62,15.76-.74,17.4-4,2.45-4.84-.62-1.4-1.07-5.86-.54-5.36-3.55-10.3-3.34-16.73.23-7.25.28-12.29-1-19.54-2.25-12.52,4-12.93,5.58-23.86,1.43-10-2.89-15.72.15-24.87,2.21-6.67,5.63-12.79,12-17.61-5-1.82-1.36-9.45,1.16-12C89.16,39.46,84.25,48.75,87,51s10.16-1.62,13.31-1.36a12,12,0,0,1-4.52,1.9c10.3-4.82,22.41-3.61,30.19-4s10.49-.43,18.13,2.36c-13.5-7.91,5.52-12.85-2-19.18,8-6.14,7.8-11.78,3.58-14.79-4.33-2.48-12.42-4-11.64-3.61-8.74-1.52-11.5-.85-15.11-3.05C134-1.16,175.47,10.54,184.71,22c11,13.66,8.46,33.75,8.14,50.14C192.66,81.6,181,90,183.69,98.56s-1.35,11.53-1.92,20.7c-.45,7.07,2.43,14.52,1.82,21.61-.66,7.69-6.93,9.95-5.09,15.6,2.08,6.35,7.71,5.88,12.27,8.21,8.08,4.12,16.87,7.48,24.11,12.94,4.65,3.51,17.42,11.59,15.09,17.89-1.32,3.55-11.35,5-13.42,8.33-1.88,3.07,0,7.44.36,10.73,1.14,12.11,1.28,41.32,15.08,20.91,7-10.32,7-21.9,4.47-34.76a3.11,3.11,0,0,0,3.62.87L235.68,245a15.43,15.43,0,0,0,0-7.64c-12.55,8.65-14.73,40.49-15.84,53.3-.87,10.18-4.08,23.5-1.71,33.41.2.85,6.64,14.75,6,14.69q-56.4-5.52-112.81-11l-56.4-5.48c-12.72-1.23-35.47.81-46.54-5.42,6.4-3.4-8.21-20.62-10-23C-10.82,281.51-12.47,275.21-11,260.46ZM147.73,77c2.33-.39-9.92-3.54-12.21-3.88,4.57-3.34,11.29-3.36,13.83-8.58-6.62-1-5.66.59-11,3.69-.79-2.93,1.09-5.48,1.66-8.39-3.38.94-4.95,5-8.09,5.59.05-3,5.58-11.59,5.64-11.23-.32-1.91-9.46-3.43-11.69-3.49-10.43-.31-27.88.09-36.82,5.51-4.8,2.91-5.55-.26-6,3.59a9.48,9.48,0,0,0,6.41,4.46,9.79,9.79,0,0,1,3.1-5.78c1.25-1.64,1.67,5.76,1.42,5.41,5,7-4,5.26,5.7,8.39,4.39,1.42,22-2.54,23.1-.73,1.35-1.68,1.33-3.25,2.53-4.88.9,2.5.39,4.86,1.58,7.33,2.25-2.46,1.58-2.21,2.32-5.22C133.52,75.73,139.65,75.41,147.73,77ZM102,74c0-.6-14.3,5-15.48,6C81.2,84.64,83,86.7,83.15,91.42c.42,11.81,1,13.39,15.1,12.41-1.82-8.56-12-2-10.79-13,1.07-9.39,21.73-11.55,21.54-15.43Q106.56,72.57,102,74Zm16.74,23a5.11,5.11,0,0,1,.83-4.92c2.51,2.47,0,10.92,3.6,12.34,4.72,1.88,2.46-19.67,1.64-21.54-3.9,4-9.14,8.1-11.8,13.47C107.17,108.14,119.47,106.21,118.72,97ZM44,242.8c-.11-.57-1.75-8.4-1.1-8.4-8.72,0-1.47,19.54-1.66,19.56C44.77,253.61,43.81,244.88,44,242.8Zm86.33-119.73,22.32,15.49c-.23-3.11-12.89-12.85-12.35-13.17C133.55,129.37,153.74,137.36,152.67,138.56Zm-49.19-31c3.86-.57,5.14-3.9,5.13-7.08C105.3,100.65,98.15,106,103.48,107.54ZM78.1,65.87c3.17-.63,2.16-4.67,2.52-6.47C80.79,58.56,70.09,65.28,78.1,65.87Zm74.13,8.89c.42,0,9.66,8.08,11.79,8.75C165.1,78.3,155.22,75.82,152.23,74.76Z"/><path class="cls-3" d="M223.08,236.92c1-6.27,1.19-30.45,7.33-34.14,2.69,4.31.15,15.79-.46,20.78C229.66,225.86,226.37,242.72,223.08,236.92Z"/><path class="cls-3" d="M115,172.28c-.78,7.67,1.07,23.72-2.85,30-4.36-7.15-1.92-36.26,1.93-41.76C114.59,161.74,116.59,172.38,115,172.28Z"/><path class="cls-3" d="M97.73,197a24.44,24.44,0,0,0,2.26-3.21c1.18,5.16,2,11.77-1,16.46C96.83,206.33,97.77,201.08,97.73,197Z"/><path class="cls-3" d="M106.36,182.16c.77-3.15,1.3-6.83,2.58-9.87.91,1.88-.51,13.87-2.53,15.56C106.13,186.93,106.88,182.31,106.36,182.16Z"/><path class="cls-3" d="M146.32,9.89c-15.6-8-41.89-3.3-55.95,5.42C70.62,27.58,70.8,52.87,71.65,73.05c.29-2.9,1.57,1.58,1.81-1.46,1.28-16.4,1.63-43.16,17.41-53.48,8.33-5.45,18-7.33,27.91-7.53,2.58-.05,28.86.88,29.06,2.12A10.48,10.48,0,0,0,146.32,9.89Z"/><path class="cls-5" d="M144.51,242.91c2.39-19.63,2.28-39.46,2.16-59.24a232.63,232.63,0,0,1,2.9,47.14l4.53-47.94a235.65,235.65,0,0,1,.79,35.64c3.81-11,5-22.61,6.16-34.13a101,101,0,0,1-.54,22.66l3-25.91c.12-1,1.09-2.42,1.89-1.71l.27,14.28a41.39,41.39,0,0,1,2.7-15.79,14.27,14.27,0,0,1,1.35,9.44,65,65,0,0,0-3-28.17,34.62,34.62,0,0,1-.22,11.49L162,155.59l-1.63,15.29a26.94,26.94,0,0,1-1.38-16,48.13,48.13,0,0,0-4.12,17.91,74.09,74.09,0,0,1,1.76-17.37,22.59,22.59,0,0,0-5.93,14.92,14,14,0,0,1,3.14-14.27,23,23,0,0,0-7.67,11.55c-.67-4.91,2.25-9.53,5.06-13.67a258.26,258.26,0,0,0-24,10C115,169.79,102.83,177,96,188.33a105.85,105.85,0,0,1,41.66-22.69,109.79,109.79,0,0,0-32.16,19.54,151.35,151.35,0,0,0,29.2-12.33L123.3,186.5c1.07-1.29,4.64-2.22,6.15-3.36a25,25,0,0,0,5.29-5.44,24.56,24.56,0,0,0,3.32-6.51c.73-2.22.51-5,1.42-7,2.49,3.9,3.29,10,4.21,14.46a128.75,128.75,0,0,1,2.13,15.26,223.56,223.56,0,0,1,0,31.38C145.47,231.14,145,237,144.51,242.91Z"/><path class="cls-5" d="M129.06,258c2.38-19.63,2.27-39.46,2.15-59.23a232.54,232.54,0,0,1,2.91,47.13l4.52-47.94a234.38,234.38,0,0,1,.79,35.64c3.81-11,5-22.61,6.16-34.13a100.43,100.43,0,0,1-.53,22.66l3-25.91c.12-1,1.09-2.42,1.88-1.71l.27,14.28A41.35,41.35,0,0,1,152.93,193a14.32,14.32,0,0,1,1.34,9.44,65,65,0,0,0-3-28.17,34.63,34.63,0,0,1-.21,11.49l-4.49-15.09L145,185.94a26.83,26.83,0,0,1-1.38-16,48.09,48.09,0,0,0-4.13,17.91,74.12,74.12,0,0,1,1.76-17.38,22.64,22.64,0,0,0-5.93,14.92,14,14,0,0,1,3.15-14.26,22.91,22.91,0,0,0-7.68,11.54c-.66-4.91,2.26-9.53,5.06-13.67a258.26,258.26,0,0,0-24.05,10c-12.18,5.83-24.38,13.07-31.24,24.36a105.6,105.6,0,0,1,41.65-22.68A109.62,109.62,0,0,0,90,200.25a151.12,151.12,0,0,0,29.2-12.34l-11.36,13.65c1.07-1.29,4.64-2.21,6.16-3.36a24.54,24.54,0,0,0,5.28-5.44,24.21,24.21,0,0,0,3.32-6.5c.73-2.23.52-5,1.43-7,2.48,3.91,3.29,10,4.2,14.46a128.75,128.75,0,0,1,2.13,15.26,222.06,222.06,0,0,1,0,31.38C130,246.2,129.54,252.09,129.06,258Z"/><path class="cls-5" d="M102.87,259.21c1.6-19.71,5.69-39.13,9.77-58.5a233,233,0,0,0-12.3,45.67l5.18-47.88a236.35,236.35,0,0,0-7.93,34.79c-1.53-11.49-.36-23.13.81-34.65a101.57,101.57,0,0,0-4,22.32l2.25-26c.09-1-.59-2.58-1.51-2L92,206.89a41.23,41.23,0,0,0,.51-16,14.44,14.44,0,0,0-3.21,9,65.34,65.34,0,0,1,8.6-27,34.78,34.78,0,0,0-2.1,11.31l7.43-13.93-1.48,15.31a27.11,27.11,0,0,0,4.57-15.43,48,48,0,0,1,.45,18.35,74.09,74.09,0,0,0,1.76-17.37,22.5,22.5,0,0,1,2.82,15.77,14,14,0,0,0-.22-14.59,22.7,22.7,0,0,1,5.21,12.79c1.63-4.69-.3-9.77-2.22-14.38a257.44,257.44,0,0,1,21.57,14.46c10.78,8.05,21.28,17.5,25.75,29.89a104.63,104.63,0,0,0-36.29-30.25,108.72,108.72,0,0,1,27.61,25.34,149.88,149.88,0,0,1-26.16-17.7L135,208c-.79-1.47-4.1-3.06-5.36-4.47a24.7,24.7,0,0,1-4.09-6.35,24.39,24.39,0,0,1-2-7c-.27-2.32.5-5,0-7.18-3.22,3.35-5.22,9.14-7,13.37a129.55,129.55,0,0,0-5.15,14.55,224.44,224.44,0,0,0-6.3,30.77C104.29,247.49,103.58,253.35,102.87,259.21Z"/><path class="cls-5" d="M80,273.26c7.38-31.06,18.68-61.11,30-91.06a379.13,379.13,0,0,0-30.85,70l20-75.17A383.38,383.38,0,0,0,77.9,230.74c.37-18.68,5.09-37,9.78-55.08a164.7,164.7,0,0,0-11.89,34.68l10-40.92c.4-1.63-.3-4.25-1.9-3.59l-8.42,21.54A66.67,66.67,0,0,0,80.17,162a23.49,23.49,0,0,0-7.33,13.62A106.47,106.47,0,0,1,93.19,134.4,56.37,56.37,0,0,0,87.08,152l15.27-20.53-6.11,24.08a44.07,44.07,0,0,0,11.07-23.57,77.48,77.48,0,0,1-3.79,29.37A119.72,119.72,0,0,0,110.6,134a36.07,36.07,0,0,1,.63,25.79,22.59,22.59,0,0,0,3.23-23.32,36.27,36.27,0,0,1,5.18,21.58c3.76-7.1,1.92-15.65,0-23.43a407.32,407.32,0,0,1,30.88,27.95c15.23,15.28,29.69,32.72,33.77,53.5a165.64,165.64,0,0,0-50.51-56.46,171.9,171.9,0,0,1,37.87,46.67,237.74,237.74,0,0,1-37.42-34.17l9.59,26.73c-.9-2.53-5.8-5.81-7.46-8.35a39.6,39.6,0,0,1-5-11.06A38.78,38.78,0,0,1,130,167.8c.13-3.77,2-7.88,1.78-11.45-6,4.62-10.58,13.39-14.49,19.73a209.06,209.06,0,0,0-11.79,22c-7.16,15.4-12.68,31.46-17.61,47.64C85.11,254.89,82.53,264.08,80,273.26Z"/><path class="cls-5" d="M169.55,273.26c-7.38-31.06-18.68-61.11-30-91.06a379.8,379.8,0,0,1,30.85,70l-20-75.17a383.38,383.38,0,0,1,21.19,53.69c-.37-18.68-5.09-37-9.79-55.08a164.73,164.73,0,0,1,11.9,34.68l-10-40.92c-.39-1.63.31-4.25,1.91-3.59l8.42,21.54a66.87,66.87,0,0,1-4.75-25.4,23.51,23.51,0,0,1,7.34,13.62,106.61,106.61,0,0,0-20.35-41.19A56.63,56.63,0,0,1,162.44,152l-15.27-20.53,6.11,24.08a44,44,0,0,1-11.07-23.57A77.28,77.28,0,0,0,146,161.31,120.77,120.77,0,0,1,138.91,134a36.17,36.17,0,0,0-.63,25.79,22.61,22.61,0,0,1-3.23-23.32,36.19,36.19,0,0,0-5.17,21.58c-3.77-7.1-1.92-15.65,0-23.43-10.78,8.8,6.91,39.74-14.14,25,15.32,13.28-11.61,25.13-.46,12.5l-9.58,26.73c.9-2.53,5.8-5.81,7.46-8.35a39.29,39.29,0,0,0,5-11.06,38.47,38.47,0,0,0,1.39-11.63c-.14-3.77-2-7.88-1.78-11.45,6,4.62,10.57,13.39,14.49,19.73a210.92,210.92,0,0,1,11.79,22c7.16,15.4,12.68,31.46,17.6,47.64C164.41,254.89,167,264.08,169.55,273.26Z"/><path class="cls-5" d="M129.76,282.84c-1.86-31.84.34-63.75,2.53-95.57a374.59,374.59,0,0,0-9.45,75.57l-2.43-77.64a380.66,380.66,0,0,0-4.88,57.29c-5-18.06-5.76-36.92-6.46-55.59a162.41,162.41,0,0,0-1.43,36.53l-2.23-42c-.08-1.68-1.51-4-2.85-2.95l-1.89,23a66.55,66.55,0,0,0-2.76-25.69,23,23,0,0,0-3.11,15,104.72,104.72,0,0,1,7.67-45,56.22,56.22,0,0,0-.81,18.52l8.75-23.81,1.07,24.79a43.43,43.43,0,0,0,3.84-25.62,77.78,77.78,0,0,1,4.82,29.25,120.07,120.07,0,0,0-1.07-28.15,36.54,36.54,0,0,1,8,24.64,22.66,22.66,0,0,0-3.61-23.29,37.17,37.17,0,0,1,11.18,19.38c1.57-7.83-2.67-15.57-6.76-22.53,12.89,5.59,39.15,41.35,24.81,32.17,5.63,7.72,9.66,19.11,7.33,17.11a40.19,40.19,0,0,1-8-9.31,39.58,39.58,0,0,1-4.68-10.81c-.95-3.67-.32-8.13-1.58-11.49-4.4,6-6.3,15.69-8.24,22.83a208.31,208.31,0,0,0-5,24.34c-2.43,16.72-3.11,33.64-3.17,50.51C129.41,263.8,129.58,273.33,129.76,282.84Z"/><path class="cls-3" d="M73.45,95.38S69.63,90.47,67.2,93s-10.67,8.8-5.57,23.17,6.53,13.24,5.67,19.21-2.27,9.54.89,11.94,7.44.72,7.44.72Z"/><path class="cls-3" d="M181.82,95.63s3.88-4.84,6.28-2.25,10.55,9,5.25,23.27-6.71,13.12-5.93,19.1,2.14,9.59-1,11.92-7.46.58-7.46.58Z"/><path class="cls-3" d="M203.1,170.63s34,16.85,38,22.38,8.18,5.81,9.52,23.66,4.2,41.42-2.93,54.81-23.62,67.32-23.62,67.32L211,332.94s-22.32-23.16-8-45.07-1-31.67,6.54-38.65,35.52-3.47,35.34-17.26,3.72-28.54-4.24-34.35-26.28-16.68-26.28-16.68Z"/><ellipse class="cls-3" cx="124.44" cy="48.6" rx="13.87" ry="14.43" transform="translate(70.31 170.74) rotate(-87.43)"/><ellipse class="cls-5" cx="124.1" cy="52.53" rx="7.83" ry="10.87" transform="translate(62.83 172.56) rotate(-85.9)"/><ellipse class="cls-3" cx="124.39" cy="49.35" rx="6.09" ry="6.33" transform="translate(69.51 171.4) rotate(-87.43)"/><ellipse class="cls-5" cx="129.93" cy="44.55" rx="2.87" ry="2.98" transform="matrix(0.04, -1, 1, 0.04, 79.6, 172.35)"/><ellipse class="cls-5" cx="125.2" cy="45.93" rx="0.74" ry="0.77" transform="translate(73.7 168.95) rotate(-87.43)"/><ellipse class="cls-5" cx="117.56" cy="46.37" rx="1.72" ry="1.79" transform="translate(65.97 161.72) rotate(-87.43)"/><ellipse class="cls-5" cx="127.62" cy="49.31" rx="1.43" ry="1.49" transform="translate(72.63 174.59) rotate(-87.43)"/><ellipse class="cls-3" cx="169.14" cy="50.89" rx="13.87" ry="9.77" transform="translate(113.26 218.45) rotate(-88.3)"/><ellipse class="cls-5" cx="168.84" cy="55.88" rx="7.33" ry="7.75" transform="translate(-8.2 38.91) rotate(-12.84)"/><ellipse class="cls-3" cx="169.1" cy="51.64" rx="6.09" ry="4.29" transform="translate(112.47 219.13) rotate(-88.3)"/><ellipse class="cls-5" cx="172.9" cy="46.78" rx="2.87" ry="2.02" transform="translate(121.01 218.22) rotate(-88.3)"/><ellipse class="cls-5" cx="169.68" cy="48.21" rx="0.74" ry="0.52" transform="translate(116.46 216.39) rotate(-88.3)"/><ellipse class="cls-5" cx="164.5" cy="48.73" rx="1.72" ry="1.21" transform="translate(110.92 211.71) rotate(-88.3)"/><ellipse class="cls-5" cx="171.29" cy="51.57" rx="1.43" ry="1.01" transform="translate(114.66 221.25) rotate(-88.3)"/><ellipse class="cls-3" cx="82.61" cy="50.89" rx="13.87" ry="9.77" transform="translate(29.3 131.96) rotate(-88.3)"/><ellipse class="cls-5" cx="82.31" cy="55.88" rx="6.86" ry="7.25" transform="translate(-10.36 19.68) rotate(-12.84)"/><ellipse class="cls-3" cx="82.57" cy="51.64" rx="6.09" ry="4.29" transform="translate(28.51 132.64) rotate(-88.3)"/><ellipse class="cls-5" cx="86.37" cy="46.78" rx="2.87" ry="2.02" transform="translate(37.05 131.73) rotate(-88.3)"/><ellipse class="cls-5" cx="83.15" cy="48.21" rx="0.74" ry="0.52" transform="translate(32.49 129.9) rotate(-88.3)"/><ellipse class="cls-5" cx="77.97" cy="48.73" rx="1.72" ry="1.21" transform="translate(26.95 125.22) rotate(-88.3)"/><ellipse class="cls-5" cx="84.76" cy="51.57" rx="1.43" ry="1.01" transform="translate(30.7 134.76) rotate(-88.3)"/><rect class="cls-3" x="120.14" y="161.75" width="0.03" height="0.03"/><path class="cls-3" d="M104.33,178.4a20.42,20.42,0,0,1,6.61,4.67l1.59-1.52a19.68,19.68,0,0,0-6.7-4.58Z"/><path class="cls-3" d="M112.1,188.45h-5.54c-1.63,0-1.89-.17-1.89-1.07v-5.77c.43-.06.59-.23.63-.46l-2.86-.2v6.43c0,2.46.83,3.09,3.92,3.09h5.94c2.72,0,3.39-1.06,3.65-5.64a5.91,5.91,0,0,1-2-.83C113.79,187.88,113.56,188.45,112.1,188.45Z"/><path class="cls-3" d="M118,180,116,181.15a31.65,31.65,0,0,1,6.14,8.06l2.09-1.26A30,30,0,0,0,118,180Z"/><path class="cls-3" d="M120.14,161.78H97.69v15h22.48Zm-12.45,13H99.82V170.2h7.87Zm0-6.5H99.82v-4.54h7.87Zm10.26,6.5h-8.07V170.2H118Zm0-6.5h-8.07v-4.54H118Z"/><path class="cls-3" d="M93.48,188.25l1.82,1.29c2.86-1.86,4.19-5.11,4.92-8.42l-2-.6C97.59,183.64,96.17,186.59,93.48,188.25Z"/><path class="cls-3" d="M148,182.21h5.68v-5.27h3.75v-2h-3.75v-4.91h-7.07v-3.18h10.26v-2h-8.34a33.08,33.08,0,0,0,3.22-3.35c.4,0,.63-.07.73-.3l-2.69-1.06a32.1,32.1,0,0,1-3.55,4.18l1.2.53H136.8l1.26-.6a22.29,22.29,0,0,0-3.75-4.14l-2,.93a22.9,22.9,0,0,1,3.38,3.81h-8.36v2h9.89v3.18H130v1.82h7.27V175H126.84v2h10.42v3.45h-7.53v1.82H136a25.79,25.79,0,0,1-9.56,6.57,8.93,8.93,0,0,1,1.49,1.72,28.49,28.49,0,0,0,9.33-6.76v7.36h2.16v-8.89h5v8.89h2.16v-7.63a32.64,32.64,0,0,0,9.59,6.9,7.91,7.91,0,0,1,1.53-1.82A29.21,29.21,0,0,1,148,182.21Zm-3.55-1.82h-5v-3.45h5Zm0-5.41h-5v-3.09h5Zm0-4.91h-5v-3.18h5Zm2.16,1.82h4.88V175h-4.88Zm0,8.5v-3.45h4.88v3.45Z"/></g></svg>