<svg xmlns="http://www.w3.org/2000/svg" viewBox="0 0 235 235"><defs><style>.cls-1,.cls-3{fill:#2e3031;}.cls-2{fill:#fff;}.cls-3{font-size:14px;font-family:Arvo-Bold, Arvo;font-weight:700;}.cls-4{letter-spacing:0.01em;}.cls-5{letter-spacing:0.03em;}</style></defs><title>Fichier 1</title><g id="Calque_2" data-name="Calque 2"><g id="Calque_1-2" data-name="Calque 1"><rect class="cls-1" width="235" height="235"/><path class="cls-1" d="M24.64,136.17c2.56,2,6.15,1.93,9.43,2.11s7,1.15,8.36,4.15c.72,1.64.52,3.52.79,5.29.88,5.68,6.37,9.36,11.54,11.89C76,170,100.3,173.19,124,171.87s46.83-7,69.62-13.36c4.8-1.35,10.53-3.81,10.88-8.79.21-3-1.79-5.73-4.32-7.29s-5.52-2.15-8.43-2.71c-11.62-2.24-23.66-4.46-35.17-1.73-13.35,3.18-24.79,12.78-38.43,14.27-15.29,1.68-29.47-7.07-43.76-12.76-10.77-4.29-22.1-6.92-33.47-9-3.71-.69-11.09-3.52-14.75-2.41A4.63,4.63,0,0,0,24.64,136.17Z"/><path class="cls-1" d="M186.67,72.26c4.13,3.28,8.94,5.61,13,8.95s7.52,8.1,7.33,13.37c.66-4.42-1.84-8.81-5.21-11.75s-7.54-4.73-11.53-6.75-8-4.41-10.48-8.11A41.24,41.24,0,0,0,198.58,88.3c4.51,2.35,9.52,3.89,13.43,7.14s6.43,9,4,13.48c1.52-3.49.19-7.7-2.34-10.54s-6.05-4.56-9.55-6S197,89.48,194,87.15c4.93,6.66,12.29,11,19.61,14.91,1.91,1,4,2,6.12,1.91s4.38-1.84,4.24-4c.07,2.15-2.19,3.79-4.33,3.85s-4.16-1-6.05-2-3.91-2.06-6-2a68.36,68.36,0,0,1,21.26,15.75A43,43,0,0,0,205,101.12a126.42,126.42,0,0,1,22,18.53,47.37,47.37,0,0,0-14.68-11.06,18.21,18.21,0,0,1,4,16.65,18.36,18.36,0,0,0-14-16.9,51.7,51.7,0,0,1,11,18.2l-9.88-16,4,20.67c.4,2.07.8,4.26.08,6.24s-3,3.58-4.92,2.79a9.42,9.42,0,0,0-5-17.55,12.57,12.57,0,0,1,4.47,7,7.34,7.34,0,0,1-2.93,7.47c-2.41,1.51-6.11.77-7.33-1.79.72,2.62,4.57,3.34,6.69,1.64s2.54-4.88,1.74-7.48-2.57-4.76-4.31-6.85a35,35,0,0,1,.76,12.73,23.94,23.94,0,0,1-.22-14.17c1-3.28,2.65-6.31,3.72-9.55s1.52-6.92,0-10c-1.28-2.66-3.78-4.48-6-6.39-9.33-7.94-15.4-19-20.77-30-2.64-5.43-5.17-10.92-8-16.25-1.41-2.65-2.89-5.27-4.5-7.81-1.14-1.8-4.86-5.54-4.78-7.42,6.51,3,11.45,13.29,15.07,19.12C175.72,60,180.16,67.11,186.67,72.26Z"/><path class="cls-1" d="M58.27,66.59c-1.67,2.86-3.45,5.83-6.25,7.6-3.23,2-7.26,2.12-11,2.9A29.59,29.59,0,0,0,21.1,92.19c0-4.64,3.31-8.77,7.37-11s8.76-3,13.35-3.64A41,41,0,0,0,27.3,89a26.94,26.94,0,0,1,13.15-9.44A45.71,45.71,0,0,1,14.61,98.75a3.1,3.1,0,0,1,1.59-5c-1.85,0-2.88,2.58-1.88,4.14s3.19,2,5,1.47a13.11,13.11,0,0,0,4.64-3A37.31,37.31,0,0,0,7.05,112,26.42,26.42,0,0,1,23.87,97.82L9.36,110l12.29-9.28L5.48,125.17a47.38,47.38,0,0,1,20.16-20.61C21,113.44,16.17,122.73,16,132.77A23.66,23.66,0,0,1,32.59,110a35.31,35.31,0,0,0-13.92,17.8,24.53,24.53,0,0,0-1,14.39c1.29,4.71,4.68,9,9.29,10.57a18,18,0,0,1-8-14c-.34-7.13,3.6-13.75,8.05-19.33a27.58,27.58,0,0,0-2.23,27.75,23.11,23.11,0,0,1,3-21c2.68-3.68,6.63-7,6.88-11.51.18-3.44-1.88-6.54-3.54-9.57s-3-6.78-1.34-9.82c1.75-3.27,5.95-4.09,9.5-5.15a34.38,34.38,0,0,0,17.07-12c2-2.58,10.41-16.13,6.24-18.76C60.84,61.23,59.6,64.31,58.27,66.59Z"/><path class="cls-1" d="M60.11,138.3a57.18,57.18,0,0,0,10.83,18.36A21.73,21.73,0,0,1,63,138.5a49.76,49.76,0,0,0,19.46,22A19.7,19.7,0,0,1,71,143.68a107.26,107.26,0,0,1,11.63,13.89l-1.34-6.81c3.66-.42,7,2,9.57,4.65s4.66,5.83,7.79,7.76,7.78,2.16,10.06-.73A12.41,12.41,0,0,1,92,152.69a10.83,10.83,0,0,1,7.93,2.92,7.89,7.89,0,0,1,2.05,8,6.26,6.26,0,0,1-6.82,4.12c2.48,2,6.48.23,7.86-2.63s.88-6.23.19-9.33l8.82,11a12.75,12.75,0,0,1-2.66-7.1,6.19,6.19,0,0,1,6,5.39,22.55,22.55,0,0,0,8.65-10.38,15.67,15.67,0,0,1-14.67,14.68c3,1.27,6.49.33,9.1-1.57s4.46-4.62,6.27-7.29l7.43-11c1.55-2.29,3.46-4.8,6.21-5,3-.27,5.54,2.42,6.4,5.3,1.25,4.21-.17,8.9-2.94,12.3A24.61,24.61,0,0,1,131,169.23a16.19,16.19,0,0,0,14.37-21,6.9,6.9,0,0,1,3.28,6.08L147,144.69a35.13,35.13,0,0,0,22.38,6.88c-3.85.09-7.83-.31-11.19-2.18s-6-5.46-5.76-9.31a17,17,0,0,0,7.18,7.87l-.36-5.3a10.3,10.3,0,0,1,4.31,4.31,23.13,23.13,0,0,0,2.08-12.43,11.34,11.34,0,0,1,2.1,12.71,15.05,15.05,0,0,0-.12-15.45,11.22,11.22,0,0,1,2.5,13.26,12,12,0,0,0,.54-14.14,12.93,12.93,0,0,1,7-1.52,6.34,6.34,0,0,1,5.44,4.2c.65,2.34-1,5.22-3.42,5.35,3.35-1,4.7-6.14,2-8.31a7.87,7.87,0,0,0-4-1.34,36.75,36.75,0,0,0-14.27,1c-1.72.48-3.57,1.08-5.23.44s-2.55-2.14-3.69-3.39c-4.21-4.62-11.3-5.48-17.4-4.13s-11.6,4.53-17.35,7c-14.92,6.3-31.56,7.55-47.69,6.17-3.91-.33-7.95-.8-11.65.5a12.9,12.9,0,0,0-7.31,6.6c1.76.45,3.46-1,4.27-2.65s1.08-3.5,2-5,3-2.68,4.59-1.74"/><path class="cls-1" d="M117.82,19.76s.26-5.14-15.17,0c-16.57,5.51-30,14.58-41.8,37.74-8.68,17-19.13,22-32.57,33.7-12,10.48-19,32.93-20.27,39.19A52.33,52.33,0,0,1,19,120c8.53-5.76,14.44-5.79,14.44-5.79S18.24,127.59,20.7,137.86c2.08,8.7,12.73,12,19.78,8.51,6.41-3.14,6.94-10.07,6.94-10.07s-5.38,5.6-9.89,5.6-9.25-2.49-7.33-8.71,15.31-9.33,15.31-9.33-8.27,4.08-8.93,9.33a3.7,3.7,0,0,0,2.55,4s-2.05-3.59.75-6.14c3.47-3.15,9.85-4,13.52.12,8.21,9.14,16.24,19,38.1,30.39C115.22,174,65.61,141,91.12,141.28s27.75,4.67,26.48,10.89-10.26,7.46-10.5,4.37c-.21-2.79,3.8-5,3.8-5s-7.48.74-7.34,5.91c.11,4,4.25,6,11.59,5.68s14.07-4.75,15.75-7.55,2.14,4.45,0,6.58-5.9,3.49-9.79,4c0,0,7.33,2.55,13.71,0s9.69-7.2,11.6-14.67-1.07-19.73-6.81-29.38,24,37.63,24.55,20.68c0,0,.56-6.28,5.14-10.11,3.54-2.95,6-4.66,11.21-5.78a16.58,16.58,0,0,1,15.24,4.15c2.8,2.55.76,6.14.76,6.14a3.7,3.7,0,0,0,2.55-4c-.67-5.25-8.93-9.33-8.93-9.33s13.39,3.11,15.31,9.33-2.75,8.71-7.34,8.71-9.89-5.6-9.89-5.6.54,6.93,6.94,10.07c7.06,3.46,17.7.19,19.79-8.51,2.46-10.27-12.69-23.64-12.69-23.64s5.91,0,14.43,5.79a52.23,52.23,0,0,1,10.95,10.38c-1.32-6.26-12.09-26-25.5-34.73-9.85-6.43-18.67-21.19-27.34-38.16C163,34.34,149.55,25.27,133,19.76c-15.44-5.14-15.17,0-15.17,0"/><path class="cls-2" d="M173.37,78.54c0,31.3-25.38,68-56.68,68S60,109.84,60,78.54a56.52,56.52,0,0,1,7.18-27.65c9.7-17.32,28.23-10.43,49.5-10.43,21.52,0,40.24-6.61,49.84,11.06A56.47,56.47,0,0,1,173.37,78.54Z"/><path class="cls-1" d="M116.69,147c-14.74,0-29.11-8-40.45-22.42-10.45-13.34-16.7-30.53-16.7-46a57.2,57.2,0,0,1,7.25-27.87c7.6-13.57,20.6-12.56,35.66-11.4,4.59.36,9.33.73,14.24.73s9.43-.33,13.91-.65c15.42-1.09,28.74-2,36.34,11.95a57.27,57.27,0,0,1,6.89,27.24c0,15.48-6.24,32.67-16.7,46C145.79,139,131.43,147,116.69,147ZM90.42,39.56c-9.73,0-17.54,2.12-22.82,11.56a56.17,56.17,0,0,0-7.13,27.42c0,30.57,25.08,67.5,56.22,67.5s56.22-36.93,56.22-67.5a56.29,56.29,0,0,0-6.79-26.8c-7.31-13.46-19.73-12.58-35.46-11.47-4.49.32-9.14.65-14,.65s-9.71-.37-14.31-.73C98.14,39.87,94.14,39.56,90.42,39.56Z"/><path class="cls-1" d="M74.64,121.58,82.07,119l-3.71,6.58,3.77-2.66-1.47,9.86,3.48-8s3.13-2.38,2.22,2.64a56.47,56.47,0,0,1-2.49,9.1l4.53-8.77s1.76,5.79,1,8.77.9-5.64,4.72-6.26,3.35.78,3.35.78l0,8.92,3-8.92a3.9,3.9,0,0,1,4.41,0c2.28,1.56,3.51,10.33,3.51,10.33l1.36-4.23,3,6.74s2.46-9.87,2.24-11.12.36,2,.68,5.32,3.21-5.63,4.13-6.65-.81,11.66-.81,11.66l3.4-9.23a8.23,8.23,0,0,0,1.52,6.26c2.28,3.44,4.2,3.76,4.2,3.76s-3.29-3.92-3.29-7.67a4.85,4.85,0,0,1,2.78-4.78l5.84,5.87-1.38-6.89a7.69,7.69,0,0,1,4.76,5.13c1.25,4.11,1-.74,1.14-2.94a15.1,15.1,0,0,0,0-3.15s-1.82-2,1.81,1.59,5.3,2.35,5.3,2.35-.62.41-2.43-2,0-3.39,0-3.39l4,3-.81-5,6.85-.33-2.66-2.8,7.11,1.8-4.45-4.89,2.48,1.25-.46-3.35,7.15,5.79s4.57,5.64.61,8.3-22.34,27.09-29,27.71-36.55.47-45.19-5.32-18.1-19.57-18.1-19.57Z"/><path class="cls-1" d="M101.61,68.29s3.78.76,4.23-1.64-8.45-12.21-9.6-12.45S86,57.67,84.92,59.06a6.28,6.28,0,0,0-.19,6.35C86,67.6,86,66,86,66s-1.23-2.81,0-4.71-1.8,1.1,1.57,5.63-5.2,6.22-5.2,6.22L72,75.53s-3.78,6.09-2.37,9.77,3.26-.44,6,.23a29.38,29.38,0,0,1,6.69,3.13L87.08,90s-4.28,2.67-4.72,5.52a16.1,16.1,0,0,0,0,5.11s-1.37-.19-4.14-.3S71.64,98,67.76,95.49s-9.44-9.1-9.43-13.41.36-13,1.63-14.24,11.9-19.41,18.26-20.91,17.37-.93,18.85-.47S100.4,45,104,47.85s10.62,16,8.31,19.08.46,6.35.46,6.35-1.42,15.61-4.42,14.53-1.72-5.57-3.31-8.4-3.41-9.82-3.41-9.82Z"/><path class="cls-1" d="M78.22,100.17c1.92-.07,3.11.14,4.74,2.46a19.73,19.73,0,0,0,5.42,5.66c2.93,2.16,6.45,5.16,12.92,4.12s9.11-2,12.88-2.46,5.24-.22,9.24.57,7,2.52,13.1,2.71,13.47-7.85,15-10.82,7.09-3.83,8.17-3.83-2.16-.66-4.62-.33-5,2.93-8.08,5.16c-1.63,1.16-3.55,2.48-6,2.37a18.74,18.74,0,0,1-7.77-2.37c-1.78-1.14-1.93-3.82-3.05-1.83s-8.12,6-12.44,6.34-6.85,1.16-10.47-1.16-5.87-6.35-6.63-5.82S97,104.59,95,105s-3.9,1.3-6.14.76a10.36,10.36,0,0,1-4.11-2.37,13.79,13.79,0,0,0-2.37-3C81.3,99.66,78.22,100.17,78.22,100.17Z"/><path class="cls-1" d="M102.37,83.85c.93.74-6.15,3.55-7.17,3.74a28.4,28.4,0,0,1-10.52.22c-.92-.16-6.91-3-7-3C74,86.44,84.37,90,84.38,90c.56.13,1.67,3,1.68,3,0-1.49.37-.68,1-3.06.9,0,.92,4.44.77,5.52,0-.13.87-5,1.85-5.49a6.21,6.21,0,0,1,.42,2.56c.08,0,.09.06,0,.25S91.29,90,91.24,90c1.31,0,1.64,4.22,2.33,5.41,0,.13-1-4.87-.5-5.46,1,.14.93,1.29,1.36,2.58C94.71,91,103.79,85,102.37,83.85Z"/><path class="cls-1" d="M64.42,63.61s-6.14,3.86-2.61,8.64,6.47,3.47,6.47,3.47l1.36-.8a19,19,0,0,1-3.42-.71c-1.42-.49-4.79-3.32-4.68-5.11s.33-2.72,1.47-3.7A4.58,4.58,0,0,0,64.42,63.61Z"/><circle class="cls-2" cx="137.68" cy="85.3" r="2.28"/><path class="cls-2" d="M115.19,109.69a22.45,22.45,0,0,1-7.12-1c-2.21-.83-4.95-3.23-7.75-6.07a4.82,4.82,0,0,1-.35.63c-.18.28-2.25,3.23-8.62,3.76q-.37,0-.75,0c-4.85,0-9.09-4.16-9.46-9.29-.31-4.21,2.3-9.56,10.67-10.79a13.63,13.63,0,0,1,2-.16c5.93,0,7.94,4.31,9.71,8.11,2.08,4.48,4.06,8.72,12.06,8.72s10-4.24,12.06-8.72c1.77-3.8,3.77-8.11,9.7-8.11a13.43,13.43,0,0,1,2.05.16c8.37,1.23,11,6.58,10.68,10.79-.38,5.13-4.62,9.29-9.46,9.29h0l-.76,0c-6-.5-8.19-3.16-8.59-3.73a2.12,2.12,0,0,1-.25-.42c-.26.3-.51.56-.75.79l-.3.28a20.31,20.31,0,0,1-7.44,4.79A25,25,0,0,1,115.19,109.69Z"/><path class="cls-1" d="M137.39,88.66a11.47,11.47,0,0,1,1.78.14c14,2,9.73,16.41,1.49,16.41q-.3,0-.6,0c-5.65-.47-7.25-3-7.25-3s-.87-1.11.76-2.36a2.55,2.55,0,0,1,1.55-.62,1.51,1.51,0,0,1,1.06.41s1.68-3-.43-3l-.33,0c-2.61.32-4.95,4.34-6.36,5.65A19.23,19.23,0,0,1,122,107a23.22,23.22,0,0,1-6.8.87,20,20,0,0,1-6.47-.87c-3.13-1.17-8.31-6.9-10.11-8.8-1.07-1.14-1.48-1.27-2-1.27h-.46a3.15,3.15,0,0,1-.84-.1,1.06,1.06,0,0,0-.29,0c-1.2,0-1,2.21-1,2.21s3.65.82,4.41,1.47,0,1.76,0,1.76-1.61,2.5-7.25,3q-.3,0-.6,0c-8.24,0-12.53-14.36,1.48-16.41a11.47,11.47,0,0,1,1.78-.14c10.67,0,5.22,16.82,21.77,16.82s11.1-16.82,21.76-16.82m0-3.7c-7.1,0-9.57,5.31-11.38,9.18-2.07,4.44-3.56,7.65-10.38,7.65s-8.32-3.21-10.39-7.65C103.44,90.27,101,85,93.86,85a15.68,15.68,0,0,0-2.31.18c-9.63,1.41-12.62,7.75-12.26,12.76a11.64,11.64,0,0,0,11.31,11c.3,0,.61,0,.91,0,4.94-.41,7.66-2.18,9-3.44,2.44,2.33,4.82,4.23,6.9,5a24.31,24.31,0,0,0,7.77,1.1,26.61,26.61,0,0,0,8-1.06,21.4,21.4,0,0,0,7.78-4.88c1.4,1.24,4.09,2.87,8.81,3.26.3,0,.61,0,.91,0a11.63,11.63,0,0,0,11.3-11c.36-5-2.63-11.35-12.25-12.76a15.71,15.71,0,0,0-2.32-.18Z"/><path class="cls-1" d="M142.68,94.82c-1.09-1.09-1.75-1.6-4.39-.73s-5,2.83-9.38,7.32-6.51,6.07-12.54,6.09H115c-6,0-8.2-1.61-12.53-6.09S95.77,95,93.12,94.09s-3.3-.36-4.39.73a5,5,0,0,0-1.13,3.91,6.41,6.41,0,0,0,1.75,2.65,6.29,6.29,0,0,0,3.48,1.34c1.74,0,2.72-.87,3.73-2.32s-.5-2.25.58-2.47,2.21,1.79,3.48,3.19c2.36,2.61,7,6.78,11.24,7,.62,0,1.12,0,1.56,0h5.42l.72,0c4.2-.25,8.87-4.42,11.24-7,1.26-1.4,2.38-3.41,3.47-3.19s-.44,1,.58,2.47,2,2.28,3.73,2.32a6.29,6.29,0,0,0,3.48-1.34,6.41,6.41,0,0,0,1.75-2.65A5,5,0,0,0,142.68,94.82Z"/><path class="cls-1" d="M138,122.62A29.09,29.09,0,0,1,125.72,120a24.4,24.4,0,0,0-8.47-2.19,24.41,24.41,0,0,0-8.43,2.19,29.09,29.09,0,0,1-12.29,2.65c-.61,0-1.25,0-1.93-.05a15.1,15.1,0,0,1-8.34-3.22,8,8,0,0,0-3-1.55H83a10.31,10.31,0,0,0-2.08.36,15.45,15.45,0,0,1-3.67.56c-2.87,0-5.33-1.4-7.5-4.26-2-2.7-2.79-5.24-2.23-7.55a8.25,8.25,0,0,1,4.14-5,9.5,9.5,0,0,1,3.27-.75c1.86,0,3.73.95,5.88,3a30.92,30.92,0,0,1,3,3.55c2.76,3.63,5.89,7.73,13,8.83a29.15,29.15,0,0,0,4.44.34,28.44,28.44,0,0,0,11.88-2.67c.54-.24.93-.4,1.21-.49a8.09,8.09,0,0,1,2.11-.28c.41,0,.71,0,.84,0s.44,0,.84,0a8.09,8.09,0,0,1,2.11.28,12.23,12.23,0,0,1,1.21.49,28.49,28.49,0,0,0,11.89,2.67,29.12,29.12,0,0,0,4.43-.34c7.13-1.1,10.26-5.2,13-8.83a30.92,30.92,0,0,1,3-3.55c2.15-2.06,4-3,5.89-3a9.51,9.51,0,0,1,3.22.73,8.27,8.27,0,0,1,4.18,5c.56,2.31-.19,4.85-2.23,7.55-2.17,2.86-4.62,4.26-7.5,4.26a15.53,15.53,0,0,1-3.67-.56,10.2,10.2,0,0,0-2.08-.36h-.26a8,8,0,0,0-3,1.55,15.1,15.1,0,0,1-8.34,3.22C139.27,122.6,138.63,122.62,138,122.62Z"/><path class="cls-1" d="M159.66,101.61a8.76,8.76,0,0,1,3.06.71s7.83,3.8,1.74,11.85c-2.46,3.24-4.92,4.08-7.13,4.08s-4.34-.92-5.75-.92a1.56,1.56,0,0,0-.31,0c-2.68.3-5.21,4.45-11.35,4.76-.67,0-1.3,0-1.91,0-10.27,0-12.83-4.42-20.74-4.83-7.9.41-10.47,4.83-20.74,4.83-.61,0-1.24,0-1.9,0-6.15-.31-8.67-4.46-11.35-4.76a1.67,1.67,0,0,0-.32,0c-1.41,0-3.44.92-5.75.92s-4.67-.84-7.13-4.08c-6.09-8,1.74-11.85,1.74-11.85a8.76,8.76,0,0,1,3.07-.71c1.51,0,3.24.67,5.56,2.88,4,3.81,6.38,11,16.27,12.51a30.38,30.38,0,0,0,4.51.35c7.3,0,11.94-2.82,13.21-3.18a7.25,7.25,0,0,1,2-.27,6.19,6.19,0,0,1,.84,0,6.19,6.19,0,0,1,.84,0,7.2,7.2,0,0,1,2,.27c1.27.36,5.92,3.18,13.22,3.18a30.35,30.35,0,0,0,4.5-.35c9.9-1.53,12.29-8.7,16.27-12.51,2.32-2.21,4-2.88,5.57-2.88m0-.92c-2,0-4,1-6.21,3.13a30.61,30.61,0,0,0-3,3.61c-2.71,3.56-5.78,7.58-12.73,8.65a27.51,27.51,0,0,1-16.07-2.3,11.76,11.76,0,0,0-1.26-.5,8.3,8.3,0,0,0-2.24-.31,7,7,0,0,0-.84,0,7,7,0,0,0-.84,0,8.3,8.3,0,0,0-2.24.31,11.76,11.76,0,0,0-1.26.5,27.5,27.5,0,0,1-16.07,2.3c-7-1.07-10-5.09-12.72-8.65a31.66,31.66,0,0,0-3-3.61c-2.24-2.14-4.21-3.13-6.2-3.13a9.65,9.65,0,0,0-3.38.76l-.05,0,0,0a8.7,8.7,0,0,0-4.39,5.3c-.59,2.46.19,5.13,2.32,7.94,2.26,3,4.83,4.44,7.86,4.44A15.65,15.65,0,0,0,81,118.6a10.16,10.16,0,0,1,2-.35h.21A7.53,7.53,0,0,1,86,119.73a15.76,15.76,0,0,0,8.58,3.3c.66,0,1.32,0,2,0A29.5,29.5,0,0,0,109,120.4a23.93,23.93,0,0,1,8.27-2.15,23.93,23.93,0,0,1,8.27,2.15A29.5,29.5,0,0,0,138,123.08c.63,0,1.29,0,2,0a15.73,15.73,0,0,0,8.58-3.3,7.6,7.6,0,0,1,2.83-1.47h.21a10.16,10.16,0,0,1,2,.35,15.65,15.65,0,0,0,3.78.57c3,0,5.6-1.45,7.87-4.44,2.12-2.81,2.9-5.48,2.31-7.94a8.7,8.7,0,0,0-4.39-5.3l0,0,0,0a9.7,9.7,0,0,0-3.38-.76Z"/><path class="cls-2" d="M91.05,120.64a5.61,5.61,0,0,1-1.57-.29c-1.8-.5-5.6-3.33-5.75-8.61a6.29,6.29,0,0,1,1.71-4.65,3.72,3.72,0,0,1,2.29-1.26,1.06,1.06,0,0,1,1,.7c.28.81-.53,1.43-.83,1.67-1.57,1.23-.44,3.94-.08,4.55a4.7,4.7,0,0,0,2.79,2.08h.14A3.28,3.28,0,0,1,93.45,116a3,3,0,0,1,.43,2.63,3.16,3.16,0,0,1-1.44,1.7,3.25,3.25,0,0,1-1.39.32Z"/><path class="cls-1" d="M87.73,106.75c.27,0,.24.25-.37.72-2.13,1.66-.8,4.91-.3,5.75a5.46,5.46,0,0,0,3.58,2.53h.14a2.39,2.39,0,0,1,1.93.79,2.05,2.05,0,0,1,.29,1.78,1.92,1.92,0,0,1-2,1.39,5,5,0,0,1-1.4-.27c-1.47-.41-4.86-3-5-7.72-.1-3.42,2.42-5,3.08-5m0-1.84h0a4.48,4.48,0,0,0-3,1.54,7.25,7.25,0,0,0-2,5.32c.17,5.84,4.35,8.89,6.35,9.45l.08,0a6.76,6.76,0,0,0,1.82.31,4.13,4.13,0,0,0,1.78-.4,4,4,0,0,0,1.91-2.2v0a3.88,3.88,0,0,0-.56-3.49,4.2,4.2,0,0,0-3.41-1.53h-.1a4.23,4.23,0,0,1-2-1.63c-.19-.31-1.18-2.54-.15-3.34s1.46-1.75,1.13-2.7a2,2,0,0,0-1.9-1.32Z"/><path class="cls-2" d="M97.44,121.22a4.48,4.48,0,0,1-2.23-.74c-1.62-.92-4.64-4.57-3.53-9.74a5.76,5.76,0,0,1,4.91-4.83,1.13,1.13,0,0,1,1.2.84c.2.93-.84,1.4-1.19,1.55-1.81.82-1.36,3.73-1.15,4.4a4.65,4.65,0,0,0,2.22,2.69,3.34,3.34,0,0,1,2.44,1.79,3,3,0,0,1-.21,2.66,3.15,3.15,0,0,1-1.8,1.31,3,3,0,0,1-.66.07Z"/><path class="cls-1" d="M96.59,106.83c.44,0,.46.26-.36.63-2.47,1.1-2,4.58-1.66,5.51.48,1.55,2,3.12,2.91,3.32a2.43,2.43,0,0,1,1.78,1.25,2,2,0,0,1-.14,1.8,2.35,2.35,0,0,1-1.2.91,2.74,2.74,0,0,1-.48,0,3.67,3.67,0,0,1-1.84-.66c-1.33-.75-4-4-3-8.69a4.91,4.91,0,0,1,4-4.11m0-1.84c-1.87,0-5,1.76-5.82,5.56-1.22,5.71,2.11,9.67,3.92,10.69l.07,0a5.16,5.16,0,0,0,2.68.86,4.78,4.78,0,0,0,.84-.08,4,4,0,0,0,2.37-1.68l0,0v0a3.91,3.91,0,0,0,.29-3.51,4.28,4.28,0,0,0-3.06-2.33,4.26,4.26,0,0,1-1.58-2.06c-.11-.35-.54-2.75.65-3.28,1.8-.81,1.85-2,1.71-2.59a2,2,0,0,0-2.1-1.57Z"/><path class="cls-2" d="M144,120.06a3.28,3.28,0,0,1-1.39-.32,3.18,3.18,0,0,1-1.43-1.68,3,3,0,0,1,.42-2.65,3.29,3.29,0,0,1,2.68-1.17h.12a4.69,4.69,0,0,0,2.8-2.08c.36-.61,1.49-3.33-.08-4.55-.3-.24-1.11-.86-.83-1.68a1.06,1.06,0,0,1,1-.69,3.67,3.67,0,0,1,2.29,1.26,6.32,6.32,0,0,1,1.72,4.65c-.15,5.28-4,8.11-5.67,8.59A6.14,6.14,0,0,1,144,120.06Z"/><path class="cls-1" d="M147.33,106.17c.67,0,3.18,1.55,3.08,5-.13,4.77-3.53,7.31-5,7.72a5.16,5.16,0,0,1-1.41.27,2,2,0,0,1-1.95-1.39,2.05,2.05,0,0,1,.29-1.78,2.4,2.4,0,0,1,1.94-.79h.13a5.44,5.44,0,0,0,3.58-2.53c.51-.84,1.83-4.09-.3-5.75-.6-.47-.63-.72-.37-.72m0-1.85a2,2,0,0,0-1.9,1.32c-.33,1,0,1.87,1.14,2.71s0,3-.15,3.34a4.28,4.28,0,0,1-2,1.63h-.1a4.22,4.22,0,0,0-3.42,1.53,3.94,3.94,0,0,0-.56,3.49v0a4,4,0,0,0,1.9,2.2,4.13,4.13,0,0,0,1.78.4,6.51,6.51,0,0,0,1.83-.32l.08,0c2-.56,6.17-3.61,6.34-9.45a7.21,7.21,0,0,0-2-5.32,4.47,4.47,0,0,0-2.95-1.55Z"/><path class="cls-2" d="M137.62,120.64a3,3,0,0,1-.66-.07,3.2,3.2,0,0,1-1.79-1.29,3,3,0,0,1-.22-2.68,3.34,3.34,0,0,1,2.44-1.79,4.65,4.65,0,0,0,2.22-2.69c.21-.68.67-3.58-1.15-4.4-.34-.15-1.39-.62-1.19-1.55a1.12,1.12,0,0,1,1.21-.84,5.76,5.76,0,0,1,4.9,4.83c1.11,5.17-1.91,8.82-3.46,9.69A4.49,4.49,0,0,1,137.62,120.64Z"/><path class="cls-1" d="M138.48,106.25a4.88,4.88,0,0,1,4,4.11c1,4.67-1.69,7.94-3,8.69a3.73,3.73,0,0,1-1.85.66,2.06,2.06,0,0,1-.48,0,2.3,2.3,0,0,1-1.2-.9,2.08,2.08,0,0,1-.14-1.8,2.45,2.45,0,0,1,1.79-1.25c.95-.21,2.43-1.77,2.91-3.32.29-.93.8-4.41-1.66-5.51-.83-.37-.8-.63-.36-.63m0-1.85h0a2.06,2.06,0,0,0-2.11,1.58c-.13.62-.09,1.78,1.71,2.59,1.19.53.76,2.93.65,3.28a4.2,4.2,0,0,1-1.58,2.06,4.24,4.24,0,0,0-3.05,2.33,3.88,3.88,0,0,0,.28,3.51l0,0v0a4,4,0,0,0,2.37,1.68,4.87,4.87,0,0,0,.84.08,5.21,5.21,0,0,0,2.68-.86l.08,0c1.8-1,5.14-5,3.91-10.69-.82-3.8-3.95-5.57-5.81-5.57Z"/><path class="cls-1" d="M185.31,89.49A110.24,110.24,0,0,0,181,70.73c-.72-2.43-8.1-15.66-14.18-21.3h0a32.15,32.15,0,0,0-10.09-8.65l-.42-.31c-5.35-3.62-11.72-5.41-18-6.88a120.5,120.5,0,0,0-24.75-3.54c-10.46-.22-21.08,1.64-30.39,6.4A47.44,47.44,0,0,0,68.25,48.23h0C62,54.77,54.06,68.3,53.33,70.73A110.24,110.24,0,0,0,49,89.49a28.54,28.54,0,0,0,.63,11.5,14.08,14.08,0,0,0,7.06,8.77c3.5,1.64,8.09,1.15,10.71-1.69,1.41-1.54,3.75-1.93,2.26-3.38,2.18-2.37,4.33-1.71,7.29-1-5-2.22,3.52.75,3.52.75,3,3.13-3.1-12-3.52-6.24-6.57-3.48-12.09-7.52-14.3-14.61a18.71,18.71,0,0,0,8,9.45c.09.13.17.27.26.41-.09-.14-.16-.27-.24-.4a17.75,17.75,0,0,0,2.59,1.27c-1.58-.6-3.44-4.62-4.25-6a39,39,0,0,1-2.45-5.14,33.71,33.71,0,0,1,.13-16.31,36,36,0,0,0,3.43,11.5,19.44,19.44,0,0,1,1.27-16.79,43.36,43.36,0,0,1,1,28.29,90.22,90.22,0,0,0,6-30.76,88.79,88.79,0,0,1,2,20.49A55.4,55.4,0,0,0,82.28,51a117.86,117.86,0,0,1,11.89,18.6,64.71,64.71,0,0,0-4-16.91C99,57.09,104.7,66.32,106.73,76s2.06,15.37-.27,25c3.89-8,4.68-9.35,5.52-18.23,1.1,5.31,1.15,7.87-.52,13,2.27-4.81,3.75-7.5,4.71-12.73l-.32,4.83c4.74-13.33,9.55-27,9.47-41.14,7.42,5.67,8.47,27,8.45,36.34,1.58-5.77,4.74-24.15,2.52-29.71,4.06,4.8,2.81,18.84,3.14,25.11,1.07-3.6,5-15.33,4.55-19.06a72.65,72.65,0,0,0,6.5,12.69,24.52,24.52,0,0,0,10.7,9.15,27,27,0,0,1-11.27-21c1.92,4.45,3.87,9,6.92,12.75a18.83,18.83,0,0,0,10.58,6.93c-.45,2.57,4.26-6,2.68-4,1.27-1.18-3.32,8.6-2.32,7.2a39.24,39.24,0,0,1-2.49,5.24c-.81,1.42-2.67,5.44-4.25,6a18.58,18.58,0,0,0,10.63-10.73,28.89,28.89,0,0,1-13.87,16.72,18.87,18.87,0,0,0,11.46-5.62c-2.26,5-3.59,6.78-8.55,9,3-.76,1.52,1.74,4.14.17-1.49,1.45.66,2.62,2.07,4.16,2.63,2.84,7.21,3.33,10.71,1.69a14,14,0,0,0,7.06-8.77A28.36,28.36,0,0,0,185.31,89.49ZM157.78,65.37l6.39,8.08q-1-5.55-1.93-11.1a16.81,16.81,0,0,0,3.7,6.7c.91,2.76,1.81,5.26,1.73,8.26a18,18,0,0,1-.2,2.06A18.2,18.2,0,0,1,157.78,65.37Z"/><path class="cls-1" d="M83,122.15a20,20,0,0,0,12.67,5.78c7.65.35,13.65-2,17.63-2.39a29,29,0,0,1,11.16.7c4.39,1.14,6.31,1.85,11.41,1.59s8.23-.82,10.66-2.21,3.93-2.4,3.93-2.4a32.67,32.67,0,0,1-11.67,6.44c-2,.57-12.59,1.74-19.06,1.74s-15.25.3-20.76-.62a27.65,27.65,0,0,1-11.37-4C83.41,124.46,83,122.15,83,122.15Z"/><path class="cls-1" d="M116.69,129s-6.51-.77-6.82,1.84-1.73,2.58.31,7,7.09,8.69,7.09,8.69l-23.43,3.7L71.36,134l5.57-13,4.79-5.51,3.82,1.13a3.74,3.74,0,0,0-1.79,3.14c-.22,2.41,5.82,5.95,10.58,7s16.92-.77,16.92-.77Z"/><path class="cls-1" d="M79.37,52.09s-19.43,9.18-18.49,18.3,3.06,22.11,9.77,22.7S83.51,90.75,86,89.67s3.56-2.5,7-2.1,8.62,2.85,11.7,1.09,11.4-2.35,8.78-15.38-8.83-29.36-15.27-29.36S79.37,52.09,79.37,52.09Z"/><path class="cls-1" d="M79.77,103.42l2.87,5.85c.15.31.37.66.71.67s.57-.34.63-.66,0-.67.13-1c.18-.59.77-.94,1.28-1.29s1-.9.89-1.5a1.66,1.66,0,0,0-.39-.71l-3.41-4.52a7.17,7.17,0,0,0-1.58-1.67,2.39,2.39,0,0,0-1.64-.46c-.67.17-.66.65-.68,1.32A8.82,8.82,0,0,0,79.77,103.42Z"/><path class="cls-1" d="M87.6,112a5.19,5.19,0,0,0,2.11,2.64,1.4,1.4,0,0,0,1.09.26,1.22,1.22,0,0,0,.69-1.37c-.06-.58-.34-1.12-.4-1.7s.11-1.29,0-1.92A2.25,2.25,0,0,0,89.62,108C87.21,107.21,87.08,110.42,87.6,112Z"/><path class="cls-2" d="M182.93,134.35c-13,0-22.72-6-26.1-10.08l-.25-.3c-2.45-2.92-4.76-5.69-4.7-10.41.05-3.61,3.29-6.84,3.43-7a10.93,10.93,0,0,1,6.95-2.67,9.51,9.51,0,0,1,2.12.24c2.52.56,5.92,2.87,7.93,7.69,1.5,3.6,9.28,8.7,16.23,9.53a20.73,20.73,0,0,0,2.4.12c2.81,0,16.95-.53,19.54-11.14.73-3,1.64-4.33,2.94-4.33.46,0,1.58.22,2,2.18.79,4-1.47,16.8-15.78,22.74A43.24,43.24,0,0,1,182.93,134.35Z"/><path class="cls-1" d="M162.26,105.15a8.64,8.64,0,0,1,1.85.2c2.46.55,5.36,2.89,7.06,7s9.89,9.41,17.22,10.28a21.4,21.4,0,0,0,2.55.13c6.2,0,18.25-1.89,20.74-12.09.58-2.38,1.23-3.38,1.74-3.38,2,0,1.76,15.88-14.29,22.54a42,42,0,0,1-16.2,3.32c-12.48,0-22-5.85-25.15-9.65-2.47-3-4.72-5.48-4.66-9.89,0-3.14,3.06-6.12,3.06-6.12a9.69,9.69,0,0,1,6.08-2.31m0-2.48h0a12,12,0,0,0-7.77,3l0,0,0,0c-.38.38-3.74,3.8-3.8,7.84-.07,5.18,2.5,8.25,5,11.22l.25.3c3.53,4.23,13.66,10.53,27.05,10.53a44.48,44.48,0,0,0,17.15-3.51C214,126.3,217.71,113.52,216.6,108c-.59-2.94-2.58-3.16-3.18-3.16-2.86,0-3.76,3.69-4.14,5.26-2.38,9.71-15.69,10.21-18.34,10.21a17.22,17.22,0,0,1-2.26-.12c-7-.82-14-5.89-15.23-8.78-1.83-4.39-5.2-7.62-8.8-8.42a10.75,10.75,0,0,0-2.39-.27Z"/><path class="cls-2" d="M52.09,134.35A43.21,43.21,0,0,1,35.52,131c-14.23-5.9-16.47-18.63-15.68-22.6.39-1.95,1.49-2.16,1.95-2.16,1.3,0,2.2,1.33,2.92,4.3,2.58,10.54,16.63,11.08,19.42,11.08a23.18,23.18,0,0,0,2.39-.12c6.9-.83,14.63-5.9,16.12-9.48,2-4.78,5.38-7.09,7.89-7.64a9.33,9.33,0,0,1,2.1-.24,10.93,10.93,0,0,1,6.89,2.63c.16.16,3.38,3.38,3.43,7,.06,4.69-2.24,7.44-4.67,10.35l-.25.29c-3.37,4-13,10-25.94,10Z"/><path class="cls-1" d="M72.63,105.32a9.65,9.65,0,0,1,6.05,2.3s3,3,3,6.08c.06,4.38-2.18,6.9-4.63,9.83-3.15,3.78-12.6,9.59-25,9.59a41.86,41.86,0,0,1-16.1-3.3c-15.94-6.62-16.21-22.4-14.2-22.4.5,0,1.15,1,1.73,3.36,2.48,10.14,14.45,12,20.61,12a23.35,23.35,0,0,0,2.53-.13c7.28-.87,15.43-6.17,17.12-10.22s4.57-6.38,7-6.92a8.59,8.59,0,0,1,1.84-.21m0-2.45a10.56,10.56,0,0,0-2.37.26c-3.58.79-6.93,4-8.75,8.37-1.19,2.86-8.23,7.9-15.14,8.73a19.68,19.68,0,0,1-2.24.11c-2.63,0-15.86-.49-18.22-10.14-.38-1.57-1.28-5.23-4.12-5.24h0c-.6,0-2.58.23-3.16,3.15-1.1,5.53,2.58,18.23,16.41,24a44.36,44.36,0,0,0,17.05,3.48c13.31,0,23.37-6.25,26.88-10.46l.25-.29c2.47-2.95,5-6,5-11.15-.06-4-3.4-7.42-3.78-7.8l0,0,0,0a11.9,11.9,0,0,0-7.72-3Z"/><path class="cls-2" d="M108.28,78.54c.25-12.9-1.07-25.78-2.4-38.62a157.55,157.55,0,0,1,4.8,30.44l-.21-31.44A159.11,159.11,0,0,1,113.22,62c1.68-7.37,1.69-15,1.69-22.56A68.8,68.8,0,0,1,116,54.22l.24-17c0-.68.53-1.64,1.06-1.23l1.08,9.26a28,28,0,0,1,.69-10.43,9.7,9.7,0,0,1,1.44,6.05,44,44,0,0,0-3.66-18.11,23.24,23.24,0,0,1,.59,7.48L113.7,20.7l0,10a18.26,18.26,0,0,1-1.88-10.32,32.62,32.62,0,0,0-1.44,11.9,50.53,50.53,0,0,1,0-11.4A15.19,15.19,0,0,0,107.57,31a9.49,9.49,0,0,1,1.06-9.47,15.16,15.16,0,0,0-4.06,8c-.73-3.15.81-6.34,2.29-9.21a159.34,159.34,0,0,0-14.38,8c-7.24,4.55-14.4,10-18,17.8A65.92,65.92,0,0,1,99.09,28.77,68.84,68.84,0,0,0,80.24,43.5a93.42,93.42,0,0,0,17.45-9.86l-6.23,9.58c.59-.9,2.76-1.73,3.64-2.57a16.45,16.45,0,0,0,4.61-8.3c.32-1.49,0-3.29.45-4.67,1.8,2.38,2.68,6.27,3.54,9.13a88.43,88.43,0,0,1,2.3,9.78A151.66,151.66,0,0,1,108,67C108.14,70.84,108.21,74.69,108.28,78.54Z"/><path class="cls-1" d="M125.58,45.36a27,27,0,0,1,3.41,21l.57-18.62A124.64,124.64,0,0,1,133.31,68l2.26-22.64a48.57,48.57,0,0,0,15,34.15,20.18,20.18,0,0,1-9.23-11.71,37.26,37.26,0,0,1-1.06-6.89l-.85-9.36c3.06,0,5.81,2.15,7.33,4.81A21,21,0,0,1,149,65.13a54.41,54.41,0,0,0,1,9.1l-2-21.16c1.24,4.82,4.09,9.69,8.81,11.25a12.28,12.28,0,0,1,8.09,9.55,39.37,39.37,0,0,0-4.5-16.26,31.23,31.23,0,0,1,11.67,11.68A11.61,11.61,0,0,1,173.88,75c0,3.08-2,5.75-4,8.18a24,24,0,0,1-4.06,4.35,8,8,0,0,1-5.53,1.84c4.11-.79,8.62-1.83,11.09-5.21s2.14-7.72,1.17-11.63a39.05,39.05,0,0,0-16.16-22.92,67.49,67.49,0,0,0-9.64-5.06c-5.12-2.3-10.89-4.48-16.23-2.71-2.5.83-4.92,3-4.71,5.59a79.25,79.25,0,0,1-.82,19.7,16.94,16.94,0,0,0,.85-9.59A50.83,50.83,0,0,0,123,48.27c3.86,7.2-1.54,16.89,2.49,24a63.29,63.29,0,0,1-4.05-25.48,5.08,5.08,0,0,1,1.16-3.58,5.21,5.21,0,0,1,2.77-1.06c5.22-.93,10.49-1.86,15.78-1.58A10.33,10.33,0,0,1,146.58,42a4.41,4.41,0,0,1,1.93,4.91"/><path class="cls-1" d="M148.42,142.64a4.87,4.87,0,0,1,1.7-4,14.35,14.35,0,0,1,3.84-2.3l6.53-3a16.92,16.92,0,0,1,5.87-1.9c2.36-.15,4.64.7,6.91,1.35a44.26,44.26,0,0,0,27.26-1c2.77-1,5.9-2.32,8.53-1s3.38,4.77,2.29,7.4a9.67,9.67,0,0,1-6.38,5.19,28.83,28.83,0,0,1-8.45.75l-22.5-.25c-6.06-.07-12.6-1.08-18.3,1.17C153.08,146.06,148.89,146.52,148.42,142.64Z"/><path class="cls-1" d="M200.25,114.3a4.75,4.75,0,0,0,2.21,3,3.93,3.93,0,0,0,3.69.08C212.17,114.11,199.26,110.1,200.25,114.3Z"/><path class="cls-1" d="M143.75,146.57a14.47,14.47,0,0,0,1.92,10.66,1,1,0,0,0,.58.5c.53.09.77-.62.9-1.15.86-3.52,5.36-5.07,6.53-8.5a5.22,5.22,0,0,0-.86-4.86C149.4,139,144.66,142.33,143.75,146.57Z"/><path class="cls-1" d="M110.14,133.62a6.61,6.61,0,0,0,.16,4l1.34,5.31a9.17,9.17,0,0,1-6.36-5.05,7.3,7.3,0,0,1,1.26-7.85,8.48,8.48,0,0,1,5.11-2.3c1.72-.21,5.08-.45,6.52.58C116.62,131.07,111.5,130.18,110.14,133.62Z"/><path class="cls-2" d="M15.12,178.56a5.11,5.11,0,0,0-.39,5.09c1,2.36,9.46,3.21,12.88,4.39a14.53,14.53,0,0,1,5.9,4c.52.75,1.85,2.87,1.85,2.87a34.87,34.87,0,0,0-3.84-9.05c-2.43-3.6-3.63-5.29-5.95-7.28a13.45,13.45,0,0,0-4.66-3,3,3,0,0,0-2.56.21A8.16,8.16,0,0,0,15.12,178.56Z"/><path class="cls-1" d="M35.36,196.25a1.37,1.37,0,0,1-1.17-.65s-1.32-2.09-1.82-2.82a13.38,13.38,0,0,0-5.21-3.43,42.37,42.37,0,0,0-4.16-1c-5.2-1.12-8.68-2-9.56-4.15a6.63,6.63,0,0,1,.52-6.4,9.76,9.76,0,0,1,3.75-3.23,4.22,4.22,0,0,1,3.36-.37l.16,0a14.91,14.91,0,0,1,5.25,3.26c2.49,2.14,3.76,4,6.19,7.55a36,36,0,0,1,4,9.48,1.37,1.37,0,0,1-.79,1.62A1.33,1.33,0,0,1,35.36,196.25ZM16.2,179.42a3.83,3.83,0,0,0-.19,3.71c.48,1,5.27,2,7.58,2.49a45.48,45.48,0,0,1,4.47,1.11,15.7,15.7,0,0,1,3.38,1.69,16.92,16.92,0,0,0-1.07-1.83c-2.5-3.71-3.57-5.18-5.7-7a12.71,12.71,0,0,0-4.08-2.66l-.19,0A1.58,1.58,0,0,0,19,177a7.06,7.06,0,0,0-2.68,2.25l-.11.16Zm-1.08-.86h0Z"/><path class="cls-2" d="M21.29,169.88a5.69,5.69,0,0,0,.62,5.63c1.54,2.38,11,1.56,15,2.14a10.8,10.8,0,0,1,6,2.62,49.56,49.56,0,0,1,3,4.25s-1.81-6.69-5.2-10.11-5.05-5-8-6.71-4.85-2.24-5.69-2.27a3.33,3.33,0,0,0-2.75.76A9,9,0,0,0,21.29,169.88Z"/><path class="cls-1" d="M45.87,185.91a1.37,1.37,0,0,1-1.17-.64,45.46,45.46,0,0,0-2.77-4A9.42,9.42,0,0,0,36.66,179a47.18,47.18,0,0,0-4.75-.26c-5.87-.15-9.81-.4-11.16-2.49a7.16,7.16,0,0,1-.74-6.94,10.59,10.59,0,0,1,3.37-4.23A4.58,4.58,0,0,1,26.87,164h.18a16.61,16.61,0,0,1,6.33,2.45c3.14,1.82,4.9,3.54,8.27,6.94,3.61,3.64,5.48,10.45,5.56,10.73a1.4,1.4,0,0,1-.79,1.63A1.37,1.37,0,0,1,45.87,185.91ZM22.51,170.53a4.34,4.34,0,0,0,.57,4.23c.65,1,6.22,1.16,8.9,1.23a46.8,46.8,0,0,1,5.09.29,15,15,0,0,1,4.31,1.29,12.91,12.91,0,0,0-1.7-2.19c-3.5-3.54-5-4.91-7.69-6.48a14.31,14.31,0,0,0-5.07-2.09h-.21a1.9,1.9,0,0,0-1.61.48,8.08,8.08,0,0,0-2.51,3.06A1.54,1.54,0,0,1,22.51,170.53Zm-1.22-.65h0Z"/><path class="cls-2" d="M26.29,160.67a6.24,6.24,0,0,0,3.24,5.3c2.63,1.63,7.85-2.42,12.06-3.69,3.61-1.1,6.37-.69,8.62.85.92.62,5.75,5.52,5.75,5.52S54.1,160,48.18,156c-4.36-3-7.92-2.49-11.62-2.8s-5.84.05-6.7.41a3.69,3.69,0,0,0-2.37,2A9.86,9.86,0,0,0,26.29,160.67Z"/><path class="cls-1" d="M56,170a1.35,1.35,0,0,1-1-.42c-2.33-2.36-5-5-5.54-5.35-2-1.38-4.39-1.59-7.44-.67a30.81,30.81,0,0,0-4.31,1.86c-3.34,1.63-6.49,3.17-8.88,1.68a7.67,7.67,0,0,1-3.9-6.42,11.38,11.38,0,0,1,1.35-5.7,4.84,4.84,0,0,1,2.89-2.62l.18-.08c.68-.28,2.75-.89,7.36-.51.67.06,1.33.09,2,.12,3,.13,6.4.29,10.28,2.91,6.31,4.27,8.27,13.15,8.35,13.52A1.4,1.4,0,0,1,56,170Zm-28.29-9.3a4.92,4.92,0,0,0,2.6,4c1.08.67,3.92-.71,6.2-1.83a32.28,32.28,0,0,1,4.72-2c3.86-1.17,7.07-.83,9.81,1a17.33,17.33,0,0,1,1.48,1.3,16.3,16.3,0,0,0-5.07-6.14c-3.23-2.19-6-2.31-8.85-2.44-.71,0-1.41-.07-2.11-.12-3.5-.3-5.46,0-6.06.3l-.22.09a2.18,2.18,0,0,0-1.44,1.29,8.59,8.59,0,0,0-1.06,4.27Z"/><path class="cls-2" d="M227.52,175.25a5.11,5.11,0,0,1,.78,5c-.78,2.43-9.19,3.94-12.5,5.38a14.32,14.32,0,0,0-5.58,4.4c-.46.78-1.62,3-1.62,3a35,35,0,0,1,3.13-9.32c2.14-3.78,3.21-5.56,5.36-7.72a13.58,13.58,0,0,1,4.43-3.32,3,3,0,0,1,2.56,0A8.15,8.15,0,0,1,227.52,175.25Z"/><path class="cls-1" d="M208.6,194.45a1.37,1.37,0,0,1-.45-.07,1.39,1.39,0,0,1-.92-1.56,36.18,36.18,0,0,1,3.29-9.76c2.14-3.77,3.27-5.68,5.59-8a15.07,15.07,0,0,1,5-3.66l.16,0a4.27,4.27,0,0,1,3.38.11,9.65,9.65,0,0,1,4,2.94,6.58,6.58,0,0,1,1,6.33c-.7,2.2-4.1,3.36-9.21,4.88-1.59.48-3.1.92-4.06,1.34a13.35,13.35,0,0,0-4.93,3.82c-.45.77-1.6,3-1.6,3A1.37,1.37,0,0,1,208.6,194.45Zm14.21-20.63a2.1,2.1,0,0,0-.69.15l-.18.06a12.89,12.89,0,0,0-3.86,3c-2,2-2.94,3.53-5.15,7.42a17.76,17.76,0,0,0-.92,1.91,15.81,15.81,0,0,1,3.23-1.94,42.11,42.11,0,0,1,4.38-1.46c2.26-.67,7-2.07,7.36-3.07a3.81,3.81,0,0,0-.46-3.67,1.15,1.15,0,0,1-.14-.17,7.1,7.1,0,0,0-2.84-2A1.87,1.87,0,0,0,222.81,173.82Z"/><path class="cls-2" d="M220.7,167.07a5.7,5.7,0,0,1-.19,5.67c-1.35,2.48-10.83,2.39-14.74,3.28A10.83,10.83,0,0,0,200,179.1a47.91,47.91,0,0,0-2.63,4.47s1.29-6.81,4.4-10.48,4.65-5.4,7.45-7.31,4.66-2.6,5.5-2.71a3.39,3.39,0,0,1,2.8.55A9.05,9.05,0,0,1,220.7,167.07Z"/><path class="cls-1" d="M197.32,185a1.54,1.54,0,0,1-.46-.08,1.38,1.38,0,0,1-.9-1.56c.06-.3,1.39-7.22,4.71-11.13,3.09-3.66,4.72-5.51,7.71-7.56a16.38,16.38,0,0,1,6.12-2.93l.18,0a4.59,4.59,0,0,1,3.56.8,10.59,10.59,0,0,1,3.69,4,7.13,7.13,0,0,1-.2,7c-1.19,2.19-5.1,2.74-10.93,3.35a46,46,0,0,0-4.73.63A9.43,9.43,0,0,0,201,180a44.53,44.53,0,0,0-2.45,4.22A1.39,1.39,0,0,1,197.32,185Zm18.28-20.59a3.86,3.86,0,0,0-.55,0l-.21,0a14.14,14.14,0,0,0-4.89,2.47c-2.59,1.77-3.95,3.26-7.17,7.06a12.73,12.73,0,0,0-1.52,2.32,14.59,14.59,0,0,1,4.2-1.63,49.58,49.58,0,0,1,5-.68c2.66-.28,8.2-.85,8.78-1.91a4.35,4.35,0,0,0,.23-4.27l-.09-.18h0a8,8,0,0,0-2.73-2.86A1.9,1.9,0,0,0,215.6,164.37Z"/><path class="cls-2" d="M215,158.28a6.24,6.24,0,0,1-2.83,5.53c-2.49,1.83-8-1.81-12.3-2.75-3.69-.81-6.41-.19-8.54,1.52-.86.69-5.29,5.95-5.29,5.95s1.18-8.77,6.77-13.23c4.12-3.28,7.7-3.09,11.37-3.68s5.83-.4,6.72-.11a3.64,3.64,0,0,1,2.51,1.84A9.9,9.9,0,0,1,215,158.28Z"/><path class="cls-1" d="M186,169.91a1.36,1.36,0,0,1-.56-.11,1.4,1.4,0,0,1-.82-1.46c.05-.38,1.33-9.37,7.28-14.12,3.67-2.92,7-3.33,10-3.7.66-.08,1.32-.16,2-.27,4.56-.74,6.67-.29,7.37-.06l.19.06a4.87,4.87,0,0,1,3.08,2.39,11.38,11.38,0,0,1,1.79,5.58,7.68,7.68,0,0,1-3.4,6.7c-2.26,1.67-5.52.38-9-1a31.64,31.64,0,0,0-4.44-1.52c-3.11-.68-5.46-.29-7.37,1.25-.47.38-3,3.23-5.1,5.76A1.38,1.38,0,0,1,186,169.91Zm10.81-10.59a15.42,15.42,0,0,1,3.32.39,32.73,32.73,0,0,1,4.86,1.64c2.36.93,5.3,2.1,6.32,1.34a4.91,4.91,0,0,0,2.28-4.24,1.36,1.36,0,0,1,0-.2h0a8.65,8.65,0,0,0-1.39-4.18,2.2,2.2,0,0,0-1.54-1.18l-.22-.07c-.62-.2-2.59-.4-6.06.17-.7.11-1.4.2-2.1.28-2.87.35-5.58.69-8.63,3.12a16.36,16.36,0,0,0-4.59,6.51,18.73,18.73,0,0,1,1.39-1.41A9.86,9.86,0,0,1,196.85,159.32Z"/><path class="cls-2" d="M88.53,165.45a.67.67,0,0,0-.31-.07.79.79,0,0,0-.68.39l-1,1.67a.8.8,0,0,0-.07.64.78.78,0,0,0,.44.48,22.36,22.36,0,0,1,6.21,3.92.83.83,0,0,0,.56.23h0a.79.79,0,0,0,.58-.31l1.24-1.67a.77.77,0,0,0-.1-1.05A27,27,0,0,0,88.53,165.45Z"/><path class="cls-2" d="M85.93,173a20,20,0,0,0-5.61,1c0-.49,0-1,0-1.51,0-.7,0-1.42,0-2.12a26.48,26.48,0,0,0,5-1.09.77.77,0,0,0,.52-.87l-.34-2a.8.8,0,0,0-.38-.55.78.78,0,0,0-.39-.1.87.87,0,0,0-.28.05,19.49,19.49,0,0,1-4,1c0-1,0-2,.08-2.85a1.38,1.38,0,0,0,.81-1.13.78.78,0,0,0-.19-.59.81.81,0,0,0-.55-.27l-2.86-.17h0a.8.8,0,0,0-.79.79v4.57c-1.29.08-2.73.12-4.46.12H70.83a.79.79,0,0,0-.56.23.81.81,0,0,0-.23.57l0,1.92a.79.79,0,0,0,.78.78h1.42c1.72,0,3.21,0,4.6-.14v4.6a21.47,21.47,0,0,0-3.43,1.91c-2.43,1.73-3.88,4-3.88,6.09,0,3,2.35,5.15,5.58,5.15a5,5,0,0,0,5.23-5.29c0-.31,0-1,0-1.83,0-1.14,0-2.66,0-3.88a19.77,19.77,0,0,1,5.6-1.13H86c3,0,5,1.57,5,4.09,0,1.93-1,4-3.8,4a4.71,4.71,0,0,1-3.92-2,.79.79,0,0,0-.62-.3h0a.78.78,0,0,0-.62.38,12.23,12.23,0,0,1-1,1.38.8.8,0,0,0,0,1,7.44,7.44,0,0,0,6.15,3c4.52,0,7.44-2.92,7.44-7.44S91.15,173,85.93,173Zm-9,10c0,1.31-.68,2.08-1.82,2.08a1.84,1.84,0,0,1-2.1-1.91A4.91,4.91,0,0,1,75.22,180c.54-.37,1.09-.72,1.65-1,0,1,0,2,0,2.77C76.89,182.29,76.9,182.76,76.9,183Z"/><path class="cls-2" d="M118.26,184.27a.78.78,0,0,0-.49-.16h-.12a66.5,66.5,0,0,1-9.9.64c-6.81,0-6.81-2.16-6.81-2.87,0-2.82,5.92-6.39,15.15-9.13a1.88,1.88,0,0,0,.66.12,1.25,1.25,0,0,0,.58-.11.78.78,0,0,0,.4-.94l-.74-2.35a.76.76,0,0,0-.39-.47.74.74,0,0,0-.36-.09,1,1,0,0,0-.24,0,83.48,83.48,0,0,0-8.17,3.09,32.74,32.74,0,0,1-.57-7.92,1.41,1.41,0,0,0,.87-1.21.79.79,0,0,0-.72-.85l-3.11-.25h-.07a.82.82,0,0,0-.53.21.79.79,0,0,0-.25.58c0,6,.29,9.14,1.06,11.07-4.88,2.64-7.24,5.37-7.21,8.34,0,4.14,3.56,6.25,10.5,6.25a92.26,92.26,0,0,0,10.24-.52.79.79,0,0,0,.69-.84l-.17-2.07A.82.82,0,0,0,118.26,184.27Z"/><path class="cls-2" d="M134.43,172.07a15.55,15.55,0,0,0-4.23.63c2.21-2.21,5.06-5,6.82-6.54a1.93,1.93,0,0,0,1-.41.79.79,0,0,0,.27-.55.82.82,0,0,0-.2-.58l-1.67-1.84a.8.8,0,0,0-.58-.26.69.69,0,0,0-.37.1l-.36.18c-.89.21-8.72.74-12.39.74a.8.8,0,0,0-.59.27.75.75,0,0,0-.19.61l.28,2.38a.8.8,0,0,0,.78.7.69.69,0,0,0,.2,0,1.84,1.84,0,0,0,.77-.42c1.73-.11,5.23-.32,7.62-.49-4.16,4.17-10.07,10.16-12.21,12.63a.8.8,0,0,0,0,1.08l1.42,1.39a.8.8,0,0,0,.55.22h0a.76.76,0,0,0,.56-.28,29.73,29.73,0,0,1,2.22-2.38,16.43,16.43,0,0,1,9.67-3.77c2.32,0,5.08.71,5.08,4.06s-3.63,4.79-12.14,5.16a.79.79,0,0,0-.65,1.17,7.85,7.85,0,0,1,.6,1.68.78.78,0,0,0,.77.62h0c6.46-.32,15-1.57,15-8.69C142.64,174.9,139.49,172.07,134.43,172.07Z"/><path class="cls-2" d="M167.67,180.8a10.89,10.89,0,0,1-1.14-1.51.77.77,0,0,0-.6-.36h-.06a.78.78,0,0,0-.59.27c-3,3.34-6.28,5.11-9.61,5.11s-4.88-1.84-4.88-5.47c0-3.86.25-10.83.47-14.37a1.44,1.44,0,0,0,.91-1.11.79.79,0,0,0-.16-.61.78.78,0,0,0-.55-.3l-3.09-.25h-.06a.8.8,0,0,0-.79.75c-.2,3.58-.46,12.33-.46,15.87,0,5.88,3.05,9.12,8.58,9.12,4.45,0,8.63-2.08,12.09-6A.79.79,0,0,0,167.67,180.8Z"/><circle class="cls-1" cx="187.5" cy="23.5" r="2.5"/><text class="cls-3" transform="translate(197.03 29.67)"><tspan class="cls-4">O</tspan><tspan class="cls-5" x="11.15" y="0">S</tspan><tspan x="20.09" y="0">S</tspan></text></g></g></svg>