<svg xmlns="http://www.w3.org/2000/svg" viewBox="0 0 244.05 244.05"><title>nihonzaru</title><g id="49a67235-e3a1-4929-8868-b30847745300" data-name="Calque 2"><g id="b11c2c3a-c434-45dc-a441-e60dd5d9d3f6" data-name="Calque 1"><circle cx="122.02" cy="122.02" r="120.02" transform="translate(-17.97 222.92) rotate(-80.78)" fill="#343736"/><path d="M122,4A118,118,0,1,1,4,122,118,118,0,0,1,122,4m0-4A122,122,0,0,0,35.74,208.31,122,122,0,0,0,208.31,35.74,121.22,121.22,0,0,0,122,0Z" fill="#fff"/><polygon points="73.8 56.4 56.02 85.55 52.73 123.5 70.99 159.59 69.76 187.72 85.71 206.22 122.07 216.86 157.15 204.95 182.49 178.99 196.03 116.26 218.91 76.46 152.35 40.73 130.61 35.09 73.8 56.4" fill="#fff"/><path d="M213.88,111.24c6.8-2.9,13.66-5.71,20.5-8.53-2.39-1-3.44-2-6.69-2.45,2.67-1.94,4.47-1.75,7.32-2.86-5.1,0-15.17.37-21.28-2.85A55.17,55.17,0,0,0,224.85,91c-14.38-.63-10.75,1.49-21.13-5.3,3.56-.84,7.88,1.86,11.84,1.44a21.77,21.77,0,0,0-6.16-3c.8-.25,17.52-2.13,17.52-6,0-.5-17.57-5.46-21.33-6.22a73.17,73.17,0,0,0,10-1.51A84.25,84.25,0,0,0,199,69.77c8-5.07,16.94-9.06,24.48-14.21-8.39.49-16.32,3.88-24.7,5.67,3.57-5.42,22.58-12,22.58-17,0,.2-22.05,11.28-24.57,12.67,4.4-5.2,9.31-8.71,14.24-13.31-9.31,2.53-15.73,7.36-25.57,8.37,4.78-3.87,11-5.12,16.14-8.59a55.33,55.33,0,0,0-8.72,2.18c.31-.28,12.11-10.82,11.47-11.34C200,30.67,186.92,36,183,37a87.15,87.15,0,0,0,9.17-9.36c-5.66,3.15-13.81,7.82-18.93,11.67-.67,1.08,14.26-26,7.17-26.76-2.78-.26-12.48,12.74-15.31,14.79.43-1.93,3.57-13.24,2.57-13.38-2.32-.33-10.58,8.08-12.84,10.8,4.45-6.55,5.38-9,11.58-14.09a69,69,0,0,0-14,5.66l3.47-7.3q-1.52,2.47-1.77-.86c-3-.88-14.8,26.26-5.7,2.5a119.9,119.9,0,0,0-7.05,9.89,115.59,115.59,0,0,1,5.45-15.13Q145.53,7,145,4.23C142.67,3.9,138,18.89,138.45,9c-2.9,4.64-11.91,17.53-12.45,6.75-6.36,17.29.49.47-3.45,6.53A46.21,46.21,0,0,0,123,10.69a44.48,44.48,0,0,0-3,11.41,23.75,23.75,0,0,1-2.14-6.31c-.87,4.93-1,13.09-.85,19.34-1.29-7.17-2.53-17.34-6-24.44a53.52,53.52,0,0,0,2.65,18.62c-6.54-7.87-3.69-.08-6.57-13.8A26,26,0,0,0,104.4,25c-.67-.77-2.54-6.22-4.81-5.25-1.68.71-.9,11.24-.89,11.52Q93.89,19.9,89.06,8.59v27.8c-4.24-6.7-4.32-15.76-7.3-23.29a108.62,108.62,0,0,0,2.59,19c-7-2.46-7-5-11.61-10.81,4.1,25.59.21-.71-.86,4.07a6.12,6.12,0,0,1,1.75,5.5c-7.1-4.95-12.86-12.59-16.83-20.33a.9.9,0,0,1-.8.2C56,18.18,66.85,26,68.59,34,68,32.93,58.36,18.67,57.45,18.81c-4.86.81,4.84,12.35,6,14.27-.89-.75-16.69-10.38-16.34-10.49.73-.22,18.36,26.88,19.72,28.83-3.27.84-10.34-8-13.59-9.38a37.2,37.2,0,0,0,8.92,9.39c-11.48-1.71-20.15-10.1-31-14.11,6.08,5,13.76,7.92,19.66,12.93-3.66,1.17-20.95-5.1-20.95-.48,0,.74,32.34,14.84,34.53,16.19-12.09-2.11-23.72-8.31-35.82-9.32,5,3.2,10,11.66,14.52,17.1C35.82,73.78,29.53,70,21.8,71a42.34,42.34,0,0,0,16.54,3.43C30.46,76.22,20.68,77,13.93,79.2A56.26,56.26,0,0,1,24,82.12a99.56,99.56,0,0,0-12.69-1,102,102,0,0,0,19.14,4.63c-5.11-.35-9,.78-12.29,1.11L43.09,97.42c-5,4.12-24.7,1.85-29.17,2.7q1.83,1-2.59.87c5.69,1.54,6.43,2.69,11.43,5-5.2-.33-11.13-.15-16.14,1.38,7.75,2.05,15.45,1.67,22.77,3.6-2.05,1.73-23.21,9.26-23.21,11.86,0,3,27.36,2.11,28.9,4.43-6,6.34-13.8,9.68-24.61,14a50.55,50.55,0,0,0,10.93-.17c-4.95,6-11.68,13.64-15.52,12.42-.74,2.87.11,2.64-1.88,5.24,4.26-.17.07-1,3.29,1.27,4.92-7.93,17-13.2,26.08-18.57-3.2,6.8-5,8.33-11.57,12.69,12.35-1.8-2,.86,4.09,3,2.08.71,15.46-6.67,19.14-7.46-9.5,7.89-13,17.32-23.23,25.07,11.38-3.36,2.43-1.71,2.3,4.37,4-3,8.74-8.56,13.07-10.72-1.89,2-18.73,39.15-16.8,39.85C22.8,209.15,40,188,43.52,185.5c-2.92,3.2-5.21,7-8,10.33,5.43-3.5,11.46-6.17,16.85-9.78a74.58,74.58,0,0,0-11,14.46c6.81-5,12.61-12.27,18-18.58,0,24.11-.77,26.14-16.75,41.77,3.51-1.46,11.57-5,14.67-8.16,2-15.34-2.86,9.11-.94,9.86s15-6.78,17.26-7.94a73.44,73.44,0,0,0-8.66,11c10.47-7.1,17.94-20.84,18.92-.83,16.9-28.57,26.22,10.44,35.53,9.11.32-.05,8.89-11.65,11.94-13.05,7.76-3.58,9.24-.39,20.59-4,9.37-3,9.55,13,12.56-6.29,11.14,8.14,16.23,4.36,18.42-8.8.37.41,9.7,8.84,10.06,8.7,5.49-2.18-2.3-18.56,4.69-8,.18-3.55-1.45-6.91-1.31-10.36,4.69,3.14,4.91,8.45,8.61,12.93A33.18,33.18,0,0,0,202.5,198c2.44,1,4,4.09,5.68,5.91-.07-2,1.18-8.41-.55-14,5.38,2.5,8,7.37,13.28,11.91a80.62,80.62,0,0,0-8.72-13.43c4.7-5.55,10.25-.45,12.66,1.83-5.45-8.72-9.09-14.37-9.43-24.82,5.82.72,9.6-1,15.05.79-2.88-6.39-8.64-9.8-12.33-16a64.56,64.56,0,0,0,8.75,4.41C219.45,147,211.16,143,205,134.63c5.29-1.67,13.23,11.25,16.91,9.94,4.17-1.51-11-10.85-11.53-11.9,4-2.21,14.18,4.28,18.58,6.54-6.78-7.66-11.4-12.52-19.07-18.37a25.29,25.29,0,0,0,11,4.09c-3.31-3.56-12.28-4.36-14.36-7.36a157.72,157.72,0,0,0,25.95-8.1,157.32,157.32,0,0,0-27.32,6C204.45,114.3,213.36,111.52,213.88,111.24Zm11.1-9.95c1.71.38,3.18-.64,4.64,1.14C230.28,102.54,222.06,102.24,225,101.29Zm-2.72-1.23c3,3.07-4,1.34-6.32,1.35ZM40.17,84.86C36.31,84.18,32,83.43,28,82.75,31.52,82,38.11,84.43,40.17,84.86Zm-7.55,86.55c-.27.36-5.2,5.94-6.52,6.34.07-.07,0-.08-.11,0C25.16,179.08,35.78,167.18,32.62,171.41Zm121.43-153,4.83-2.65c-5.2,5.65-8.38,15.49-15.13,19C145.32,29.19,148.87,21,154.05,18.36ZM149,17.11c1.35-2.5,2.73-5.89,4.8-8,.36,1.31-2.63,5.22-3.33,6.53l2.45-2.46C147.34,20.1,149.36,17.59,149,17.11ZM127.32,28.72c.82-3.27,2.6-7.11,5.12-9.44C132.52,23.42,125.46,36.43,127.32,28.72Zm48.64,85a25.8,25.8,0,0,1-6.59,6.71c10.31,3.53,8,22.07-4,19.16l5.16-7.47c-3.19,1.68-14.84,6-16.2,8.51-4.48,8.41,3.3-1.66.19,10.51-2.71,10.61,3.39,21-9.74,27.22,19.14,10.61-37.42,31.81-53.43,12.4-11.32-13.73,1.71-7.53,2-16.31.34-12.88-9.7-18.09,1.36-30.76-22.2,26.05-47.25-45.56-14-66.33H74.06c3.42-3.47,6.92-8,10.85-10.88-3.11,2.66-5.77,6.19-8.6,9.16,3.93-1.17,8.23-1.78,12-3.28l-3.72,3.28c4.06-2.08,8.94-2.84,13.17-4.58-2.62,3.51-4.11,8-6.88,11.34l18.33-12.2V77.4c3.69-2.73,9.38-2.73,13.17-5.34l2.29,7.06c1-3.9,3.19-5,3.34-10.67,1.7,6.51,3.23,8,9.58,7.85,12.66-.37,1.23-7.7,19.42.06C168.14,81.09,185,100.2,176,113.76ZM200.73,92c-1.31.74-4.43-.59-2-2C200,89.25,203.14,90.57,200.73,92Z" fill="#343736"/><path d="M93.23,91.19s17.24,2.43,19.43,3.25,0,7.72,0,7.72.32-1.8-5.32-4-16.61-.44-20.06.85l-8.46,3.18-2.1-.94-7-3.09L81.32,105H64.09L81,107.8l4.7-2.51s2.82,5.95,7.21,6.89,11.28,1.57,15.67,0a73.26,73.26,0,0,0,7.52-3.13s0,5.33-1.57,7.84-13.79,13.17-13.79,13.17L90.1,118.77s7.21,1.56,11.91.31a60.18,60.18,0,0,0,8.21-2.82s-12,.63-16.67,0-8.78-5.64-8.78-5.64l-1.88,1.88,2.82,10-5.95-2.06L90.1,135.69s-8.78.64-12.54-5.63-6.21-16-7.8-16.61-1.91,8.45-1.91,8.45l9.71,15.44,8.15,4.1,6.9,2.37s.94,1-2.51,6.47-7,9.57-4.43,15.51-.9,2.81,2.55-1.27,5.64-13.16,9.71-14.73,10-3.86,10-3.86,4.08-9.61,8.15-10.55,8.46-.32,11.44,0,6.12,5.25,6.11,6.54a44.37,44.37,0,0,0,1.57,6.31l10.19,6.58s-12.38-19.11-11.76-21,11.76,1.56,11.76,1.56-12.85-11.33-14.81-14.91-4.79-8.91-3.06-10.48,2.36-.94,6.11.94,13.53,3.76,15.23,3.45,12.35-3.76,12.35-3.76-12.52,1.56-15.82,1.25-14.81-4.39-14.81-4.39,5.56-5.33,5.56-7.52,1.25-9.71,6-8.77,15,3.66,19.12,6.21,12.54,3.74,12.85,1.58-6-9.36-10-9.36-14.4-4.7-18.64-4.7-12.08,5.33-17.87,4.7-14.57-3.13-19-2.82-14.1-4.39-19.74-1.88S68.16,93.3,66.59,94.44s-8.77,8.66-6.89,9S71,102.16,71,102.16s-7.22-3.89-2.83-5.55S93.23,91.19,93.23,91.19Z" fill="#343736"/><path d="M110.94,147.6s.63,1.88,3.6,2.19a13.75,13.75,0,0,1,4.71,1.26s2,3.29,2,4.86.79,15.67.79,15.67-1.93-14-2.22-15.2-3.74-2.2-5.78-3.3S110.94,147.6,110.94,147.6Z" fill="#343736"/><path d="M134,147.6s-.63,1.88-3.61,2.19a13.64,13.64,0,0,0-4.7,1.26s-2,3.29-2,4.86-.78,15.67-.78,15.67,1.92-14,2.22-15.2,3.73-2.2,5.77-3.3S134,147.6,134,147.6Z" fill="#343736"/><path d="M113.61,97.47s-3.45-3.78-7.06-5.19-17.7,1.43-19.43,2.6-5.64,4.93-4.23,6.65-2.51,5.17-2.51,5.17-7.52.78-8.15,3.29-1.6,4.42.94,10.48-2.34,6.16-2.34,6.16-3.77-3.63-7.21-12.25S57,104.5,62.05,100s13.79-8.77,18.65-9.71,18.8-.32,19.9-.63,11.14,1.25,13,2.35,3.91,3.92,2.89,4.86A4,4,0,0,1,113.61,97.47Z" fill="#343736"/><path d="M72.22,93.36s-4.29,15.82,1.39,6.48,9.75-11.63,9.75-11.63S97.23,84,97.93,86.8s-4.27-10.47-4.27-10.47l2.75,2.46,6.88-9.64,4.34,9.39,8.29-10.33s36.79-3,37.14-6.8-40.24-19.22-40.24-19.22L69.76,54.36,47.16,93.41,48,122.77,72.22,154.5l10.44,12.69s12.45-14.11,13.63-18.57-2-7.18-8.19-9.23-17-9.81-19.31-22a24.11,24.11,0,0,1,4.7-20Z" fill="#343736"/><path d="M11,149.62C25.35,137.9,39.09,113,59.39,114.53L56,117.22l3.41-.68-2.19,3.13,4.26-.44a14.55,14.55,0,0,0-3.17,7.16,4.27,4.27,0,0,0,5.76-1l-4.66,9.78L64.09,132l-1.65,7.89c.86-1.62,2-2.22,3.53-1.79-3.2,6.11,4.25,8.41,3.79,9.59a6.77,6.77,0,0,1,2.46-6.23,21.74,21.74,0,0,1-2.46,8.2l4.9-2.93L72.22,152l3.85-2.34-1.17,4.13,3.29-4.13v5c3.16-1.52,6.73-3.79,9.91-5L82,156.41c3.17-2.54,7-4.45,10.27-6.79A26.45,26.45,0,0,0,85.9,164.9c-.23,4.29,3.51,7.85,3.34,11.95-.17,4.26-8.6,9.08-8.62,10.42-.15,14.83,36.9,21.46,10.11,33.49,1.62-3.88,2.18-8.26,3.91-12.1q-4,4-7.75,8.29c1.24-1.65-2.75-9.26,1.21-11-6.85,3-13.37,4.62-19.55,9.86,3-5.78,4.32-11.12,8.23-16.36C65,203.46,58.22,213.42,56,225.25c.21-2.22-1.64-17.59.23-18.15-2.1.63-9.08,10.71-10.35,12.77,3-6.55,6.62-19.39,12.31-24.21-3.08,2.61-6.37,5.39-9.17,8.29a132.27,132.27,0,0,0,9.17-22.81c-5.92,3.21-12.82,5.52-18.33,9.37C45.4,186.83,54,182,57.5,176.16c1.1-1.82-21.63,14.36-26.09,18.61,2.17-3.63,3.86-7.57,6.11-11.14L21.3,204.18c4.56-21,18.45-37.67,36.91-48.41-18.57,1.41-24.64,20.51-45.45,21.38C30.19,169.8,38.33,154.63,54,146.69a33.8,33.8,0,0,0-18.51,12.07c2.88-9.35,11.22-15.32,20.55-17.34C41.43,141,34.76,154,21.3,156.44c11.08-8,19.13-20.53,31.79-25.7a59.06,59.06,0,0,0-24.5,14.6,116.94,116.94,0,0,1,26.09-18.49C38.21,127.13,25.33,142.46,11,149.62Z" fill="#fff"/><path d="M102.64,201a30.23,30.23,0,0,1,8.3,20.26l2-10.13c3.54,4.61,8.48,9,11.28,14.08-4.24-4.69-7.23-11-10.81-16.22,4.31,3.82,6,3.25,10.81,10.58,1.86-3.68,5.09-7,6.58-10.82-3.37,8.31-3.18,17.15,2,24.22l3.92-7.76,1.41,7.76,7.52-9.17c.34,10.1,2.47,8.38,6.35,16-.92-1.77-5.55-19.69-4-19.39,6.52,1.25,15,11.56,18.57,16.1-2.62-5-4.51-10.36-7.29-15.23,1.3,2.1,8.56,13.82,11.05,13.82.61,0-2.94-12.87-3.29-13.82,3.27,5.89,7.19,9.84,11.28,14.76-2.66-5.76-4.44-12-7.28-17.63,2.49,4.55,6.17,8.53,8.93,12.93-.37-1.29-.4-18.07,0-17.63,4.91,5.52,9.59,11.26,14.34,16.92-3.67-7.52-9.39-16.49-11-24.8.87,4.45,10,13.4,12.66,18.22-1.75-4.81-2.53-10-4.23-14.81,3.43,5.54,7.87,10.44,11.28,16-3.42-12.34-7-24.32-8-37.14l12.31,23.5c-2.2-6.06-3.13-12.63-5-18.8l18.8,18.57-13.78-20.92,4.59,2.11c-8.75-11.56-17-27.8-31-33,18,1.46,28.27,20.34,36.71,34.39-2.85-7.73-5.43-15.57-7.65-23.5,3.34,6.23,7.72,11.91,11.13,18.1-1.95-18.33-12.81-31.25-26.56-42.65,12.57,6.29,17.73,16.92,27.74,25.65-5.3-9.94-9.33-20.07-18.34-27.27,9.72,8,19.64,15.43,27.75,25.11L215.5,150a85,85,0,0,0,24.55,9.56c-14.44-17.52-35-28.49-53.73-40.82,18.72-2.79,33.2,10.77,47.57,20.62-13.51-13.15-25-21.88-41.93-30.26,14.38,0,28.59,1.74,41.93-4.7-11.94,0-32.07,4.22-40.52-4.47a234.58,234.58,0,0,0,35.86,0L200.65,95l26.83,1.57L185.61,86.8c11.15-7.15,22.22-5.19,35-5.07-12.41-1.11-24.82-1.55-36.9-4.57l33.89-3.52c-14.37,0-30.42,2.62-43.52-2.59,13.12-1.85,26.24-2.61,38.34-8.46l-33.18,4.88c10.92-4,22.79-5.4,28.06-16.87L188.67,61.41c3.89-3.6,7-8.08,10.81-11.75-13.37,7-29.95,17.15-45.15,11.75C158,46.85,176.17,50.8,189.14,47.07c-4.13-.7-8.09-2.43-12.23-3L188,42.37l-4.47-2.11,20.22-10.34-21.22,8L203.94,21.7,176,38.85l2.33-7.22a57.37,57.37,0,0,0-15.69,5.57L168,41.43c-9.6,2.47-16.1,4.23-17.39,9.64l-8.23-4c9.8-6.92,17.27-17.14,22.57-27.8l-16,17c2.11-4.32,3.3-9.09,5.44-13.4-4.15,5.73-9.74,10.41-14.09,16,1-6.44.92-13.23,2.35-19.58-.07,4.51-2.92,10-4,14.41a32.17,32.17,0,0,1-16.53-14.41l2.43,10.41c-4.24-2.22-9.54-3-13.56-5.62,4.17,3.51,7.11,8.51,11.13,12.2-12-2.71-24.14-3.42-36.12,0,4.14,1.46,7.82,4.25,12,5.64-4-.1-8,.86-12,.71,4.54,1.07,8.69,4,13.16,5.4-6,2.06-11.7,5.88-17.86,7.53,6.07-.33,12.25,1.07,18.33.7-6.17,2.14-12.1,5.11-18.33,7,6.72-1.23,13.52-2.13,20.22-3.52-10.7,2.51-19.73,2.18-25,10.51,4.93-2,10.94-2.79,15.58-5.34l-9.29,6c4.68-2.43,9.72-4.17,14.46-6.47-3.16,2.44-6,5.34-9.13,7.76,3.88-2.34,8.24-3.89,12.18-6.12-3.26,3.58-6.11,7.66-9.55,11.06C96.45,70.9,103,64.69,110.94,62.82L106.87,72c3-2.93,6.69-5.23,9.63-8.23l-5.56,9.17c3.72-4.07,8.14-7.5,11.91-11.52-1.86,3.77-3.9,7.71-6.1,11.29,2.8-4.56,3.49-11.64,5.32-16.69-8.89-.42-15.56-5-18-13.87,3.94,3.61,8.78,6.25,12.73,9.87-2.35-3.22-3.66-7.24-5.84-10.58,4.19,2.65,9.73,3.17,14,5.64l-2.12-8.46L128.41,44,134,36.26l-1.26,10.58L138.36,44c-4.62,2.77-5,6.2-10.81,8.46.68.63,7.63,6.58,8,6.58a42.6,42.6,0,0,0-8,2.35c8.53,6.56,16.14.91,23.27-5.4l-5.4,7.05c10.9,8.45,24.57,14.2,31.11,27,5.45,10.63,10.25,51.37-2.43,51.88l1.17,5.68-3.89-4.74,1.07,8.34L168,145.93l.71,6.21-6.08-4.54v3.6c-3.45-3.41-8.17-6.24-11.55-9.76a178.53,178.53,0,0,1,10.57,23.16l-4.48-5c1.58,10,.83,16-5.9,21.47,8.92-5.81,15.9-3.92,22.85,4.46-.92-1.12-3.9,3.25-5.18,4-4.17-8.35-11.74-9.61-19.94-6.9,9.45,7.36,22.28,9.1,27.23,20.53-8.15-3.56-13-9.92-21.88-12.93,5.36,4.76,9.37,10.26,15.3,14.58-7.36-.54-13.45-4.32-18-10.17,6.06,6.35,12,12.89,12.4,21.92-8.55-2.76-12.18-10.49-15.1-19l-2.84,5.36c-4.92-1.14-9.91-.25-16.62.23-4.63.33-4.1,2.51-12.65,1.41C108.76,203.53,111.08,204.68,102.64,201Z" fill="#fff"/><path d="M132.72,101.84s6.58-3.76,9.64-3.64,9.6-.2,12,.78,5.19,2.39,6.6,2.86,11,1.41,11,1.41l-7.29,1.44,4.7,2.32-6.78,1.1-4.35-1.33s-1.79.7-5.2,2.35-8.82.7-11.64,0a58.11,58.11,0,0,0-8.7-.91s3.06-2.8,3.29-3.53S132.72,101.84,132.72,101.84Z" fill="#343736"/><path d="M130.61,179l-8.54,1.07s-1.33-.2-3.22-.44a33.89,33.89,0,0,0,1-6.56c-.06-2.58-.06-11-2.17-13.47s-6-4.86-7.46-6-2.18-4-2.18-4-8,3.05-9.87,4.7-6.43,8.23-7.44,10.34-1.86,7.66-1.49,8.7a30.81,30.81,0,0,1,0,5.88c-1.83.51-6.56,2.09-7.4,5-1.06,3.65,3.44,13.05,10.23,17.29a54.16,54.16,0,0,0,14.58,6s10.08.16,10.11-1.4,5.47-7.2,5.32-11.43-2.22-10.47-2.22-10.47-7.11,3.42-11.1,2.71c-3.8-.67-15.87-2.19-14-3.35,4.81.44,13.06,1,19.51.33a97.19,97.19,0,0,1,19.44,0c3.44.24,15.31-1.27,15.31-1.27Z" fill="#343736"/></g></g></svg>