<svg xmlns="http://www.w3.org/2000/svg" viewBox="0 0 256 256"><g fill="none"><path d="M98 0H0v256h256V0h-98c0 16.569-13.431 30-30 30-16.569 0-30-13.431-30-30z" fill="#007ACC"/><path d="M100.35 117.107h2.025l52.506 115.818h-24.818l-5.402-13H78.063l-5.402 13H49.869l50.481-115.818zm15.87 83.065l-8.274-19.922c-.9-2.251-1.744-4.502-2.532-6.753a225.342 225.342 0 0 1-2.195-6.585 254.17 254.17 0 0 1-2.195-7.26 237.07 237.07 0 0 1-2.194 7.43 3365.85 3365.85 0 0 1-2.195 6.921c-.788 2.364-1.576 4.446-2.364 6.247l-8.273 19.922h30.222zm79.306 34.273c-5.515 0-10.524-.619-15.026-1.857-4.502-1.239-8.554-2.927-12.156-5.065-3.601-2.139-6.753-4.671-9.454-7.598-2.589-3.039-4.727-6.246-6.416-9.623l19.247-11.143c2.589 4.165 5.628 7.598 9.117 10.299 3.601 2.701 8.328 4.052 14.181 4.052 4.953 0 8.836-1.07 11.65-3.208 2.927-2.251 4.39-5.065 4.39-8.442 0-4.051-1.52-7.09-4.56-9.116-3.039-2.027-7.259-4.222-12.661-6.585l-5.91-2.532c-4.277-1.801-8.16-3.771-11.649-5.91-3.49-2.138-6.472-4.614-8.948-7.428-2.476-2.813-4.39-6.021-5.74-9.623-1.35-3.602-2.026-7.823-2.026-12.663 0-4.39.788-8.497 2.364-12.324 1.688-3.827 3.995-7.147 6.922-9.961 3.039-2.813 6.697-5.008 10.974-6.585 4.277-1.575 9.06-2.363 14.35-2.363 7.541 0 14.013 1.463 19.416 4.39 5.515 2.813 10.242 7.653 14.182 14.519l-18.403 11.818c-2.026-3.602-4.22-6.19-6.584-7.766-2.364-1.576-5.234-2.364-8.61-2.364-3.49 0-6.247.957-8.273 2.87-2.027 1.913-3.04 4.333-3.04 7.26 0 3.602 1.126 6.36 3.377 8.273 2.364 1.8 6.078 3.827 11.143 6.078l5.91 2.532c5.064 2.139 9.51 4.39 13.337 6.753 3.94 2.251 7.203 4.84 9.792 7.766 2.701 2.814 4.727 6.078 6.078 9.793 1.463 3.601 2.195 7.878 2.195 12.83 0 5.29-1.013 10.018-3.04 14.183a28.948 28.948 0 0 1-8.103 10.298c-3.49 2.814-7.654 4.953-12.494 6.416-4.727 1.35-9.904 2.026-15.532 2.026z" fill="#FFF"/></g></svg>