<?xml version="1.0" encoding="UTF-8" standalone="no"?>
<!DOCTYPE svg PUBLIC "-//W3C//DTD SVG 1.1//EN"
 "http://www.w3.org/Graphics/SVG/1.1/DTD/svg11.dtd">
<!-- Generated by graphviz version 2.40.1 (20161225.0304)
 -->
<!-- Title: basicsetup Pages: 1 -->
<svg width="668pt" height="264pt"
 viewBox="0.00 0.00 667.62 264.05" xmlns="http://www.w3.org/2000/svg" xmlns:xlink="http://www.w3.org/1999/xlink">
<g id="graph0" class="graph" transform="scale(1 1) rotate(0) translate(4 260.0455)">
<title>basicsetup</title>
<polygon fill="#ffffff" stroke="transparent" points="-4,4 -4,-260.0455 663.6229,-260.0455 663.6229,4 -4,4"/>
<!-- app&#45;instance&#45;1 -->
<g id="node1" class="node">
<title>app&#45;instance&#45;1</title>
<ellipse fill="#d3d3d3" stroke="#000000" cx="464.6361" cy="-72" rx="62.3234" ry="18"/>
<text text-anchor="middle" x="464.6361" y="-67.8" font-family="Times,serif" font-size="14.00" fill="#000000">app&#45;instance&#45;1</text>
</g>
<!-- pg&#45;prod -->
<g id="node2" class="node">
<title>pg&#45;prod</title>
<ellipse fill="#008bb9" stroke="#008bb9" cx="611.2103" cy="-118" rx="38.211" ry="18"/>
<text text-anchor="middle" x="611.2103" y="-113.8" font-family="Times,serif" font-size="14.00" fill="#ffffff">pg&#45;prod</text>
</g>
<!-- app&#45;instance&#45;1&#45;&gt;pg&#45;prod -->
<g id="edge1" class="edge">
<title>app&#45;instance&#45;1&#45;&gt;pg&#45;prod</title>
<path fill="none" stroke="#000000" d="M507.0314,-85.3051C526.7048,-91.4793 550.0136,-98.7944 569.59,-104.9381"/>
<polygon fill="#000000" stroke="#000000" points="568.568,-108.2856 579.1572,-107.9406 570.6641,-101.6068 568.568,-108.2856"/>
</g>
<!-- app&#45;instance&#45;2 -->
<g id="node3" class="node">
<title>app&#45;instance&#45;2</title>
<ellipse fill="#d3d3d3" stroke="#000000" cx="464.6361" cy="-164" rx="62.3234" ry="18"/>
<text text-anchor="middle" x="464.6361" y="-159.8" font-family="Times,serif" font-size="14.00" fill="#000000">app&#45;instance&#45;2</text>
</g>
<!-- app&#45;instance&#45;2&#45;&gt;pg&#45;prod -->
<g id="edge2" class="edge">
<title>app&#45;instance&#45;2&#45;&gt;pg&#45;prod</title>
<path fill="none" stroke="#000000" d="M507.0314,-150.6949C526.7048,-144.5207 550.0136,-137.2056 569.59,-131.0619"/>
<polygon fill="#000000" stroke="#000000" points="570.6641,-134.3932 579.1572,-128.0594 568.568,-127.7144 570.6641,-134.3932"/>
</g>
<!-- nginx&#45;otoroshi -->
<g id="node4" class="node">
<title>nginx&#45;otoroshi</title>
<ellipse fill="#c45858" stroke="#c45858" cx="175.3697" cy="-141" rx="62.3667" ry="18"/>
<text text-anchor="middle" x="175.3697" y="-136.8" font-family="Times,serif" font-size="14.00" fill="#ffffff">nginx&#45;otoroshi</text>
</g>
<!-- otoroshi&#45;1 -->
<g id="node5" class="node">
<title>otoroshi&#45;1</title>
<ellipse fill="#f9b000" stroke="#f9b000" cx="320.0137" cy="-168" rx="46.4218" ry="18"/>
<text text-anchor="middle" x="320.0137" y="-163.8" font-family="Times,serif" font-size="14.00" fill="#000000">otoroshi&#45;1</text>
</g>
<!-- nginx&#45;otoroshi&#45;&gt;otoroshi&#45;1 -->
<g id="edge3" class="edge">
<title>nginx&#45;otoroshi&#45;&gt;otoroshi&#45;1</title>
<path fill="none" stroke="#000000" d="M227.9987,-150.824C241.0011,-153.2511 254.9228,-155.8498 267.9005,-158.2723"/>
<polygon fill="#000000" stroke="#000000" points="267.598,-161.7762 278.0704,-160.1707 268.8825,-154.895 267.598,-161.7762"/>
</g>
<!-- otoroshi&#45;2 -->
<g id="node6" class="node">
<title>otoroshi&#45;2</title>
<ellipse fill="#f9b000" stroke="#f9b000" cx="320.0137" cy="-114" rx="46.4218" ry="18"/>
<text text-anchor="middle" x="320.0137" y="-109.8" font-family="Times,serif" font-size="14.00" fill="#000000">otoroshi&#45;2</text>
</g>
<!-- nginx&#45;otoroshi&#45;&gt;otoroshi&#45;2 -->
<g id="edge4" class="edge">
<title>nginx&#45;otoroshi&#45;&gt;otoroshi&#45;2</title>
<path fill="none" stroke="#000000" d="M227.9987,-131.176C241.0011,-128.7489 254.9228,-126.1502 267.9005,-123.7277"/>
<polygon fill="#000000" stroke="#000000" points="268.8825,-127.105 278.0704,-121.8293 267.598,-120.2238 268.8825,-127.105"/>
</g>
<!-- otoroshi&#45;1&#45;&gt;app&#45;instance&#45;1 -->
<g id="edge7" class="edge">
<title>otoroshi&#45;1&#45;&gt;app&#45;instance&#45;1</title>
<path fill="none" stroke="#000000" d="M346.7865,-152.9691C353.2952,-149.1707 360.1894,-145.0247 366.4746,-141 389.2936,-126.3879 414.2668,-108.8105 433.3136,-95.0538"/>
<polygon fill="#000000" stroke="#000000" points="435.5812,-97.7327 441.6187,-89.0264 431.4697,-92.0674 435.5812,-97.7327"/>
</g>
<!-- otoroshi&#45;1&#45;&gt;app&#45;instance&#45;2 -->
<g id="edge8" class="edge">
<title>otoroshi&#45;1&#45;&gt;app&#45;instance&#45;2</title>
<path fill="none" stroke="#000000" d="M366.5692,-166.7124C374.8188,-166.4842 383.5829,-166.2418 392.3466,-165.9994"/>
<polygon fill="#000000" stroke="#000000" points="392.7039,-169.491 402.6033,-165.7157 392.5103,-162.4936 392.7039,-169.491"/>
</g>
<!-- elastic -->
<g id="node7" class="node">
<title>elastic</title>
<ellipse fill="#d3d3d3" stroke="#000000" cx="611.2103" cy="-218" rx="32.8908" ry="18"/>
<text text-anchor="middle" x="611.2103" y="-213.8" font-family="Times,serif" font-size="14.00" fill="#000000">elastic</text>
</g>
<!-- otoroshi&#45;1&#45;&gt;elastic -->
<g id="edge5" class="edge">
<title>otoroshi&#45;1&#45;&gt;elastic</title>
<path fill="none" stroke="#000000" d="M332.2074,-185.4368C346.5339,-204.2376 372.2264,-233.0731 402.4746,-245 460.3451,-267.8183 533.5555,-248.3484 576.1123,-232.7427"/>
<polygon fill="#000000" stroke="#000000" points="577.3702,-236.0089 585.4774,-229.188 574.8862,-229.4645 577.3702,-236.0089"/>
</g>
<!-- kibana -->
<g id="node8" class="node">
<title>kibana</title>
<ellipse fill="#d3d3d3" stroke="#000000" cx="464.6361" cy="-218" rx="33.8596" ry="18"/>
<text text-anchor="middle" x="464.6361" y="-213.8" font-family="Times,serif" font-size="14.00" fill="#000000">kibana</text>
</g>
<!-- otoroshi&#45;1&#45;&gt;kibana -->
<g id="edge6" class="edge">
<title>otoroshi&#45;1&#45;&gt;kibana</title>
<path fill="none" stroke="#000000" d="M355.0228,-180.1036C376.6259,-187.5724 404.3458,-197.156 426.5044,-204.8168"/>
<polygon fill="#000000" stroke="#000000" points="425.6573,-208.2272 436.2521,-208.1869 427.9446,-201.6114 425.6573,-208.2272"/>
</g>
<!-- redis&#45;master -->
<g id="node9" class="node">
<title>redis&#45;master</title>
<ellipse fill="#ff0000" stroke="#ff0000" cx="464.6361" cy="-18" rx="53.6299" ry="18"/>
<text text-anchor="middle" x="464.6361" y="-13.8" font-family="Times,serif" font-size="14.00" fill="#ffffff">redis&#45;master</text>
</g>
<!-- otoroshi&#45;1&#45;&gt;redis&#45;master -->
<g id="edge16" class="edge">
<title>otoroshi&#45;1&#45;&gt;redis&#45;master</title>
<path fill="none" stroke="#000000" d="M350.7976,-154.1575C356.5675,-150.5111 362.1393,-146.1307 366.4746,-141 395.8849,-106.1937 371.0851,-78.0325 402.4746,-45 406.1294,-41.1539 410.4254,-37.8249 415.0233,-34.9504"/>
<polygon fill="#000000" stroke="#000000" points="417.0501,-37.8315 424.1482,-29.9659 413.6943,-31.6882 417.0501,-37.8315"/>
</g>
<!-- otoroshi&#45;2&#45;&gt;app&#45;instance&#45;1 -->
<g id="edge12" class="edge">
<title>otoroshi&#45;2&#45;&gt;app&#45;instance&#45;1</title>
<path fill="none" stroke="#000000" d="M357.2576,-103.184C373.5698,-98.4467 393.0233,-92.7972 410.8627,-87.6164"/>
<polygon fill="#000000" stroke="#000000" points="411.9501,-90.9453 420.5772,-84.7952 409.9978,-84.223 411.9501,-90.9453"/>
</g>
<!-- otoroshi&#45;2&#45;&gt;app&#45;instance&#45;2 -->
<g id="edge13" class="edge">
<title>otoroshi&#45;2&#45;&gt;app&#45;instance&#45;2</title>
<path fill="none" stroke="#000000" d="M355.0228,-126.1036C373.0548,-132.3378 395.3484,-140.0453 415.1124,-146.8783"/>
<polygon fill="#000000" stroke="#000000" points="413.987,-150.1924 424.5817,-150.1521 416.2743,-143.5766 413.987,-150.1924"/>
</g>
<!-- otoroshi&#45;2&#45;&gt;elastic -->
<g id="edge10" class="edge">
<title>otoroshi&#45;2&#45;&gt;elastic</title>
<path fill="none" stroke="#000000" d="M365.8257,-110.8727C409.2975,-109.7553 475.4349,-112.9592 526.7976,-137 553.718,-149.6004 577.4452,-174.2646 592.8327,-193.0822"/>
<polygon fill="#000000" stroke="#000000" points="590.1468,-195.3283 599.0994,-200.9941 595.6341,-190.982 590.1468,-195.3283"/>
</g>
<!-- otoroshi&#45;2&#45;&gt;kibana -->
<g id="edge11" class="edge">
<title>otoroshi&#45;2&#45;&gt;kibana</title>
<path fill="none" stroke="#000000" d="M348.8317,-128.2097C354.994,-131.9223 361.2225,-136.237 366.4746,-141 386.7587,-159.3952 381.1526,-173.8187 402.4746,-191 409.464,-196.6321 417.808,-201.3051 426.0785,-205.0906"/>
<polygon fill="#000000" stroke="#000000" points="424.7352,-208.3226 435.3089,-208.9913 427.46,-201.8747 424.7352,-208.3226"/>
</g>
<!-- otoroshi&#45;2&#45;&gt;redis&#45;master -->
<g id="edge17" class="edge">
<title>otoroshi&#45;2&#45;&gt;redis&#45;master</title>
<path fill="none" stroke="#000000" d="M337.206,-97.0613C353.1436,-82.0068 378.0162,-60.1055 402.4746,-45 407.7959,-41.7136 413.5874,-38.6278 419.4245,-35.8011"/>
<polygon fill="#000000" stroke="#000000" points="420.9591,-38.9477 428.5735,-31.5808 418.027,-32.5914 420.9591,-38.9477"/>
</g>
<!-- kibana&#45;&gt;elastic -->
<g id="edge15" class="edge">
<title>kibana&#45;&gt;elastic</title>
<path fill="none" stroke="#000000" d="M498.6316,-218C519.3656,-218 546.0567,-218 568.2455,-218"/>
<polygon fill="#000000" stroke="#000000" points="568.4075,-221.5001 578.4074,-218 568.4074,-214.5001 568.4075,-221.5001"/>
</g>
<!-- redis&#45;slave -->
<g id="node10" class="node">
<title>redis&#45;slave</title>
<ellipse fill="#ff0000" stroke="#ff0000" cx="611.2103" cy="-18" rx="48.3255" ry="18"/>
<text text-anchor="middle" x="611.2103" y="-13.8" font-family="Times,serif" font-size="14.00" fill="#ffffff">redis&#45;slave</text>
</g>
<!-- redis&#45;master&#45;&gt;redis&#45;slave -->
<g id="edge18" class="edge">
<title>redis&#45;master&#45;&gt;redis&#45;slave</title>
<path fill="none" stroke="#000000" d="M518.7985,-18C529.7873,-18 541.3929,-18 552.5296,-18"/>
<polygon fill="#000000" stroke="#000000" points="552.5941,-21.5001 562.5941,-18 552.594,-14.5001 552.5941,-21.5001"/>
</g>
<!-- browser -->
<g id="node11" class="node">
<title>browser</title>
<ellipse fill="#57bf57" stroke="#57bf57" cx="38.5933" cy="-141" rx="38.6869" ry="18"/>
<text text-anchor="middle" x="38.5933" y="-136.8" font-family="Times,serif" font-size="14.00" fill="#000000">browser</text>
</g>
<!-- browser&#45;&gt;nginx&#45;otoroshi -->
<g id="edge19" class="edge">
<title>browser&#45;&gt;nginx&#45;otoroshi</title>
<path fill="none" stroke="#000000" d="M77.4221,-141C85.5131,-141 94.2876,-141 103.1482,-141"/>
<polygon fill="#000000" stroke="#000000" points="103.1569,-144.5001 113.1569,-141 103.1569,-137.5001 103.1569,-144.5001"/>
</g>
</g>
</svg>
