<?xml version="1.0" encoding="UTF-8" standalone="no"?>
<!DOCTYPE svg PUBLIC "-//W3C//DTD SVG 1.1//EN"
 "http://www.w3.org/Graphics/SVG/1.1/DTD/svg11.dtd">
<!-- Generated by graphviz version 2.40.1 (20161225.0304)
 -->
<!-- Title: basicsetup Pages: 1 -->
<svg width="690pt" height="266pt"
 viewBox="0.00 0.00 690.23 266.11" xmlns="http://www.w3.org/2000/svg" xmlns:xlink="http://www.w3.org/1999/xlink">
<g id="graph0" class="graph" transform="scale(1 1) rotate(0) translate(4 262.1098)">
<title>basicsetup</title>
<polygon fill="#ffffff" stroke="transparent" points="-4,4 -4,-262.1098 686.2325,-262.1098 686.2325,4 -4,4"/>
<!-- basicsetup&#45;prod&#45;1 -->
<g id="node1" class="node">
<title>basicsetup&#45;prod&#45;1</title>
<ellipse fill="#d3d3d3" stroke="#000000" cx="475.9409" cy="-148.1098" rx="73.4326" ry="18"/>
<text text-anchor="middle" x="475.9409" y="-143.9098" font-family="Times,serif" font-size="14.00" fill="#000000">basicsetup&#45;prod&#45;1</text>
</g>
<!-- pg&#45;prod -->
<g id="node2" class="node">
<title>pg&#45;prod</title>
<ellipse fill="#008bb9" stroke="#008bb9" cx="633.8198" cy="-194.1098" rx="38.211" ry="18"/>
<text text-anchor="middle" x="633.8198" y="-189.9098" font-family="Times,serif" font-size="14.00" fill="#ffffff">pg&#45;prod</text>
</g>
<!-- basicsetup&#45;prod&#45;1&#45;&gt;pg&#45;prod -->
<g id="edge1" class="edge">
<title>basicsetup&#45;prod&#45;1&#45;&gt;pg&#45;prod</title>
<path fill="none" stroke="#000000" d="M523.3098,-161.9114C544.9511,-168.2168 570.3826,-175.6266 591.39,-181.7474"/>
<polygon fill="#000000" stroke="#000000" points="590.4255,-185.1118 601.0054,-184.5489 592.3837,-178.3913 590.4255,-185.1118"/>
</g>
<!-- basicsetup&#45;prod&#45;2 -->
<g id="node3" class="node">
<title>basicsetup&#45;prod&#45;2</title>
<ellipse fill="#d3d3d3" stroke="#000000" cx="475.9409" cy="-240.1098" rx="73.4326" ry="18"/>
<text text-anchor="middle" x="475.9409" y="-235.9098" font-family="Times,serif" font-size="14.00" fill="#000000">basicsetup&#45;prod&#45;2</text>
</g>
<!-- basicsetup&#45;prod&#45;2&#45;&gt;pg&#45;prod -->
<g id="edge2" class="edge">
<title>basicsetup&#45;prod&#45;2&#45;&gt;pg&#45;prod</title>
<path fill="none" stroke="#000000" d="M523.3098,-226.3083C544.9511,-220.0029 570.3826,-212.5931 591.39,-206.4723"/>
<polygon fill="#000000" stroke="#000000" points="592.3837,-209.8284 601.0054,-203.6707 590.4255,-203.1079 592.3837,-209.8284"/>
</g>
<!-- nginx&#45;otoroshi -->
<g id="node4" class="node">
<title>nginx&#45;otoroshi</title>
<ellipse fill="#c45858" stroke="#c45858" cx="175.3697" cy="-121.1098" rx="62.3667" ry="18"/>
<text text-anchor="middle" x="175.3697" y="-116.9098" font-family="Times,serif" font-size="14.00" fill="#ffffff">nginx&#45;otoroshi</text>
</g>
<!-- otoroshi&#45;1 -->
<g id="node5" class="node">
<title>otoroshi&#45;1</title>
<ellipse fill="#f9b000" stroke="#f9b000" cx="320.0137" cy="-148.1098" rx="46.4218" ry="18"/>
<text text-anchor="middle" x="320.0137" y="-143.9098" font-family="Times,serif" font-size="14.00" fill="#000000">otoroshi&#45;1</text>
</g>
<!-- nginx&#45;otoroshi&#45;&gt;otoroshi&#45;1 -->
<g id="edge3" class="edge">
<title>nginx&#45;otoroshi&#45;&gt;otoroshi&#45;1</title>
<path fill="none" stroke="#000000" d="M227.9987,-130.9338C241.0011,-133.3609 254.9228,-135.9596 267.9005,-138.3821"/>
<polygon fill="#000000" stroke="#000000" points="267.598,-141.886 278.0704,-140.2805 268.8825,-135.0049 267.598,-141.886"/>
</g>
<!-- otoroshi&#45;2 -->
<g id="node6" class="node">
<title>otoroshi&#45;2</title>
<ellipse fill="#f9b000" stroke="#f9b000" cx="320.0137" cy="-94.1098" rx="46.4218" ry="18"/>
<text text-anchor="middle" x="320.0137" y="-89.9098" font-family="Times,serif" font-size="14.00" fill="#000000">otoroshi&#45;2</text>
</g>
<!-- nginx&#45;otoroshi&#45;&gt;otoroshi&#45;2 -->
<g id="edge4" class="edge">
<title>nginx&#45;otoroshi&#45;&gt;otoroshi&#45;2</title>
<path fill="none" stroke="#000000" d="M227.9987,-111.2858C241.0011,-108.8587 254.9228,-106.2601 267.9005,-103.8376"/>
<polygon fill="#000000" stroke="#000000" points="268.8825,-107.2148 278.0704,-101.9392 267.598,-100.3337 268.8825,-107.2148"/>
</g>
<!-- otoroshi&#45;1&#45;&gt;basicsetup&#45;prod&#45;1 -->
<g id="edge7" class="edge">
<title>otoroshi&#45;1&#45;&gt;basicsetup&#45;prod&#45;1</title>
<path fill="none" stroke="#000000" d="M366.797,-148.1098C374.8565,-148.1098 383.4482,-148.1098 392.1373,-148.1098"/>
<polygon fill="#000000" stroke="#000000" points="392.3561,-151.6099 402.3561,-148.1098 392.356,-144.6099 392.3561,-151.6099"/>
</g>
<!-- otoroshi&#45;1&#45;&gt;basicsetup&#45;prod&#45;2 -->
<g id="edge8" class="edge">
<title>otoroshi&#45;1&#45;&gt;basicsetup&#45;prod&#45;2</title>
<path fill="none" stroke="#000000" d="M339.847,-164.4471C356.0507,-177.3158 379.8875,-195.1801 402.4746,-208.1098 410.282,-212.5791 418.8326,-216.8322 427.2528,-220.6933"/>
<polygon fill="#000000" stroke="#000000" points="426.0981,-224.0103 436.6575,-224.8766 428.9431,-217.6145 426.0981,-224.0103"/>
</g>
<!-- elastic -->
<g id="node7" class="node">
<title>elastic</title>
<ellipse fill="#d3d3d3" stroke="#000000" cx="633.8198" cy="-40.1098" rx="32.8908" ry="18"/>
<text text-anchor="middle" x="633.8198" y="-35.9098" font-family="Times,serif" font-size="14.00" fill="#000000">elastic</text>
</g>
<!-- otoroshi&#45;1&#45;&gt;elastic -->
<g id="edge5" class="edge">
<title>otoroshi&#45;1&#45;&gt;elastic</title>
<path fill="none" stroke="#000000" d="M348.1403,-162.6682C394.718,-184.5233 488.7369,-218.8385 549.4072,-175.1098 590.4531,-145.5256 553.1264,-106.0708 585.4072,-67.1098 588.976,-62.8024 593.42,-59.0591 598.1578,-55.8458"/>
<polygon fill="#000000" stroke="#000000" points="600.0944,-58.7657 606.8775,-50.6269 596.4995,-52.7594 600.0944,-58.7657"/>
</g>
<!-- kibana -->
<g id="node8" class="node">
<title>kibana</title>
<ellipse fill="#d3d3d3" stroke="#000000" cx="475.9409" cy="-40.1098" rx="33.8596" ry="18"/>
<text text-anchor="middle" x="475.9409" y="-35.9098" font-family="Times,serif" font-size="14.00" fill="#000000">kibana</text>
</g>
<!-- otoroshi&#45;1&#45;&gt;kibana -->
<g id="edge6" class="edge">
<title>otoroshi&#45;1&#45;&gt;kibana</title>
<path fill="none" stroke="#000000" d="M349.4462,-133.7443C355.441,-130.09 361.445,-125.8389 366.4746,-121.1098 387.4888,-101.3512 379.8209,-84.9651 402.4746,-67.1098 411.8845,-59.6931 423.5274,-54.1825 434.749,-50.1447"/>
<polygon fill="#000000" stroke="#000000" points="436.0259,-53.4094 444.4352,-46.9646 433.8423,-46.7586 436.0259,-53.4094"/>
</g>
<!-- redis&#45;master -->
<g id="node9" class="node">
<title>redis&#45;master</title>
<ellipse fill="#ff0000" stroke="#ff0000" cx="475.9409" cy="-94.1098" rx="53.6299" ry="18"/>
<text text-anchor="middle" x="475.9409" y="-89.9098" font-family="Times,serif" font-size="14.00" fill="#ffffff">redis&#45;master</text>
</g>
<!-- otoroshi&#45;1&#45;&gt;redis&#45;master -->
<g id="edge16" class="edge">
<title>otoroshi&#45;1&#45;&gt;redis&#45;master</title>
<path fill="none" stroke="#000000" d="M355.0068,-135.9912C376.7879,-128.4481 405.0763,-118.6514 428.8165,-110.4297"/>
<polygon fill="#000000" stroke="#000000" points="430.0372,-113.711 438.3412,-107.1312 427.7465,-107.0964 430.0372,-113.711"/>
</g>
<!-- otoroshi&#45;2&#45;&gt;basicsetup&#45;prod&#45;1 -->
<g id="edge12" class="edge">
<title>otoroshi&#45;2&#45;&gt;basicsetup&#45;prod&#45;1</title>
<path fill="none" stroke="#000000" d="M355.0068,-106.2285C375.2769,-113.2484 401.1827,-122.2199 423.8138,-130.0574"/>
<polygon fill="#000000" stroke="#000000" points="422.6916,-133.3727 433.2864,-133.3379 424.9824,-126.7581 422.6916,-133.3727"/>
</g>
<!-- otoroshi&#45;2&#45;&gt;elastic -->
<g id="edge10" class="edge">
<title>otoroshi&#45;2&#45;&gt;elastic</title>
<path fill="none" stroke="#000000" d="M331.4848,-76.5004C345.5086,-56.7677 371.2701,-25.8721 402.4746,-13.1098 467.8162,13.6141 551.6289,-8.6683 598.331,-25.5447"/>
<polygon fill="#000000" stroke="#000000" points="597.1208,-28.8288 607.7135,-29.0443 599.5672,-22.2701 597.1208,-28.8288"/>
</g>
<!-- otoroshi&#45;2&#45;&gt;kibana -->
<g id="edge11" class="edge">
<title>otoroshi&#45;2&#45;&gt;kibana</title>
<path fill="none" stroke="#000000" d="M355.0068,-81.9912C379.6591,-73.4537 412.6473,-62.0294 437.9424,-53.2693"/>
<polygon fill="#000000" stroke="#000000" points="439.2675,-56.5144 447.5715,-49.9346 436.9768,-49.8998 439.2675,-56.5144"/>
</g>
<!-- otoroshi&#45;2&#45;&gt;redis&#45;master -->
<g id="edge17" class="edge">
<title>otoroshi&#45;2&#45;&gt;redis&#45;master</title>
<path fill="none" stroke="#000000" d="M366.797,-94.1098C380.9369,-94.1098 396.715,-94.1098 411.7825,-94.1098"/>
<polygon fill="#000000" stroke="#000000" points="412.0715,-97.6099 422.0715,-94.1098 412.0715,-90.6099 412.0715,-97.6099"/>
</g>
<!-- kibana&#45;&gt;elastic -->
<g id="edge15" class="edge">
<title>kibana&#45;&gt;elastic</title>
<path fill="none" stroke="#000000" d="M509.8099,-40.1098C533.5407,-40.1098 565.444,-40.1098 590.9484,-40.1098"/>
<polygon fill="#000000" stroke="#000000" points="591.0878,-43.6099 601.0878,-40.1098 591.0877,-36.6099 591.0878,-43.6099"/>
</g>
<!-- redis&#45;slave -->
<g id="node10" class="node">
<title>redis&#45;slave</title>
<ellipse fill="#ff0000" stroke="#ff0000" cx="633.8198" cy="-94.1098" rx="48.3255" ry="18"/>
<text text-anchor="middle" x="633.8198" y="-89.9098" font-family="Times,serif" font-size="14.00" fill="#ffffff">redis&#45;slave</text>
</g>
<!-- redis&#45;master&#45;&gt;redis&#45;slave -->
<g id="edge18" class="edge">
<title>redis&#45;master&#45;&gt;redis&#45;slave</title>
<path fill="none" stroke="#000000" d="M529.8323,-94.1098C544.4208,-94.1098 560.2826,-94.1098 575.1211,-94.1098"/>
<polygon fill="#000000" stroke="#000000" points="575.2023,-97.6099 585.2022,-94.1098 575.2022,-90.6099 575.2023,-97.6099"/>
</g>
<!-- browser -->
<g id="node11" class="node">
<title>browser</title>
<ellipse fill="#57bf57" stroke="#57bf57" cx="38.5933" cy="-121.1098" rx="38.6869" ry="18"/>
<text text-anchor="middle" x="38.5933" y="-116.9098" font-family="Times,serif" font-size="14.00" fill="#000000">browser</text>
</g>
<!-- browser&#45;&gt;nginx&#45;otoroshi -->
<g id="edge19" class="edge">
<title>browser&#45;&gt;nginx&#45;otoroshi</title>
<path fill="none" stroke="#000000" d="M77.4221,-121.1098C85.5131,-121.1098 94.2876,-121.1098 103.1482,-121.1098"/>
<polygon fill="#000000" stroke="#000000" points="103.1569,-124.6099 113.1569,-121.1098 103.1569,-117.6099 103.1569,-124.6099"/>
</g>
</g>
</svg>
